<svg id="_лой_1" data-name="‘лой_1" xmlns="http://www.w3.org/2000/svg" viewBox="0 0 2556.33 1458.73"><defs><style>.cls-1{fill:#ebf3fa;}.cls-2,.cls-3{fill:#cddff9;}.cls-2{opacity:0.4;}.cls-4{fill:#dfebfd;}.cls-27,.cls-5{opacity:0.5;}.cls-6{fill:#aac9f5;}.cls-7{fill:#cde0fb;}.cls-8{fill:#2b478b;}.cls-9{fill:#dde7fe;}.cls-10{fill:#aec3ff;}.cls-11{fill:#233862;}.cls-12{fill:#ffb27d;}.cls-13{fill:#ed985f;}.cls-14{fill:#2c3a64;}.cls-15{fill:#f99746;}.cls-16{fill:#fff;}.cls-17{fill:#cfdeff;}.cls-18{fill:#1f1f89;}.cls-19{fill:#f78248;}.cls-20{fill:#f77d48;}.cls-21{fill:#ffb93e;}.cls-22{fill:#ffa412;}.cls-23{fill:#ffeddc;}.cls-24{fill:#db6a1d;}.cls-25{fill:#e5c1a1;}.cls-26{fill:#f9ddbf;}.cls-27,.cls-28{fill:#e2810e;}.cls-29{fill:#ed7d2b;}.cls-30{fill:#ed975d;}.cls-31{fill:#8ea3ed;}.cls-32{fill:#2a539b;}.cls-33{fill:#4075c1;}.cls-34{fill:#163560;}.cls-35{fill:#d35b31;}.cls-36{fill:#e8945b;}.cls-37{fill:#2e3552;}</style></defs><title>cost-estimation-hero</title><path class="cls-1" d="M356.49,1724.17S71,1450.93,360.56,1055.35C619.28,701.9,426.1,533,691.64,360.79c268.41-174.09,496.79-68.05,753.71,66.53s611.73-187.6,995.07-16.32,328.23,433.1,233.41,702.29c-80,227.23,163.36,391.43,30.59,611.27C2704.42,1724.56,348.33,1716,356.49,1724.17Z" transform="translate(-224.64 -269.85)"/><path class="cls-2" d="M1828.14,732.38s40.42-169.47,175.43-187.78c0,0,26.26-3.16,34.94,25.77s-43.54,29-75.84,40.57S1855,671.62,1828.14,732.38Z" transform="translate(-224.64 -269.85)"/><path class="cls-2" d="M1830.62,764.5S1908,608.42,2043.7,620.86c0,0,26.3,2.81,28.27,32.95s-48.94,18.51-83,22.52S1870.43,711.31,1830.62,764.5Z" transform="translate(-224.64 -269.85)"/><path class="cls-3" d="M2238,1414.52s40.41-169.47,175.42-187.78c0,0,26.27-3.16,34.94,25.77s-43.53,29-75.83,40.57S2264.91,1353.76,2238,1414.52Z" transform="translate(-224.64 -269.85)"/><path class="cls-4" d="M2242.4,1358.93s-22.16-172.8,97.64-237.7c0,0,23.45-12.25,41.8,11.75s-30.46,42.54-56.58,64.77S2246,1292.59,2242.4,1358.93Z" transform="translate(-224.64 -269.85)"/><path class="cls-4" d="M2647.62,1394.65c-15.22-64.66-124.16-48.28-124.16-48.28S2446.16,1456,2424.69,1458s47.75-106.65,47.75-106.65c-41.3-5.4-148.61,41.77-148.61,41.77s2.28,131.05-19,127.66,3.92-116.14,3.92-116.14c-40.51,10.66-79.51,56.13-79.51,56.13-49.34,74.52,49,134,49,134s-.19,45.44-30,96.56h0s-6.66,9.4-13.65,25.52l10.93.37c1-2.9,2.07-5.7,3.25-8.38,0,0,0,0,0,0l0-.11c.8-1.66,2-4,3.4-6.91h0c3.56-6.42,6-11.17,7.53-14.6,0,0,0,0,0,0,10.7-20.16,26-46.38,35.82-51.66a21.26,21.26,0,0,1-2.17-5.08l2.17,5.08c17.36,40.68,110.7,50.51,163.19,41.59s30.26-24.38,3-49.16-86.29-20.47-103.35-30.4,8.65-18.42,43.31-14.58,50.87,39.13,106.83,46.36,102.29-96.79,102.29-96.79c-39.17,10.71-108-13-110.18-26.43s100.65-8.64,116.83-12.1S2662.83,1459.32,2647.62,1394.65Z" transform="translate(-224.64 -269.85)"/><path class="cls-4" d="M644.29,825.69C659.51,761,768.45,777.4,768.45,777.4S845.74,887.07,867.22,889s-47.75-106.65-47.75-106.65c41.3-5.4,148.6,41.77,148.6,41.77s-2.27,131.05,19,127.66-3.91-116.14-3.91-116.14c40.5,10.66,79.5,56.13,79.5,56.13,49.35,74.52-49,134-49,134s.19,45.44,30,96.56h0s6.66,9.4,13.65,25.52l-10.93.37c-1-2.9-2.08-5.7-3.26-8.38,0,0,0,0,0,0a1.17,1.17,0,0,1-.05-.11c-.81-1.66-2-4-3.4-6.91h0c-3.56-6.42-6-11.17-7.52-14.6a0,0,0,0,1,0,0c-10.7-20.17-26-46.39-35.82-51.67a21.26,21.26,0,0,0,2.17-5.08c-.69,1.62-1.42,3.31-2.17,5.08-17.37,40.68-110.71,50.51-163.19,41.59s-30.27-24.38-3-49.16,86.29-20.48,103.35-30.4-8.65-18.42-43.31-14.58-50.87,39.13-106.83,46.36-102.28-96.79-102.28-96.79c39.16,10.71,108-13,110.17-26.43s-100.65-8.64-116.82-12.1S629.07,890.36,644.29,825.69Z" transform="translate(-224.64 -269.85)"/><path class="cls-4" d="M1306.83,509.64c32-61.27,137.59-16.73,137.59-16.73s49.69,130.45,70.84,137.94-20.69-119.8-20.69-119.8c43,5.18,139,80.35,139,80.35s-36,131.53-13.68,133.6,26-118.1,26-118.1c38.09,21.18,65.7,77.05,65.7,77.05,30.57,87.82-83.89,122.43-83.89,122.43s-11.5,45.85,5.41,105.06h0s4.29,11.19,7.19,29.24l-11.11-2.44c-.26-3.17-.63-6.27-1.13-9.28a0,0,0,0,0,0-.05.51.51,0,0,0,0-.13c-.38-1.89-.94-4.57-1.65-7.84h0v0c-1.94-7.38-3.15-12.79-3.83-16.65v0c-5.6-23.08-14.29-53.45-22.81-61.3a22.11,22.11,0,0,0,3.5-4.57l-3.5,4.57c-28,36.54-124.6,22.43-175.22-.08s-24.23-32.36,9.64-50.32,92.25,1.57,112-4-4-20.8-39.91-25.85S1444.9,789,1386.62,781.87s-78.2-123.9-78.2-123.9c36.73,20.88,112.17,14.69,117.87,1.71s-99.24-34.61-114.65-42.27S1274.84,570.91,1306.83,509.64Z" transform="translate(-224.64 -269.85)"/><g class="cls-5"><path class="cls-6" d="M2575.8,601.15l61.78,236.33a19.66,19.66,0,0,1-14,23.92L2209,969.77a19.66,19.66,0,0,1-23.92-14L2123.3,719.44a19.66,19.66,0,0,1,14-23.92l414.58-108.38A19.66,19.66,0,0,1,2575.8,601.15Z" transform="translate(-224.64 -269.85)"/><path class="cls-7" d="M2403.9,868.33l-110.49,28.88a8.82,8.82,0,0,1-10.73-6.28l-.27-1.06a8.8,8.8,0,0,1,6.27-10.72l110.5-28.88a8.81,8.81,0,0,1,10.72,6.28l.28,1.06A8.82,8.82,0,0,1,2403.9,868.33Z" transform="translate(-224.64 -269.85)"/><path class="cls-7" d="M2346.09,760.48a21.29,21.29,0,0,1,.48,10.45,9.62,9.62,0,0,1-16.37,4.28,25.23,25.23,0,0,1-5.21-19.75,9.7,9.7,0,0,1,16.45-4.3A21.35,21.35,0,0,1,2346.09,760.48Zm-5.08,1.31a21.1,21.1,0,0,0-2.52-6.15c-1.56-2.34-3.33-3.25-5.34-2.73s-3.17,2.19-3.36,5a20.29,20.29,0,0,0,.78,6.64q2.68,10.31,7.95,8.93,3-.8,3.31-5A20.75,20.75,0,0,0,2341,761.79Z" transform="translate(-224.64 -269.85)"/><path class="cls-7" d="M2368.77,754.55a21.18,21.18,0,0,1,.49,10.45,9.63,9.63,0,0,1-16.38,4.28,25.27,25.27,0,0,1-5.2-19.75,9.69,9.69,0,0,1,16.45-4.3A21.28,21.28,0,0,1,2368.77,754.55Zm-5.07,1.31a21.1,21.1,0,0,0-2.52-6.15q-2.34-3.51-5.34-2.73t-3.36,5a20.52,20.52,0,0,0,.77,6.64q2.7,10.3,8,8.93,3-.79,3.31-5A20.75,20.75,0,0,0,2363.7,755.86Z" transform="translate(-224.64 -269.85)"/><path class="cls-7" d="M2403.16,745.56a21.32,21.32,0,0,1,.48,10.46,9.62,9.62,0,0,1-16.37,4.27,25.23,25.23,0,0,1-5.21-19.75,9.7,9.7,0,0,1,16.45-4.3A21.45,21.45,0,0,1,2403.16,745.56Zm-5.08,1.31a20.91,20.91,0,0,0-2.52-6.14q-2.34-3.53-5.34-2.74c-2,.54-3.17,2.19-3.36,5a20.26,20.26,0,0,0,.78,6.64q2.68,10.3,8,8.93c2-.53,3.13-2.2,3.31-5A20.82,20.82,0,0,0,2398.08,746.87Z" transform="translate(-224.64 -269.85)"/><path class="cls-7" d="M2425.84,739.63a21.18,21.18,0,0,1,.49,10.45,9.63,9.63,0,0,1-16.38,4.28,25.27,25.27,0,0,1-5.2-19.75,9.7,9.7,0,0,1,16.45-4.3A21.34,21.34,0,0,1,2425.84,739.63Zm-5.07,1.31a20.91,20.91,0,0,0-2.52-6.14q-2.34-3.52-5.34-2.74c-2,.54-3.17,2.19-3.36,5a20.49,20.49,0,0,0,.77,6.64q2.7,10.3,8,8.93,3-.79,3.31-5A21.11,21.11,0,0,0,2420.77,740.94Z" transform="translate(-224.64 -269.85)"/><path class="cls-7" d="M2448.53,733.7a21.17,21.17,0,0,1,.48,10.45,9.62,9.62,0,0,1-16.37,4.28,25.27,25.27,0,0,1-5.2-19.75,9.7,9.7,0,0,1,16.45-4.3A21.34,21.34,0,0,1,2448.53,733.7Zm-5.07,1.31a20.91,20.91,0,0,0-2.52-6.14q-2.34-3.52-5.34-2.74c-2.06.54-3.18,2.19-3.37,5a20.26,20.26,0,0,0,.78,6.64q2.7,10.31,8,8.93,3-.79,3.3-5A21,21,0,0,0,2443.46,735Z" transform="translate(-224.64 -269.85)"/><path class="cls-7" d="M2471.22,727.77a21.29,21.29,0,0,1,.48,10.45,9.62,9.62,0,0,1-16.37,4.28,25.23,25.23,0,0,1-5.21-19.75,9.7,9.7,0,0,1,16.45-4.3A21.24,21.24,0,0,1,2471.22,727.77Zm-5.07,1.31a21.1,21.1,0,0,0-2.53-6.15q-2.32-3.51-5.33-2.73c-2.06.54-3.18,2.19-3.37,5a20.26,20.26,0,0,0,.78,6.64q2.7,10.31,8,8.93c2-.53,3.13-2.21,3.3-5A21,21,0,0,0,2466.15,729.08Z" transform="translate(-224.64 -269.85)"/><path class="cls-7" d="M2505.6,718.78a21.33,21.33,0,0,1,.48,10.46,9.63,9.63,0,0,1-16.37,4.28,25.37,25.37,0,0,1-5.21-19.76,9.7,9.7,0,0,1,16.46-4.3A21.4,21.4,0,0,1,2505.6,718.78Zm-5.07,1.31A20.75,20.75,0,0,0,2498,714q-2.33-3.53-5.33-2.74c-2.06.54-3.18,2.19-3.37,5a20.23,20.23,0,0,0,.78,6.64q2.7,10.3,8,8.93,3-.78,3.3-5A21.06,21.06,0,0,0,2500.53,720.09Z" transform="translate(-224.64 -269.85)"/><path class="cls-7" d="M2528.29,712.85a21.33,21.33,0,0,1,.48,10.46,9.63,9.63,0,0,1-16.37,4.28,25.26,25.26,0,0,1-5.21-19.76,9.7,9.7,0,0,1,16.45-4.3A21.35,21.35,0,0,1,2528.29,712.85Zm-5.08,1.31a21,21,0,0,0-2.52-6.14c-1.56-2.35-3.33-3.26-5.33-2.74s-3.18,2.19-3.37,5a20.26,20.26,0,0,0,.78,6.64q2.68,10.3,7.95,8.93c2-.53,3.13-2.2,3.31-5A20.82,20.82,0,0,0,2523.21,714.16Z" transform="translate(-224.64 -269.85)"/><path class="cls-7" d="M2551,706.92a21.18,21.18,0,0,1,.49,10.45,9.62,9.62,0,0,1-16.37,4.28,25.23,25.23,0,0,1-5.21-19.75,9.7,9.7,0,0,1,16.45-4.3A21.34,21.34,0,0,1,2551,706.92Zm-5.07,1.31a20.91,20.91,0,0,0-2.52-6.14q-2.34-3.52-5.34-2.74c-2.05.54-3.17,2.19-3.36,5a20.26,20.26,0,0,0,.78,6.64q2.68,10.31,7.95,8.93c2-.53,3.13-2.2,3.31-5A20.82,20.82,0,0,0,2545.9,708.23Z" transform="translate(-224.64 -269.85)"/><path class="cls-7" d="M2573.66,701a21.18,21.18,0,0,1,.49,10.45,9.63,9.63,0,0,1-16.38,4.28,25.27,25.27,0,0,1-5.2-19.75,9.7,9.7,0,0,1,16.45-4.3A21.34,21.34,0,0,1,2573.66,701Zm-5.07,1.31a20.91,20.91,0,0,0-2.52-6.14q-2.34-3.52-5.34-2.74c-2.05.54-3.17,2.19-3.37,5a20.81,20.81,0,0,0,.78,6.64q2.7,10.31,8,8.93,3-.8,3.31-5A21.11,21.11,0,0,0,2568.59,702.3Z" transform="translate(-224.64 -269.85)"/><path class="cls-7" d="M2274.51,698.24l-108.13,28.27a8.81,8.81,0,0,1-10.72-6.28h0a8.8,8.8,0,0,1,6.27-10.72l108.14-28.27a8.82,8.82,0,0,1,10.72,6.28h0A8.81,8.81,0,0,1,2274.51,698.24Z" transform="translate(-224.64 -269.85)"/><path class="cls-7" d="M2536.1,649.19a13.47,13.47,0,0,0-5-7.41,1.44,1.44,0,0,0-2.11.44l-.37.65a1.4,1.4,0,0,0,.37,1.84,9.87,9.87,0,0,1,3.1,11.87,1.42,1.42,0,0,0,.58,1.79l.64.39a1.45,1.45,0,0,0,2.06-.65A13.44,13.44,0,0,0,2536.1,649.19Z" transform="translate(-224.64 -269.85)"/><path class="cls-7" d="M2543.11,647.36a20.59,20.59,0,0,0-8.48-11.93,1.42,1.42,0,0,0-2,.49l-.21.36a1.44,1.44,0,0,0,.46,1.91,17.41,17.41,0,0,1,5.8,22.19,1.43,1.43,0,0,0,.54,1.89l.36.21a1.42,1.42,0,0,0,2-.56A20.69,20.69,0,0,0,2543.11,647.36Z" transform="translate(-224.64 -269.85)"/><path class="cls-7" d="M2549.24,645.76a27,27,0,0,0-11.45-15.86,1.43,1.43,0,0,0-2,.5h0a1.42,1.42,0,0,0,.46,1.91,24.16,24.16,0,0,1,8.24,31.54,1.43,1.43,0,0,0,.54,1.9h0a1.43,1.43,0,0,0,2-.56A26.91,26.91,0,0,0,2549.24,645.76Z" transform="translate(-224.64 -269.85)"/><path class="cls-7" d="M2555.9,644a33.8,33.8,0,0,0-14.69-20.08,1.43,1.43,0,0,0-2,.5l-.37.63a1.43,1.43,0,0,0,.48,1.92,30.32,30.32,0,0,1,10.45,40,1.43,1.43,0,0,0,.53,1.91l.63.38a1.44,1.44,0,0,0,2-.56A33.79,33.79,0,0,0,2555.9,644Z" transform="translate(-224.64 -269.85)"/></g><rect class="cls-8" x="674.12" y="500.4" width="1367.28" height="928.25" rx="33.78"/><rect class="cls-9" x="704.95" y="532.83" width="1305.6" height="886.38"/><rect class="cls-8" x="511.54" y="1392.58" width="1692.42" height="59.42" rx="24.29"/><rect class="cls-10" x="704.95" y="532.83" width="1305.6" height="862.83"/><path class="cls-11" d="M494.16,1726.19s0-12.77,1.92-17,9-21.54,9-21.54H532.7s5.14,15.77,5.46,20.93,0,17.63,0,17.63Z" transform="translate(-224.64 -269.85)"/><path class="cls-11" d="M669.52,1726.19s0-12.77-1.92-17-9-21.54-9-21.54H631s-5.13,15.77-5.46,20.93,0,17.63,0,17.63Z" transform="translate(-224.64 -269.85)"/><path class="cls-12" d="M558.87,1009.17s-1,28.44-4.83,41.19l-30.5,20.1,114.82,16.23L611,1051s-8.27-38.14-3.93-52.25S558.87,1009.17,558.87,1009.17Z" transform="translate(-224.64 -269.85)"/><path class="cls-13" d="M558.7,1013.1s9.08,20.65,26.19,20.19,21-18.73,21-18.73Z" transform="translate(-224.64 -269.85)"/><path class="cls-14" d="M548.5,996.38s-5.53-26-9.38-33.94-7.07-43.09,35.65-44.91c0,0,16.38,1.82,25.37-3.33,0,0,0,5.15-2.25,7A29.51,29.51,0,0,1,624.23,930c11.56,12.14-7.71,54.62-6.75,64.63Z" transform="translate(-224.64 -269.85)"/><path class="cls-12" d="M582.93,1025.31c-12.4-.2-35.2-15.79-35.2-35.1V960.09c0-7.05,5.2-12.82,11.56-12.82h47.27c6.36,0,11.57,5.77,11.57,12.82v28.42C618.13,1008.75,597.14,1025.55,582.93,1025.31Z" transform="translate(-224.64 -269.85)"/><path class="cls-14" d="M547.73,976.17s.06-18.1,15.24-20.88,49.13,8.82,53.95-4.38-65.65-13-69.19-4.55S547.73,976.17,547.73,976.17Z" transform="translate(-224.64 -269.85)"/><path class="cls-8" d="M497.62,1283.78s4.83,139.41-2.39,219,0,190.25,0,190.25,23.11,12,48.16,0c0,0,27.47-153.68,27.3-190.25-.19-39,29.9-212.88,29.9-212.88Z" transform="translate(-224.64 -269.85)"/><path class="cls-8" d="M668.53,1693s-23.11,12-48.16,0c0,0-27.47-153.67-27.3-190.24.08-16.45-5.24-57-11.41-98.31-8.45-56.54-18.49-114.57-18.49-114.57l107-6.32s-8.82,139.66-1.6,219.2S668.53,1693,668.53,1693Z" transform="translate(-224.64 -269.85)"/><path class="cls-15" d="M668.9,1307s-45.62,8.35-87.24,8.35c-18.15,0-37.88-1.88-53.58-3.87-17.36-2.17-29.81-4.48-29.81-4.48s-9.25.77-3.79-42.31c4.15-32.79,2.85-62.4,1.93-92.85-.11-3.39,0-7.39.19-11.85,1.77-35.51,13.14-99.44,21.8-102.88,0,0,12.89-4.52,35.64-6.72,0,.42,13.21,18.66,28.89,20.71,9.74-3.64,17.39-6.75,28.05-20.12a320.09,320.09,0,0,1,44,8s1.64,6.77,7.82,124.27C665.22,1229.77,682,1307.13,668.9,1307Z" transform="translate(-224.64 -269.85)"/><path class="cls-11" d="M593.07,1502.74c.08-16.45-5.24-57-11.41-98.31,6.4-24.69,22-48.45,22-48.45C623.42,1408.32,593.07,1502.74,593.07,1502.74Z" transform="translate(-224.64 -269.85)"/><path class="cls-15" d="M454.25,1197c-1.09.85,2.7,9.74,8.29,21.32,11.51,23.78,30.61,58.91,30.61,58.91a100,100,0,0,1-5.8,16c-32.14-23.86-52.86-44.16-66.09-59.72-18.6-21.9-22.41-34.45-22.41-34.45,71.56-137.63,121.93-142.71,121.93-142.71l-5.95,91S457.56,1194.35,454.25,1197Z" transform="translate(-224.64 -269.85)"/><path class="cls-12" d="M489.34,1278.91s17.34-15.17,24.41-6.67,8.35,21.84,2.89,20.93-16.7-5.76-18.31-3.33-8.8,7.06-11,3.38S489.34,1278.91,489.34,1278.91Z" transform="translate(-224.64 -269.85)"/><path class="cls-12" d="M493.15,1277.18a100,100,0,0,1-5.8,16c-32.14-23.86-52.86-44.16-66.09-59.72,10-.71,24.53-4.07,41.28-15.23C474.05,1242.05,493.15,1277.18,493.15,1277.18Z" transform="translate(-224.64 -269.85)"/><path class="cls-15" d="M769.57,1199.05s-3.82,12.55-22.41,34.45c-13.23,15.56-34,35.86-66.1,59.72a101.18,101.18,0,0,1-5.8-16s19.11-35.13,30.61-58.91c5.59-11.58,9.38-20.47,8.3-21.32-2.58-2-37.56-30.74-53.17-43.55l-7.42-6.1L650,1057.7S698,1061.42,769.57,1199.05Z" transform="translate(-224.64 -269.85)"/><path class="cls-12" d="M679.07,1278.91s-17.34-15.17-24.41-6.67-8.35,21.84-2.89,20.93,16.7-5.76,18.31-3.33,8.8,7.06,11,3.38S679.07,1278.91,679.07,1278.91Z" transform="translate(-224.64 -269.85)"/><path class="cls-12" d="M675.26,1277.18a100,100,0,0,0,5.8,16c32.14-23.86,52.86-44.16,66.09-59.72-10-.71-24.53-4.07-41.28-15.23C694.36,1242.05,675.26,1277.18,675.26,1277.18Z" transform="translate(-224.64 -269.85)"/><path class="cls-8" d="M555.64,1043.42a11.79,11.79,0,0,0-6.54,7.47s20.45,19.87,33.83,20.18Z" transform="translate(-224.64 -269.85)"/><path class="cls-8" d="M582.93,1071.07l26.39-28.65s5.45,3.39,5.37,9C614.69,1051.38,594.28,1071.83,582.93,1071.07Z" transform="translate(-224.64 -269.85)"/><path class="cls-8" d="M578.17,1069S558,1233.26,565,1253.29a133.67,133.67,0,0,0,12.29,25.46,7.36,7.36,0,0,0,12.36,0C595,1270,602,1257.25,602,1250.8c0-10.44-15.29-182-15.29-182Z" transform="translate(-224.64 -269.85)"/><path class="cls-8" d="M572.9,1060.9s12.17-1.15,19.59-.44a1.93,1.93,0,0,1,1.57,2.88c-2.08,3.54-6.32,9.66-10.75,9.66C577.08,1073,567.38,1061.31,572.9,1060.9Z" transform="translate(-224.64 -269.85)"/><path class="cls-16" d="M573.05,1005.91a13.77,13.77,0,0,0,10.6,4.75,12.74,12.74,0,0,0,9.91-4.75S582.19,1004.15,573.05,1005.91Z" transform="translate(-224.64 -269.85)"/><rect class="cls-17" x="1012.54" y="432.27" width="844.37" height="899.18"/><rect class="cls-8" x="1456.52" y="1169.61" width="161.38" height="10.44" rx="0.25"/><rect class="cls-8" x="1456.52" y="1145.88" width="201.36" height="10.44" rx="0.24"/><rect class="cls-10" x="1085.78" y="584.11" width="697.88" height="491.01"/><rect class="cls-18" x="1249.43" y="556.4" width="1.12" height="518.72"/><rect class="cls-18" x="1686.44" y="556.4" width="1.12" height="518.72"/><rect class="cls-18" x="1323.64" y="556.4" width="1.12" height="518.72"/><rect class="cls-18" x="1085.78" y="983.25" width="697.88" height="1.12"/><rect class="cls-18" x="1085.78" y="880.49" width="697.88" height="1.12"/><rect class="cls-18" x="1085.78" y="777.73" width="697.88" height="1.12"/><rect class="cls-18" x="1085.78" y="674.97" width="697.88" height="1.12"/><rect class="cls-19" x="1085.78" y="495.32" width="697.88" height="99.64"/><path class="cls-20" d="M1942.43,1516.89c-15.73,4.81-31.08,7.32-43.15,6.38-18.4-1.45-28.75-10.55-29.16-25.64-.33-12,4.93-22.45,15.24-31-.1-.81-.18-1.63-.25-2.45-.68-8.44,1.23-14,5.67-16.66,7.19-4.23,17.86,1.56,18.31,1.8l-2.39,3.86c-2.39-1.32-9.49-4.21-13.42-1.88-3.39,2-3.8,7.53-3.5,12,8.39-5.74,19.35-10.42,32.71-13.83a185.22,185.22,0,0,1,30.82-5,26.57,26.57,0,0,1,.26-2.76c.33-2.07,1.09-4.49,3.25-5,.81-.17,2.4-.15,3.81,1.88a10.25,10.25,0,0,1,1.44,5.42c3.43-.07,6.61,0,9.43.18l.08-.17a48.26,48.26,0,0,1,.72-15.54c1.2-5.17,3.16-7.78,5.91-8a3.63,3.63,0,0,1,3.75,2.19c1.54,3.5-1.35,13-5.53,22a.11.11,0,0,1,0,0c3.92.63,6.58,1.65,7.42,3.08a3.21,3.21,0,0,1-.95,4.19c-3.17,2.75-5.69,2.06-6.92,1.4a6.57,6.57,0,0,1-2.53-2.74c-3.16,5.91-6.6,11-9.31,13.1a4.87,4.87,0,0,1-5.5.75,5,5,0,0,1-1.19-.9,60.9,60.9,0,0,1-3.6,7c-4.94,8.2-10.51,12.41-16.1,12.16a9.36,9.36,0,0,1-6-2.52,81.7,81.7,0,0,1-10.84,16.83c-3.93,4.58-8.93,6.25-14.11,4.73-9.17-2.71-17.46-15.23-20.56-30.07-7.84,7.24-11.65,15.81-11.38,25.63.35,12.86,8.71,20,24.83,21.3,40.71,3.2,112.08-32.54,117.49-58.84h0C2012.76,1481.37,1978.89,1505.73,1942.43,1516.89Zm-52.06-48.42c2.48,15.65,10.77,27.15,17.81,29.23,3.31,1,6.35-.14,9-3.28a75.88,75.88,0,0,0,11.38-18.37,25.77,25.77,0,0,1-2-5.82c-1.14-5.16-1.32-12.24,0-17.1a125,125,0,0,0-22.28,7.33A73.47,73.47,0,0,0,1890.37,1468.47Zm43.45,7.32a5.45,5.45,0,0,0,4.16,2.67c3.57.14,7.88-3.46,11.78-9.91a57.09,57.09,0,0,0,4.87-10.4,41.8,41.8,0,0,1-1.33-9.07c-5.24.4-10.94,1.06-16.82,2.07C1939.54,1456.78,1937.77,1466.3,1933.82,1475.79Zm25.74-17.56c.73,2.1,1.4,2.51,1.4,2.51,2.64-2.14,5.66-6.79,8.4-12.07-2.24-.08-4.77-.09-7.52,0A51.75,51.75,0,0,1,1959.56,1458.23Zm-27.73-5.73c-1.2,2.36-2.07,9.94-.61,16.68C1933.59,1461.79,1934.08,1455.39,1931.83,1452.5Zm46.52-2.85h0Zm-.7-22.9a25.68,25.68,0,0,0-1.12,4.67A35,35,0,0,0,1977.65,1426.75Z" transform="translate(-224.64 -269.85)"/><path class="cls-1" d="M1364.76,797.22H1371v35.54h-6.24Z" transform="translate(-224.64 -269.85)"/><path class="cls-1" d="M1380.49,797.22h5.79l19,24.57V797.22h6.14v35.54h-5.23l-19.59-25.29v25.29h-6.15Z" transform="translate(-224.64 -269.85)"/><path class="cls-1" d="M1417.55,797.22h6.91l10.71,27.31,10.66-27.31h6.75L1437.81,833h-5.48Z" transform="translate(-224.64 -269.85)"/><path class="cls-1" d="M1454.92,815a18.58,18.58,0,1,1,18.53,18.38A18.21,18.21,0,0,1,1454.92,815Zm30.61,0c0-6.91-5-12.64-12.08-12.64s-12,5.63-12,12.64,5,12.64,12.08,12.64S1485.53,822,1485.53,815Z" transform="translate(-224.64 -269.85)"/><path class="cls-1" d="M1500,797.22h6.25v35.54H1500Z" transform="translate(-224.64 -269.85)"/><path class="cls-1" d="M1514.16,815a18,18,0,0,1,18.33-18.38,18.51,18.51,0,0,1,13.91,5.53l-4,4.62c-2.84-2.64-5.89-4.41-10-4.41-6.8,0-11.73,5.58-11.73,12.64s4.93,12.64,11.73,12.64c4.37,0,7.16-1.78,10.2-4.62l4,4.06c-3.71,3.86-7.77,6.3-14.42,6.3C1521.88,833.37,1514.16,825.29,1514.16,815Z" transform="translate(-224.64 -269.85)"/><path class="cls-1" d="M1553.2,797.22h26.35v5.58h-20.1V812h17.82v5.59h-17.82v9.54h20.36v5.59H1553.2Z" transform="translate(-224.64 -269.85)"/><path class="cls-20" d="M1183.86,1724.05l-356.68-2.22a28.79,28.79,0,0,1-28.61-29L800.9,1318a28.79,28.79,0,0,1,29-28.61l356.68,2.22a28.79,28.79,0,0,1,28.61,29l-2.33,374.89A28.79,28.79,0,0,1,1183.86,1724.05Z" transform="translate(-224.64 -269.85)"/><path class="cls-10" d="M1178.46,1389.73l-341.72-2.12a12.66,12.66,0,0,1-12.58-12.74l.27-43.39a12.65,12.65,0,0,1,12.74-12.58l341.72,2.12a12.67,12.67,0,0,1,12.58,12.74l-.27,43.39A12.66,12.66,0,0,1,1178.46,1389.73Z" transform="translate(-224.64 -269.85)"/><path class="cls-8" d="M951.06,1556.81l-29.25-.18a13.24,13.24,0,0,1-13.16-13.32l.19-29.25a13.23,13.23,0,0,1,13.31-13.16l29.26.18a13.23,13.23,0,0,1,13.15,13.32l-.18,29.26A13.23,13.23,0,0,1,951.06,1556.81Z" transform="translate(-224.64 -269.85)"/><path class="cls-8" d="M950.64,1625.2l-29.26-.18a13.23,13.23,0,0,1-13.15-13.32l.18-29.26a13.23,13.23,0,0,1,13.32-13.15l29.25.18a13.25,13.25,0,0,1,13.16,13.32l-.18,29.26A13.23,13.23,0,0,1,950.64,1625.2Z" transform="translate(-224.64 -269.85)"/><path class="cls-8" d="M950.21,1693.59,921,1693.4a13.23,13.23,0,0,1-13.16-13.31l.19-29.26a13.22,13.22,0,0,1,13.31-13.15l29.26.18a13.23,13.23,0,0,1,13.15,13.32l-.18,29.25A13.24,13.24,0,0,1,950.21,1693.59Z" transform="translate(-224.64 -269.85)"/><path class="cls-8" d="M1024.71,1557.27l-29.25-.18a13.24,13.24,0,0,1-13.16-13.32l.18-29.26a13.25,13.25,0,0,1,13.32-13.15l29.26.18a13.23,13.23,0,0,1,13.15,13.32l-.18,29.26A13.23,13.23,0,0,1,1024.71,1557.27Z" transform="translate(-224.64 -269.85)"/><path class="cls-8" d="M1024.29,1625.66l-29.26-.18a13.23,13.23,0,0,1-13.15-13.32l.18-29.26a13.23,13.23,0,0,1,13.32-13.15l29.25.18a13.24,13.24,0,0,1,13.16,13.32l-.19,29.25A13.23,13.23,0,0,1,1024.29,1625.66Z" transform="translate(-224.64 -269.85)"/><path class="cls-8" d="M1023.86,1694l-29.26-.18a13.23,13.23,0,0,1-13.15-13.32l.18-29.25A13.25,13.25,0,0,1,995,1638.13l29.26.19a13.22,13.22,0,0,1,13.15,13.31l-.18,29.26A13.23,13.23,0,0,1,1023.86,1694Z" transform="translate(-224.64 -269.85)"/><path class="cls-8" d="M1095.3,1626.1l-29.25-.18a13.25,13.25,0,0,1-13.16-13.32l.18-29.26a13.23,13.23,0,0,1,13.32-13.15l29.26.18a13.23,13.23,0,0,1,13.15,13.32l-.18,29.26A13.23,13.23,0,0,1,1095.3,1626.1Z" transform="translate(-224.64 -269.85)"/><path class="cls-8" d="M1094.88,1694.49l-29.26-.19a13.22,13.22,0,0,1-13.15-13.31l.18-29.26a13.23,13.23,0,0,1,13.32-13.15l29.25.18a13.24,13.24,0,0,1,13.16,13.32l-.18,29.25A13.25,13.25,0,0,1,1094.88,1694.49Z" transform="translate(-224.64 -269.85)"/><path class="cls-15" d="M881.2,1476.08,852,1475.9a13.24,13.24,0,0,1-13.16-13.32l.11-17.35a13.23,13.23,0,0,1,13.32-13.15l29.26.18a13.23,13.23,0,0,1,13.15,13.32l-.11,17.35A13.23,13.23,0,0,1,881.2,1476.08Z" transform="translate(-224.64 -269.85)"/><path class="cls-15" d="M880.76,1547.79l-29.26-.18a13.23,13.23,0,0,1-13.15-13.32l.11-17.35a13.23,13.23,0,0,1,13.31-13.16L881,1504a13.22,13.22,0,0,1,13.15,13.31l-.1,17.36A13.24,13.24,0,0,1,880.76,1547.79Z" transform="translate(-224.64 -269.85)"/><path class="cls-15" d="M880.31,1619.49l-29.25-.18A13.24,13.24,0,0,1,837.9,1606l.11-17.35a13.23,13.23,0,0,1,13.32-13.15l29.25.18A13.25,13.25,0,0,1,893.74,1589l-.11,17.35A13.23,13.23,0,0,1,880.31,1619.49Z" transform="translate(-224.64 -269.85)"/><path class="cls-15" d="M879.87,1691.2l-29.26-.18a13.23,13.23,0,0,1-13.15-13.32l.1-17.35a13.25,13.25,0,0,1,13.32-13.16l29.26.19a13.22,13.22,0,0,1,13.15,13.31l-.11,17.35A13.23,13.23,0,0,1,879.87,1691.2Z" transform="translate(-224.64 -269.85)"/><path class="cls-15" d="M951.49,1488.43l-29.26-.18a13.23,13.23,0,0,1-13.15-13.32l.18-29.26a13.23,13.23,0,0,1,13.32-13.15l29.26.18A13.23,13.23,0,0,1,965,1446l-.18,29.25A13.25,13.25,0,0,1,951.49,1488.43Z" transform="translate(-224.64 -269.85)"/><path class="cls-15" d="M1025.14,1488.88l-29.26-.18a13.23,13.23,0,0,1-13.15-13.32l.18-29.25A13.24,13.24,0,0,1,996.23,1433l29.25.19a13.24,13.24,0,0,1,13.16,13.31l-.19,29.26A13.22,13.22,0,0,1,1025.14,1488.88Z" transform="translate(-224.64 -269.85)"/><path class="cls-15" d="M1096.15,1489.33l-29.25-.19a13.23,13.23,0,0,1-13.16-13.31l.18-29.26a13.23,13.23,0,0,1,13.32-13.15l29.26.18a13.23,13.23,0,0,1,13.15,13.32l-.18,29.25A13.24,13.24,0,0,1,1096.15,1489.33Z" transform="translate(-224.64 -269.85)"/><path class="cls-15" d="M1162.47,1558.46l-29.26-.19a13.22,13.22,0,0,1-13.15-13.31l.18-29.26a13.23,13.23,0,0,1,13.32-13.15l29.25.18a13.24,13.24,0,0,1,13.16,13.32l-.18,29.25A13.25,13.25,0,0,1,1162.47,1558.46Z" transform="translate(-224.64 -269.85)"/><path class="cls-15" d="M1162.89,1490.07l-29.25-.18a13.25,13.25,0,0,1-13.16-13.32l.19-29.26a13.22,13.22,0,0,1,13.31-13.15l29.26.18a13.23,13.23,0,0,1,13.15,13.32l-.18,29.26A13.23,13.23,0,0,1,1162.89,1490.07Z" transform="translate(-224.64 -269.85)"/><path class="cls-15" d="M1161.62,1695.23l-29.26-.18a13.23,13.23,0,0,1-13.15-13.32l.6-97.64a13.25,13.25,0,0,1,13.32-13.16l29.26.19a13.22,13.22,0,0,1,13.15,13.31l-.6,97.65A13.23,13.23,0,0,1,1161.62,1695.23Z" transform="translate(-224.64 -269.85)"/><path class="cls-8" d="M944,1353.37l.06-9.38,1.36-3.56a2.88,2.88,0,0,1,2.22,2.25l-.08,12.49-.9.89Zm2.66,3.58.88.9-.08,12.5a2.83,2.83,0,0,1-2.24,2.21l-1.32-3.57.06-9.38Z" transform="translate(-224.64 -269.85)"/><path class="cls-8" d="M959.7,1345l-.05,8.48-2.7,2.66-.88-.89.07-11.61ZM956,1369.51l.07-11.61.9-.88,2.66,2.69-.05,8.48Zm15.6,3.22-13.39-.08a2.88,2.88,0,0,1-2.22-2.25l3.58-1.32,10.71.07Zm-1.16-28.57-10.67-.07-3.56-1.36a2.86,2.86,0,0,1,2.25-2.22l13.34.09Zm.83,9.38.06-9.38,1.36-3.56a2.87,2.87,0,0,1,2.22,2.25l-.08,12.49-.9.89Zm2.66,3.58.89.9-.08,12.5a2.88,2.88,0,0,1-2.25,2.21l-1.31-3.57.05-9.38Z" transform="translate(-224.64 -269.85)"/><path class="cls-8" d="M986.93,1345.15l-.06,8.48-2.69,2.66-.89-.89.07-11.61Zm-3.73,24.53.07-11.61.9-.88,2.66,2.69-.05,8.48Zm15.6,3.22-13.39-.09a2.86,2.86,0,0,1-2.21-2.24l3.58-1.32,10.71.07Zm-1.16-28.57-10.66-.07-3.57-1.36a2.88,2.88,0,0,1,2.25-2.22l13.34.08Zm.84,9.38.06-9.38,1.36-3.56a2.87,2.87,0,0,1,2.21,2.25l-.07,12.49-.9.89Zm2.65,3.58.89.9-.08,12.5a2.86,2.86,0,0,1-2.24,2.21l-1.32-3.57.06-9.38Z" transform="translate(-224.64 -269.85)"/><path class="cls-8" d="M1014.15,1345.32l0,8.48-2.7,2.66-.89-.9.08-11.6Zm-3.72,24.53.07-11.61.9-.88,2.66,2.69,0,8.48Zm15.6,3.22-13.39-.09a2.86,2.86,0,0,1-2.22-2.24l3.58-1.32,10.71.07Zm-1.16-28.57-10.67-.07-3.56-1.36a2.86,2.86,0,0,1,2.24-2.22l13.35.08Zm.83,9.37.06-9.37,1.36-3.56a2.87,2.87,0,0,1,2.22,2.25l-.08,12.49-.9.89Zm2.66,3.59.88.9-.08,12.49a2.86,2.86,0,0,1-2.24,2.22l-1.32-3.58.06-9.37Z" transform="translate(-224.64 -269.85)"/><path class="cls-8" d="M1041.37,1345.49l0,8.48-2.69,2.66-.89-.9.07-11.6Zm-3.72,24.52.07-11.6.9-.89,2.66,2.7,0,8.48Zm15.6,3.23-13.39-.09a2.83,2.83,0,0,1-2.21-2.24l3.57-1.32,10.72.07Zm-1.16-28.57-10.67-.07-3.56-1.36a2.88,2.88,0,0,1,2.25-2.22l13.34.08Zm.83,9.37.06-9.37,1.36-3.56a2.86,2.86,0,0,1,2.22,2.24l-.08,12.5-.89.89Zm2.66,3.59.89.9-.08,12.49a2.87,2.87,0,0,1-2.25,2.22l-1.31-3.58.06-9.37Z" transform="translate(-224.64 -269.85)"/><path class="cls-8" d="M1068.6,1345.66l-.06,8.48-2.69,2.66-.89-.9.08-11.6Zm-3.73,24.52.08-11.6.89-.89,2.67,2.7-.06,8.48Zm15.61,3.23-13.39-.09a2.86,2.86,0,0,1-2.22-2.24l3.58-1.32,10.71.07Zm-1.17-28.58-10.66-.06-3.56-1.36a2.86,2.86,0,0,1,2.24-2.22l13.34.08Zm.84,9.38.06-9.37,1.36-3.56a2.87,2.87,0,0,1,2.22,2.24l-.08,12.5-.9.89Zm2.65,3.59.89.9-.08,12.49a2.86,2.86,0,0,1-2.24,2.22l-1.32-3.58.06-9.37Z" transform="translate(-224.64 -269.85)"/><path class="cls-8" d="M1095.82,1345.83l0,8.48-2.7,2.66-.88-.9.07-11.6Zm-3.72,24.52.07-11.6.9-.89,2.66,2.7,0,8.48Zm15.6,3.22-13.39-.08a2.86,2.86,0,0,1-2.22-2.24l3.58-1.32,10.71.07Zm-1.16-28.57-10.67-.06-3.56-1.36a2.86,2.86,0,0,1,2.24-2.22l13.35.08Zm.83,9.38.06-9.37,1.36-3.56a2.86,2.86,0,0,1,2.22,2.24l-.08,12.5-.9.89ZM1110,1358l.88.9-.07,12.49a2.88,2.88,0,0,1-2.25,2.22l-1.32-3.58.06-9.37Z" transform="translate(-224.64 -269.85)"/><path class="cls-8" d="M1123,1346l0,8.48-2.69,2.66-.89-.9.07-11.6Zm-3.72,24.52.07-11.6.9-.89,2.66,2.7,0,8.48Zm15.6,3.22-13.39-.08a2.86,2.86,0,0,1-2.21-2.24l3.58-1.32,10.71.07Zm-1.16-28.57-10.67-.06-3.56-1.36a2.88,2.88,0,0,1,2.25-2.22l13.34.08Zm.84,9.38.05-9.37,1.36-3.56a2.86,2.86,0,0,1,2.22,2.24l-.08,12.5-.89.89Zm2.65,3.59.89.9-.08,12.49a2.87,2.87,0,0,1-2.25,2.22l-1.31-3.58.06-9.37Z" transform="translate(-224.64 -269.85)"/><path class="cls-8" d="M1150.27,1346.17l0,8.48-2.7,2.66-.89-.9.08-11.6Zm-3.73,24.52.08-11.6.9-.89,2.66,2.7-.06,8.48Zm15.61,3.22-13.39-.08a2.86,2.86,0,0,1-2.22-2.25l3.58-1.31,10.71.06Zm-1.16-28.57-10.67-.06-3.56-1.36a2.86,2.86,0,0,1,2.24-2.22l13.35.08Zm.83,9.38.06-9.37,1.36-3.56a2.86,2.86,0,0,1,2.22,2.24l-.08,12.5-.9.88Zm2.65,3.59.89.9-.08,12.49a2.86,2.86,0,0,1-2.24,2.22l-1.32-3.58.06-9.37Z" transform="translate(-224.64 -269.85)"/><path class="cls-21" d="M1537.84,1702.46V1717a4.9,4.9,0,0,1-1.15,3.12,6.57,6.57,0,0,1-3.12,2.09,6.2,6.2,0,0,1-1.22.29,7.62,7.62,0,0,1-1.18.09H1255.88c-3.33,0-6.11-2.07-6.6-4.76,0-.18,0-.36-.06-.55s0-.19,0-.28v-14.52c0-.09,0-.19,0-.28s0-.37.06-.55c.49-2.69,3.27-4.76,6.6-4.76h275.29a7.62,7.62,0,0,1,1.18.09,7,7,0,0,1,1.22.29,6.57,6.57,0,0,1,3.12,2.09A4.9,4.9,0,0,1,1537.84,1702.46Z" transform="translate(-224.64 -269.85)"/><path class="cls-22" d="M1402.65,1722.57H1255.16a5.91,5.91,0,0,1-5.72-4.14,6.25,6.25,0,0,1-.16-.62c0-.18,0-.36-.06-.55s0-.19,0-.28v-14.52c0-.09,0-.19,0-.28s0-.37.06-.55a6.25,6.25,0,0,1,.16-.62,5.91,5.91,0,0,1,5.72-4.14h129.38A45.06,45.06,0,0,0,1402.65,1722.57Z" transform="translate(-224.64 -269.85)"/><rect class="cls-22" x="1276.57" y="1427.02" width="3.13" height="25.7"/><rect class="cls-22" x="1265.98" y="1427.02" width="3.13" height="25.7"/><rect class="cls-22" x="1253.28" y="1427.02" width="3.13" height="25.7"/><rect class="cls-22" x="1233.81" y="1427.02" width="3.13" height="25.7"/><rect class="cls-22" x="1213.22" y="1427.02" width="3.13" height="25.7"/><rect class="cls-22" x="1181.66" y="1427.02" width="3.13" height="25.7"/><rect class="cls-22" x="1152.11" y="1427.02" width="3.13" height="25.7"/><rect class="cls-22" x="1125.73" y="1427.02" width="3.13" height="25.7"/><rect class="cls-22" x="1286.65" y="1427.02" width="3.13" height="25.7"/><rect class="cls-22" x="1293.31" y="1427.02" width="3.13" height="25.7"/><rect class="cls-22" x="1299.74" y="1427.02" width="3.13" height="25.7"/><path class="cls-22" d="M1532.35,1697v25.52a7.53,7.53,0,0,1-1.18.09h-2v-25.7h2A7.53,7.53,0,0,1,1532.35,1697Z" transform="translate(-224.64 -269.85)"/><path class="cls-22" d="M1536.69,1699.34v20.76a6.53,6.53,0,0,1-3.12,2.09v-24.94A6.53,6.53,0,0,1,1536.69,1699.34Z" transform="translate(-224.64 -269.85)"/><path class="cls-21" d="M1508.4,1676.77v14.5a5,5,0,0,1-1.14,3.13,5.59,5.59,0,0,1-.62.67,7,7,0,0,1-2.51,1.42,6.79,6.79,0,0,1-1.22.29,7.49,7.49,0,0,1-1.17.09h-275.3c-3.32,0-6.1-2.08-6.59-4.76,0-.18,0-.36-.06-.54v-15.1c0-.18,0-.36.06-.54.49-2.68,3.27-4.76,6.59-4.76h275.3a4.61,4.61,0,0,1,.53,0l.19,0h0a1.07,1.07,0,0,1,.25,0l.17,0a7.76,7.76,0,0,1,1.22.28c.24.08.46.17.67.26h0l.43.21.24.14a1.71,1.71,0,0,1,.23.13,5.31,5.31,0,0,1,.81.6l.23.21.14.13.07.08.06.06a3.22,3.22,0,0,1,.24.28A5,5,0,0,1,1508.4,1676.77Z" transform="translate(-224.64 -269.85)"/><path class="cls-22" d="M1373.22,1696.87H1225.73a5.9,5.9,0,0,1-5.72-4.15,6.06,6.06,0,0,1-.16-.61c0-.18,0-.36-.06-.54v-15.1c0-.18,0-.36.06-.54a6.06,6.06,0,0,1,.16-.61,5.9,5.9,0,0,1,5.72-4.15h129.38q.08.32.18.63A44.84,44.84,0,0,0,1373.22,1696.87Z" transform="translate(-224.64 -269.85)"/><rect class="cls-22" x="1247.14" y="1401.32" width="3.13" height="25.7"/><rect class="cls-22" x="1236.54" y="1401.32" width="3.13" height="25.7"/><rect class="cls-22" x="1223.84" y="1401.32" width="3.13" height="25.7"/><rect class="cls-22" x="1204.38" y="1401.32" width="3.13" height="25.7"/><rect class="cls-22" x="1183.79" y="1401.32" width="3.13" height="25.7"/><rect class="cls-22" x="1152.23" y="1401.32" width="3.13" height="25.7"/><rect class="cls-22" x="1122.68" y="1401.32" width="3.13" height="25.7"/><rect class="cls-22" x="1096.29" y="1401.32" width="3.13" height="25.7"/><rect class="cls-22" x="1257.22" y="1401.32" width="3.13" height="25.7"/><rect class="cls-22" x="1263.88" y="1401.32" width="3.13" height="25.7"/><rect class="cls-22" x="1270.31" y="1401.32" width="3.13" height="25.7"/><path class="cls-22" d="M1502.92,1671.26v25.52a7.72,7.72,0,0,1-1.18.09h-2v-25.7h2A7.72,7.72,0,0,1,1502.92,1671.26Z" transform="translate(-224.64 -269.85)"/><path class="cls-22" d="M1507.26,1673.64v20.76a6.6,6.6,0,0,1-3.13,2.09v-24.94A6.6,6.6,0,0,1,1507.26,1673.64Z" transform="translate(-224.64 -269.85)"/><path class="cls-21" d="M1522.62,1651.7v14.51a4.93,4.93,0,0,1-1.14,3.12,6.57,6.57,0,0,1-3.12,2.09,8.05,8.05,0,0,1-1.22.3,9.08,9.08,0,0,1-1.17.08h-275.3a7.69,7.69,0,0,1-3.07-.63,5.79,5.79,0,0,1-3.51-4.06,2.23,2.23,0,0,1,0-.36,2.11,2.11,0,0,1,0-.25,2.81,2.81,0,0,1,0-.29V1651.7a2.81,2.81,0,0,1,0-.29,3.19,3.19,0,0,1,.06-.54c.49-2.69,3.27-4.76,6.59-4.76H1516a7.58,7.58,0,0,1,1.17.08,7,7,0,0,1,1.22.29,6.72,6.72,0,0,1,3.12,2.09A5,5,0,0,1,1522.62,1651.7Z" transform="translate(-224.64 -269.85)"/><path class="cls-22" d="M1387.44,1671.8H1240a6.16,6.16,0,0,1-2.73-.63,5.63,5.63,0,0,1-3.13-4.06,2.23,2.23,0,0,1,0-.36,2.11,2.11,0,0,1,0-.25,2.81,2.81,0,0,1,0-.29V1651.7a2.81,2.81,0,0,1,0-.29,3.19,3.19,0,0,1,.06-.54q.06-.3.15-.6a5.88,5.88,0,0,1,5.72-4.16h129.38a45.12,45.12,0,0,0,17.21,25.06C1386.83,1671.38,1387.13,1671.6,1387.44,1671.8Z" transform="translate(-224.64 -269.85)"/><rect class="cls-22" x="1261.36" y="1376.25" width="3.13" height="25.7"/><rect class="cls-22" x="1250.77" y="1376.25" width="3.13" height="25.7"/><rect class="cls-22" x="1238.07" y="1376.25" width="3.13" height="25.7"/><rect class="cls-22" x="1218.6" y="1376.25" width="3.13" height="25.7"/><rect class="cls-22" x="1198.01" y="1376.25" width="3.13" height="25.7"/><rect class="cls-22" x="1166.45" y="1376.25" width="3.13" height="25.7"/><rect class="cls-22" x="1136.9" y="1376.25" width="3.13" height="25.7"/><rect class="cls-22" x="1110.52" y="1376.25" width="3.13" height="25.7"/><rect class="cls-22" x="1271.44" y="1376.25" width="3.13" height="25.7"/><rect class="cls-22" x="1278.1" y="1376.25" width="3.13" height="25.7"/><rect class="cls-22" x="1284.53" y="1376.25" width="3.13" height="25.7"/><path class="cls-22" d="M1517.14,1646.19v25.52a7.53,7.53,0,0,1-1.18.09h-2v-25.7h2A7.53,7.53,0,0,1,1517.14,1646.19Z" transform="translate(-224.64 -269.85)"/><path class="cls-22" d="M1521.48,1648.57v20.76a6.61,6.61,0,0,1-3.12,2.1v-25A6.53,6.53,0,0,1,1521.48,1648.57Z" transform="translate(-224.64 -269.85)"/><path class="cls-21" d="M1529.22,1626v14.51a4.93,4.93,0,0,1-1.14,3.12l-.3.34a6.66,6.66,0,0,1-1.9,1.39c-.3.14-.61.26-.92.37a7.09,7.09,0,0,1-1.23.28l-.57.07-.6,0h-275.3c-3.33,0-6.1-2.08-6.59-4.77a3.31,3.31,0,0,1-.06-.54v-15.09c.17-2.73,2.68-5,5.86-5.27.26,0,.53,0,.79,0h275.3l.6,0a3.55,3.55,0,0,1,.57.07,7.09,7.09,0,0,1,1.23.28,6.62,6.62,0,0,1,3.12,2.09A5,5,0,0,1,1529.22,1626Z" transform="translate(-224.64 -269.85)"/><path class="cls-22" d="M1394,1646.11H1246.55a5.91,5.91,0,0,1-5.72-4.15,4.17,4.17,0,0,1-.22-1.16v-15.09a5.78,5.78,0,0,1,5.23-5.27c.24,0,.47,0,.71,0h129.38v0A45.13,45.13,0,0,0,1394,1646.11Z" transform="translate(-224.64 -269.85)"/><rect class="cls-22" x="1267.95" y="1350.55" width="3.13" height="25.7"/><rect class="cls-22" x="1257.36" y="1350.55" width="3.13" height="25.7"/><rect class="cls-22" x="1244.66" y="1350.55" width="3.13" height="25.7"/><rect class="cls-22" x="1225.19" y="1350.55" width="3.13" height="25.7"/><rect class="cls-22" x="1204.61" y="1350.55" width="3.13" height="25.7"/><rect class="cls-22" x="1173.05" y="1350.55" width="3.13" height="25.7"/><rect class="cls-22" x="1143.5" y="1350.55" width="3.13" height="25.7"/><rect class="cls-22" x="1117.11" y="1350.55" width="3.13" height="25.7"/><rect class="cls-22" x="1278.04" y="1350.55" width="3.13" height="25.7"/><rect class="cls-22" x="1284.7" y="1350.55" width="3.13" height="25.7"/><rect class="cls-22" x="1291.13" y="1350.55" width="3.13" height="25.7"/><path class="cls-22" d="M1523.73,1620.49V1646a7.49,7.49,0,0,1-1.17.09h-2v-25.7h2A7.49,7.49,0,0,1,1523.73,1620.49Z" transform="translate(-224.64 -269.85)"/><path class="cls-22" d="M1528.08,1622.87v20.76a6.6,6.6,0,0,1-3.13,2.09v-24.94A6.6,6.6,0,0,1,1528.08,1622.87Z" transform="translate(-224.64 -269.85)"/><path class="cls-21" d="M1509,1600.34v14.51a5,5,0,0,1-1.14,3.12,6.69,6.69,0,0,1-3.13,2.1,8.18,8.18,0,0,1-1.21.28,2.6,2.6,0,0,1-.39.05h0l-.21,0-.18,0H1227c-3.56,0-6.48-2.36-6.66-5.3a2.81,2.81,0,0,1,0-.29v-14.51c0-.1,0-.2,0-.3a2,2,0,0,1,0-.23,6,6,0,0,1,5-4.89.65.65,0,0,1,.2,0,7.67,7.67,0,0,1,1.45-.14h275.29l.59,0,.25,0h0l.31,0a7.11,7.11,0,0,1,1.21.29,6.6,6.6,0,0,1,3.13,2.09A5,5,0,0,1,1509,1600.34Z" transform="translate(-224.64 -269.85)"/><path class="cls-22" d="M1373.79,1620.44H1226.31a5.82,5.82,0,0,1-5.94-5.3,2.81,2.81,0,0,1,0-.29v-14.51c0-.1,0-.2,0-.3a2,2,0,0,1,0-.23,5.75,5.75,0,0,1,4.61-4.93l.25-.05a6.23,6.23,0,0,1,1.06-.09h129.37a1.33,1.33,0,0,1,0,.19,45.07,45.07,0,0,0,18,25.47Z" transform="translate(-224.64 -269.85)"/><rect class="cls-22" x="1247.71" y="1324.89" width="3.13" height="25.7"/><rect class="cls-22" x="1237.12" y="1324.89" width="3.13" height="25.7"/><rect class="cls-22" x="1224.42" y="1324.89" width="3.13" height="25.7"/><rect class="cls-22" x="1204.96" y="1324.89" width="3.13" height="25.7"/><rect class="cls-22" x="1184.37" y="1324.89" width="3.13" height="25.7"/><rect class="cls-22" x="1152.81" y="1324.89" width="3.13" height="25.7"/><rect class="cls-22" x="1123.26" y="1324.89" width="3.13" height="25.7"/><rect class="cls-22" x="1096.87" y="1324.89" width="3.13" height="25.7"/><rect class="cls-22" x="1257.8" y="1324.89" width="3.13" height="25.7"/><rect class="cls-22" x="1264.46" y="1324.89" width="3.13" height="25.7"/><rect class="cls-22" x="1270.89" y="1324.89" width="3.13" height="25.7"/><path class="cls-22" d="M1503.49,1594.83v25.52a7.49,7.49,0,0,1-1.17.09h-2v-25.7h2A7.49,7.49,0,0,1,1503.49,1594.83Z" transform="translate(-224.64 -269.85)"/><path class="cls-22" d="M1507.84,1597.21V1618a6.6,6.6,0,0,1-3.13,2.09v-24.94A6.6,6.6,0,0,1,1507.84,1597.21Z" transform="translate(-224.64 -269.85)"/><path class="cls-21" d="M1508.4,1574.82v14.51a4.93,4.93,0,0,1-1.14,3.12,6.48,6.48,0,0,1-.62.67,6.89,6.89,0,0,1-2.51,1.43,7.62,7.62,0,0,1-.94.24h0l-.25,0a7.49,7.49,0,0,1-1.17.1h-275.3a8.43,8.43,0,0,1-.86,0l-.33-.05a6.17,6.17,0,0,1-5.4-4.73,3.7,3.7,0,0,1-.06-.48v-15.09c0-.18,0-.36.06-.54.49-2.69,3.27-4.77,6.59-4.77h275.3l.53,0h.22a2.13,2.13,0,0,1,.25,0,.51.51,0,0,1,.17,0,6.78,6.78,0,0,1,1.22.28,5.84,5.84,0,0,1,.67.26h0a6.77,6.77,0,0,1,2.21,1.55l.24.28A5,5,0,0,1,1508.4,1574.82Z" transform="translate(-224.64 -269.85)"/><path class="cls-22" d="M1373.22,1594.93H1225.38l-.38,0a5.79,5.79,0,0,1-5.15-4.78,3.7,3.7,0,0,1-.06-.48v-15.09c0-.18,0-.36.06-.54a6.25,6.25,0,0,1,.16-.62,5.91,5.91,0,0,1,5.72-4.15h129.38c.05.22.11.42.18.64a45,45,0,0,0,17.66,24.88Z" transform="translate(-224.64 -269.85)"/><rect class="cls-22" x="1247.14" y="1299.37" width="3.13" height="25.7"/><rect class="cls-22" x="1236.54" y="1299.37" width="3.13" height="25.7"/><rect class="cls-22" x="1223.84" y="1299.37" width="3.13" height="25.7"/><rect class="cls-22" x="1204.38" y="1299.37" width="3.13" height="25.7"/><rect class="cls-22" x="1183.79" y="1299.37" width="3.13" height="25.7"/><rect class="cls-22" x="1152.23" y="1299.37" width="3.13" height="25.7"/><rect class="cls-22" x="1122.68" y="1299.37" width="3.13" height="25.7"/><rect class="cls-22" x="1096.29" y="1299.37" width="3.13" height="25.7"/><rect class="cls-22" x="1257.22" y="1299.37" width="3.13" height="25.7"/><rect class="cls-22" x="1263.88" y="1299.37" width="3.13" height="25.7"/><rect class="cls-22" x="1270.31" y="1299.37" width="3.13" height="25.7"/><path class="cls-22" d="M1502.92,1569.31v25.52a7.72,7.72,0,0,1-1.18.09h-2v-25.7h2A7.72,7.72,0,0,1,1502.92,1569.31Z" transform="translate(-224.64 -269.85)"/><path class="cls-22" d="M1507.26,1571.69v20.76a6.69,6.69,0,0,1-3.13,2.1v-25A6.68,6.68,0,0,1,1507.26,1571.69Z" transform="translate(-224.64 -269.85)"/><path class="cls-21" d="M1522.62,1549.75v14.51a5,5,0,0,1-1.14,3.13,6.57,6.57,0,0,1-3.12,2.09,7,7,0,0,1-1.22.28,7.59,7.59,0,0,1-1.17.1h-275.3a7.53,7.53,0,0,1-3.07-.64,5.78,5.78,0,0,1-3.51-4.06,2.23,2.23,0,0,1,0-.36,2,2,0,0,1,0-.25,2.71,2.71,0,0,1,0-.29v-14.51a2.81,2.81,0,0,1,0-.29,3.31,3.31,0,0,1,.06-.54c.49-2.69,3.27-4.77,6.59-4.77H1516a7.59,7.59,0,0,1,1.17.1,7,7,0,0,1,1.22.28,6.52,6.52,0,0,1,3.12,2.1A4.93,4.93,0,0,1,1522.62,1549.75Z" transform="translate(-224.64 -269.85)"/><path class="cls-22" d="M1387.44,1569.86H1240a6,6,0,0,1-2.73-.64,5.61,5.61,0,0,1-3.13-4.06,2.23,2.23,0,0,1,0-.36,2,2,0,0,1,0-.25,2.71,2.71,0,0,1,0-.29v-14.51a2.81,2.81,0,0,1,0-.29,3.31,3.31,0,0,1,.06-.54,5.9,5.9,0,0,1,5.87-4.77h129.38a45,45,0,0,0,17.21,25.07C1386.83,1569.44,1387.13,1569.64,1387.44,1569.86Z" transform="translate(-224.64 -269.85)"/><rect class="cls-22" x="1261.36" y="1274.31" width="3.13" height="25.7"/><rect class="cls-22" x="1250.77" y="1274.31" width="3.13" height="25.7"/><rect class="cls-22" x="1238.07" y="1274.31" width="3.13" height="25.7"/><rect class="cls-22" x="1218.6" y="1274.31" width="3.13" height="25.7"/><rect class="cls-22" x="1198.01" y="1274.31" width="3.13" height="25.7"/><rect class="cls-22" x="1166.45" y="1274.31" width="3.13" height="25.7"/><rect class="cls-22" x="1136.9" y="1274.31" width="3.13" height="25.7"/><rect class="cls-22" x="1110.52" y="1274.31" width="3.13" height="25.7"/><rect class="cls-22" x="1271.44" y="1274.31" width="3.13" height="25.7"/><rect class="cls-22" x="1278.1" y="1274.31" width="3.13" height="25.7"/><rect class="cls-22" x="1284.53" y="1274.31" width="3.13" height="25.7"/><path class="cls-22" d="M1517.14,1544.25v25.52a7.53,7.53,0,0,1-1.18.09h-2v-25.7h2A7.53,7.53,0,0,1,1517.14,1544.25Z" transform="translate(-224.64 -269.85)"/><path class="cls-22" d="M1521.48,1546.63v20.76a6.53,6.53,0,0,1-3.12,2.09v-25A6.61,6.61,0,0,1,1521.48,1546.63Z" transform="translate(-224.64 -269.85)"/><path class="cls-21" d="M1545.12,1524.05v14.51a5,5,0,0,1-1.13,3.12h0l-.3.34a6.19,6.19,0,0,1-1.47,1.15,6.47,6.47,0,0,1-.88.42h0l-.46.17a6.9,6.9,0,0,1-1.23.29,7.41,7.41,0,0,1-1.17.08h-275.3c-3.32,0-6.09-2.07-6.58-4.75a2.51,2.51,0,0,1-.06-.55,2.81,2.81,0,0,1,0-.29v-14.51a2.81,2.81,0,0,1,0-.29c.16-2.72,2.67-4.94,5.86-5.26a6.79,6.79,0,0,1,.78,0h275.3a8.84,8.84,0,0,1,1.17.08,9.21,9.21,0,0,1,1.23.29,7,7,0,0,1,2.82,1.75l.3.34h0A5,5,0,0,1,1545.12,1524.05Z" transform="translate(-224.64 -269.85)"/><path class="cls-22" d="M1409.94,1544.15H1262.45a5.88,5.88,0,0,1-5.72-4.15,4.39,4.39,0,0,1-.15-.6,2.51,2.51,0,0,1-.06-.55,2.81,2.81,0,0,1,0-.29v-14.51a2.81,2.81,0,0,1,0-.29,5.76,5.76,0,0,1,5.22-5.26,5.63,5.63,0,0,1,.71,0h129.38s0,0,0,0A45,45,0,0,0,1409.94,1544.15Z" transform="translate(-224.64 -269.85)"/><rect class="cls-22" x="1283.86" y="1248.61" width="3.13" height="25.7"/><rect class="cls-22" x="1273.27" y="1248.61" width="3.13" height="25.7"/><rect class="cls-22" x="1260.57" y="1248.61" width="3.13" height="25.7"/><rect class="cls-22" x="1241.1" y="1248.61" width="3.13" height="25.7"/><rect class="cls-22" x="1220.51" y="1248.61" width="3.13" height="25.7"/><rect class="cls-22" x="1188.95" y="1248.61" width="3.13" height="25.7"/><rect class="cls-22" x="1159.4" y="1248.61" width="3.13" height="25.7"/><rect class="cls-22" x="1133.02" y="1248.61" width="3.13" height="25.7"/><rect class="cls-22" x="1293.94" y="1248.61" width="3.13" height="25.7"/><rect class="cls-22" x="1300.6" y="1248.61" width="3.13" height="25.7"/><rect class="cls-22" x="1307.03" y="1248.61" width="3.13" height="25.7"/><path class="cls-22" d="M1539.64,1518.55v25.52a7.72,7.72,0,0,1-1.18.09h-2v-25.7h2A7.72,7.72,0,0,1,1539.64,1518.55Z" transform="translate(-224.64 -269.85)"/><path class="cls-22" d="M1544,1520.93v20.76a6.62,6.62,0,0,1-3.12,2.09v-25A6.71,6.71,0,0,1,1544,1520.93Z" transform="translate(-224.64 -269.85)"/><path class="cls-21" d="M1509,1498.39v14.51a4.93,4.93,0,0,1-1.14,3.12,6.55,6.55,0,0,1-3.13,2.1,8.2,8.2,0,0,1-1.21.29l-.39,0h0l-.26,0H1227a7,7,0,0,1-5.67-2.67,4.86,4.86,0,0,1-1-2.64,2.81,2.81,0,0,1,0-.29v-14.51a2.81,2.81,0,0,1,0-.29,5.92,5.92,0,0,1,4.72-5.06,7.7,7.7,0,0,1,1.94-.25h275.64l.17,0a4.76,4.76,0,0,1,.66.07,7.09,7.09,0,0,1,1.21.28,3.54,3.54,0,0,1,.57.22h0a6.4,6.4,0,0,1,1.92,1.21l0,0a.27.27,0,0,0,.08.07,5.48,5.48,0,0,1,.52.56A5,5,0,0,1,1509,1498.39Z" transform="translate(-224.64 -269.85)"/><path class="cls-22" d="M1373.79,1518.5H1226.31a6.06,6.06,0,0,1-5-2.54,5.23,5.23,0,0,1-1-2.77,2.81,2.81,0,0,1,0-.29v-14.51a2.81,2.81,0,0,1,0-.29,5.73,5.73,0,0,1,4.74-5.18,6,6,0,0,1,1.2-.13h129.37c0,.2.11.4.17.6a45,45,0,0,0,17.88,25.07S1373.78,1518.48,1373.79,1518.5Z" transform="translate(-224.64 -269.85)"/><rect class="cls-22" x="1247.71" y="1222.95" width="3.13" height="25.7"/><rect class="cls-22" x="1237.12" y="1222.95" width="3.13" height="25.7"/><rect class="cls-22" x="1224.42" y="1222.95" width="3.13" height="25.7"/><rect class="cls-22" x="1204.96" y="1222.95" width="3.13" height="25.7"/><rect class="cls-22" x="1184.37" y="1222.95" width="3.13" height="25.7"/><rect class="cls-22" x="1152.81" y="1222.95" width="3.13" height="25.7"/><rect class="cls-22" x="1123.26" y="1222.95" width="3.13" height="25.7"/><rect class="cls-22" x="1096.87" y="1222.95" width="3.13" height="25.7"/><rect class="cls-22" x="1257.8" y="1222.95" width="3.13" height="25.7"/><rect class="cls-22" x="1264.46" y="1222.95" width="3.13" height="25.7"/><rect class="cls-22" x="1270.89" y="1222.95" width="3.13" height="25.7"/><path class="cls-22" d="M1503.49,1492.89v25.52a7.49,7.49,0,0,1-1.17.09h-2v-25.7h2A7.49,7.49,0,0,1,1503.49,1492.89Z" transform="translate(-224.64 -269.85)"/><path class="cls-22" d="M1507.84,1495.27V1516a6.6,6.6,0,0,1-3.13,2.09v-24.95A6.69,6.69,0,0,1,1507.84,1495.27Z" transform="translate(-224.64 -269.85)"/><path class="cls-21" d="M1529.22,1473.28v14.52a5,5,0,0,1-1.14,3.12A6.6,6.6,0,0,1,1525,1493a7,7,0,0,1-1.22.29,7.49,7.49,0,0,1-1.17.09h-275.3a7.57,7.57,0,0,1-3-.59,5.72,5.72,0,0,1-3.66-4.49,1.64,1.64,0,0,1,0-.23c0-.09,0-.19,0-.28v-14.52c0-.09,0-.19,0-.28.16-2.73,2.68-5,5.86-5.27a6.85,6.85,0,0,1,.79,0h275.3a7.49,7.49,0,0,1,1.17.09,7,7,0,0,1,1.22.29,6.6,6.6,0,0,1,3.13,2.09A5,5,0,0,1,1529.22,1473.28Z" transform="translate(-224.64 -269.85)"/><path class="cls-22" d="M1394,1493.39H1246.55a6.17,6.17,0,0,1-2.66-.59,5.64,5.64,0,0,1-3.26-4.49,1.64,1.64,0,0,1,0-.23c0-.09,0-.19,0-.28v-14.52c0-.09,0-.19,0-.28a5.77,5.77,0,0,1,5.24-5.27,5.27,5.27,0,0,1,.7,0h129.37v0a45.12,45.12,0,0,0,17.26,25.07C1393.46,1493,1393.75,1493.19,1394,1493.39Z" transform="translate(-224.64 -269.85)"/><rect class="cls-22" x="1267.95" y="1197.84" width="3.13" height="25.7"/><rect class="cls-22" x="1257.36" y="1197.84" width="3.13" height="25.7"/><rect class="cls-22" x="1244.66" y="1197.84" width="3.13" height="25.7"/><rect class="cls-22" x="1225.19" y="1197.84" width="3.13" height="25.7"/><rect class="cls-22" x="1204.61" y="1197.84" width="3.13" height="25.7"/><rect class="cls-22" x="1173.05" y="1197.84" width="3.13" height="25.7"/><rect class="cls-22" x="1143.5" y="1197.84" width="3.13" height="25.7"/><rect class="cls-22" x="1117.11" y="1197.84" width="3.13" height="25.7"/><rect class="cls-22" x="1278.04" y="1197.84" width="3.13" height="25.7"/><rect class="cls-22" x="1284.7" y="1197.84" width="3.13" height="25.7"/><rect class="cls-22" x="1291.13" y="1197.84" width="3.13" height="25.7"/><path class="cls-22" d="M1523.73,1467.78v25.52a7.49,7.49,0,0,1-1.17.09h-2v-25.7h2A7.49,7.49,0,0,1,1523.73,1467.78Z" transform="translate(-224.64 -269.85)"/><path class="cls-22" d="M1528.08,1470.16v20.76A6.6,6.6,0,0,1,1525,1493v-24.94A6.6,6.6,0,0,1,1528.08,1470.16Z" transform="translate(-224.64 -269.85)"/><path class="cls-21" d="M1537.84,1447.62v14.52a4.9,4.9,0,0,1-1.15,3.12,6.53,6.53,0,0,1-3.12,2.09,7,7,0,0,1-1.22.29l-.39,0-.21,0H1255.88c-3.55,0-6.47-2.36-6.65-5.31a2.62,2.62,0,0,1,0-.28v-14.52c0-.09,0-.19,0-.29.18-2.94,3.1-5.3,6.65-5.3h275.29a7.53,7.53,0,0,1,1.18.09,7,7,0,0,1,1.22.29,6.53,6.53,0,0,1,3.12,2.09A4.9,4.9,0,0,1,1537.84,1447.62Z" transform="translate(-224.64 -269.85)"/><path class="cls-22" d="M1402.65,1467.73H1255.16a5.81,5.81,0,0,1-5.93-5.31,2.62,2.62,0,0,1,0-.28v-14.52c0-.09,0-.19,0-.29a5.81,5.81,0,0,1,5.93-5.3h129.38a45.05,45.05,0,0,0,18,25.66Z" transform="translate(-224.64 -269.85)"/><rect class="cls-22" x="1276.57" y="1172.18" width="3.13" height="25.7"/><rect class="cls-22" x="1265.98" y="1172.18" width="3.13" height="25.7"/><rect class="cls-22" x="1253.28" y="1172.18" width="3.13" height="25.7"/><rect class="cls-22" x="1233.81" y="1172.18" width="3.13" height="25.7"/><rect class="cls-22" x="1213.22" y="1172.18" width="3.13" height="25.7"/><rect class="cls-22" x="1181.66" y="1172.18" width="3.13" height="25.7"/><rect class="cls-22" x="1152.11" y="1172.18" width="3.13" height="25.7"/><rect class="cls-22" x="1125.73" y="1172.18" width="3.13" height="25.7"/><rect class="cls-22" x="1286.65" y="1172.18" width="3.13" height="25.7"/><rect class="cls-22" x="1293.31" y="1172.18" width="3.13" height="25.7"/><rect class="cls-22" x="1299.74" y="1172.18" width="3.13" height="25.7"/><path class="cls-22" d="M1532.35,1442.12v25.52a7.49,7.49,0,0,1-1.17.09h-2V1442h2A7.49,7.49,0,0,1,1532.35,1442.12Z" transform="translate(-224.64 -269.85)"/><path class="cls-22" d="M1536.69,1444.5v20.76a6.53,6.53,0,0,1-3.12,2.09v-24.94A6.53,6.53,0,0,1,1536.69,1444.5Z" transform="translate(-224.64 -269.85)"/><path class="cls-23" d="M1450.57,1295.57s-14.46,20.35-27.71,20.64-33.43-9.44-33.43-9.44-12.17-27.12-3.91-37.74a17.71,17.71,0,0,1,16.93,2.79,25.4,25.4,0,0,1,4.48,4.29,14.29,14.29,0,0,0,7,4.72c9.46,2.87,20.69-3.9,24.89,2.64a44.5,44.5,0,0,0,7.31,8.66A33.76,33.76,0,0,0,1450.57,1295.57Z" transform="translate(-224.64 -269.85)"/><path class="cls-23" d="M1262.06,1442.41s51.11-123.84,143.1-126.2c0,0,84.92,9.43,89.64,126.2Z" transform="translate(-224.64 -269.85)"/><path class="cls-24" d="M1380,1320s36.88,8.2,48.25,3.38c0,0,1.72-15.42-13.81-13.26-10.62,1.48-17.55-3.62-21.62-5.7C1387,1301.48,1378.43,1313.54,1380,1320Z" transform="translate(-224.64 -269.85)"/><path class="cls-25" d="M1412.05,1296.75c-2.36,1.77-9.6-24.93-9.6-24.93a25.4,25.4,0,0,1,4.48,4.29,14.29,14.29,0,0,0,7,4.72C1413.92,1281.6,1414.34,1295,1412.05,1296.75Z" transform="translate(-224.64 -269.85)"/><path class="cls-25" d="M1446.09,1292.13c-.52.3-17.57,10.51-19.88,10.51s12.57-19.17,12.57-19.17A44.5,44.5,0,0,0,1446.09,1292.13Z" transform="translate(-224.64 -269.85)"/><path class="cls-26" d="M1312,1407.81c-.94-.81,36.17-54.65,46.39-55s33.19,11.79,49.82,13.37,32.74-3.15,35.89,6.68,11.79,44.67,6.48,50.25S1332.4,1425.24,1312,1407.81Z" transform="translate(-224.64 -269.85)"/><path class="cls-27" d="M1346.94,1594.74a1.15,1.15,0,0,1,0,.19,123.28,123.28,0,0,1-4.13,25.47v0c-.33,1.21-.67,2.41-1,3.61a126,126,0,0,1-9.07,22.06,127.87,127.87,0,0,1-17.3,25.06c-.18.21-.37.43-.56.63a132.3,132.3,0,0,1-30.24,25.07c-2.45,1.49-4.95,2.91-7.52,4.26-1.74.91-3.48,1.77-5.24,2.6-1.67,1-3.44,1.81-5.11,2.83a71.24,71.24,0,0,1-17.5,7.2v-11.3c0-.09,0-.19,0-.28s0-.37.06-.55a6.25,6.25,0,0,1,.16-.62,5.91,5.91,0,0,1,5.72-4.14h-29.43a5.9,5.9,0,0,1-5.72-4.15,6.06,6.06,0,0,1-.16-.61c0-.18,0-.36-.06-.54v-15.1c0-.18,0-.36.06-.54a6.06,6.06,0,0,1,.16-.61,5.9,5.9,0,0,1,5.72-4.15h11.49a5.63,5.63,0,0,1-3.13-4.06,2.23,2.23,0,0,1,0-.36,2.11,2.11,0,0,1,0-.25,2.81,2.81,0,0,1,0-.29V1651.7a2.81,2.81,0,0,1,0-.29,3.19,3.19,0,0,1,.06-.54q.06-.3.15-.6a5.88,5.88,0,0,1,5.72-4.16h6.6a5.91,5.91,0,0,1-5.72-4.15,4.17,4.17,0,0,1-.22-1.16v-15.09a5.78,5.78,0,0,1,5.23-5.27h-19.53a5.82,5.82,0,0,1-5.94-5.3,2.81,2.81,0,0,1,0-.29v-14.51c0-.1,0-.2,0-.3a2,2,0,0,1,0-.23,4.86,4.86,0,1,0-.54-9.71,3.7,3.7,0,0,1-.06-.48v-15.09c0-.18,0-.36.06-.54a6.25,6.25,0,0,1,.16-.62,5.91,5.91,0,0,1,5.72-4.15h11.49a5.61,5.61,0,0,1-3.13-4.06,2.23,2.23,0,0,1,0-.36,2,2,0,0,1,0-.25,2.71,2.71,0,0,1,0-.29v-14.51a2.81,2.81,0,0,1,0-.29,3.31,3.31,0,0,1,.06-.54,5.9,5.9,0,0,1,5.87-4.77h22.5a5.88,5.88,0,0,1-5.72-4.15,4.39,4.39,0,0,1-.15-.6,2.51,2.51,0,0,1-.06-.55,2.81,2.81,0,0,1,0-.29v-14.51a2.81,2.81,0,0,1,0-.29,5.76,5.76,0,0,1,5.22-5.26h-35.43a6.06,6.06,0,0,1-5-2.54l0-.13,3.73-22.79,0-.12,5.31-32.52a140.23,140.23,0,0,1,18.24,3.67l1,.28.07,0q5.22,1.45,10.31,3.31l.1,0a136.38,136.38,0,0,1,42.74,25.06c.22.19.45.39.66.6a128.52,128.52,0,0,1,17.92,19.31q1.62,2.11,3.13,4.3c.33.48.67,1,1,1.46a.05.05,0,0,1,0,0q2.44,3.6,4.63,7.39a126.74,126.74,0,0,1,8.71,18.26,121.5,121.5,0,0,1,6.67,25.07c0,.22.07.42.11.64A123,123,0,0,1,1346.94,1594.74Z" transform="translate(-224.64 -269.85)"/><circle class="cls-28" cx="1181.16" cy="1581.48" r="135.41" transform="translate(-996.96 1028.56) rotate(-45)"/><path class="cls-21" d="M1241.27,1702.81c-1.66,1-3.36,2-5.08,3-.59.32-1.17.64-1.76.94-1.33.71-2.66,1.4-4,2.06a135.41,135.41,0,0,1-125-240.18c1.74-1,3.49-1.88,5.25-2.74s3.43-1.67,5.16-2.43a134.84,134.84,0,0,1,40.64-10.93,135.43,135.43,0,0,1,84.78,250.32Z" transform="translate(-224.64 -269.85)"/><path class="cls-22" d="M1171.76,1710a121.44,121.44,0,1,1,58.4-15.14A121.65,121.65,0,0,1,1171.76,1710Zm-.37-239.43a118,118,0,1,0,103.59,61A117.31,117.31,0,0,0,1171.39,1470.54Z" transform="translate(-224.64 -269.85)"/><path class="cls-22" d="M1231.26,1600.37q-.4-1-.84-1.95a35.51,35.51,0,0,0-8.21-11.73,36.57,36.57,0,0,0-12.93-7.61,62,62,0,0,0-16.43-3.09q-9.06-.56-19.73-.25a96.58,96.58,0,0,1-11.27-.23,28.25,28.25,0,0,1-7.93-1.74,14,14,0,0,1-5.29-3.58,19,19,0,0,1-3.36-5.55,20.53,20.53,0,0,1-1.53-6.51,13.88,13.88,0,0,1,1-6.12,15,15,0,0,1,3.77-5.35,22.27,22.27,0,0,1,6.91-4.21q7.92-3.21,14.79.14t11.19,14l27.58-11.2a51.36,51.36,0,0,0-9-15,38.68,38.68,0,0,0-27-13.35,51.14,51.14,0,0,0-16.65,1.71l-7.81-19.24-15.27,6.2,7.7,19a57.18,57.18,0,0,0-14,10A42.86,42.86,0,0,0,1118,1547a34.27,34.27,0,0,0-3.24,13.92,40.66,40.66,0,0,0,12,28.59,36,36,0,0,0,12.91,7.56,60.8,60.8,0,0,0,16.44,3,191.91,191.91,0,0,0,19.78,0,74.31,74.31,0,0,1,10.76.07,28.11,28.11,0,0,1,7.88,1.76,14.79,14.79,0,0,1,5.52,3.74,20.45,20.45,0,0,1,3.72,6.14,17,17,0,0,1,1.32,6.54,14,14,0,0,1-1.48,6.22,17.43,17.43,0,0,1-4.38,5.5,26,26,0,0,1-7.41,4.35,31.84,31.84,0,0,1-8.09,2.11,18.7,18.7,0,0,1-8.17-.82,19.09,19.09,0,0,1-7.46-4.82,29.3,29.3,0,0,1-6-9.79l-27.58,11.2q4.3,10.63,10.85,16.87a39.23,39.23,0,0,0,14.29,8.91,43.76,43.76,0,0,0,16.23,2.34,68.92,68.92,0,0,0,16.73-2.76l7.13,17.55,15.17-6.16-7.16-17.64a61.38,61.38,0,0,0,14.16-9.89,41.74,41.74,0,0,0,8.55-11.16c.17-.32.33-.64.48-1a33.86,33.86,0,0,0,3.33-13.85A37.31,37.31,0,0,0,1231.26,1600.37Z" transform="translate(-224.64 -269.85)"/><path class="cls-12" d="M1045.71,914.12a6.27,6.27,0,0,0-1.07,6.73,0,0,0,0,0,0,0c1.66,4.47,7,9.44,13.31,14.39.8.64,1.51,1.21,2.13,1.75l.48.42.37.33c5.84,5.31,3.66,6.55,14.16,17.33,12,12.29,20.16,12.45,22.49,11.31,2-1-2.09-7.51-6.58-14.85l-.65-1.07c-.6-1-1.19-2-1.78-3-5.26-8.83-4-13-2.82-26.22.93-10.74,16.27-60.07,16.27-60.07l-22.81-3.77s-6.58,39.25-14.1,45.34c-4,3.24-8.54,3.31-12.41,5.73-.27.16-.54.34-.8.51A29.79,29.79,0,0,0,1045.71,914.12Z" transform="translate(-224.64 -269.85)"/><path class="cls-11" d="M1045.71,914.12a6.27,6.27,0,0,0-1.07,6.73,0,0,0,0,0,0,0c2,4.46,7.28,9.4,13.33,14.34.79.65,1.49,1.24,2.11,1.8l.48.42.37.33c5.84,5.31,3.66,6.55,14.16,17.33,12,12.29,20.16,12.45,22.49,11.31,2-1-2.09-7.51-6.58-14.85a50.64,50.64,0,0,1-21.3-15.46c-7.22-9.09-12.08-20.79-17-27.55-.27.16-.54.34-.8.51A29.79,29.79,0,0,0,1045.71,914.12Z" transform="translate(-224.64 -269.85)"/><path class="cls-12" d="M1229.3,898.59c1.45,7,11.47,5.78,22.65,3s8.54.45,24.46-1.43,20.72-7.85,21.19-10.22c.42-2.11-7.46-2.79-15.92-3.71l-3.2-.36c-9.54-1.13-16.57-7.23-25.27-12.22-8.24-4.73-20.62-24.15-20.62-24.15l-21.85,1.88s11.6,17.34,16.09,24.89c2.64,4.43,2.54,10.33,2.25,14.88A27.92,27.92,0,0,0,1229.3,898.59Z" transform="translate(-224.64 -269.85)"/><path class="cls-11" d="M1252,901.56c11.18-2.82,8.54.45,24.46-1.43s20.72-7.85,21.19-10.22c.42-2.11-7.46-2.79-15.92-3.71l-.08.17a44.94,44.94,0,0,1-22.77,7.25c-10.81.34-22.29-2.68-29.75-2.5a27.92,27.92,0,0,0,.22,7.47C1230.75,905.61,1240.77,904.37,1252,901.56Z" transform="translate(-224.64 -269.85)"/><path class="cls-29" d="M1144.55,759.42l-20,55.13-26.17,72a43.13,43.13,0,0,1-14.18-1.2c-6.4-1.8-13.76-6.57-13.76-6.57s6.87-77.14,20.37-121.48c3.46-11.38,7.37-20.6,11.71-25.8C1123.72,706,1144.55,759.42,1144.55,759.42Z" transform="translate(-224.64 -269.85)"/><path class="cls-15" d="M1123.16,672.25c-13.42-4.22-51.56,1.59-89.86,9.37l-8.12-13.19-82.88-5.88s-26.91,60.81-11.67,99.33c2.24,5.66,16,8.42,16,8.42s48.56.53,64.57.42c41.19-.29,87-28.93,92.92-30.16,9.73-2,13.76,17.43,23.64,37.81S1220,868.28,1220,868.28s12.57,0,17.75-1.94c5.57-2.14,7.6-4.87,7.6-4.87S1153.42,681.78,1123.16,672.25Z" transform="translate(-224.64 -269.85)"/><path class="cls-11" d="M1014.66,425.24a29.25,29.25,0,0,0-15.95-4,47.73,47.73,0,0,1-7.92-.47c-31.42-4-50,41.75-51,55.58-1.87,25.49-15.32,29.47-34.18,45.56-37.81,32.26-26.39,69.35-5.5,83,12.54,8.2,34.48-.25,34.48-.25.31.22,59.92-33.87,89.3-50.33C1068.07,547.76,1032.5,435.69,1014.66,425.24Z" transform="translate(-224.64 -269.85)"/><path class="cls-12" d="M999.07,540.7c.13.09-14.48,5.19-24.3.92-9.24-4-16.33-19.11-16.19-19.12,4.19-.22,8.76-3.92,12.13-28l1.79.63,30.08,10.58s-2.1,9.64-3.45,18.82C998,532.25,997.42,539.63,999.07,540.7Z" transform="translate(-224.64 -269.85)"/><path class="cls-30" d="M1002.58,505.73s-1.28,6.76-3.06,16.41c-17.25-3-24.52-17.69-27-27Z" transform="translate(-224.64 -269.85)"/><path class="cls-12" d="M1007.12,515.25S966,510,969.67,484.5s.8-43.41,27.19-41.16,30.08,12.72,30.94,21.54S1017.9,516,1007.12,515.25Z" transform="translate(-224.64 -269.85)"/><path class="cls-11" d="M1026.2,450.91s-26.12,22.83-44,24.78S957.56,472,957.56,472a69.91,69.91,0,0,0,16.71-23,12.59,12.59,0,0,1,10.31-7.48C997.33,440.3,1021.52,439.63,1026.2,450.91Z" transform="translate(-224.64 -269.85)"/><path class="cls-11" d="M1009.76,449s8.85,8.44,11.66,14.72c2.72,6.07,3.62,20.61,1.54,26.4,0,0,13.5-26.72,5.66-39.61C1020.3,436.85,1009.76,449,1009.76,449Z" transform="translate(-224.64 -269.85)"/><path class="cls-10" d="M1034.06,600.93c-.66,83.1.12,65.73-8.91,73.68-2.18,1.91-8.33,3.08-16.43,3.68-25.46,1.87-70.28-2-72-6.71-6-16.25-1.88-21.34-7-46.25-.53-2.65-1.18-5.52-1.94-8.64-4.21-17.1-8.23-22.9,6.08-50.53,13-25,26.5-45.35,27.73-44.63,34.85,20.36,37.52,3,37.52,3S1034.38,560.39,1034.06,600.93Z" transform="translate(-224.64 -269.85)"/><path class="cls-15" d="M1124.51,814.55l-26.17,72a43.13,43.13,0,0,1-14.18-1.2c-6.4-1.8-13.76-6.57-13.76-6.57s6.87-77.14,20.37-121.48Z" transform="translate(-224.64 -269.85)"/><path class="cls-10" d="M999.13,524.55s35.75,5.8,40.05,21.14l29.62,105.55s-18.13,3.39-26.58-4.94-29.72-77.59-29.72-77.59Z" transform="translate(-224.64 -269.85)"/><path class="cls-31" d="M1008.72,678.29c-25.46,1.87-70.28-2-72-6.71-6-16.25-1.88-21.34-7-46.25l12-34.69s-1.76,38.55,9.67,48.6,46.67,19.24,52.25,27.67A30.79,30.79,0,0,1,1008.72,678.29Z" transform="translate(-224.64 -269.85)"/><path class="cls-12" d="M979.42,662.29s25.09-5.78,29.16-3.58,14,10.26,15.31,13.08-9-2.08-12.39-3c-2.17-.56-7.85,1.46-10.67,2.42-11.83,4-19.11,2-19.11,2Z" transform="translate(-224.64 -269.85)"/><path class="cls-10" d="M961.59,521.51s-33.74,2.32-45.31,18.7c-16.28,23-48.22,121-29.43,133.95,21.16,14.54,95.87,3.17,95.87,3.17s2.4-11.65-1.1-17.25-59.83-14.3-62.45-16.88,32.11-50.86,32.05-58.66S961.59,521.51,961.59,521.51Z" transform="translate(-224.64 -269.85)"/><path class="cls-12" d="M1009.85,665.7s5.32,6.76,7,7.56a5.13,5.13,0,0,0,2.84.59l-3.59-6.37Z" transform="translate(-224.64 -269.85)"/><path class="cls-12" d="M1008.58,658.71,1024,666a2.73,2.73,0,0,1-2.53,1c-1.89-.07-6.65-1.78-6.65-1.78Z" transform="translate(-224.64 -269.85)"/><polygon class="cls-11" points="788.98 414.37 910.11 413.52 945.91 322.65 824.97 323.5 788.98 414.37"/><polygon class="cls-11" points="911.5 409.98 751.56 411.11 751.58 414.63 910.11 413.52 911.5 409.98"/><path class="cls-1" d="M1103.85,638.28c.89-3.19-1-5.76-4.15-5.74a8.26,8.26,0,0,0-7.38,5.82c-.89,3.19,1,5.76,4.15,5.74A8.26,8.26,0,0,0,1103.85,638.28Z" transform="translate(-224.64 -269.85)"/><path class="cls-32" d="M2107.52,973.71c-15.34-5.09-26,1.34-26,1.34-44.17,1.81-45.81,47.08-40.62,63.93,7.28,23.66-18.48,42.32,10.09,51.89,33.15,11.11,61-6.43,59.08-.71C2215,1098.42,2142.4,985.3,2107.52,973.71Z" transform="translate(-224.64 -269.85)"/><path class="cls-8" d="M2061.71,1193.88a116.08,116.08,0,0,1-11.81,17.86c-9.17,11.49-57.32-15.78-53.18-17.86s27.6-68.63,37.53-80.43a42.23,42.23,0,0,1,22-13.41Z" transform="translate(-224.64 -269.85)"/><path class="cls-33" d="M2224.2,1664s13.29,12.13,10.7,20.75-14.59,14.36-16.21,24.89-8.1,16.28-13.94,16.28h-27.81s-4.3-7.41,6.08-9.65,14.28-14.61,13.63-26.1,1-26.81,1-26.81l22.05-5.1Z" transform="translate(-224.64 -269.85)"/><path class="cls-33" d="M2111.72,1669.18s4.78,51.38-1.06,54.25l-74.67-.15s0-8.62,12-10.53,33.06-8.94,36.63-24.58S2111.72,1669.18,2111.72,1669.18Z" transform="translate(-224.64 -269.85)"/><path class="cls-8" d="M2169.16,1159.23a298.1,298.1,0,0,1,0,34.51c-.74,12.48-13.37,29.19-15.16,33.33-4.49,10.37-9.56,12.06-9.56,12.06l-39.2,9.61-13.79,3.37-43.47-13s-19.8-55.27-11.85-86.38,20.1-52.71,20.1-52.71,29.54-6.65,81.66-3Z" transform="translate(-224.64 -269.85)"/><path class="cls-34" d="M2172.89,1194.18c-.74,12.48-17.1,28.75-18.89,32.89-4.49,10.37-9.56,12.06-9.56,12.06l-39.2,9.61L2094.78,1234s63.47-17.66,51.45-73.61Z" transform="translate(-224.64 -269.85)"/><path class="cls-29" d="M2050.74,1247.51s-21.52,67-22.91,89.83S2069,1661.43,2070.7,1672c1.61,9.9,13.92,16.22,13.92,16.22s5.65,3.34,13.73,1.06c11.21-3.17,14.75-7,14.75-7s16.76-214.88,6.39-291.63a1216.84,1216.84,0,0,1-10.5-143.14Z" transform="translate(-224.64 -269.85)"/><path class="cls-15" d="M2142,1245.52s32.83,44.06,35.89,73.84,4.81,134.41,11.33,163.45,30.49,84.91,30.49,175.48c0,0-2.5,5.19-10.19,8a83.84,83.84,0,0,1-8.95,2.48,14.08,14.08,0,0,1-15.74-7.48c-16.21-32.61-67.81-137.82-70.46-159.66-1.87-15.45-18.17-117.74-53.71-177.76-8.53-14.41,5.24-71.71,5.24-71.71Z" transform="translate(-224.64 -269.85)"/><path class="cls-34" d="M2047.31,1237.17s8.64,6.84,25.81,7.18c20.51.42,71.32-5.23,71.32-5.23a42,42,0,0,1,2.17,13s-62.07,15.66-98,2.29C2048.58,1254.38,2044,1245.65,2047.31,1237.17Z" transform="translate(-224.64 -269.85)"/><path class="cls-16" d="M2068.2,1262c-5.16,0-9.36-4.76-9.36-10.6s4.2-10.59,9.36-10.59,9.35,4.75,9.35,10.59S2073.36,1262,2068.2,1262Zm0-18.09c-3.45,0-6.26,3.36-6.26,7.49s2.81,7.49,6.26,7.49,6.25-3.36,6.25-7.49S2071.65,1243.94,2068.2,1243.94Z" transform="translate(-224.64 -269.85)"/><polygon class="cls-35" points="1888.4 1011.44 1795.12 1012.31 1749.21 904.44 1842.49 903.57 1888.4 1011.44"/><path class="cls-12" d="M2100.83,1232.54l-6.83-8.4s-4.63-4.13-8-4.83-10.45-4.79-11.13-3.64,5.44,9.38,5.44,9.38l.32,0c-7,5.3-24.83.62-27,2.78-2.66,2.62,3.66,8.28,7.05,11.46s13.09,8.48,20.65,6.13c5.53-1.72,14.23-3.47,14.23-3.47Z" transform="translate(-224.64 -269.85)"/><path class="cls-12" d="M1980.87,1193.27s5.86-6.66,9.59-3.47-1,18.92-4.53,17.32S1978.83,1195.22,1980.87,1193.27Z" transform="translate(-224.64 -269.85)"/><path class="cls-8" d="M2137.89,1097.09s31.1,2.18,43,31.17,33.84,76.68,29.13,96.67c-1.88,8-24.54,35.57-119.05,18,0,0,.77-9.88,7.16-14.51,0,0,66.58-21.38,66.47-25.63-.22-8-9-15-46.19-52.21C2108.33,1140.5,2137.89,1097.09,2137.89,1097.09Z" transform="translate(-224.64 -269.85)"/><path class="cls-12" d="M2117.34,1098.5c.91-1.23-.26-5.15-1.73-12.46-1.33-6.62-3.58-16.85-3.54-28.37l-2,.33-33.1,5.57s.75,8.85.78,17.19v.2c0,7.24-2,18.18.48,19.61C2090.81,1107.92,2113.81,1103.24,2117.34,1098.5Z" transform="translate(-224.64 -269.85)"/><path class="cls-36" d="M2077,1063.57s.66,12.48.68,20.81c18.52-.44,28.4-18.42,32.42-26.38Z" transform="translate(-224.64 -269.85)"/><path class="cls-12" d="M2075,1078.45s43.39-6.18,39.12-33.14-1.53-45.91-29.41-43.1-31.63,13.94-32.39,23.28S2063.62,1079.37,2075,1078.45Z" transform="translate(-224.64 -269.85)"/><path class="cls-32" d="M2064.9,1004.68s16.89,29.74,35.82,31.52,26-4.35,26-4.35a52.13,52.13,0,0,1-21.68-27.74S2071.44,988.21,2064.9,1004.68Z" transform="translate(-224.64 -269.85)"/><path class="cls-32" d="M2068.25,1006.78s-8.26,4.69-10.86,11.67a44.12,44.12,0,0,0-1.91,25.68s-12.35-20.07-4.25-33.83C2059.81,995.71,2068.25,1006.78,2068.25,1006.78Z" transform="translate(-224.64 -269.85)"/><rect class="cls-37" y="1451.71" width="2556.33" height="7.02" rx="2.95"/></svg>