<svg id="Layer_1" data-name="Layer 1" xmlns="http://www.w3.org/2000/svg" viewBox="0 0 382.15 363.43"><defs><style>.cls-1{fill:#9a7c88;opacity:0.3;}.cls-2{fill:#23203a;}.cls-3{fill:#656c9a;}.cls-4{fill:#7d86b2;}.cls-5{fill:#ffad97;}.cls-6{fill:#ffc5b3;}.cls-7{fill:#bf9b90;}.cls-8{fill:#dfc4b7;}.cls-9{fill:#efd9d0;}.cls-10{fill:#ea6f53;}.cls-11{fill:#ceafa3;}.cls-12{fill:#34324c;}.cls-13{fill:#fff;}.cls-14{fill:#44435e;}.cls-15{fill:#4f4f68;}.cls-16{fill:#ff8f80;}.cls-17{fill:#bc9c91;}.cls-18{fill:#a6acc6;}.cls-19{fill:#bf9c91;}.cls-20{fill:#ad887f;}.cls-21{fill:#e05a44;}.cls-22{fill:#ce4638;}.cls-23{fill:#bc978b;}.cls-24{fill:#ff816c;}.cls-25{fill:#545470;}.cls-26{fill:#8c7988;}.cls-27{fill:#ce4132;}.cls-28{fill:#575770;}.cls-29{fill:#bf9e94;}.cls-30{fill:#d6543e;}.cls-31{fill:#7f0057;}</style></defs><title>labor-people</title><path class="cls-1" d="M118.33,301.05c0,7.11-10.84,12.88-24.22,12.88s-24.22-5.77-24.22-12.88,10.85-12.89,24.22-12.89S118.33,293.93,118.33,301.05Z" transform="translate(-33.74 -30.7)"/><path class="cls-1" d="M363.82,235.38c0,8.46-12.91,15.33-28.83,15.33s-28.83-6.87-28.83-15.33S319.07,220,335,220,363.82,226.91,363.82,235.38Z" transform="translate(-33.74 -30.7)"/><ellipse class="cls-1" cx="278.52" cy="340.24" rx="17.2" ry="9.15"/><path class="cls-1" d="M408.12,206.52c0,6.68-10.18,12.09-22.74,12.09s-22.74-5.41-22.74-12.09,10.18-12.1,22.74-12.1S408.12,199.84,408.12,206.52Z" transform="translate(-33.74 -30.7)"/><path class="cls-1" d="M230.32,89.78c0,6.68-10.18,12.09-22.74,12.09s-22.74-5.41-22.74-12.09,10.18-12.1,22.74-12.1S230.32,83.1,230.32,89.78Z" transform="translate(-33.74 -30.7)"/><path class="cls-1" d="M253,67.18c0,6.68-10.18,12.09-22.74,12.09s-22.74-5.41-22.74-12.09,10.18-12.1,22.74-12.1S253,60.5,253,67.18Z" transform="translate(-33.74 -30.7)"/><polygon class="cls-1" points="115.15 101.69 61.11 132.78 32.57 116.33 86.66 85.35 115.15 101.69"/><path class="cls-1" d="M257.88,365a50.16,50.16,0,0,0-7.59.57c-.53-3-3.91-5.52-8.67-6.84l17.49-10.06-28.5-16.33-54.09,31,28.54,16.46L220.31,371c2.51,2.13,6.7,3.63,11.58,4a8.64,8.64,0,0,0-1.39,4.59c0,8.05,12.26,14.57,27.38,14.57s27.38-6.52,27.38-14.57S273,365,257.88,365Z" transform="translate(-33.74 -30.7)"/><polygon class="cls-1" points="151.94 78.97 123.75 95.32 100.57 81.83 128.8 65.6 151.94 78.97"/><polygon class="cls-1" points="52.14 165.25 29.64 178.27 0 160.73 22.54 147.83 52.14 165.25"/><path class="cls-1" d="M408.79,278.51l-19,10.91A16.67,16.67,0,0,1,373,289.3l-15.46-9.14a3.23,3.23,0,0,1,0-5.58L385,259a4.78,4.78,0,0,1,4.77,0l19.12,11.25A4.76,4.76,0,0,1,408.79,278.51Z" transform="translate(-33.74 -30.7)"/><path class="cls-1" d="M337,207.79c16-9.25,14-25.55-4.51-36.23l-21.59-13c-18.5-10.68-46.74-11.85-62.76-2.6L93.27,245.32c-16,9.25-14,25.55,4.51,36.24l14.75,8.62c18.5,10.68,53.58,16.25,69.6,7Z" transform="translate(-33.74 -30.7)"/><path class="cls-1" d="M378.08,144.87c0,7.26-11.06,13.15-24.7,13.15s-24.71-5.89-24.71-13.15,11.06-13.14,24.71-13.14S378.08,137.62,378.08,144.87Z" transform="translate(-33.74 -30.7)"/><path class="cls-2" d="M339,136.53s-1.36,1.48-3.17,3.24-2.2,2.11-3.75,3.62c-.91.89-.16,1.7,1.57,1.64a31.18,31.18,0,0,0,6.89-1.49,36.35,36.35,0,0,0,5.17-2.69,3.45,3.45,0,0,0,1.53-1.94v-2.73Z" transform="translate(-33.74 -30.7)"/><path class="cls-2" d="M360.52,139.93s-.32,2.79-.51,6.3.3,6.61,1.37,7,4.13.34,5.87-4.53a19.33,19.33,0,0,0,.7-9.6Z" transform="translate(-33.74 -30.7)"/><path class="cls-3" d="M364.53,91.16c.64-10-5.41-14.5-5.41-14.5.44-3.37-16.75-.14-16.75-.14s-1.79,19.6-3.2,29.13c-1.61,10.84-.9,30.2-.9,30.2s.2,2.35,4.24,2.34a13.66,13.66,0,0,0,5.48-1.55,2.12,2.12,0,0,0,1.17-2.58c-.43-1.15.61-2.14,0-4.17a22.24,22.24,0,0,1-1.17-6,74.27,74.27,0,0,1,.49-10.82l3.59-17.82s2,16.19,2.89,21.43c.82,5,1.19,8.39,2.19,12.68.43,1.83,1.5,2.36,1.91,4.71.28,1.56-.27,2.75-.36,5.54-.07,2.32,5.66,3.18,9.25,1.39s3.67-2.91,2.88-3.8-1.1-.56-.63-5-2.15-11.18-4.89-17.34C364.93,106.93,364.24,95.75,364.53,91.16Z" transform="translate(-33.74 -30.7)"/><path class="cls-3" d="M338.59,76.25c1.89-3.11,3.44-5.73,3.44-5.73.45-.53.19-1.66.64-2.27,1.73-2,2.26-11.21,2.26-11.21l3.18-9.69s-3.57-2.56-6.7,2.49c-3,4.82-6.69,18.85-6.69,18.85S337.2,76.78,338.59,76.25Z" transform="translate(-33.74 -30.7)"/><path class="cls-4" d="M339.41,89.17c1.09,1.86,3.42,3.24,5.76,4.09a20.93,20.93,0,0,0,2.36-4.36,44.92,44.92,0,0,0,1.52,5.83,29.35,29.35,0,0,0,16.4-2.53c.57-4.13-1.4-15-1.52-17.08-.42-6.88.94-17.65.7-19.46-.4-3-7.26-6.31-7.26-6.31s-4.87-3.77-9.92-1.78c0,0-5.39,4.35-6,10.51-.32,3.06-.05,12.38,0,19.13C341.4,78.09,339.53,87.78,339.41,89.17Z" transform="translate(-33.74 -30.7)"/><path class="cls-3" d="M351.1,53.25s-2.06,3.08-2,4.61.22,10.19,0,13.1c-.12,1.55-.9,6.52-1,10.86a34.65,34.65,0,0,1-.65,7.08s-.25-3.63-.31-5.46.68-9.66.88-11.78.11-12.54,0-13.8S349.81,53,349.81,53Z" transform="translate(-33.74 -30.7)"/><path class="cls-5" d="M349.38,47.38l-.26,3.77a4.32,4.32,0,0,0,.77,2.87c1.71-.53,7.08-3.83,7.08-3.83l-1.32-7.36Z" transform="translate(-33.74 -30.7)"/><path class="cls-6" d="M356.38,34.73a6.23,6.23,0,0,0-10.25.76c-3.5,5.18-.19,13.66,2.87,13.16,1.72-.27,5.59-1.84,7.29-4.61C358.2,40.93,357.77,36.5,356.38,34.73Z" transform="translate(-33.74 -30.7)"/><path class="cls-2" d="M344.81,37.22a5.2,5.2,0,0,0,4.68,2.62,11.34,11.34,0,0,0,4.18-.58l-.2,3.13a3,3,0,0,0,.86-.12c.31-1.19.82-1.47,1.4-1s.56,2.74.56,2.74a8,8,0,0,0,2.46-5.71c0-2.23-1.95-7-6-7.56s-7,1.63-8,3.81A2.87,2.87,0,0,0,344.81,37.22Z" transform="translate(-33.74 -30.7)"/><path class="cls-6" d="M352.34,79.6A10.45,10.45,0,0,0,351,80.84a5.18,5.18,0,0,1-4,.93c-.86-.39-2.76-3.46-2.81-4.21s-.15-1.35,1.16-1.46c0-1.69,5.43-1,5.43-1S352.13,75.38,352.34,79.6Z" transform="translate(-33.74 -30.7)"/><polygon class="cls-7" points="304.43 48.73 314.78 54.79 306 39.9 295.64 33.84 304.43 48.73"/><polygon class="cls-8" points="314.78 54.79 315.74 54.2 306.96 39.31 306 39.9 314.78 54.79"/><polygon class="cls-9" points="295.64 33.84 296.6 33.25 306.96 39.31 306 39.9 295.64 33.84"/><path class="cls-10" d="M345.15,76.12l1.83-7a.52.52,0,1,1,1,.26l-1.8,6.86A7,7,0,0,0,345.15,76.12Z" transform="translate(-33.74 -30.7)"/><path class="cls-6" d="M333.44,71.22c1.95-.49,2.9,2.49,3.76,4.59.78,1.87-1.26,2.3-3.45.48S331.2,71.79,333.44,71.22Z" transform="translate(-33.74 -30.7)"/><path class="cls-3" d="M369.87,66.93c-1.5-6.86-3.13-12.52-7.21-14.25-2.36-1-3.88,5.62-3.46,9.47.48,4.47,1.93,5.8,3.79,9a55.12,55.12,0,0,0-12.73,3.14c1.41,2,2.22,7,2.22,7s13.91-2.08,16.85-3.54C371.39,76.72,370.94,71.81,369.87,66.93Z" transform="translate(-33.74 -30.7)"/><path class="cls-3" d="M356.4,47a5.12,5.12,0,0,1,1.73,1.43,12.44,12.44,0,0,1,1.07,1.92l-7,6.13L349.89,54Z" transform="translate(-33.74 -30.7)"/><path class="cls-3" d="M349.16,49.41a18.32,18.32,0,0,0,.73,4.61l-2.67.7S346.57,50.74,349.16,49.41Z" transform="translate(-33.74 -30.7)"/><polygon class="cls-11" points="105.89 65.19 123.49 75.31 123.49 92.33 105.89 82.24 105.89 65.19"/><polygon class="cls-8" points="146.89 62.01 123.49 75.31 123.49 92.33 146.89 79.06 146.89 62.01"/><polygon class="cls-12" points="125.83 79.2 144.16 68.78 144.16 77.31 125.83 87.71 125.83 79.2"/><polygon class="cls-13" points="127 84.4 143.08 75.26 143.08 76.64 127 85.76 127 84.4"/><polygon class="cls-2" points="105.89 65.27 118.37 72.33 123.49 75.31 123.49 77.94 105.89 67.92 105.89 65.27"/><polygon class="cls-12" points="146.89 62.09 123.49 75.38 123.49 77.94 146.89 64.67 146.89 62.09"/><polygon class="cls-14" points="146.89 62.09 134.03 54.81 111 68.11 123.49 75.38 146.89 62.09"/><polygon class="cls-12" points="140.64 56.98 117.24 70.27 117.24 71.82 140.64 58.55 140.64 56.98"/><polygon class="cls-12" points="137.69 63.1 127.74 68.87 127.74 70.42 137.69 64.68 137.69 63.1"/><polygon class="cls-15" points="140.64 56.98 128.91 50.33 105.89 63.63 117.24 70.28 123.73 66.59 127.74 68.91 137.74 63.11 133.82 60.86 140.64 56.98"/><path class="cls-11" d="M172.8,93.59c0,.44.68.8,1.51.8s1.52-.36,1.52-.8-.68-.81-1.52-.81S172.8,93.14,172.8,93.59Z" transform="translate(-33.74 -30.7)"/><rect class="cls-11" x="139.05" y="62.51" width="3.03" height="0.38"/><path class="cls-8" d="M172.8,93.21c0,.45.68.81,1.51.81s1.52-.36,1.52-.81-.68-.81-1.52-.81S172.8,92.76,172.8,93.21Z" transform="translate(-33.74 -30.7)"/><path class="cls-10" d="M173.09,93.13c0,.36.55.66,1.23.66s1.23-.3,1.23-.66-.55-.65-1.23-.65S173.09,92.77,173.09,93.13Z" transform="translate(-33.74 -30.7)"/><polygon class="cls-10" points="141.8 62.44 141.52 59.97 139.63 59.97 139.35 62.44 141.8 62.44"/><path class="cls-16" d="M173.37,90.66c0,.28.43.51.95.51s.94-.23.94-.51-.42-.5-.94-.5S173.37,90.39,173.37,90.66Z" transform="translate(-33.74 -30.7)"/><path class="cls-11" d="M155.5,103.61c0,.44.68.8,1.52.8s1.51-.36,1.51-.8-.67-.81-1.51-.81S155.5,103.16,155.5,103.61Z" transform="translate(-33.74 -30.7)"/><rect class="cls-11" x="121.76" y="72.53" width="3.03" height="0.38"/><path class="cls-8" d="M155.5,103.23c0,.45.68.81,1.52.81s1.51-.36,1.51-.81-.67-.81-1.51-.81S155.5,102.78,155.5,103.23Z" transform="translate(-33.74 -30.7)"/><path class="cls-12" d="M155.79,103.15c0,.36.55.66,1.23.66s1.23-.3,1.23-.66-.55-.65-1.23-.65S155.79,102.79,155.79,103.15Z" transform="translate(-33.74 -30.7)"/><polygon class="cls-12" points="124.51 72.45 124.22 69.99 122.33 69.99 122.05 72.45 124.51 72.45"/><path class="cls-15" d="M156.08,100.68c0,.28.42.51.94.51s.95-.23.95-.51-.43-.5-.95-.5S156.08,100.41,156.08,100.68Z" transform="translate(-33.74 -30.7)"/><polygon class="cls-2" points="117.24 70.27 117.24 72.25 105.89 65.53 105.89 63.63 117.24 70.27"/><polygon class="cls-2" points="123.73 66.59 123.73 68.14 127.74 70.42 127.74 68.91 123.73 66.59"/><polygon class="cls-13" points="128.01 67.94 136.21 63.17 132.99 61.32 124.79 66.08 128.01 67.94"/><polygon class="cls-16" points="108.48 64.22 113.34 61.39 112.39 60.86 107.53 63.69 108.48 64.22"/><polygon class="cls-16" points="110.39 65.31 115.24 62.49 114.29 61.96 109.43 64.79 110.39 65.31"/><polygon class="cls-12" points="111.75 67.04 134.75 53.66 133.79 53.1 110.79 66.48 111.75 67.04"/><path class="cls-11" d="M166.73,87.89c0,.52.79.94,1.76.94s1.76-.42,1.76-.94-.79-.93-1.76-.93S166.73,87.37,166.73,87.89Z" transform="translate(-33.74 -30.7)"/><rect class="cls-11" x="132.99" y="56.44" width="3.51" height="0.75"/><path class="cls-9" d="M166.73,87.09c0,.51.79.93,1.76.93s1.76-.42,1.76-.93-.79-.94-1.76-.94S166.73,86.57,166.73,87.09Z" transform="translate(-33.74 -30.7)"/><path class="cls-11" d="M168.49,86.48c-.75,0-1.36.3-1.44.69,0,0,0-.06,0-.08,0-.43.65-.78,1.45-.78s1.45.35,1.45.78a.31.31,0,0,1,0,.08C169.84,86.78,169.24,86.48,168.49,86.48Z" transform="translate(-33.74 -30.7)"/><path class="cls-17" d="M168.49,87.86c-.75,0-1.36-.31-1.44-.69.08-.39.69-.69,1.44-.69s1.35.3,1.43.69C169.84,87.55,169.24,87.86,168.49,87.86Z" transform="translate(-33.74 -30.7)"/><path class="cls-11" d="M162.69,90.23c0,.52.78.94,1.75.94s1.76-.42,1.76-.94-.78-.93-1.76-.93S162.69,89.72,162.69,90.23Z" transform="translate(-33.74 -30.7)"/><rect class="cls-11" x="128.95" y="58.78" width="3.51" height="0.75"/><path class="cls-9" d="M162.69,89.43c0,.51.78.93,1.75.93s1.76-.42,1.76-.93-.78-.94-1.76-.94S162.69,88.91,162.69,89.43Z" transform="translate(-33.74 -30.7)"/><path class="cls-11" d="M164.44,88.82c-.74,0-1.35.3-1.43.69a.31.31,0,0,1,0-.08c0-.43.65-.78,1.45-.78s1.45.35,1.45.78c0,0,0,0,0,.08C165.8,89.12,165.19,88.82,164.44,88.82Z" transform="translate(-33.74 -30.7)"/><path class="cls-17" d="M164.44,90.2c-.74,0-1.35-.31-1.43-.69.08-.39.69-.69,1.43-.69s1.36.3,1.44.69C165.8,89.89,165.19,90.2,164.44,90.2Z" transform="translate(-33.74 -30.7)"/><path class="cls-11" d="M158.49,92.69c0,.51.79.93,1.76.93s1.76-.42,1.76-.93-.79-.94-1.76-.94S158.49,92.17,158.49,92.69Z" transform="translate(-33.74 -30.7)"/><rect class="cls-11" x="124.75" y="61.24" width="3.51" height="0.75"/><ellipse class="cls-9" cx="126.51" cy="61.18" rx="1.76" ry="0.94"/><path class="cls-11" d="M160.25,91.27c-.75,0-1.36.31-1.44.69,0,0,0,0,0-.08,0-.42.65-.77,1.45-.77s1.45.35,1.45.77a.19.19,0,0,1,0,.08C161.61,91.58,161,91.27,160.25,91.27Z" transform="translate(-33.74 -30.7)"/><path class="cls-17" d="M160.25,92.65c-.75,0-1.36-.3-1.44-.69.08-.38.69-.69,1.44-.69s1.36.31,1.43.69S161,92.65,160.25,92.65Z" transform="translate(-33.74 -30.7)"/><path class="cls-11" d="M154.45,95c0,.51.79.93,1.76.93S158,95.54,158,95s-.79-.94-1.76-.94S154.45,94.51,154.45,95Z" transform="translate(-33.74 -30.7)"/><rect class="cls-11" x="120.71" y="63.58" width="3.51" height="0.75"/><path class="cls-9" d="M154.45,94.22c0,.52.79.94,1.76.94s1.76-.42,1.76-.94-.79-.93-1.76-.93S154.45,93.71,154.45,94.22Z" transform="translate(-33.74 -30.7)"/><path class="cls-11" d="M156.21,93.61c-.75,0-1.36.31-1.44.69,0,0,0,0,0-.08,0-.42.65-.77,1.45-.77s1.45.35,1.45.77a.19.19,0,0,1,0,.08C157.56,93.92,157,93.61,156.21,93.61Z" transform="translate(-33.74 -30.7)"/><path class="cls-17" d="M156.21,95c-.75,0-1.36-.3-1.44-.69.08-.38.69-.69,1.44-.69s1.35.31,1.43.69C157.56,94.69,157,95,156.21,95Z" transform="translate(-33.74 -30.7)"/><path class="cls-11" d="M150,97.53c0,.52.79.94,1.76.94s1.76-.42,1.76-.94-.79-.93-1.76-.93S150,97,150,97.53Z" transform="translate(-33.74 -30.7)"/><rect class="cls-11" x="116.23" y="66.08" width="3.51" height="0.75"/><path class="cls-9" d="M150,96.73c0,.51.79.93,1.76.93s1.76-.42,1.76-.93-.79-.94-1.76-.94S150,96.21,150,96.73Z" transform="translate(-33.74 -30.7)"/><path class="cls-11" d="M151.73,96.12c-.75,0-1.36.3-1.44.69,0,0,0,0,0-.08,0-.43.65-.77,1.45-.77s1.45.34,1.45.77a.24.24,0,0,1,0,.08C153.08,96.42,152.48,96.12,151.73,96.12Z" transform="translate(-33.74 -30.7)"/><path class="cls-17" d="M151.73,97.5c-.75,0-1.36-.3-1.44-.69.08-.39.69-.69,1.44-.69s1.35.3,1.43.69C153.08,97.2,152.48,97.5,151.73,97.5Z" transform="translate(-33.74 -30.7)"/><path class="cls-12" d="M135.31,76.36,141,73.1a1.66,1.66,0,0,0,1-1.33c0-.66-.55-1.34-1.5-1.89l-9-5.21a8,8,0,0,0-3.87-1,6,6,0,0,0-2.88.64l-2.74,1.58c-.38-.22-.76-.44-1.14-.68l3.3-1.9c2-1.18,5.58-1,7.91.3l9,5.21a3.57,3.57,0,0,1,2.08,2.9,2.74,2.74,0,0,1-1.55,2.34l-5.33,3.07Z" transform="translate(-33.74 -30.7)"/><path class="cls-2" d="M92.55,153.16a6.24,6.24,0,0,0,2.62,5c1.44.84,2.61-.05,2.61-2a6.26,6.26,0,0,0-2.61-5C93.72,150.34,92.55,151.23,92.55,153.16Z" transform="translate(-33.74 -30.7)"/><polygon class="cls-2" points="57.82 121.47 59.84 120.28 63.13 127.6 61.03 128.81 57.82 121.47"/><path class="cls-12" d="M90.44,154.38a6.24,6.24,0,0,0,2.62,5c1.44.84,2.61-.05,2.61-2a6.26,6.26,0,0,0-2.61-5C91.61,151.57,90.44,152.45,90.44,154.38Z" transform="translate(-33.74 -30.7)"/><path class="cls-13" d="M91.56,155.13a3.14,3.14,0,0,0,1.32,2.51c.73.42,1.32,0,1.32-1a3.16,3.16,0,0,0-1.32-2.52C92.15,153.71,91.56,154.16,91.56,155.13Z" transform="translate(-33.74 -30.7)"/><path class="cls-11" d="M95.93,151.37v4.31a17.69,17.69,0,0,1-2.2.91c-1.18.39-1.66-.69-1.29-2.14a43.48,43.48,0,0,1,1.45-4.27Z" transform="translate(-33.74 -30.7)"/><polygon class="cls-8" points="62.19 120.67 64.32 119.47 64.32 123.77 62.19 124.98 62.19 120.67"/><polygon class="cls-9" points="63.85 119 62.19 119.95 60.53 118.98 60.15 119.49 62.19 120.67 64.32 119.47 63.85 119"/><path class="cls-2" d="M136.8,127.7a6.28,6.28,0,0,0,2.61,5c1.45.83,2.62,0,2.62-2a6.26,6.26,0,0,0-2.62-5C138,124.89,136.8,125.77,136.8,127.7Z" transform="translate(-33.74 -30.7)"/><polygon class="cls-2" points="102.07 96.01 104.08 94.83 107.38 102.14 105.27 103.35 102.07 96.01"/><path class="cls-12" d="M134.69,128.92a6.28,6.28,0,0,0,2.61,5c1.45.83,2.62,0,2.62-2a6.26,6.26,0,0,0-2.62-5C135.86,126.11,134.69,127,134.69,128.92Z" transform="translate(-33.74 -30.7)"/><path class="cls-13" d="M135.81,129.67a3.16,3.16,0,0,0,1.32,2.52c.72.42,1.31,0,1.31-1a3.18,3.18,0,0,0-1.31-2.52C136.4,128.25,135.81,128.7,135.81,129.67Z" transform="translate(-33.74 -30.7)"/><path class="cls-11" d="M140.18,125.92v4.3a16.87,16.87,0,0,1-2.2.92c-1.19.38-1.66-.7-1.29-2.14a43.61,43.61,0,0,1,1.44-4.27Z" transform="translate(-33.74 -30.7)"/><polygon class="cls-8" points="106.44 95.22 108.57 94.01 108.57 98.31 106.44 99.52 106.44 95.22"/><polygon class="cls-9" points="108.09 93.54 106.44 94.5 104.78 93.52 104.39 94.03 106.44 95.22 108.57 94.01 108.09 93.54"/><path class="cls-2" d="M72.53,141.42a6.26,6.26,0,0,0,2.61,5c1.45.83,2.62,0,2.62-2a6.28,6.28,0,0,0-2.62-5C73.7,138.61,72.53,139.5,72.53,141.42Z" transform="translate(-33.74 -30.7)"/><polygon class="cls-2" points="37.8 109.73 39.81 108.55 43.1 115.86 41 117.08 37.8 109.73"/><path class="cls-12" d="M70.41,142.64a6.25,6.25,0,0,0,2.62,5c1.44.83,2.61,0,2.61-2a6.26,6.26,0,0,0-2.61-5C71.58,139.83,70.41,140.72,70.41,142.64Z" transform="translate(-33.74 -30.7)"/><path class="cls-13" d="M71.54,143.39a3.18,3.18,0,0,0,1.31,2.52c.73.42,1.32,0,1.32-1a3.14,3.14,0,0,0-1.32-2.51C72.13,142,71.54,142.42,71.54,143.39Z" transform="translate(-33.74 -30.7)"/><path class="cls-11" d="M75.91,139.64v4.3a16.65,16.65,0,0,1-2.21.92c-1.18.39-1.66-.7-1.28-2.14a44.68,44.68,0,0,1,1.44-4.27Z" transform="translate(-33.74 -30.7)"/><polygon class="cls-8" points="42.16 108.94 44.3 107.73 44.3 112.03 42.16 113.25 42.16 108.94"/><polygon class="cls-9" points="43.82 107.26 42.16 108.22 40.51 107.24 40.12 107.75 42.16 108.94 44.3 107.73 43.82 107.26"/><polygon class="cls-3" points="40.61 54.56 62.73 67.32 62.73 120.19 40.61 107.47 40.61 54.56"/><polygon class="cls-4" points="107.8 41.34 62.73 67.32 62.73 120.19 107.8 94.28 107.8 41.34"/><polygon class="cls-13" points="63.79 68.18 106.79 43.5 106.79 48.63 63.79 73.24 63.79 68.18"/><polygon class="cls-3" points="62.73 75.21 107.8 49.23 107.8 50.59 62.73 76.51 62.73 75.21"/><polygon class="cls-12" points="76.92 61.81 96.25 50.66 96.25 52.4 76.92 63.52 76.92 61.81"/><polygon class="cls-13" points="63.79 77.49 106.79 52.81 106.79 57.93 63.79 82.55 63.79 77.49"/><polygon class="cls-3" points="62.73 84.52 107.8 58.53 107.8 59.9 62.73 85.82 62.73 84.52"/><polygon class="cls-12" points="76.92 71.12 96.25 59.97 96.25 61.71 76.92 72.82 76.92 71.12"/><polygon class="cls-13" points="63.79 86.69 106.79 62.01 106.79 67.14 63.79 91.75 63.79 86.69"/><polygon class="cls-3" points="62.73 93.72 107.8 67.74 107.8 69.1 62.73 95.02 62.73 93.72"/><polygon class="cls-12" points="76.92 80.32 96.25 69.18 96.25 70.91 76.92 82.03 76.92 80.32"/><polygon class="cls-13" points="63.79 96.1 106.79 71.42 106.79 80.08 63.79 104.69 63.79 96.1"/><polygon class="cls-12" points="76.92 89.73 96.25 78.59 96.25 80.32 76.92 91.44 76.92 89.73"/><polygon class="cls-3" points="62.73 107.36 107.8 81.38 107.8 82.75 62.73 108.67 62.73 107.36"/><polygon class="cls-13" points="63.79 109.62 106.79 84.94 106.79 93.59 63.79 118.21 63.79 109.62"/><polygon class="cls-12" points="76.92 103.25 96.25 92.1 96.25 93.84 76.92 104.95 76.92 103.25"/><polygon class="cls-18" points="107.8 41.34 62.73 67.32 40.61 54.56 85.71 28.67 107.8 41.34"/><polygon class="cls-8" points="62.73 120.2 108.57 93.8 108.57 95.17 62.73 121.58 62.73 120.2"/><polygon class="cls-9" points="62.73 119.34 107.8 93.36 108.57 93.8 62.73 120.23 62.73 119.34"/><polygon class="cls-11" points="62.73 120.2 39.84 107.02 39.84 108.39 62.73 121.58 62.73 120.2"/><polygon class="cls-8" points="41.74 58.53 61.08 69.67 61.08 71.92 41.74 60.78 41.74 58.53"/><polygon class="cls-9" points="62.73 119.34 40.61 106.58 39.84 107.02 62.73 120.23 62.73 119.34"/><path class="cls-12" d="M74.62,91.88l2.14-1.25.48,1.06-2,1.2a1.65,1.65,0,0,0-1,1.33c0,.65.55,1.33,1.49,1.88l9,5.19a7.6,7.6,0,0,0,6.73.31l2-1.15.52,1L92,102.6a7,7,0,0,1-3.46.8,9.12,9.12,0,0,1-4.43-1.1l-9-5.19a3.58,3.58,0,0,1-2.07-2.89A2.74,2.74,0,0,1,74.62,91.88Z" transform="translate(-33.74 -30.7)"/><path class="cls-12" d="M93.29,100.74a.92.92,0,0,0,.38.73c.21.12.38,0,.38-.29a.93.93,0,0,0-.38-.73C93.46,100.33,93.29,100.46,93.29,100.74Z" transform="translate(-33.74 -30.7)"/><path class="cls-12" d="M76.64,90.93a.92.92,0,0,0,.38.73c.21.12.38,0,.38-.29a.9.9,0,0,0-.38-.72C76.81,90.52,76.64,90.65,76.64,90.93Z" transform="translate(-33.74 -30.7)"/><path class="cls-19" d="M93.27,88.42a3,3,0,0,1,.24-.39A3.77,3.77,0,0,1,96.88,87a3.38,3.38,0,0,0,2.22-.4c1.06-.61,12.75-7.39,14.08-8.2l2.48,1.43c-2.13,1.2-14,8-14.09,8.12-.4.26-.29.68-.21,1a1.74,1.74,0,0,1-.86,2,3.91,3.91,0,0,1-3,.65.54.54,0,0,1,.09-.17c.22-.27.72-.92,1-1.26s-.47-.74-1.4-1c-1.1-.33-1.62-.31-1.86-.12a11.7,11.7,0,0,0-1.26,1.32,1.53,1.53,0,0,1-.13.13v-.7Z" transform="translate(-33.74 -30.7)"/><path class="cls-20" d="M93.27,88.42l.66,1.28v.7A1.57,1.57,0,0,1,93.27,88.42Z" transform="translate(-33.74 -30.7)"/><rect class="cls-20" x="59.37" y="57.71" width="0.88" height="0.67"/><path class="cls-19" d="M117.09,77.41a2,2,0,0,0-1.5-.81,3.78,3.78,0,0,0-1.8.51l2.94.51Z" transform="translate(-33.74 -30.7)"/><path class="cls-19" d="M113.54,77.35a2.94,2.94,0,0,1,1.3-.33v.53h0a1.5,1.5,0,0,0-.29.06v-.47l-.52.06v.69a.62.62,0,0,0-.15.22c.2,0,.35.11.36.19s-.15.15-.36.17a.84.84,0,0,0,.27.38.64.64,0,0,1,.51,0c.12.07.1.18,0,.28a2.49,2.49,0,0,0,.61.16.26.26,0,0,1,.29-.23.43.43,0,0,1,.35.24,2.59,2.59,0,0,0,.4-.09c-.14-.11-.18-.22-.09-.27a.67.67,0,0,1,.51,0,.72.72,0,0,0,.18-.26c-.23,0-.4-.11-.41-.2s.16-.16.39-.17a.82.82,0,0,0-.26-.35v-.66l.35.17c1,.59,1.12,1.47.25,2a3.81,3.81,0,0,1-3.41-.14C112.78,78.74,112.67,77.86,113.54,77.35Z" transform="translate(-33.74 -30.7)"/><path class="cls-19" d="M116,77.66a2.48,2.48,0,0,0-.54-.12V77a4.64,4.64,0,0,1,1,.22l-.2.26Z" transform="translate(-33.74 -30.7)"/><path class="cls-20" d="M116.44,77.26,116,77.2s0,.61,0,.66a.14.14,0,0,0,.08.13.67.67,0,0,0,.52,0v-.69Z" transform="translate(-33.74 -30.7)"/><path class="cls-20" d="M114.5,77.91a.63.63,0,0,1-.48,0v-.69l.52-.06v.71A.1.1,0,0,1,114.5,77.91Z" transform="translate(-33.74 -30.7)"/><path class="cls-20" d="M114.84,77v-.18h.62V77A4.33,4.33,0,0,0,114.84,77Z" transform="translate(-33.74 -30.7)"/><path class="cls-20" d="M115.17,77.75a.43.43,0,0,1-.33-.2V77a4.33,4.33,0,0,1,.62,0v.5A.29.29,0,0,1,115.17,77.75Z" transform="translate(-33.74 -30.7)"/><rect class="cls-19" x="81.48" y="48.21" width="1.29" height="0.52"/><path class="cls-20" d="M114.22,77.62v.6s-.3,0-.38-.18a1.06,1.06,0,0,1-.08-.34Z" transform="translate(-33.74 -30.7)"/><rect class="cls-19" x="83.4" y="47.21" width="0.65" height="0.63"/><polygon class="cls-20" points="80.99 47.54 80.99 47.85 80.78 47.74 80.99 47.54"/><rect class="cls-19" x="66.94" y="58" width="0.74" height="0.65"/><polygon class="cls-20" points="82.73 47.11 82.73 47.67 83.08 47.78 83.28 47.34 82.73 47.11"/><polygon class="cls-20" points="82.4 47.61 82.4 48.17 82.75 48.28 82.95 47.84 82.4 47.61"/><path class="cls-19" d="M97.51,90.83v.69a1.85,1.85,0,0,0,.92-.14,2.2,2.2,0,0,0,.46-.67Z" transform="translate(-33.74 -30.7)"/><path class="cls-8" d="M99.1,85.86c1.06-.61,12.75-7.39,14.08-8.21l2.48,1.44c-2.13,1.2-14,8-14.09,8.11-.4.26-.29.68-.21,1a1.74,1.74,0,0,1-.86,2,3.91,3.91,0,0,1-3,.65.54.54,0,0,1,.09-.18,2.72,2.72,0,0,0,1.86-.25c1-.54,1.56-1.19,1.37-1.89-.23-.85-1.1-1.58-2.72-1.88-1.09-.2-2.8-.35-3.64.27-1.14.84-1.38,1.72-.41,2.67a.76.76,0,0,1-.13.13,1.54,1.54,0,0,1-.42-2.36,3.77,3.77,0,0,1,3.37-1.08A3.38,3.38,0,0,0,99.1,85.86Z" transform="translate(-33.74 -30.7)"/><path class="cls-9" d="M94.47,86.9c.84-.62,2.55-.47,3.64-.27,1.62.3,2.49,1,2.72,1.88.19.7-.4,1.35-1.37,1.89a2.72,2.72,0,0,1-1.86.25c.22-.27.72-.92,1-1.26s-.47-.73-1.4-1c-1.1-.33-1.62-.32-1.86-.12a11,11,0,0,0-1.26,1.31C93.09,88.62,93.33,87.74,94.47,86.9Z" transform="translate(-33.74 -30.7)"/><path class="cls-9" d="M112,79.67a1.56,1.56,0,0,0-1.41,0L101,85.24c-.36.21-.31.57.12.81h0a1.56,1.56,0,0,0,1.41,0l9.55-5.61c.36-.22.3-.58-.12-.82Z" transform="translate(-33.74 -30.7)"/><path class="cls-8" d="M113.79,78.63c-1-.59-1.12-1.47-.25-2a3.81,3.81,0,0,1,3.41.14c1,.58,1.12,1.46.25,2A3.81,3.81,0,0,1,113.79,78.63Zm2.81-1.34a.67.67,0,0,1-.52,0c-.12-.07-.1-.19,0-.3a2.94,2.94,0,0,0-.65-.16.27.27,0,0,1-.29.21.42.42,0,0,1-.34-.2,1.89,1.89,0,0,0-.41.1c.13.1.17.21.08.26a.62.62,0,0,1-.48,0,.58.58,0,0,0-.15.21c.2,0,.35.12.36.2s-.15.15-.36.16a.84.84,0,0,0,.27.38.64.64,0,0,1,.51,0c.12.06.1.18,0,.28a2.49,2.49,0,0,0,.61.16.26.26,0,0,1,.29-.23.42.42,0,0,1,.35.23,1.77,1.77,0,0,0,.4-.08c-.14-.11-.18-.22-.09-.28a.67.67,0,0,1,.51,0,.69.69,0,0,0,.18-.25c-.23,0-.4-.12-.41-.2s.16-.16.39-.17A.82.82,0,0,0,116.6,77.29Z" transform="translate(-33.74 -30.7)"/><polygon class="cls-20" points="81.92 48.39 81.92 49.08 67.83 57.2 67.83 56.51 81.92 48.39"/><path class="cls-11" d="M111.89,68.9c0,1.51,2.17,2.74,4.86,2.74s4.86-1.23,4.86-2.74-2.18-2.74-4.86-2.74S111.89,67.39,111.89,68.9Z" transform="translate(-33.74 -30.7)"/><path class="cls-11" d="M121.09,70.13a4.33,4.33,0,0,0,1.34-2.93c0-1.31-5.16.4-5.16.4Z" transform="translate(-33.74 -30.7)"/><path class="cls-11" d="M112.38,70.13A4.33,4.33,0,0,1,111,67.2c0-1.31,5.17.4,5.17.4Z" transform="translate(-33.74 -30.7)"/><rect class="cls-8" x="77.3" y="16.21" width="11.41" height="20.01"/><path class="cls-8" d="M111,66.92c0,1.77,2.56,3.21,5.71,3.21s5.7-1.44,5.7-3.21-2.55-3.21-5.7-3.21S111,65.14,111,66.92Z" transform="translate(-33.74 -30.7)"/><path class="cls-11" d="M111,46.91c0,1.77,2.56,3.21,5.71,3.21s5.7-1.44,5.7-3.21-2.55-3.21-5.7-3.21S111,45.14,111,46.91Z" transform="translate(-33.74 -30.7)"/><path class="cls-12" d="M115,53.61a10,10,0,0,0,1.76.16c3.16,0,5.71-1.43,5.71-3.21v14c0,1.77-2.55,3.21-5.71,3.21a10,10,0,0,1-1.76-.16Z" transform="translate(-33.74 -30.7)"/><path class="cls-11" d="M116.86,40.76l2.49-.18a22.68,22.68,0,0,1,3,5.64c.62,2.2-2.39,2.19-5.46,1.66Z" transform="translate(-33.74 -30.7)"/><path class="cls-11" d="M117.52,40.76l-3.43-.18a22.79,22.79,0,0,0-3,5.64c-.63,2.2,3.33,2.19,6.39,1.66Z" transform="translate(-33.74 -30.7)"/><path class="cls-8" d="M114,41c0,.85,1.22,1.54,2.73,1.54s2.73-.69,2.73-1.54-1.22-1.54-2.73-1.54S114,40.11,114,41Z" transform="translate(-33.74 -30.7)"/><rect class="cls-8" x="80.24" y="8.13" width="5.46" height="2.13"/><path class="cls-9" d="M114,38.83c0,.85,1.22,1.53,2.73,1.53s2.73-.68,2.73-1.53-1.22-1.54-2.73-1.54S114,38,114,38.83Z" transform="translate(-33.74 -30.7)"/><path class="cls-11" d="M115,38.69c0,.54.77,1,1.72,1s1.72-.43,1.72-1-.77-1-1.72-1S115,38.15,115,38.69Z" transform="translate(-33.74 -30.7)"/><rect class="cls-3" x="81.22" y="6.39" width="3.44" height="1.6"/><path class="cls-13" d="M115.72,55a8.94,8.94,0,0,0,1.59.15c2.83,0,5.12-1.3,5.12-2.89V53c0,1.59-2.29,2.88-5.12,2.88a8.94,8.94,0,0,1-1.59-.15Z" transform="translate(-33.74 -30.7)"/><path class="cls-13" d="M120.19,57.83s2,3.4,0,4.61S120.19,57.83,120.19,57.83Z" transform="translate(-33.74 -30.7)"/><path class="cls-12" d="M117.66,34.89V39.2a4.32,4.32,0,0,1-1,.11V34.89Z" transform="translate(-33.74 -30.7)"/><path class="cls-12" d="M116.37,34.89v4.4a4.26,4.26,0,0,1-.82-.12V34.89Z" transform="translate(-33.74 -30.7)"/><path class="cls-12" d="M118.79,34.89v3.88a3.35,3.35,0,0,1-.81.35V34.89Z" transform="translate(-33.74 -30.7)"/><path class="cls-12" d="M115.24,34.89v4.19a2.79,2.79,0,0,1-.81-.41V34.89Z" transform="translate(-33.74 -30.7)"/><path class="cls-12" d="M113.84,34.89h.28v3.5a1.1,1.1,0,0,1-.28-.68Z" transform="translate(-33.74 -30.7)"/><path class="cls-12" d="M119.52,34.89v2.82a1.16,1.16,0,0,1-.41.82V34.89Z" transform="translate(-33.74 -30.7)"/><path class="cls-2" d="M119.11,34.89v3.64a3,3,0,0,1-.32.24V34.89Z" transform="translate(-33.74 -30.7)"/><path class="cls-2" d="M118,34.89v4.23l-.32.08V34.89Z" transform="translate(-33.74 -30.7)"/><path class="cls-2" d="M116.68,34.89v4.42h0l-.31,0v-4.4Z" transform="translate(-33.74 -30.7)"/><path class="cls-2" d="M115.55,34.89v4.28a2.8,2.8,0,0,1-.31-.09V34.89Z" transform="translate(-33.74 -30.7)"/><path class="cls-2" d="M114.43,34.89v3.78a1.7,1.7,0,0,1-.31-.28v-3.5Z" transform="translate(-33.74 -30.7)"/><path class="cls-14" d="M113.84,34.89c0,.88,1.27,1.6,2.84,1.6s2.84-.72,2.84-1.6-1.27-1.6-2.84-1.6S113.84,34,113.84,34.89Z" transform="translate(-33.74 -30.7)"/><path class="cls-12" d="M114.43,34.89c0,.68,1,1.24,2.21,1.24s2.21-.56,2.21-1.24-1-1.24-2.21-1.24S114.43,34.2,114.43,34.89Z" transform="translate(-33.74 -30.7)"/><path class="cls-6" d="M321.9,267.07s3.28.15,6,7.45,2.5,8.07,2.13,10.43c-.55,3.52-3.8,8.31-6.25,11a30.54,30.54,0,0,1-4.84,4.28l-3.41-4.75Z" transform="translate(-33.74 -30.7)"/><path class="cls-6" d="M316.55,366.58c-2-1-3.85-2.19-3.25-3.32a2,2,0,0,1,1.51-.83c1.82.6,2.72,1,2.72,1s.16-12.81-.59-22.85a85.67,85.67,0,0,0-2.2-13c-.25-1.44,8.1-3.25,8.1-3.25-2.18.95,1.56,7.5,1.86,14.68.38,9.25-1.24,20.28-1.5,23.32a15.68,15.68,0,0,0,.08,3.87l-2.16,1A5.52,5.52,0,0,1,316.55,366.58Z" transform="translate(-33.74 -30.7)"/><path class="cls-2" d="M323.36,369c-.66,1.57-2.18,1.43-5.25.32a26.32,26.32,0,0,1-6.91-3.52c-1.94-1.44-2-1.63-2.22-2.6-.36-1.36,1.63-2.12,4.92-1.09l.91.29a2,2,0,0,0-1.51.83c-.6,1.13,1.28,2.33,3.25,3.32a5.52,5.52,0,0,0,4.57.54l2.16-1C323.48,367.48,323.75,368.09,323.36,369Z" transform="translate(-33.74 -30.7)"/><path class="cls-6" d="M305.71,372.8c-2-1-3.84-2.19-3.24-3.32a2,2,0,0,1,1.5-.83c1.82.6,2.73,1,2.73,1s-1.42-35.57-2.2-39.94c-.25-1.45,8.69,0,8.69,0a33.1,33.1,0,0,0-.69,6.77c1,4,.8,8.45.23,14.86a126.45,126.45,0,0,0-.29,21l-2.16,1C309.3,373.78,307.69,373.78,305.71,372.8Z" transform="translate(-33.74 -30.7)"/><path class="cls-2" d="M312.52,375.25c-.65,1.57-2.17,1.43-5.25.32a26.63,26.63,0,0,1-6.91-3.52c-1.94-1.44-1.95-1.63-2.21-2.6-.36-1.35,1.62-2.11,4.92-1.09l.9.29a2,2,0,0,0-1.5.83c-.6,1.13,1.27,2.33,3.24,3.32s3.59,1,4.57.54l2.16-1C312.64,373.7,312.92,374.31,312.52,375.25Z" transform="translate(-33.74 -30.7)"/><path class="cls-6" d="M313.26,248.71c-.76.53-3.6,1.18-4.39,7.44-.71,5.54.51,7,1.64,7.45a13.05,13.05,0,0,0,2.84.26l-.09,4.68a8,8,0,0,0,5.38,0l2.63-1.09a9.32,9.32,0,0,1-.85-4.84c.21-3.81,1.56-9.23.61-11.25A5.45,5.45,0,0,0,313.26,248.71Z" transform="translate(-33.74 -30.7)"/><path class="cls-10" d="M305.64,298.5c1-4.37,1.26-13.69,1.26-13.69s-2.13-6.48-.11-10.54,4.2-5.06,6.14-5.71,8.29-2.41,8.29-2.41,5.3,6.5,3.92,12.58c-2.3,10.13-6,11.89-5.31,16.66,0,0,4.14,8.47,4.72,10.86.75,3.1,2.84,24.76,2.84,24.76s-8.1,6.29-14.89,5.47c-5.55-.67-10.14-5.47-10.14-5.47S304.68,302.88,305.64,298.5Z" transform="translate(-33.74 -30.7)"/><path class="cls-6" d="M309.27,272.29c-1.17.11-2.92,2.2-4.21,6.74-1.22,4.28-1.29,12-2,15.17-.5,1.44-2.79,12.18-3.41,15.89a16.25,16.25,0,0,0-2.13,8c-.1,5.6,2.5,6,3.91,4.27,1.16-1.39,1.68-7.74,1.83-10a42.27,42.27,0,0,1,3.16-8.39,36.63,36.63,0,0,0,2.92-7c1.06-5,3-14.59,3.15-18.08C312.66,275.15,310.93,272.13,309.27,272.29Z" transform="translate(-33.74 -30.7)"/><path class="cls-6" d="M310.51,257.07s1.64-2.81,2.35,0a2.86,2.86,0,0,1-1.62,3.5Z" transform="translate(-33.74 -30.7)"/><path class="cls-2" d="M312.5,246.54c1.66-.77,3.63-2.72,7.29-.3s5.83,8.26,5.58,10.93-2.32,5.73,1.61,7.92,4.41,3.44,3.31,6.51-2.8,4.45-.52,6c3.15,2.09,3,6.08,1.76,7.4-2.11,2.35-3.69,1.71-3.43,3.3.45,2.74,2.39,5.7-.92,7.13-3.51,1.52-5.38-.7-5.38-.7s3.57.23,3.57-2.49-2-.78-6.88-1.24c-5.51-.52-5.53-3.09-5.76-7.57s-6.47-4.92-4.07-8.28,5.36-4.3,1.85-5.43c-1.85-.6-2.05-4.58-1.38-6.08,1-2.31,4.22-3.37,2-5.41-1.23-1.12-4.87-2-3.45-8.09C308,248.47,310.59,247.42,312.5,246.54Z" transform="translate(-33.74 -30.7)"/><path class="cls-21" d="M327.26,329.71s1.36,5,1.16,6.84-1.65,1.28-3.72,2.42.52,3.94-2.79,3.94c-2.36,0,.07,4-4.66,2.93-4-.93-1,1.94-2.7,2.72a11.62,11.62,0,0,1-5.61.87c-2.86-.16-2.15,2.45-5.58,1.91-1.2-.18-3.14-2.11-3.52-3.51s3.68-30.15,3.68-30.15,1.47,11.55,9.67,12A113.71,113.71,0,0,0,327.26,329.71Z" transform="translate(-33.74 -30.7)"/><path class="cls-8" d="M327.15,328.62c.25,2.53.3,3.05.3,3.05a19.6,19.6,0,0,1-14.72.86,16.52,16.52,0,0,1-10.16-9.79l1.06-5.65s3.55,8.73,11.24,11.07C322,330.34,327.15,328.62,327.15,328.62Z" transform="translate(-33.74 -30.7)"/><path class="cls-22" d="M211.69,254.77l-26.47-15.5s4.64-9,16-5.87,17.75,7.08,17.75,7.08Z" transform="translate(-33.74 -30.7)"/><path class="cls-2" d="M201.1,250.69c0,10.57-6.45,22.83-14.38,27.4s-14.34-.3-14.33-10.86,6.44-22.83,14.37-27.4S201.11,240.13,201.1,250.69Z" transform="translate(-33.74 -30.7)"/><polygon class="cls-2" points="144.03 248.36 153.32 253.74 170.74 213.31 161.08 207.79 144.03 248.36"/><path class="cls-12" d="M210.41,256.08c0,10.56-6.45,22.83-14.37,27.4s-14.35-.3-14.34-10.86,6.45-22.83,14.37-27.4S210.42,245.51,210.41,256.08Z" transform="translate(-33.74 -30.7)"/><path class="cls-13" d="M206.37,258.4c0,7.6-4.63,16.42-10.33,19.7s-10.31-.21-10.3-7.81,4.63-16.41,10.33-19.69S206.38,250.81,206.37,258.4Z" transform="translate(-33.74 -30.7)"/><path class="cls-12" d="M201.85,261.31c0,3.88-2.36,8.38-5.27,10.06s-5.27-.11-5.27-4,2.37-8.38,5.28-10.06S201.86,257.43,201.85,261.31Z" transform="translate(-33.74 -30.7)"/><path class="cls-23" d="M201,261.82c0,3.23-2,7-4.39,8.38s-4.39-.09-4.39-3.32,2-7,4.4-8.38S201,258.59,201,261.82Z" transform="translate(-33.74 -30.7)"/><path class="cls-22" d="M321.66,191.32l-26.47-15.5s4.63-9,15.95-5.87S328.89,177,328.89,177Z" transform="translate(-33.74 -30.7)"/><path class="cls-24" d="M343.64,135.9s-31.74-25.66-56.91-31.31c-10.47-2.36-21.74,2.83-30.47,3.57l-9.39,9.15,67.57,41.54,27.68-14.74C344.7,142.61,346.22,137.4,343.64,135.9Z" transform="translate(-33.74 -30.7)"/><path class="cls-4" d="M131.36,185.26c3,3.63,9,9.16,20.85,17.49,28.65,20.12,49,18.61,49,18.61l15.88-27.93c-16.6-7.68-41.59-18.73-52.23-20.74S140.11,179,131.36,185.26Z" transform="translate(-33.74 -30.7)"/><path class="cls-18" d="M155.63,147.34,129,178.81s-1.87,1.32,2.34,6.45c8.75-6.25,22.84-14.59,33.48-12.57s35.63,13.06,52.23,20.74l4.35-7.65Z" transform="translate(-33.74 -30.7)"/><path class="cls-16" d="M155.63,147.34s2.9,4.24,20.26,16.32c16.18,11.25,45.53,22.12,45.53,22.12s21-15.89,37.63-25.13,45.69-21.38,45.69-21.38l-48.48-31.11S243.46,95.57,221.5,107c-8.25,4.3-23.15,13.46-44.05,26.17C169.64,138,161.82,143.12,155.63,147.34Z" transform="translate(-33.74 -30.7)"/><path class="cls-10" d="M157.67,150.89S172.22,142,193,130.21s47.74-27.4,47.74-27.4l2.52.79s-11.21,6.74-21.73,12.55c-8.54,4.72-62.84,36.48-62.84,36.48Z" transform="translate(-33.74 -30.7)"/><path class="cls-10" d="M209.14,180.91s14.55-8.87,35.3-20.68,47.74-27.39,47.74-27.39l2.52.79s-11.21,6.73-21.74,12.55c-8.54,4.71-62.83,36.48-62.83,36.48Z" transform="translate(-33.74 -30.7)"/><path class="cls-16" d="M298,135.85l14,2.44,14.14,7.76s-27.6-3.6-30.38-4.75S298,135.85,298,135.85Z" transform="translate(-33.74 -30.7)"/><path class="cls-2" d="M311.06,187.24c0,10.57-6.44,22.83-14.37,27.4s-14.35-.3-14.34-10.86,6.45-22.83,14.38-27.4S311.07,176.68,311.06,187.24Z" transform="translate(-33.74 -30.7)"/><polygon class="cls-2" points="253.99 184.91 263.28 190.29 280.71 149.86 271.05 144.34 253.99 184.91"/><path class="cls-12" d="M320.37,192.63c0,10.56-6.44,22.83-14.37,27.4s-14.35-.3-14.34-10.86,6.45-22.83,14.38-27.4S320.39,182.07,320.37,192.63Z" transform="translate(-33.74 -30.7)"/><path class="cls-13" d="M316.34,195c0,7.6-4.63,16.42-10.33,19.7s-10.32-.21-10.31-7.81,4.63-16.41,10.33-19.69S316.35,187.36,316.34,195Z" transform="translate(-33.74 -30.7)"/><path class="cls-12" d="M311.82,197.86c0,3.88-2.37,8.38-5.28,10.06s-5.27-.11-5.26-4,2.36-8.38,5.27-10.06S311.82,194,311.82,197.86Z" transform="translate(-33.74 -30.7)"/><path class="cls-23" d="M310.94,198.37c0,3.23-2,7-4.4,8.38s-4.39-.09-4.38-3.32,2-7,4.39-8.38S310.94,195.14,310.94,198.37Z" transform="translate(-33.74 -30.7)"/><path class="cls-10" d="M343.64,135.9c-6.26,1.14-11.92,10.27-23.22,8.19-3.15-.59-12.8-4.26-20.72-3.69-8.43.6-13.11,3.74-20.7,8.23-6,3.57-27.45,15.67-43.84,26.21-9.18,5.9-15.53,9.41-17.92,13.37-1.65,2.75-7.5,16.4-13.2,27a27.19,27.19,0,0,1-4.23,5.85l-104-19.24s-5.85,6.07-9.62,17.06c-1.42,4.15-5.77,14.58-3.72,24,1.85,8.57,7.9,17.52,18.92,23.89,38,22,59.47,17,75.28,8.16.06-14,8.59-30.23,19.09-36.28s19,.35,19,14.27l73.77-42.59c.47-3.69,2.44-15.61,4.48-19.11,4.09-7,14.42-16.7,19-16.24,14.66,1.45,8.59,16.84,11.13,15.37l5.59-3.23c11.51-6.62,17.37-19.76,19.25-28.06C349.05,154.54,348.72,139.25,343.64,135.9Z" transform="translate(-33.74 -30.7)"/><path class="cls-24" d="M324.86,187c-.06-15.53-9.53-22.65-21.23-15.91-5.13,2.95-9.84,8.09-13.52,14.24-2,1.22-4,2.5-6.13,3.86-11.08,7.12-58.82,34.37-76.43,44.38-3.69-2-8.47-1.81-13.7,1.2-11.71,6.75-21.22,24.84-21.29,40.46l1.63-.93,2.34-1.35c0-.16,2.38-1.05,2.38-1.2,0-12.93,7.14-27.1,16.84-32.69a14.77,14.77,0,0,1,5.72-2l-.47.27,6.17,1.3c2.87,2.34,4.48,7.07,4.47,13.66,0,.14,0,.28,0,.41l3.45-2c0-5.59-1.28-10.07-3.41-13.23L259,211c6.49-3.63,25.28-12.27,25.28-12.27-1,2.4-1.63,6.66-1.94,12.81l1.62-.93,2.34-1.36c0-.15,2.38-1,2.38-1.2a42.06,42.06,0,0,1,3.12-15.37l.75-.43,6-8.69,8-7.63c1.31-.84-1.2.43-5.79,3.05a25.37,25.37,0,0,1,4.75-3.61c9.7-5.59,16.9.1,16.89,13,0,.13-1,.44-1,.58Z" transform="translate(-33.74 -30.7)"/><path class="cls-21" d="M195.75,238.72c-10.5,6.05-19,22.27-19.09,36.28l1.46-.83,2.1-1.22c0-.13,0-.26,0-.4,0-11.59,7.08-25.05,15.78-30.06s15.74.32,15.73,11.92c0,.12,0,.24,0,.36l3.1-1.78C214.73,239.07,206.24,232.68,195.75,238.72Z" transform="translate(-33.74 -30.7)"/><path class="cls-16" d="M262.55,112.11s9.87-6.64,21.29-4S308,119.79,308,119.79l-19.92,8Z" transform="translate(-33.74 -30.7)"/><path class="cls-21" d="M305.72,175.27c-10.51,6-19,22.27-19.09,36.28.49-.27,1-.55,1.45-.83l2.1-1.22c0-.13,0-.26,0-.4,0-11.59,7.07-25,15.77-30.06s15.74.32,15.73,11.92c0,.12,0,.24,0,.36l3.09-1.78C324.7,175.62,316.2,169.23,305.72,175.27Z" transform="translate(-33.74 -30.7)"/><path class="cls-12" d="M129,178.81S116,188,97.89,200.15c-8.91,6-11.3,21.75,9.67,35.46,24.5,16,42.34,15.38,57.91,6.31,16.74-9.75,35.72-20.56,35.72-20.56s-12.87-.07-38.56-15.3A146,146,0,0,1,129,178.81Z" transform="translate(-33.74 -30.7)"/><path class="cls-12" d="M212.64,219.47a2.44,2.44,0,0,1-3.46-3.06c4.31-10.12,12.5-28.51,16-30.78,4.58-3,20.46-12.44,39.85-23.93,14.33-8.49,27-15.89,33-14.21,2.33.64,8.69,5,13.34,8.3a4.24,4.24,0,0,1-.36,7.12Z" transform="translate(-33.74 -30.7)"/><path class="cls-14" d="M239.8,102.22s19.43,10.65,28.2,16.41c13,8.57,30.51,18.14,30.51,18.14l19.83,5.11c-5.39-3.27,0,0-10.43-5.86-14.88-8.37-31.11-18.69-33.76-20.33-3.62-2.24-10.65-5.93-14.41-7.85C252.07,103.9,242.19,101.92,239.8,102.22Z" transform="translate(-33.74 -30.7)"/><path class="cls-13" d="M131.6,260.89c2.08-4,5.75-6.95,10.2-6.43,3.38.4,3.83-.14,9.31-.68a38.17,38.17,0,0,0,14.68-5c3.86-2.3,4.2,1.64,3.78,3.12a17.31,17.31,0,0,1-11.65,11.57C144.49,267.85,131.6,260.89,131.6,260.89Z" transform="translate(-33.74 -30.7)"/><path class="cls-12" d="M125.6,247.38c3.63.77,7.35,1.65,9.81,2.2l.65-.74S118.78,245,106.8,236.69A42.57,42.57,0,0,1,95.28,225.2l-.42,1.55a47.51,47.51,0,0,0,4.4,6.43C104.11,239.29,119.63,246.12,125.6,247.38Z" transform="translate(-33.74 -30.7)"/><path class="cls-12" d="M124.49,250.57c2.89.61,6,1.33,8.4,1.88l1.46-1.67c-2.68-.56-6.29-1.36-9.75-2.26-6.63-1.74-16.16-6.79-22.41-11a24.21,24.21,0,0,1-7.75-9.19l-.66,2.4a40.86,40.86,0,0,0,4.36,5.67C103.37,242.16,118.52,249.31,124.49,250.57Z" transform="translate(-33.74 -30.7)"/><path class="cls-12" d="M99.75,244.4a24,24,0,0,1-7.2-8.13,8.31,8.31,0,0,0,2.75,6.28,53.81,53.81,0,0,0,10.11,7.2,150.18,150.18,0,0,0,16.76,7.92,7.06,7.06,0,0,0,6.38-.71c-2-.45-4.23-1-6.39-1.54C115.53,253.69,106,248.63,99.75,244.4Z" transform="translate(-33.74 -30.7)"/><path class="cls-12" d="M101.07,240.69a29.07,29.07,0,0,1-7.75-8.31l-.48,1.74c0,.08,0,.16,0,.24a54.35,54.35,0,0,0,4,5.72c4.85,6.12,20.37,12.94,26.34,14.21,2.26.47,4.67,1,6.78,1.49l.1-.09,1.77-2c-2.46-.53-5.45-1.21-8.32-2C116.86,250,107.33,244.92,101.07,240.69Z" transform="translate(-33.74 -30.7)"/><path class="cls-14" d="M96.82,240.08a54.35,54.35,0,0,1-4-5.72,8.27,8.27,0,0,0-.25,1.91,24,24,0,0,0,7.2,8.13c6.25,4.23,15.78,9.29,22.41,11,2.16.57,4.37,1.09,6.39,1.54a7.07,7.07,0,0,0,1.39-1.18c-2.11-.47-4.52-1-6.78-1.49C117.19,253,101.67,246.2,96.82,240.08Z" transform="translate(-33.74 -30.7)"/><path class="cls-14" d="M124.49,250.57c-6-1.26-21.12-8.41-26.35-14.2a40.86,40.86,0,0,1-4.36-5.67l-.46,1.68a29.07,29.07,0,0,0,7.75,8.31c6.26,4.23,15.79,9.28,22.42,11,2.87.75,5.86,1.43,8.32,2l1.08-1.22C130.47,251.9,127.38,251.18,124.49,250.57Z" transform="translate(-33.74 -30.7)"/><path class="cls-14" d="M102.19,237.49c6.25,4.24,15.78,9.29,22.41,11,3.46.9,7.07,1.7,9.75,2.26l1.06-1.2c-2.46-.55-6.18-1.43-9.81-2.2-6-1.26-21.49-8.09-26.34-14.2a47.51,47.51,0,0,1-4.4-6.43l-.42,1.55A24.21,24.21,0,0,0,102.19,237.49Z" transform="translate(-33.74 -30.7)"/><path class="cls-13" d="M90,210s-.43,5.42-.43,11.32a43.59,43.59,0,0,1-1.89,10.4s-2.19-8.32-1.89-11.32A21.41,21.41,0,0,1,90,210Z" transform="translate(-33.74 -30.7)"/><path class="cls-12" d="M89.91,253.25s0-10.85,6.79-6.15a117.61,117.61,0,0,0,15.9,9.62c5,2.38,8.65,4.1,10.06,6.72s1.5,9.65,1.5,9.65-4.77-.25-21-9.41C91,256.81,89.91,253.25,89.91,253.25Z" transform="translate(-33.74 -30.7)"/><path class="cls-13" d="M95,248.76v6.5s5,3.53,9,6.13c2.61,1.7,12.59,6.26,12.59,6.26v-6.24s-7.08-3.2-12.59-6.39A65.48,65.48,0,0,1,95,248.76Z" transform="translate(-33.74 -30.7)"/><path class="cls-21" d="M81.94,238.85S81,248.22,85.68,255s16.47,18.92,37.46,24.95c23.48,6.74,38.47,4.6,47.16.7S180,277,180.22,273s-3.55-1.29-3.55-1.29-3.83,6.43-22.06,7.55c-9.66.58-22.1-1.17-32.46-4.26-9.21-2.75-18.26-8.35-27.16-14.84C82.45,251,81.94,238.85,81.94,238.85Z" transform="translate(-33.74 -30.7)"/><path class="cls-12" d="M137.36,269.79a1.33,1.33,0,0,0-1.13,2,12.62,12.62,0,0,0,2.34,3.19c3,2.78,16.75,3,18.28,1.55s.51-5.91-3.15-5.78C148.64,270.9,141.71,269.72,137.36,269.79Z" transform="translate(-33.74 -30.7)"/><path class="cls-12" d="M82.83,229.81s1,4.69,1.71,6.52-2.6,2.52-2.6,2.52A48.09,48.09,0,0,1,82.83,229.81Z" transform="translate(-33.74 -30.7)"/><path class="cls-13" d="M112.14,246.12c-.41,1.28-2.79,1.37-5.32.22s-4.24-3.12-3.83-4.4,2.79-1.37,5.31-.22S112.55,244.84,112.14,246.12Z" transform="translate(-33.74 -30.7)"/><path class="cls-12" d="M126.35,180.69s1.64,3.78,10.72,10.9C145.85,198.46,165,212,177.47,217s20.57,8.17,23.72,4.38,19.17-36.2,19.17-36.2l-1.83-.75s-17.05,33.17-19.14,35-18-4.19-46.13-22.54c-10.7-7-24.24-18.05-24.24-18.05Z" transform="translate(-33.74 -30.7)"/><path class="cls-12" d="M155.63,147.34l-1.27,1.5a144.64,144.64,0,0,0,22.41,16.9c12.5,7.49,42.39,21.08,42.39,21.08l1.2-1.66s-27.79-11.75-42.73-21.68S155.63,147.34,155.63,147.34Z" transform="translate(-33.74 -30.7)"/><polygon class="cls-21" points="255.22 175.22 179.65 218.81 179.65 223.06 180.76 222.41 256.16 178.93 255.22 175.22"/><path class="cls-4" d="M253.68,171l0,21.9-32.27,18.64s-.07-8.33,0-11.71a19.7,19.7,0,0,1,2-7.58,19,19,0,0,1,6.73-7.13C238.8,179.77,253.68,171,253.68,171Z" transform="translate(-33.74 -30.7)"/><path class="cls-4" d="M257.9,169l0,22,34.06-20s0-8.36-.41-10.87c-.39-2.21-1.57-8.82-1.57-8.82Z" transform="translate(-33.74 -30.7)"/><path class="cls-4" d="M293.08,150.38s1.25,6.22,1.59,8.45.53,10.44.53,10.44,7.73-4.66,9.52-5.57,3.22-3.52-1.47-7A111.52,111.52,0,0,0,293.08,150.38Z" transform="translate(-33.74 -30.7)"/><path class="cls-12" d="M346.8,142.68l-.43.29a4.47,4.47,0,0,0-2,3.75v5a71.42,71.42,0,0,1-.71,9l4.65-2.9a18.87,18.87,0,0,0,1.28-10.54A6.7,6.7,0,0,0,346.8,142.68Z" transform="translate(-33.74 -30.7)"/><path class="cls-24" d="M320.39,173.71s14.38-6.48,24.43-13.83a37.27,37.27,0,0,0,4.19-4.09s1.25,1.86-3.24,8c-1.53,2.09-17.35,13.54-22.19,15.18C321.34,173.74,320.39,173.71,320.39,173.71Z" transform="translate(-33.74 -30.7)"/><path class="cls-8" d="M115.11,219.32a1.33,1.33,0,0,1-.5-.11c-.5-.21-4.89-2.19-5.13-5.33-.12-1.65.87-3.15,3-4.46,6.32-4,22.44-10.95,23.13-11.25a1.27,1.27,0,0,1,1,2.33c-.17.07-16.62,7.19-22.78,11.06-.69.44-1.83,1.29-1.77,2.13.1,1.27,2.47,2.71,3.61,3.2a1.27,1.27,0,0,1-.51,2.43Z" transform="translate(-33.74 -30.7)"/><path class="cls-8" d="M123.4,214.48a1.32,1.32,0,0,1-.63-.17c-1.46-.83-8.74-5.16-8.69-9.15a3.74,3.74,0,0,1,2.31-3.29c6-3.18,16.62-8.07,16.73-8.11a1.27,1.27,0,0,1,1.06,2.3c-.11.05-10.69,4.91-16.6,8-1,.51-1,1-1,1.09,0,1.84,4.41,5.21,7.41,6.92a1.27,1.27,0,0,1-.62,2.37Z" transform="translate(-33.74 -30.7)"/><path class="cls-23" d="M135.41,211.67a213.59,213.59,0,0,0-23,13.44l-.1-.85-7.21-.37a30.53,30.53,0,0,0-1.43,8.94c0,.45,5.9,4.5,12.55,7.9,6.28,3.22,10.73,4.93,13.92,5.7a5.42,5.42,0,0,0,2.4-1.1,130.66,130.66,0,0,1,14.77-10.27c12.36-7.34,22-12.24,23.36-12.72C169.15,221.4,145.37,206.75,135.41,211.67Z" transform="translate(-33.74 -30.7)"/><path class="cls-25" d="M170.66,222.34l.08,0C170.88,222.29,170.84,222.28,170.66,222.34Z" transform="translate(-33.74 -30.7)"/><path class="cls-8" d="M106.24,227.3a2.73,2.73,0,0,1-.23-4.58,229.34,229.34,0,0,1,29.4-17.81c10.29-5.08,35.33,10.72,35.33,10.72,1.18-.86-9.41,4.33-23.44,12.67a133.34,133.34,0,0,0-14.77,10.27,5.38,5.38,0,0,1-6.08.45Z" transform="translate(-33.74 -30.7)"/><path class="cls-11" d="M135.59,206.94s-10.6,6.78-15.78,9.57-9.92,7-10,9.32,1.67,1.58,6.61-2.16S141,209.08,141,209.08Z" transform="translate(-33.74 -30.7)"/><path class="cls-11" d="M142,211.28s-10.6,6.78-15.79,9.57-9.92,7-10,9.32,1.68,1.57,6.62-2.16,24.58-14.59,24.58-14.59Z" transform="translate(-33.74 -30.7)"/><path class="cls-11" d="M149.93,215.09s-10.61,6.78-15.79,9.57-9.92,7-10,9.32,1.67,1.57,6.62-2.16,24.58-14.59,24.58-14.59Z" transform="translate(-33.74 -30.7)"/><path class="cls-8" d="M150.53,239.44c-4.42,0-8.24-3-8.46-3.14a1.27,1.27,0,0,1,1.57-2c.06.05,5.63,4.34,10.08,1.76,5.29-3.06,27.05-15.43,27.05-15.43l1.25,2.2s-21.75,12.37-27,15.42A8.7,8.7,0,0,1,150.53,239.44Z" transform="translate(-33.74 -30.7)"/><path class="cls-8" d="M164.09,237.19c-5.7,0-12.2-6.31-13.05-7.16a1.27,1.27,0,0,1,1.8-1.79c2.37,2.37,9.36,8,13.17,6,5.39-3,19.91-12.14,20.06-12.23a1.27,1.27,0,1,1,1.35,2.14c-.6.38-14.73,9.3-20.19,12.31A6.46,6.46,0,0,1,164.09,237.19Z" transform="translate(-33.74 -30.7)"/><path class="cls-6" d="M120.13,239.91s3.62-.56,5.43-1c2-.54.89.83.41,1a4.69,4.69,0,0,0-1.67,1.47c.23.73,1.15,2.33,1.62,3.47,1.21,3-.91,4.34-3,3.09a47.31,47.31,0,0,1-5.62-3.93Z" transform="translate(-33.74 -30.7)"/><path class="cls-6" d="M108.65,201.61c-.23-.07-2.86,2.94-4.41,6.19s-6.16-2.08-6.16-2.08l3.12-8.28Z" transform="translate(-33.74 -30.7)"/><path class="cls-6" d="M106.3,189.08c5.87-2,7.72,10.84,4.78,15.25-2.71,4-10.22-.07-12-3.43S99.21,191.47,106.3,189.08Z" transform="translate(-33.74 -30.7)"/><path class="cls-12" d="M101.7,300.08s6.26-2.8,9.36-2.93,3.39,3.51,0,6.33-6,3.19-8.78,4.34c-2.51,1-3.41,1.11-5.41-.19-2.66-1.73-.53-6.3-.53-6.3Z" transform="translate(-33.74 -30.7)"/><path class="cls-12" d="M80.34,293.72s5-2.08,8.07-2.21,4.21,2.54.81,5.36-5.52,3.45-8.3,4.59c-2.51,1-3.4,1.09-5.41-.18-2.74-1.74-.6-6.32-.53-6.31Z" transform="translate(-33.74 -30.7)"/><path class="cls-3" d="M99.27,204.46s-5.69-6.1-11.87-1.19c-5.67,4.53-11.14,13-9.68,17.22S84,227.35,84,227.35Z" transform="translate(-33.74 -30.7)"/><path class="cls-3" d="M100.34,244.12s5.19,20.45,6.49,27.5c.85,4.57-.67,15.2-1,21.9-.19,3.63,1.54,4.12.55,6.4-.68,1.57-3,3.32-5.53,4-4.34,1.17-6,.59-6.41-1.06-.33-1.22-1.45-3.24-.94-5.72.88-4.34,0-5.65,0-9.42a77,77,0,0,1,1.42-12.36s-6.64-15.6-7.25-16.7c.92,5.93-.08,10.61-.43,14.53-.38,4.22-.13,8.5-1,14.2-.25,1.71-1.13,2-1.49,4.38-.22,1.42,1.49,3,.18,3.9-2.23,1.6-10,5-11.77,1.89-1.43-2.6.9-2.51.57-5.09-.17-1.3-1.26-2.29-1.22-4.36.09-3.67,1.58-12.18,1.63-15.13.06-3.6.8-11.9.95-17.61.23-8.1,1.74-15.09,4.67-17.45C84.05,234.46,100.34,244.12,100.34,244.12Z" transform="translate(-33.74 -30.7)"/><path class="cls-4" d="M80.94,214.52c2.46-4.76,7.7-11.17,11.83-12,4.46-.93,11.57,3.2,16.39,8s-3.29,12-3.29,12a52.72,52.72,0,0,1-1.36,7.37c-.72,2.6-1.7,7.13-2.1,8.9-1.84,8.22-.32,12.4-.32,12.4s-9.58,5.19-14.45,3.72-13-7.5-13.52-9C74.56,241.22,76.06,224,80.94,214.52Z" transform="translate(-33.74 -30.7)"/><path class="cls-3" d="M106.35,208s.53-1.93,0-2.82c-1.18-2-4.53-2.72-6.15-3.45-3.45-1.54-4.65.77-4.56.79S106.35,208,106.35,208Z" transform="translate(-33.74 -30.7)"/><path class="cls-3" d="M101.64,244.59a25.44,25.44,0,0,1-4,2.15c-1.82.71-4.08,1.78-4.08,1.78V246l8.16-3.74Z" transform="translate(-33.74 -30.7)"/><path class="cls-3" d="M108.65,210c2.63,1.43,4.37,4.2,3.8,8.34a89.31,89.31,0,0,0-.48,10.4s7.7,8.5,9.5,10.21c2.27,6.12-3.53,7.25-3.53,7.25s-9.49-5.39-11.59-7.25-4.58-2.44-4.58-8.28C101.77,227.54,102.84,206.8,108.65,210Z" transform="translate(-33.74 -30.7)"/><path class="cls-2" d="M109.06,188.87c-2-1.13-4.86-2.68-8.59-.9-3.32,1.59-4.24,6.55-4.84,8a5.89,5.89,0,0,1-2.12,2.18,3.41,3.41,0,0,0,2.59-.73,12.37,12.37,0,0,0,.08,4.1c.08.65.67,3.24.67,3.24A8.8,8.8,0,0,1,99,202.92a17.88,17.88,0,0,0-.49,3.84,42,42,0,0,1,4.15-3.2,5.52,5.52,0,0,0,.84,2.94c.9-1.93,4.18-2.53,7.19-7.44C112.25,196.51,115.79,192.57,109.06,188.87Z" transform="translate(-33.74 -30.7)"/><path class="cls-10" d="M127.25,181.57s-22.27-3-32-1.95c-6.71.7,13.8,10.44,22.89,17.69,10.83,8.64,23,21.44,41.34,24,5.46.77,36.62,2.94,36.62,2.94l2.15-1.22a173.41,173.41,0,0,1-26.49-10.47C154.61,204.06,134.82,191.14,127.25,181.57Z" transform="translate(-33.74 -30.7)"/><path class="cls-26" d="M94.14,179.41s-.48.94,0,1.53,2.18-.29,2.18-.29Z" transform="translate(-33.74 -30.7)"/><path class="cls-24" d="M127.25,180.05s-22.09-2.26-31.8-1.24c-6.72.7,13.61,9.73,22.7,17,10.83,8.64,23,21.44,41.34,24,5.46.77,38.77,3.24,38.77,3.24S145.39,203,127.25,180.05Z" transform="translate(-33.74 -30.7)"/><path class="cls-16" d="M148.74,213.21s3.31,3.08,12.81,4,25.19.8,25.19.8l-9.74-4.3Z" transform="translate(-33.74 -30.7)"/><path class="cls-16" d="M106.66,184.66s-2.42-3.75,4.59-3.51,18.28,1.51,18.28,1.51l4.12,4.17Z" transform="translate(-33.74 -30.7)"/><path class="cls-6" d="M320.25,183.72c-.15.74.39,1.08,1.15,1.84.22.22-2,.74-2,.74l.69,4.12,5-1.59,2-2.84s-2.79,0-3.37-.71a7.68,7.68,0,0,0-2.25-1C320.84,184,320.32,183.4,320.25,183.72Z" transform="translate(-33.74 -30.7)"/><path class="cls-2" d="M349.52,224.89a25.83,25.83,0,0,1,5.17.62c1.15.34,3.17,1.06,3,2.78a60.83,60.83,0,0,0-.58,8.5c0,1,.14,2.27-2.72,3.24a6.09,6.09,0,0,1-6-1.23c-.85-.78-2.09-2.72,1.8-3.34-.09-.88.13-2.83-2.68-3.66C346.27,231.43,347.51,224.92,349.52,224.89Z" transform="translate(-33.74 -30.7)"/><path class="cls-2" d="M335.21,233.41a26.58,26.58,0,0,1,5.17.62c1.14.34,3.17,1.06,3,2.78a57.9,57.9,0,0,0-.58,8.5c0,1,.14,2.27-2.73,3.25a6.1,6.1,0,0,1-6-1.24c-.84-.77-2.09-2.72,1.81-3.34-.09-.88.12-2.83-2.69-3.66C332,240,333.19,233.44,335.21,233.41Z" transform="translate(-33.74 -30.7)"/><path class="cls-3" d="M334,229.75c5,1,14.5,3.66,14.5,3.66a20.2,20.2,0,0,1,1.09-5.87,7,7,0,0,1,2.58-2.71l-16-6.69-9.36,6.25S329.63,228.91,334,229.75Z" transform="translate(-33.74 -30.7)"/><path class="cls-3" d="M350.35,208.08l-21.3,3s-6.36,4.92-12.28,10.09c-2.9,2.53-4.68,6-5.95,8.89-1.49,3.33,2.78,6.06,7.31,7.62,4.15,1.42,15.33,4.35,15.33,4.35s0-3.78,1.53-5.8a19.67,19.67,0,0,1,3.08-3.22l-4.66-1.9c6.89-1.69,14.48-3.46,16.94-8.36C352.53,218.41,350.35,208.08,350.35,208.08Z" transform="translate(-33.74 -30.7)"/><path class="cls-3" d="M339,178.18s5.31-.06,6.65,4.3a15.9,15.9,0,0,1,.44,7.91L339.5,187Z" transform="translate(-33.74 -30.7)"/><path class="cls-6" d="M333.35,163.07a5.27,5.27,0,0,1,7.52,2.57c.92,2-.38,7.2-.59,10.88a8.9,8.9,0,0,0,.83,4.69l-2.55,1a7.71,7.71,0,0,1-5.21,0l.08-4.53s-2.74-.41-3.22-.85c-1.16-1.06-1.77-4.21-1.23-8.28C329.78,162.55,332.62,163.58,333.35,163.07Z" transform="translate(-33.74 -30.7)"/><path class="cls-4" d="M323.43,215.49c.27.24,4.52,8.94,15,9.4,4.55.2,9.73-4.12,12.74-5.71.38-4.32-.21-8-.07-11.45.48-11.43-1.82-18.49-3.64-22.08-2.26-4.45-4.83-5.94-4.83-5.94l-9.29,1.38a11.7,11.7,0,0,0-5,3.62c-1.41,1.82-5,6-3.48,9.25C326.6,197.66,325.22,210.89,323.43,215.49Z" transform="translate(-33.74 -30.7)"/><path class="cls-3" d="M332.7,180.49c1.56-.15,4.28.22,6.6-1.3s3.35.52,3.35.52a7.1,7.1,0,0,1-3.81,3.11c-2.59.83-6.27,1.45-8.82.19C330,181.33,331.62,180.6,332.7,180.49Z" transform="translate(-33.74 -30.7)"/><path class="cls-2" d="M327.44,162.2a4.74,4.74,0,0,0,3.16-.63c-.58-.17-1.11-1-1.46-1.7,3.24-1.18,9.7-.42,11.1.32,2.6,1.36,5.26,3.49,3.85,10-1.13,5.27-2.65,6.54-4.24,7.78-4.35-1.61-5-4.85-5-4.85s1.39-2.75.32-3.74-2.33.62-2.6,1.29C330.76,169.33,327.44,166.47,327.44,162.2Z" transform="translate(-33.74 -30.7)"/><path class="cls-3" d="M326.34,208.62a45.35,45.35,0,0,0,4,5.28,10.05,10.05,0,0,0,2.38,1.95L331,217.73a22.82,22.82,0,0,1-2.74-3.1c-1.26-1.78-2.16-3.36-2.16-3.36Z" transform="translate(-33.74 -30.7)"/><path class="cls-6" d="M298.75,197.87a6.22,6.22,0,0,1-2.42-2.08c-.56-1.16-.88-1.82-1.42-1.82s-.64.73-.46,1.18,1.05,2.48.64,2.68a12.17,12.17,0,0,1-3,.53,31.34,31.34,0,0,0-1.44,5.8,9.1,9.1,0,0,0,2.06.15c2.27-.09,7.25,0,7.25,0Z" transform="translate(-33.74 -30.7)"/><path class="cls-3" d="M332.67,189.62c-.09-1.85-.79-6.57-2.83-6.58-6.13,0-9.35,9.51-14.76,11.9s-16.33,2.12-16.33,2.12-2.05,2.09-2.31,3.77a8.25,8.25,0,0,0,.58,4.73s15.65,2.16,21.06,0S333.2,200.77,332.67,189.62Z" transform="translate(-33.74 -30.7)"/><path class="cls-2" d="M158.51,358c-3.51,0-7.59-1.15-12.5-4.18-4.32-2.66-6.62-5.84-6.85-9.45-.52-8.41,10.56-17.33,15.88-21.61,3.43-2.76,5.16-5.3,5.45-8,.43-4-2.3-8.28-6.52-13.51-6.68-8.27-6.17-16.88-5.63-26,.09-1.55.18-3.11.24-4.7.09-2.43.26-4.82.43-7.13.34-4.87.65-9.08.08-12-.39-2-2.74-3.6-4.3-4.66l-.36-.25c-4.37-3-8.64-6.31-8.68-6.34a.5.5,0,1,1,.61-.79s4.3,3.34,8.63,6.31l.37.25c1.68,1.14,4.24,2.87,4.71,5.29.59,3,.29,7.28-.07,12.22-.16,2.3-.33,4.68-.42,7.1-.06,1.59-.15,3.17-.24,4.72-.53,8.92-1,17.35,5.41,25.31,4.38,5.42,7.2,9.92,6.73,14.24-.32,3-2.16,5.75-5.81,8.68-5.19,4.18-16,12.88-15.51,20.77.21,3.27,2.35,6.18,6.37,8.66,12.8,7.89,19.44,2.67,25.87-2.38,1.3-1,2.64-2.07,4-3,7.79-5.21,13-8.12,13.07-8.14a.5.5,0,1,1,.49.87s-5.26,2.92-13,8.1c-1.32.88-2.58,1.87-3.92,2.93C169,354.59,164.59,358,158.51,358Z" transform="translate(-33.74 -30.7)"/><path class="cls-10" d="M38.74,191.65l-.07,0Z" transform="translate(-33.74 -30.7)"/><path class="cls-24" d="M53.47,152.77l-13.34,7.71a4.92,4.92,0,0,0-2.06,3.93v24.13L45,182.65l6,2.66,2.48-1.43a5,5,0,0,0,2.06-3.94V154.33C55.53,152.82,54.6,152.12,53.47,152.77Z" transform="translate(-33.74 -30.7)"/><path class="cls-27" d="M38.74,191.65l9.67,5.54L54,186.64l-3-1.33-10.86,6.27A1.28,1.28,0,0,1,38.74,191.65Z" transform="translate(-33.74 -30.7)"/><path class="cls-27" d="M38.07,188.54V190a2,2,0,0,0,.6,1.59l.07,0a1.28,1.28,0,0,0,1.39-.07L51,185.31l-6-2.66Z" transform="translate(-33.74 -30.7)"/><polygon class="cls-10" points="29.15 123.42 19.78 118.03 18.84 118.72 27.99 123.91 29.15 123.42"/><polygon class="cls-24" points="20.98 121.93 30.81 127.54 25.16 136.23 15.67 130.06 20.98 121.93"/><path class="cls-21" d="M63.1,189.38l-13.34,7.71c-1.14.65-2.06-.05-2.06-1.56V169.91A4.93,4.93,0,0,1,49.76,166l13.34-7.7c1.13-.66,2.06,0,2.06,1.55v25.62A4.94,4.94,0,0,1,63.1,189.38Z" transform="translate(-33.74 -30.7)"/><path class="cls-21" d="M64.94,158.73l-1.52-4a1.06,1.06,0,0,0-1.69-.51l-1.86,1.09L59.32,162Z" transform="translate(-33.74 -30.7)"/><path class="cls-21" d="M47.76,169.24A25.63,25.63,0,0,1,49,163.65a5.75,5.75,0,0,1,2.36-3.44l2.79-1.59.51,6S47.76,171.32,47.76,169.24Z" transform="translate(-33.74 -30.7)"/><path class="cls-10" d="M55.39,153.22l-1.52-4a1.06,1.06,0,0,0-1.69-.52l-1.86,1.1-.55,6.64Z" transform="translate(-33.74 -30.7)"/><path class="cls-24" d="M38.1,164a26.92,26.92,0,0,1,1.38-5.82,5.8,5.8,0,0,1,2.36-3.45l2.79-1.59,3.13,5.52S38.1,166,38.1,164Z" transform="translate(-33.74 -30.7)"/><polygon class="cls-16" points="26.13 124.64 16.58 119.12 18.44 118.03 27.99 123.54 26.13 124.64"/><polygon class="cls-10" points="16.58 119.12 16.16 124.14 25.7 129.69 26.13 124.64 16.58 119.12"/><polygon class="cls-16" points="20.44 127.92 10.89 122.41 8.1 124 17.65 129.51 20.44 127.92"/><polygon class="cls-10" points="13.96 139.22 4.33 133.71 4.33 159.33 13.96 164.83 13.96 139.22"/><polygon class="cls-27" points="21.69 125.88 19.3 127.26 15.24 124.92 19.86 122.24 21.69 125.88"/><path class="cls-27" d="M53.1,154.2a2.85,2.85,0,0,0,1.46,2.44c.78.31,1.39-.27,1.37-1.31a2.84,2.84,0,0,0-1.47-2.44C53.68,152.58,53.07,153.16,53.1,154.2Z" transform="translate(-33.74 -30.7)"/><path class="cls-27" d="M63.21,164.86c-.41-.08-.94.42-1.18,1.1L56.9,180.73l2.35-2.2,4.27-12.29C63.76,165.56,63.62,164.94,63.21,164.86Z" transform="translate(-33.74 -30.7)"/><path class="cls-27" d="M50.81,172c.41-.55.94-.67,1.17-.25l5.07,8.91-2.35.5-4.22-7.42A1.8,1.8,0,0,1,50.81,172Z" transform="translate(-33.74 -30.7)"/><path class="cls-27" d="M63.15,185c-.41.55-.94.66-1.17.25l-5.07-8.91,2.35-.5,4.22,7.41A1.85,1.85,0,0,1,63.15,185Z" transform="translate(-33.74 -30.7)"/><path class="cls-27" d="M50.75,192.07c.41.08.94-.41,1.18-1.09l5.13-14.77-2.35,2.19-4.27,12.29C50.2,191.37,50.34,192,50.75,192.07Z" transform="translate(-33.74 -30.7)"/><path class="cls-27" d="M59.54,179.76l-4.92,2.83c-.55.32-1,0-1-.76v-3.45a2.39,2.39,0,0,1,1-1.91l4.92-2.82c.55-.32,1,0,1,.76v3.44A2.39,2.39,0,0,1,59.54,179.76Z" transform="translate(-33.74 -30.7)"/><path class="cls-21" d="M58.89,179.09l-3.61,2.07c-.34.2-.63,0-.62-.48v-2.34a1.49,1.49,0,0,1,.63-1.19l3.61-2.07c.34-.2.62,0,.62.47v2.34A1.53,1.53,0,0,1,58.89,179.09Z" transform="translate(-33.74 -30.7)"/><polygon class="cls-27" points="26.59 137.36 20.02 141.15 20.02 140.02 26.59 136.23 26.59 137.36"/><polygon class="cls-27" points="26.59 156.51 20.02 160.31 20.02 159.17 26.59 155.38 26.59 156.51"/><polygon class="cls-27" points="26.59 154.24 20.02 158.03 20.02 156.9 26.59 153.11 26.59 154.24"/><polygon class="cls-27" points="26.59 134.9 20.02 138.69 20.02 137.56 26.59 133.77 26.59 134.9"/><polygon class="cls-12" points="12.15 152.68 6.08 149.18 6.08 138.09 12.15 141.6 12.15 152.68"/><polygon class="cls-13" points="9.81 150.11 7.21 148.61 7.21 143.86 9.81 145.36 9.81 150.11"/><polygon class="cls-8" points="11.31 142.82 6.98 140.3 6.98 139.48 11.31 142 11.31 142.82"/><polygon class="cls-8" points="11.31 144.5 6.98 141.98 6.98 141.16 11.31 143.68 11.31 144.5"/><path class="cls-14" d="M46.66,160.58a2.81,2.81,0,0,1-1.68,3.5,2.58,2.58,0,0,1-3.37-1.65,2.81,2.81,0,0,1,1.67-3.5A2.6,2.6,0,0,1,46.66,160.58Z" transform="translate(-33.74 -30.7)"/><polygon class="cls-14" points="8.26 132.74 9.18 133.28 11.99 128.58 10.87 127.92 8.26 132.74"/><path class="cls-25" d="M45.91,160.14a2.81,2.81,0,0,1-1.68,3.5A2.59,2.59,0,0,1,40.86,162a2.81,2.81,0,0,1,1.68-3.5A2.6,2.6,0,0,1,45.91,160.14Z" transform="translate(-33.74 -30.7)"/><path class="cls-2" d="M45.44,160.22a2.34,2.34,0,0,1-1.4,2.91,2.15,2.15,0,0,1-2.8-1.37,2.34,2.34,0,0,1,1.39-2.91A2.16,2.16,0,0,1,45.44,160.22Z" transform="translate(-33.74 -30.7)"/><polygon class="cls-2" points="7.26 131.59 8.66 132.35 10.81 128.37 9.49 127.63 7.26 131.59"/><path class="cls-12" d="M44.35,159.62A2.34,2.34,0,0,1,43,162.53a2.16,2.16,0,0,1-2.8-1.37,2.33,2.33,0,0,1,1.39-2.91A2.14,2.14,0,0,1,44.35,159.62Z" transform="translate(-33.74 -30.7)"/><path class="cls-7" d="M40.81,161.09a1.81,1.81,0,0,1,1.09-2.27,1.66,1.66,0,0,1,1.26,0,1.69,1.69,0,0,0-1.46-.14A1.82,1.82,0,0,0,40.62,161a1.67,1.67,0,0,0,.92,1A1.65,1.65,0,0,1,40.81,161.09Z" transform="translate(-33.74 -30.7)"/><path class="cls-8" d="M42.8,162.06a1.82,1.82,0,0,0,1.09-2.27,1.71,1.71,0,0,0-.73-.93,1.66,1.66,0,0,0-1.26,0,1.81,1.81,0,0,0-1.09,2.27,1.46,1.46,0,0,0,2,1Z" transform="translate(-33.74 -30.7)"/><path class="cls-7" d="M71.86,157.07v5.13a2.24,2.24,0,0,1-.94,1.79l-5.71,3.29c-.51.3-.93,0-.93-.7v-5.24A7.28,7.28,0,0,0,62,166.28l-5.35,3.09a3.84,3.84,0,0,0-1.6,3.06v25.85a2.8,2.8,0,0,0,4.2,2.43l12.13-7a4.84,4.84,0,0,0,2.42-4.19V159.46C73.83,157.86,73,157,71.86,157.07Z" transform="translate(-33.74 -30.7)"/><path class="cls-9" d="M56.68,169.38a3.87,3.87,0,0,0-1.6,3.06V178l7,3.35,5-6.53L57.3,169Z" transform="translate(-33.74 -30.7)"/><polygon class="cls-8" points="28.29 135.59 23.56 138.33 33.32 144.12 36.52 140.13 28.29 135.59"/><polygon class="cls-7" points="23 170.1 29.63 174.01 29.63 171.18 21.74 166.88 23 170.1"/><polygon class="cls-8" points="45.62 137.36 37.7 132.78 30.29 137.03 38.2 141.61 45.62 137.36"/><polygon class="cls-7" points="37.18 134.54 30.55 130.64 28.29 135.59 35.68 139.86 37.18 134.54"/><polygon class="cls-7" points="38.92 126.48 45.82 130.53 45.41 137.24 37.85 132.87 39.26 130.27 38.92 126.48"/><path class="cls-9" d="M71.86,157.07,78.5,161l1.06.25-6.86-4A1.61,1.61,0,0,0,71.86,157.07Z" transform="translate(-33.74 -30.7)"/><path class="cls-11" d="M78.5,161v5.13a2.24,2.24,0,0,1-.94,1.79l-5.71,3.29c-.51.3-.93,0-.93-.7v-5.24a7.28,7.28,0,0,0-2.26,4.94l-5.35,3.09a3.84,3.84,0,0,0-1.6,3.06v25.85a2.8,2.8,0,0,0,4.2,2.43l12.13-7a4.84,4.84,0,0,0,2.42-4.19V163.36C80.46,161.76,79.64,160.86,78.5,161Z" transform="translate(-33.74 -30.7)"/><path class="cls-13" d="M78.15,192.51V171.66l-1.41.76L66,188.81v10.51c0,1.46.89,2.12,2,1.49l8.19-4.52A4.74,4.74,0,0,0,78.15,192.51Z" transform="translate(-33.74 -30.7)"/><polygon class="cls-12" points="41.81 142 32.03 147.55 32.03 157.29 41.81 142"/><polygon class="cls-8" points="27.97 147.53 21.34 143.59 21.34 166.62 27.97 170.56 27.97 147.53"/><path class="cls-9" d="M64.29,161.34a2.27,2.27,0,0,0-.25.23l-.22.25,6.62,3.91.48-.49Z" transform="translate(-33.74 -30.7)"/><polygon class="cls-11" points="41.65 131.83 37.07 134.48 34.08 132.78 40.31 129.16 41.65 131.83"/><path class="cls-11" d="M73.68,160.78a2.08,2.08,0,0,0,1.07,1.79c.57.23,1-.2,1-1a2.09,2.09,0,0,0-1.07-1.79C74.11,159.59,73.66,160,73.68,160.78Z" transform="translate(-33.74 -30.7)"/><path class="cls-12" d="M72.45,182s4,6.7,0,9.09S72.45,182,72.45,182Z" transform="translate(-33.74 -30.7)"/><polygon class="cls-12" points="43.15 161.78 33.51 167.35 33.51 165.94 43.15 160.37 43.15 161.78"/><path class="cls-12" d="M62,166.64v3.93a4.19,4.19,0,0,0,.89.09v-4Z" transform="translate(-33.74 -30.7)"/><path class="cls-12" d="M63.13,166.64v4a4.22,4.22,0,0,0,.75-.11v-3.9Z" transform="translate(-33.74 -30.7)"/><path class="cls-12" d="M60.92,166.64v3.53a3,3,0,0,0,.75.33v-3.86Z" transform="translate(-33.74 -30.7)"/><path class="cls-12" d="M64.17,166.64v3.82a3.11,3.11,0,0,0,.73-.37v-3.45Z" transform="translate(-33.74 -30.7)"/><path class="cls-12" d="M65.44,166.64h-.25v3.18a1,1,0,0,0,.25-.61Z" transform="translate(-33.74 -30.7)"/><path class="cls-12" d="M60.26,166.64v2.57a1,1,0,0,0,.38.74v-3.31Z" transform="translate(-33.74 -30.7)"/><path class="cls-2" d="M60.64,166.64V170a2.09,2.09,0,0,0,.28.22v-3.53Z" transform="translate(-33.74 -30.7)"/><path class="cls-2" d="M61.67,166.64v3.86l.29.07v-3.93Z" transform="translate(-33.74 -30.7)"/><path class="cls-2" d="M62.85,166.64v4h.28v-4Z" transform="translate(-33.74 -30.7)"/><path class="cls-2" d="M63.88,166.64v3.9l.29-.08v-3.82Z" transform="translate(-33.74 -30.7)"/><path class="cls-2" d="M64.9,166.64v3.45a1.89,1.89,0,0,0,.29-.27v-3.18Z" transform="translate(-33.74 -30.7)"/><path class="cls-14" d="M65.44,166.64c0,.8-1.16,1.45-2.59,1.45s-2.59-.65-2.59-1.45,1.16-1.46,2.59-1.46S65.44,165.83,65.44,166.64Z" transform="translate(-33.74 -30.7)"/><path class="cls-12" d="M64.9,166.64c0,.62-.9,1.13-2,1.13s-2-.51-2-1.13.9-1.14,2-1.14S64.9,166,64.9,166.64Z" transform="translate(-33.74 -30.7)"/><path class="cls-14" d="M405.21,204.52c0,5.83-8.88,10.55-19.83,10.55s-19.84-4.72-19.84-10.55S374.42,194,385.38,194,405.21,198.69,405.21,204.52Z" transform="translate(-33.74 -30.7)"/><path class="cls-12" d="M405.19,203.59c0,5.82-8.87,10.55-19.82,10.55s-19.83-4.73-19.83-10.55,8.88-10.54,19.83-10.54S405.19,197.77,405.19,203.59Z" transform="translate(-33.74 -30.7)"/><rect class="cls-12" x="331.8" y="160.74" width="39.65" height="12.79"/><path class="cls-14" d="M405.19,191.88c0,5.82-8.87,10.54-19.82,10.54s-19.83-4.72-19.83-10.54,8.88-10.55,19.83-10.55S405.19,186.06,405.19,191.88Z" transform="translate(-33.74 -30.7)"/><path class="cls-28" d="M403.46,191.44c0,5.32-8.09,9.62-18.08,9.62s-18.09-4.3-18.09-9.62,8.1-9.62,18.09-9.62S403.46,186.13,403.46,191.44Z" transform="translate(-33.74 -30.7)"/><path class="cls-14" d="M385.37,185.74c6.82,0,12.41,2.78,13,6.32a4.2,4.2,0,0,0,.06-.62c0-3.84-5.86-6.95-13.07-6.95s-13.07,3.11-13.07,6.95a3.18,3.18,0,0,0,.06.62C373,188.52,378.55,185.74,385.37,185.74Z" transform="translate(-33.74 -30.7)"/><ellipse class="cls-2" cx="351.63" cy="161.37" rx="13.01" ry="6.33"/><path class="cls-14" d="M385.38,210.4c-10.57,0-19.18-4.4-19.77-9.94a6,6,0,0,0-.05.61c0,5.82,8.87,10.54,19.82,10.54s19.82-4.72,19.82-10.54a6,6,0,0,0-.05-.61C404.55,206,395.94,210.4,385.38,210.4Z" transform="translate(-33.74 -30.7)"/><path class="cls-14" d="M385.38,206c-10.57,0-19.18-4.4-19.77-9.94a6,6,0,0,0-.05.61c0,5.82,8.87,10.54,19.82,10.54s19.82-4.72,19.82-10.54a6,6,0,0,0-.05-.61C404.55,201.63,395.94,206,385.38,206Z" transform="translate(-33.74 -30.7)"/><path class="cls-14" d="M250.42,63.65c0,5.82-8.88,10.55-19.84,10.55s-19.83-4.73-19.83-10.55,8.88-10.56,19.83-10.56S250.42,57.82,250.42,63.65Z" transform="translate(-33.74 -30.7)"/><path class="cls-12" d="M250.4,62.72c0,5.82-8.88,10.54-19.83,10.54s-19.82-4.72-19.82-10.54,8.87-10.55,19.82-10.55S250.4,56.89,250.4,62.72Z" transform="translate(-33.74 -30.7)"/><rect class="cls-12" x="177.01" y="19.87" width="39.65" height="12.79"/><path class="cls-14" d="M250.4,51c0,5.83-8.88,10.55-19.83,10.55S210.75,56.83,210.75,51s8.87-10.54,19.82-10.54S250.4,45.18,250.4,51Z" transform="translate(-33.74 -30.7)"/><path class="cls-28" d="M248.67,50.57c0,5.31-8.1,9.62-18.09,9.62s-18.08-4.31-18.08-9.62S220.6,41,230.58,41,248.67,45.25,248.67,50.57Z" transform="translate(-33.74 -30.7)"/><path class="cls-14" d="M230.57,44.86c6.82,0,12.42,2.78,13,6.33a3.26,3.26,0,0,0,.06-.62c0-3.84-5.85-7-13.07-7s-13.07,3.11-13.07,7a4.34,4.34,0,0,0,.06.62C218.16,47.64,223.75,44.86,230.57,44.86Z" transform="translate(-33.74 -30.7)"/><path class="cls-2" d="M230.57,57.52c6.82,0,12.42-2.78,13-6.33-.59-3.55-6.19-6.33-13-6.33s-12.41,2.78-13,6.33C218.16,54.74,223.75,57.52,230.57,57.52Z" transform="translate(-33.74 -30.7)"/><path class="cls-14" d="M230.58,69.53c-10.56,0-19.17-4.4-19.76-9.94,0,.2-.06.4-.06.6,0,5.82,8.88,10.54,19.82,10.54S250.41,66,250.41,60.19c0-.2,0-.4-.06-.6C249.76,65.13,241.15,69.53,230.58,69.53Z" transform="translate(-33.74 -30.7)"/><path class="cls-14" d="M230.58,65.16c-10.56,0-19.17-4.4-19.76-9.94,0,.2-.06.4-.06.6,0,5.82,8.88,10.55,19.82,10.55s19.83-4.73,19.83-10.55c0-.2,0-.4-.06-.6C249.76,60.76,241.15,65.16,230.58,65.16Z" transform="translate(-33.74 -30.7)"/><path class="cls-14" d="M227.41,87.21c0,5.82-8.88,10.55-19.83,10.55S187.74,93,187.74,87.21s8.88-10.55,19.84-10.55S227.41,81.38,227.41,87.21Z" transform="translate(-33.74 -30.7)"/><path class="cls-12" d="M227.39,86.28c0,5.82-8.88,10.54-19.82,10.54s-19.83-4.72-19.83-10.54,8.88-10.55,19.83-10.55S227.39,80.45,227.39,86.28Z" transform="translate(-33.74 -30.7)"/><rect class="cls-12" x="154" y="43.43" width="39.65" height="12.79"/><path class="cls-14" d="M227.39,74.57c0,5.82-8.88,10.54-19.82,10.54s-19.83-4.72-19.83-10.54S196.62,64,207.57,64,227.39,68.74,227.39,74.57Z" transform="translate(-33.74 -30.7)"/><path class="cls-28" d="M225.66,74.13c0,5.31-8.09,9.62-18.08,9.62s-18.09-4.31-18.09-9.62,8.1-9.62,18.09-9.62S225.66,68.82,225.66,74.13Z" transform="translate(-33.74 -30.7)"/><path class="cls-14" d="M207.57,68.42c6.82,0,12.41,2.78,13,6.33a4.21,4.21,0,0,0,0-.62c0-3.84-5.85-6.95-13.06-6.95s-13.07,3.11-13.07,6.95a3.18,3.18,0,0,0,.06.62C195.15,71.2,200.74,68.42,207.57,68.42Z" transform="translate(-33.74 -30.7)"/><ellipse class="cls-2" cx="173.82" cy="44.05" rx="13.01" ry="6.33"/><path class="cls-14" d="M207.58,93.09c-10.57,0-19.18-4.4-19.77-9.94,0,.2-.05.4-.05.6,0,5.83,8.87,10.55,19.82,10.55s19.82-4.72,19.82-10.55a4.07,4.07,0,0,0-.06-.6C226.75,88.69,218.14,93.09,207.58,93.09Z" transform="translate(-33.74 -30.7)"/><path class="cls-14" d="M207.58,88.72c-10.57,0-19.18-4.4-19.77-9.94,0,.2-.05.4-.05.6,0,5.83,8.87,10.55,19.82,10.55s19.82-4.72,19.82-10.55a4.07,4.07,0,0,0-.06-.6C226.75,84.32,218.14,88.72,207.58,88.72Z" transform="translate(-33.74 -30.7)"/><path class="cls-12" d="M394,263.7a7.89,7.89,0,0,1-1.83-.15l.49-1.63-.25.81.25-.81c.83.22,8,.51,15-4.74,7.26-5.46,7.25-20.7,5.65-26-2.5-8.26-7.66-6.93-7.88-6.87l-.47-1.63c.06,0,7-1.92,10,8,1.94,6.41,1.49,22-6.25,27.86A25,25,0,0,1,394,263.7Z" transform="translate(-33.74 -30.7)"/><path class="cls-14" d="M403.72,271a8.16,8.16,0,0,1-3.41,6.52c-1.89,1.09-3.41-.06-3.41-2.58a8.16,8.16,0,0,1,3.41-6.52C402.19,267.37,403.72,268.52,403.72,271Z" transform="translate(-33.74 -30.7)"/><polygon class="cls-14" points="370.97 238.87 368.61 237.47 364.34 247.04 366.64 248.39 370.97 238.87"/><path class="cls-28" d="M406.1,272.43a8.19,8.19,0,0,1-3.41,6.52c-1.88,1.09-3.41-.07-3.41-2.58a8.19,8.19,0,0,1,3.41-6.52C404.57,268.76,406.1,269.92,406.1,272.43Z" transform="translate(-33.74 -30.7)"/><path class="cls-11" d="M405.14,273a5.88,5.88,0,0,1-2.45,4.69c-1.36.78-2.45-.05-2.45-1.86a5.85,5.85,0,0,1,2.45-4.68C404,270.35,405.14,271.18,405.14,273Z" transform="translate(-33.74 -30.7)"/><path class="cls-14" d="M386.3,282.92a3.28,3.28,0,0,1-1.37,2.62c-.76.44-1.37,0-1.37-1a3.25,3.25,0,0,1,1.37-2.61C385.69,281.45,386.3,281.91,386.3,282.92Z" transform="translate(-33.74 -30.7)"/><polygon class="cls-14" points="352.96 251.63 352.01 251.07 350.3 254.91 351.22 255.46 352.96 251.63"/><path class="cls-28" d="M387.26,283.48a3.31,3.31,0,0,1-1.37,2.62c-.76.44-1.37,0-1.37-1a3.25,3.25,0,0,1,1.37-2.61C386.64,282,387.26,282.47,387.26,283.48Z" transform="translate(-33.74 -30.7)"/><rect class="cls-12" x="326.69" y="238.86" width="3.15" height="2.54"/><path class="cls-12" d="M402.32,268.84a5.6,5.6,0,0,1,1.54-.46v-2.74l-7.05-.28v2.74l-14.57-8.41a1.26,1.26,0,0,0-1.26,0l-19.9,11.37a1.27,1.27,0,0,0,0,2.2l21.1,12.19a1.26,1.26,0,0,0,1.27,0l15-8.68c0-.08,0-.17,0-.26C398.45,273.4,400,270.18,402.32,268.84Z" transform="translate(-33.74 -30.7)"/><path class="cls-28" d="M361.07,270.42l21.1,12.2a1.3,1.3,0,0,0,1.27,0l19.79-15.86a1.28,1.28,0,0,0,0-2.2l-21-12.12a1.26,1.26,0,0,0-1.26,0l-19.9,15.79A1.27,1.27,0,0,0,361.07,270.42Z" transform="translate(-33.74 -30.7)"/><path class="cls-28" d="M392.84,272.58c0,3.14-4.79,5.69-10.7,5.69s-10.69-2.55-10.69-5.69,4.79-5.69,10.69-5.69S392.84,269.44,392.84,272.58Z" transform="translate(-33.74 -30.7)"/><ellipse class="cls-8" cx="382.17" cy="266.98" rx="10.94" ry="7.19" transform="translate(-89.93 77.63) rotate(-15.04)"/><polygon class="cls-8" points="359.1 219.19 337.7 219.19 337.7 238.13 359.1 234.66 359.1 219.19"/><polygon class="cls-28" points="339.01 224.95 337.58 225.8 341.56 228.14 343.18 227.19 339.01 224.95"/><path class="cls-8" d="M392.84,249.22a3.38,3.38,0,0,1-.59,1.86c-1.44-2.24-5.42-3.84-10.11-3.84s-8.66,1.6-10.1,3.84a3.38,3.38,0,0,1-.59-1.86v3.49h0a1.5,1.5,0,0,0,0,.22c0,3.14,4.79,5.69,10.69,5.69s10.7-2.55,10.7-5.69c0-.08,0-.15,0-.22h0Z" transform="translate(-33.74 -30.7)"/><path class="cls-28" d="M392.84,246.18a3.38,3.38,0,0,1-.59,1.86c-1.44-2.24-5.42-3.84-10.11-3.84s-8.66,1.6-10.1,3.84a3.38,3.38,0,0,1-.59-1.86v3.49h0a1.5,1.5,0,0,0,0,.22c0,3.14,4.79,5.69,10.69,5.69s10.7-2.55,10.7-5.69c0-.08,0-.15,0-.22h0Z" transform="translate(-33.74 -30.7)"/><path class="cls-12" d="M382.64,234.08h-1a10.23,10.23,0,0,0-10.2,10.2v1.9a4.4,4.4,0,0,0,2.25,3.49,17.29,17.29,0,0,0,16.88,0,4.41,4.41,0,0,0,2.26-3.49v-1.9A10.23,10.23,0,0,0,382.64,234.08Z" transform="translate(-33.74 -30.7)"/><path class="cls-12" d="M383.49,278.43c.11.24-.08.57-.43.74s-.73.12-.84-.11.07-.57.42-.74S383.37,278.2,383.49,278.43Z" transform="translate(-33.74 -30.7)"/><path class="cls-12" d="M399.58,265c.12.23-.07.56-.42.74s-.73.12-.85-.12.08-.56.43-.73S399.47,264.79,399.58,265Z" transform="translate(-33.74 -30.7)"/><path class="cls-12" d="M365.88,268.26c.12.23-.07.56-.43.74s-.72.12-.84-.11.07-.57.43-.74S365.77,268,365.88,268.26Z" transform="translate(-33.74 -30.7)"/><polygon class="cls-12" points="337.97 230.54 341.93 232.88 341.56 228.14 337.58 225.8 337.97 230.54"/><polygon class="cls-12" points="343.21 227.16 341.56 228.14 341.93 232.88 343.21 232.2 343.21 227.16"/><path class="cls-2" d="M373.68,259.49a.87.87,0,0,0-1.15.36c0,.06-3.24,6.09-6.88,7.85-2.34,1.13-4.58,1.28-5.69.39a2.91,2.91,0,0,1-.62-3c1.58-6.83,12.14-6.61,12.15-6.61,0-.44-.14-1.7-.14-1.7-.51,0-11.77-.27-13.67,7.93-.63,2.74.49,4.12,1.22,4.7a4.88,4.88,0,0,0,3.07.94,10.44,10.44,0,0,0,4.42-1.13c4.14-2,7.51-8.32,7.65-8.59A.85.85,0,0,0,373.68,259.49Z" transform="translate(-33.74 -30.7)"/><path class="cls-11" d="M396,266.51a.85.85,0,0,1-.85-.85V241.35c0-4.86,1.31-7,4.05-9.6.55-.52.8-1,.76-1.31-.12-1-2.43-2.33-5.1-3.87-.67-.38-1.39-.8-2.13-1.24-2.39-1.41-3.93-1.7-6.22.47-3,2.81-3.29,4.68-3.26,8.3-.69,0-1.07,0-1.71,0,0-3.81.39-6.28,3.8-9.52,3-2.85,5.47-2.34,8.25-.69.74.44,1.45.85,2.12,1.23,3.44,2,5.71,3.29,5.94,5.14a3.27,3.27,0,0,1-1.28,2.74c-2.48,2.38-3.52,4.07-3.52,8.37v24.31A.85.85,0,0,1,396,266.51Z" transform="translate(-33.74 -30.7)"/><path class="cls-29" d="M405.18,222.48a2.72,2.72,0,0,0,1.14,2.17c.63.36,1.14,0,1.14-.86a2.74,2.74,0,0,0-1.14-2.18C405.69,221.25,405.18,221.64,405.18,222.48Z" transform="translate(-33.74 -30.7)"/><polygon class="cls-29" points="371.14 191.3 371.87 190.84 373.32 194.01 372.58 194.47 371.14 191.3"/><path class="cls-11" d="M404.47,222.92a2.71,2.71,0,0,0,1.14,2.17c.63.37,1.14,0,1.14-.86a2.71,2.71,0,0,0-1.14-2.17C405,221.69,404.47,222.08,404.47,222.92Z" transform="translate(-33.74 -30.7)"/><path class="cls-2" d="M393.38,229.58a9.53,9.53,0,0,0-3.58,3.95c-.13.24-1.28,2.65-1.68,3.67h0l-16.24,36.54a.76.76,0,0,0,.39,1h0a.76.76,0,0,0,1-.39l17-38.27c1-2.12,1.92-3.67,3.13-4.36l12.35-7.13c.11-.06.38-.32.15-1.09-.15-.48-.64-.76-.91-.61Z" transform="translate(-33.74 -30.7)"/><path class="cls-11" d="M375.93,280s.15-.76.21-1.11c.09-.58-.71-1.21-.71-1.21l-.71,1.05Z" transform="translate(-33.74 -30.7)"/><polygon class="cls-11" points="341.79 248.47 333.04 243.41 327.74 248.23 340.26 255.43 341.79 248.47"/><polygon class="cls-12" points="327.74 248.23 326.99 249.17 339.75 256.81 340.26 255.43 327.74 248.23"/><polygon class="cls-29" points="341.79 248.47 342.19 249.26 340.71 256.06 340.26 255.43 341.79 248.47"/><polygon class="cls-12" points="340.26 255.43 339.75 256.81 340.26 257.37 340.71 256.06 340.26 255.43"/><polygon class="cls-28" points="326.99 249.17 327.47 249.74 340.26 257.37 339.75 256.81 326.99 249.17"/><path class="cls-9" d="M366.79,274.11l8.74,5.05s.31-1,0-1.42a19.5,19.5,0,0,0-2.42-1.52c-.51-.35.08-1.72.08-1.72l-1.33-.7s-.61.94-1.07.94-2.85-1.55-3.05-1.45A4.41,4.41,0,0,0,366.79,274.11Z" transform="translate(-33.74 -30.7)"/><path class="cls-2" d="M382.14,236.89c1.89,0,3.47.65,4.06,1.54a1.36,1.36,0,0,0,.26-.76c0-1.27-1.93-2.29-4.32-2.29s-4.32,1-4.32,2.29a1.45,1.45,0,0,0,.26.76C378.67,237.54,380.26,236.89,382.14,236.89Z" transform="translate(-33.74 -30.7)"/><ellipse class="cls-28" cx="348.4" cy="207.73" rx="4.06" ry="1.54"/><path class="cls-8" d="M372.67,247a1.17,1.17,0,0,0,.49.94c.28.16.5,0,.5-.37a1.17,1.17,0,0,0-.5-.94C372.89,246.42,372.67,246.59,372.67,247Z" transform="translate(-33.74 -30.7)"/><path class="cls-8" d="M374.39,248a1.17,1.17,0,0,0,.5.94c.27.16.49,0,.49-.37a1.19,1.19,0,0,0-.49-.95C374.61,247.46,374.39,247.62,374.39,248Z" transform="translate(-33.74 -30.7)"/><polygon class="cls-12" points="357.7 225.13 354.25 227.12 354.25 226.15 357.7 224.16 357.7 225.13"/><polygon class="cls-12" points="357.7 226.93 354.25 228.92 354.25 227.95 357.7 225.96 357.7 226.93"/><polygon class="cls-12" points="357.7 228.61 354.25 230.6 354.25 229.63 357.7 227.64 357.7 228.61"/><polygon class="cls-12" points="357.7 230.41 354.25 232.4 354.25 231.43 357.7 229.44 357.7 230.41"/><path class="cls-2" d="M203.16,368.19a6.24,6.24,0,0,0,2.62,5c1.44.84,2.61-.05,2.61-2a6.26,6.26,0,0,0-2.61-5C204.33,365.38,203.16,366.26,203.16,368.19Z" transform="translate(-33.74 -30.7)"/><polygon class="cls-2" points="168.43 336.5 170.45 335.31 173.74 342.63 171.64 343.84 168.43 336.5"/><path class="cls-12" d="M201.05,369.41a6.26,6.26,0,0,0,2.61,5c1.45.84,2.62,0,2.62-2a6.25,6.25,0,0,0-2.62-5C202.22,366.6,201.05,367.48,201.05,369.41Z" transform="translate(-33.74 -30.7)"/><path class="cls-13" d="M202.17,370.16a3.14,3.14,0,0,0,1.32,2.51c.73.42,1.32,0,1.32-1a3.16,3.16,0,0,0-1.32-2.52C202.76,368.74,202.17,369.19,202.17,370.16Z" transform="translate(-33.74 -30.7)"/><path class="cls-11" d="M206.54,366.4v4.31a17.69,17.69,0,0,1-2.2.91c-1.18.39-1.66-.69-1.29-2.14a44.68,44.68,0,0,1,1.44-4.27Z" transform="translate(-33.74 -30.7)"/><polygon class="cls-8" points="172.8 335.7 174.93 334.5 174.93 338.8 172.8 340.01 172.8 335.7"/><polygon class="cls-9" points="174.46 334.03 172.8 334.98 171.14 334.01 170.75 334.52 172.8 335.7 174.93 334.5 174.46 334.03"/><path class="cls-2" d="M247.41,342.73a6.28,6.28,0,0,0,2.61,5c1.45.83,2.62-.05,2.62-2a6.26,6.26,0,0,0-2.62-5C248.58,339.92,247.41,340.8,247.41,342.73Z" transform="translate(-33.74 -30.7)"/><polygon class="cls-2" points="212.67 311.04 214.69 309.86 217.98 317.17 215.88 318.38 212.67 311.04"/><path class="cls-12" d="M245.29,344a6.26,6.26,0,0,0,2.62,5c1.44.83,2.61-.05,2.61-2a6.29,6.29,0,0,0-2.61-5C246.46,341.14,245.29,342,245.29,344Z" transform="translate(-33.74 -30.7)"/><path class="cls-13" d="M246.42,344.7a3.18,3.18,0,0,0,1.31,2.52c.73.42,1.32,0,1.32-1a3.14,3.14,0,0,0-1.32-2.51C247,343.29,246.42,343.73,246.42,344.7Z" transform="translate(-33.74 -30.7)"/><path class="cls-11" d="M250.79,341v4.3a16.65,16.65,0,0,1-2.21.92c-1.18.38-1.66-.7-1.28-2.14a43.61,43.61,0,0,1,1.44-4.27Z" transform="translate(-33.74 -30.7)"/><polygon class="cls-8" points="217.04 310.25 219.17 309.04 219.17 313.34 217.04 314.56 217.04 310.25"/><polygon class="cls-9" points="218.7 308.57 217.04 309.53 215.38 308.55 215 309.06 217.04 310.25 219.17 309.04 218.7 308.57"/><path class="cls-2" d="M183.13,356.45a6.27,6.27,0,0,0,2.62,5c1.44.83,2.62-.05,2.62-2a6.27,6.27,0,0,0-2.62-5C184.31,353.64,183.13,354.53,183.13,356.45Z" transform="translate(-33.74 -30.7)"/><polygon class="cls-2" points="148.4 324.76 150.42 323.58 153.71 330.89 151.61 332.11 148.4 324.76"/><path class="cls-12" d="M181,357.67a6.25,6.25,0,0,0,2.62,5c1.44.83,2.61-.05,2.61-2a6.26,6.26,0,0,0-2.61-5C182.19,354.86,181,355.75,181,357.67Z" transform="translate(-33.74 -30.7)"/><path class="cls-13" d="M182.14,358.42a3.16,3.16,0,0,0,1.32,2.52c.73.42,1.32,0,1.32-1a3.14,3.14,0,0,0-1.32-2.51C182.73,357,182.14,357.45,182.14,358.42Z" transform="translate(-33.74 -30.7)"/><path class="cls-11" d="M186.51,354.67V359a16.87,16.87,0,0,1-2.2.92c-1.18.39-1.66-.69-1.28-2.14a44.68,44.68,0,0,1,1.44-4.27Z" transform="translate(-33.74 -30.7)"/><polygon class="cls-8" points="152.77 323.97 154.9 322.76 154.9 327.06 152.77 328.28 152.77 323.97"/><polygon class="cls-9" points="154.43 322.29 152.77 323.25 151.11 322.27 150.72 322.78 152.77 323.97 154.9 322.76 154.43 322.29"/><polygon class="cls-3" points="151.22 278.88 173.34 291.64 173.34 335.22 151.22 322.5 151.22 278.88"/><polygon class="cls-4" points="218.41 265.65 173.34 291.64 173.34 335.22 218.41 309.31 218.41 265.65"/><polygon class="cls-12" points="187.52 276.84 206.85 265.69 206.85 267.43 187.52 278.55 187.52 276.84"/><polygon class="cls-13" points="174.4 292.95 217.4 268.27 217.4 273.4 174.4 298.01 174.4 292.95"/><polygon class="cls-3" points="173.34 299.98 218.41 274 218.41 275.36 173.34 301.28 173.34 299.98"/><polygon class="cls-12" points="187.52 286.58 206.85 275.44 206.85 277.17 187.52 288.29 187.52 286.58"/><polygon class="cls-13" points="174.4 302.16 217.4 277.48 217.4 282.6 174.4 307.22 174.4 302.16"/><polygon class="cls-3" points="173.34 309.19 218.41 283.2 218.41 284.57 173.34 310.49 173.34 309.19"/><polygon class="cls-12" points="187.52 295.79 206.85 284.64 206.85 286.38 187.52 297.49 187.52 295.79"/><polygon class="cls-13" points="174.4 325.29 217.4 300.61 217.4 307.22 174.4 331.83 174.4 325.29"/><polygon class="cls-12" points="187.52 318.92 206.85 307.77 206.85 309.51 187.52 320.63 187.52 318.92"/><polygon class="cls-13" points="174.4 311.56 217.4 286.89 217.4 295.54 174.4 320.16 174.4 311.56"/><polygon class="cls-12" points="187.52 305.2 206.85 294.05 206.85 295.79 187.52 306.9 187.52 305.2"/><polygon class="cls-3" points="173.34 322.83 218.41 296.84 218.41 298.21 173.34 324.13 173.34 322.83"/><polygon class="cls-18" points="218.41 265.65 173.34 291.64 151.22 278.88 196.31 252.99 218.41 265.65"/><polygon class="cls-8" points="173.34 335.23 219.17 308.83 219.17 310.2 173.34 336.61 173.34 335.23"/><polygon class="cls-9" points="173.34 334.37 218.41 308.39 219.17 308.83 173.34 335.26 173.34 334.37"/><polygon class="cls-11" points="173.34 335.23 150.45 322.05 150.45 323.42 173.34 336.61 173.34 335.23"/><polygon class="cls-8" points="152.35 281.58 171.69 292.71 171.69 294.97 152.35 283.83 152.35 281.58"/><polygon class="cls-9" points="173.34 334.37 151.22 321.61 150.45 322.05 173.34 335.26 173.34 334.37"/><path class="cls-12" d="M203.9,323.79a.9.9,0,0,0,.38.72c.21.12.38,0,.38-.29a.9.9,0,0,0-.38-.72C204.07,323.38,203.9,323.51,203.9,323.79Z" transform="translate(-33.74 -30.7)"/><path class="cls-12" d="M187.24,314a.9.9,0,0,0,.38.72c.21.12.38,0,.38-.28a.92.92,0,0,0-.38-.73C187.41,313.57,187.24,313.7,187.24,314Z" transform="translate(-33.74 -30.7)"/><path class="cls-2" d="M211.51,303.65s-3.34-2-7.31-4a3.12,3.12,0,0,0-2.74-.21,4.57,4.57,0,0,0-2,1.79c-.46.27-1.23.7-1.7,1a7.22,7.22,0,0,1,3.31-3.73,4.21,4.21,0,0,1,3.58.24c4,2,7.34,4,7.38,4Z" transform="translate(-33.74 -30.7)"/><path class="cls-2" d="M223,289.17,204.15,300c-.42.24-.76,0-.76-.58v-15a1.85,1.85,0,0,1,.76-1.46L223,272.09c.41-.24.76,0,.76.58v15A1.87,1.87,0,0,1,223,289.17Z" transform="translate(-33.74 -30.7)"/><polygon class="cls-2" points="169.93 269.39 170.93 269.96 170.85 268.81 169.93 269.39"/><polygon class="cls-2" points="190.76 241.93 189.74 241.35 189.37 243.36 190.76 241.93"/><path class="cls-12" d="M224,289.75l-18.83,10.87c-.42.25-.77,0-.77-.57V285a1.84,1.84,0,0,1,.77-1.46L224,272.68c.42-.24.76,0,.76.58v15A1.83,1.83,0,0,1,224,289.75Z" transform="translate(-33.74 -30.7)"/><polygon class="cls-2" points="190.38 257.34 171.34 268.33 171.34 253.77 190.38 242.78 190.38 257.34"/><path class="cls-8" d="M215.81,294l-2.42,1.4c-.13.07-.23,0-.23-.18h0a.53.53,0,0,1,.23-.43l2.42-1.4c.13-.07.23,0,.23.17h0A.55.55,0,0,1,215.81,294Z" transform="translate(-33.74 -30.7)"/><polygon class="cls-8" points="189.37 257.92 172.3 267.77 172.3 254.5 189.37 244.65 189.37 257.92"/><path class="cls-2" d="M239.63,300.78l-18.18,10.5a2.15,2.15,0,0,1-1.91-.08l-13.9-8c-.57-.33-.63-.82-.14-1.1l18.19-10.5a2.1,2.1,0,0,1,1.9.08l13.91,8C240.06,300,240.12,300.49,239.63,300.78Z" transform="translate(-33.74 -30.7)"/><rect class="cls-2" x="171.43" y="270.63" width="1.25" height="1.25"/><rect class="cls-2" x="204.97" y="268.41" width="1.25" height="1.25"/><path class="cls-12" d="M239.63,299.63l-18.18,10.5a2.15,2.15,0,0,1-1.91-.08l-13.9-8c-.57-.33-.63-.82-.14-1.1l18.19-10.5a2.13,2.13,0,0,1,1.9.08l13.91,8C240.06,298.85,240.12,299.35,239.63,299.63Z" transform="translate(-33.74 -30.7)"/><polygon class="cls-2" points="200.16 265.68 182.14 276.09 172.99 270.81 191.02 260.4 200.16 265.68"/><polygon class="cls-2" points="199.15 271.86 192.77 275.54 189.36 273.57 195.74 269.89 199.15 271.86"/><polygon class="cls-13" points="173.78 270.79 175.04 270.06 175.94 270.58 174.69 271.31 173.78 270.79"/><polygon class="cls-13" points="175.1 271.55 176.35 270.82 177.26 271.34 176 272.07 175.1 271.55"/><polygon class="cls-13" points="176.41 272.31 178.11 271.32 179.01 271.85 177.32 272.83 176.41 272.31"/><polygon class="cls-13" points="192.68 262.92 193.5 262.44 195.72 263.72 194.9 264.2 192.68 262.92"/><polygon class="cls-13" points="177.73 273.06 179.42 272.08 180.33 272.61 178.63 273.59 177.73 273.06"/><polygon class="cls-13" points="179.04 273.82 181.29 272.53 182.19 273.05 179.95 274.35 179.04 273.82"/><polygon class="cls-13" points="192.8 265.88 196.15 263.94 197.06 264.47 193.71 266.4 192.8 265.88"/><polygon class="cls-13" points="180.36 274.58 181.61 273.86 182.52 274.38 181.26 275.11 180.36 274.58"/><polygon class="cls-13" points="175.35 269.88 176.61 269.15 177.52 269.68 176.26 270.4 175.35 269.88"/><polygon class="cls-13" points="176.67 270.64 177.93 269.91 178.83 270.43 177.57 271.16 176.67 270.64"/><polygon class="cls-13" points="176.94 268.96 178.2 268.24 179.11 268.76 177.85 269.48 176.94 268.96"/><polygon class="cls-13" points="178.26 269.72 179.52 268.99 180.42 269.52 179.16 270.24 178.26 269.72"/><polygon class="cls-13" points="178.52 268.05 179.77 267.33 180.68 267.85 179.42 268.57 178.52 268.05"/><polygon class="cls-13" points="179.83 268.81 181.09 268.09 181.99 268.61 180.74 269.33 179.83 268.81"/><polygon class="cls-13" points="180.1 267.14 181.36 266.41 182.26 266.93 181.01 267.66 180.1 267.14"/><polygon class="cls-13" points="181.42 267.9 182.67 267.17 183.58 267.69 182.32 268.42 181.42 267.9"/><polygon class="cls-13" points="181.67 266.23 182.93 265.5 183.84 266.03 182.58 266.75 181.67 266.23"/><polygon class="cls-13" points="182.99 266.99 184.25 266.26 185.15 266.79 183.89 267.51 182.99 266.99"/><polygon class="cls-13" points="183.26 265.31 184.52 264.59 185.43 265.11 184.17 265.83 183.26 265.31"/><polygon class="cls-13" points="184.58 266.07 185.84 265.35 186.74 265.87 185.48 266.59 184.58 266.07"/><polygon class="cls-13" points="178.47 271.12 179.72 270.39 180.63 270.92 179.37 271.64 178.47 271.12"/><polygon class="cls-13" points="179.78 271.88 181.04 271.15 181.94 271.68 180.68 272.4 179.78 271.88"/><polygon class="cls-13" points="180.05 270.2 181.31 269.48 182.22 270 180.96 270.73 180.05 270.2"/><polygon class="cls-13" points="181.37 270.96 182.63 270.24 183.53 270.76 182.27 271.48 181.37 270.96"/><polygon class="cls-13" points="181.63 269.29 182.88 268.57 183.79 269.09 182.53 269.82 181.63 269.29"/><polygon class="cls-13" points="182.94 270.05 184.2 269.33 185.1 269.85 183.85 270.58 182.94 270.05"/><polygon class="cls-13" points="183.21 268.38 184.47 267.65 185.38 268.18 184.12 268.9 183.21 268.38"/><polygon class="cls-13" points="184.53 269.14 185.78 268.41 186.69 268.93 185.43 269.66 184.53 269.14"/><polygon class="cls-13" points="184.78 267.47 186.04 266.74 186.95 267.27 185.69 267.99 184.78 267.47"/><polygon class="cls-13" points="186.1 268.23 187.36 267.5 188.26 268.03 187 268.75 186.1 268.23"/><polygon class="cls-13" points="186.38 266.55 187.63 265.83 188.54 266.35 187.28 267.07 186.38 266.55"/><polygon class="cls-13" points="187.69 267.31 188.95 266.59 189.85 267.11 188.59 267.83 187.69 267.31"/><polygon class="cls-13" points="187.95 265.64 189.21 264.92 190.12 265.44 188.86 266.16 187.95 265.64"/><polygon class="cls-13" points="189.27 266.4 190.53 265.68 191.43 266.2 190.17 266.92 189.27 266.4"/><polygon class="cls-13" points="181.72 272.28 182.98 271.55 183.88 272.07 182.63 272.8 181.72 272.28"/><polygon class="cls-13" points="183.31 271.36 184.57 270.63 185.47 271.15 184.21 271.88 183.31 271.36"/><polygon class="cls-13" points="184.88 270.45 186.14 269.73 187.05 270.25 185.79 270.97 184.88 270.45"/><polygon class="cls-13" points="186.47 269.54 187.73 268.81 188.63 269.33 187.37 270.06 186.47 269.54"/><polygon class="cls-13" points="188.04 268.63 189.3 267.9 190.2 268.42 188.95 269.15 188.04 268.63"/><polygon class="cls-13" points="189.63 267.71 190.89 266.98 191.79 267.51 190.53 268.23 189.63 267.71"/><polygon class="cls-13" points="191.21 266.8 192.47 266.07 193.37 266.6 192.11 267.32 191.21 266.8"/><polygon class="cls-13" points="189.54 264.72 190.8 264 191.71 264.52 190.45 265.25 189.54 264.72"/><polygon class="cls-13" points="190.86 265.48 192.12 264.76 193.02 265.28 191.76 266.01 190.86 265.48"/><polygon class="cls-13" points="191.12 263.82 192.37 263.09 193.28 263.61 192.02 264.34 191.12 263.82"/><polygon class="cls-13" points="192.43 264.57 193.69 263.85 194.59 264.37 193.34 265.1 192.43 264.57"/><polygon class="cls-13" points="184.84 264.4 186.09 263.68 187 264.2 185.74 264.93 184.84 264.4"/><polygon class="cls-13" points="186.15 265.16 187.41 264.44 188.31 264.96 187.06 265.69 186.15 265.16"/><polygon class="cls-13" points="186.45 263.48 187.7 262.75 188.61 263.27 187.35 264 186.45 263.48"/><polygon class="cls-13" points="187.76 264.23 189.02 263.51 189.92 264.03 188.67 264.76 187.76 264.23"/><polygon class="cls-13" points="188.02 262.57 189.28 261.84 190.18 262.36 188.92 263.09 188.02 262.57"/><polygon class="cls-13" points="189.33 263.33 190.59 262.6 191.5 263.12 190.24 263.85 189.33 263.33"/><polygon class="cls-13" points="189.61 261.65 190.87 260.92 191.77 261.44 190.51 262.17 189.61 261.65"/><polygon class="cls-13" points="190.92 262.41 192.18 261.68 193.09 262.2 191.83 262.93 190.92 262.41"/><polygon class="cls-13" points="181.93 273.68 183.19 272.95 184.09 273.47 182.83 274.2 181.93 273.68"/><polygon class="cls-13" points="183.52 272.76 184.78 272.03 185.68 272.55 184.42 273.28 183.52 272.76"/><polygon class="cls-13" points="191.79 268 193.05 267.27 193.96 267.8 192.7 268.52 191.79 268"/><polygon class="cls-13" points="193.37 267.09 194.62 266.36 195.53 266.89 194.27 267.61 193.37 267.09"/><polygon class="cls-13" points="194.96 266.17 197.41 264.8 198.32 265.32 195.86 266.69 194.96 266.17"/><polygon class="cls-13" points="185.11 271.84 191.46 268.17 192.36 268.69 186.01 272.36 185.11 271.84"/><polygon class="cls-13" points="174.44 273.68 172.65 272.64 172.65 272.07 174.44 273.1 174.44 273.68"/><polygon class="cls-13" points="176.51 274.87 174.72 273.84 174.72 273.26 176.51 274.3 176.51 274.87"/><polygon class="cls-10" points="188.54 248.75 173.68 257.32 173.68 257.9 188.54 249.33 188.54 248.75"/><polygon class="cls-10" points="188.54 251.85 173.68 260.43 173.68 261.01 188.54 252.44 188.54 251.85"/><polygon class="cls-10" points="188.54 255.06 173.68 263.64 173.68 264.22 188.54 255.65 188.54 255.06"/><polygon class="cls-12" points="174.24 265.5 173.72 265.8 173.72 255.37 174.24 255.06 174.24 265.5"/><path class="cls-12" d="M231.07,354.83c1-.65,6.28,2.41,6.28,2.41l7.25,2.43-.56,5.46a4.67,4.67,0,0,1-6.15.35c-2.12-1.43-5.86-3.67-7-6.11S230,355.48,231.07,354.83Z" transform="translate(-33.74 -30.7)"/><path class="cls-2" d="M240.83,334.8c1.37-4.49,2.46-6.3,5.35-7.46,1.71-.69,5.67-.14,9.75.74a16.71,16.71,0,0,1-2,11l-4-2.2a24.36,24.36,0,0,0-1.39,4.92,93.55,93.55,0,0,0-1.45,10.11c-.14,2.9-.41,7.2-.41,7.2a7.13,7.13,0,0,1-6.81,1.05,4.18,4.18,0,0,1-2.93-4.78S239.85,338,240.83,334.8Z" transform="translate(-33.74 -30.7)"/><path class="cls-6" d="M273.23,305.42s3.1,5.62,2.72,9.78S268.6,323,268.6,323l-4.21-13.37Z" transform="translate(-33.74 -30.7)"/><path class="cls-12" d="M258.35,346.75a2.41,2.41,0,0,1,2.41,2.41v22.22a2.41,2.41,0,1,1-4.81,0V349.16A2.41,2.41,0,0,1,258.35,346.75Z" transform="translate(-33.74 -30.7)"/><path class="cls-8" d="M258.35,342.12c8.42,0,15.24,3.62,15.24,8.1s-6.82,8.11-15.24,8.11-15.23-3.63-15.23-8.11S249.94,342.12,258.35,342.12Z" transform="translate(-33.74 -30.7)"/><rect class="cls-8" x="209.37" y="317.99" width="30.48" height="1.76"/><path class="cls-9" d="M258.35,340.59c8.42,0,15.24,3.63,15.24,8.1s-6.82,8.11-15.24,8.11-15.23-3.63-15.23-8.11S249.94,340.59,258.35,340.59Z" transform="translate(-33.74 -30.7)"/><path class="cls-30" d="M258.35,340.09c8,0,14.52,3.46,14.52,7.72s-6.5,7.72-14.52,7.72-14.51-3.45-14.51-7.72S250.34,340.09,258.35,340.09Z" transform="translate(-33.74 -30.7)"/><polygon class="cls-30" points="238.36 312.15 239.13 317.12 210.09 317.12 210.86 312.15 238.36 312.15"/><path class="cls-10" d="M258.35,336.66c7.71,0,13.95,3.32,13.95,7.42s-6.24,7.42-13.95,7.42-13.94-3.33-13.94-7.42S250.65,336.66,258.35,336.66Z" transform="translate(-33.74 -30.7)"/><path class="cls-10" d="M258.35,336.66c7.71,0,13.95,3.32,13.95,7.42s-6.24,7.42-13.95,7.42-13.94-3.33-13.94-7.42S250.65,336.66,258.35,336.66Z" transform="translate(-33.74 -30.7)"/><path class="cls-12" d="M274.67,383.72a4.84,4.84,0,0,1,2,3.87c0,1.5-.91,2.18-2,1.54a4.88,4.88,0,0,1-2-3.88C272.64,383.76,273.55,383.07,274.67,383.72Z" transform="translate(-33.74 -30.7)"/><polygon class="cls-12" points="242.25 358.54 240.62 359.48 238.13 353.78 239.69 352.86 242.25 358.54"/><path class="cls-2" d="M273,384.66a4.88,4.88,0,0,1,2,3.88c0,1.49-.91,2.18-2,1.53a4.84,4.84,0,0,1-2-3.87C271,384.7,271.91,384,273,384.66Z" transform="translate(-33.74 -30.7)"/><path class="cls-12" d="M243.17,363.53,275.22,382a1.69,1.69,0,0,1-1.69,2.93l-32-18.5a1.68,1.68,0,0,1,1.68-2.92Z" transform="translate(-33.74 -30.7)"/><path class="cls-12" d="M241.49,382l32-18.49a1.69,1.69,0,1,1,1.69,2.92L243.17,385a1.69,1.69,0,0,1-1.68-2.93Z" transform="translate(-33.74 -30.7)"/><path class="cls-12" d="M243.25,365.21a4.84,4.84,0,0,1,2,3.87c0,1.5-.91,2.18-2,1.53a4.84,4.84,0,0,1-2-3.87C241.22,365.25,242.13,364.56,243.25,365.21Z" transform="translate(-33.74 -30.7)"/><polygon class="cls-12" points="210.83 340.03 209.2 340.97 206.71 335.27 208.28 334.35 210.83 340.03"/><path class="cls-2" d="M241.61,366.15a4.86,4.86,0,0,1,2,3.88c0,1.49-.91,2.18-2,1.53a4.86,4.86,0,0,1-2-3.87C239.58,366.19,240.49,365.51,241.61,366.15Z" transform="translate(-33.74 -30.7)"/><path class="cls-12" d="M245.23,384.19a4.86,4.86,0,0,1,2,3.88c0,1.49-.9,2.18-2,1.53a4.84,4.84,0,0,1-2-3.88C243.2,384.23,244.1,383.54,245.23,384.19Z" transform="translate(-33.74 -30.7)"/><polygon class="cls-12" points="212.8 359.01 211.17 359.95 208.69 354.26 210.25 353.34 212.8 359.01"/><path class="cls-2" d="M243.59,385.14a4.84,4.84,0,0,1,2,3.87c0,1.5-.9,2.18-2,1.54a4.88,4.88,0,0,1-2-3.88C241.56,385.18,242.47,384.49,243.59,385.14Z" transform="translate(-33.74 -30.7)"/><path class="cls-12" d="M276,366.26a4.86,4.86,0,0,1,2,3.88c0,1.49-.91,2.18-2,1.53a4.86,4.86,0,0,1-2-3.88C273.92,366.3,274.83,365.61,276,366.26Z" transform="translate(-33.74 -30.7)"/><polygon class="cls-12" points="243.53 341.08 241.9 342.02 239.41 336.33 240.97 335.41 243.53 341.08"/><path class="cls-2" d="M274.31,367.21a4.84,4.84,0,0,1,2,3.87c0,1.5-.91,2.18-2,1.54a4.88,4.88,0,0,1-2-3.88C272.28,367.25,273.19,366.56,274.31,367.21Z" transform="translate(-33.74 -30.7)"/><path class="cls-12" d="M222.85,359.74c1-.64,6.29,2.41,6.29,2.41l7.24,2.43-.55,5.46a4.67,4.67,0,0,1-6.15.35c-2.12-1.43-5.86-3.67-7.05-6.1S221.82,360.39,222.85,359.74Z" transform="translate(-33.74 -30.7)"/><path class="cls-31" d="M273.54,313.12l5.1,8.11s-1.55,1.69-6.48-.77a41.78,41.78,0,0,0-9.06-3.56l.92-4.32Z" transform="translate(-33.74 -30.7)"/><path class="cls-11" d="M269.69,312c-1.15-2.15-2.19-4.12-2.19-4.12l-1.95-9.55s3.28-1.27,5.7.82c1.45,1.24,3.64,5.64,5.36,9.33A12.11,12.11,0,0,1,269.69,312Z" transform="translate(-33.74 -30.7)"/><path class="cls-6" d="M258.94,282a5.42,5.42,0,0,1,7.73,2.64c.95,2-.39,7.41-.61,11.2a9.17,9.17,0,0,0,.86,4.82l-2.63,1.08a7.91,7.91,0,0,1-5.35,0l.08-4.66s-2.82-.42-3.31-.87c-1.19-1.09-1.82-4.34-1.27-8.52C255.26,281.46,258.18,282.52,258.94,282Z" transform="translate(-33.74 -30.7)"/><path class="cls-2" d="M232.62,339.71c1.37-4.49,2.46-6.3,5.35-7.46,4.19-1.68,21.9,4,21.9,4l12.76.66s.66,5.19-3,7.83-12.39,5.26-18.7,2c-3-1.58-6.31-3.37-9.21-5a24.36,24.36,0,0,0-1.39,4.92,93.56,93.56,0,0,0-1.46,10.11c-.14,2.9-.41,7.2-.41,7.2a7.11,7.11,0,0,1-6.8,1.05,4.18,4.18,0,0,1-2.93-4.78S231.64,342.94,232.62,339.71Z" transform="translate(-33.74 -30.7)"/><path class="cls-8" d="M251.86,315.46c-1.55-3.31,2-9.3,2.95-11.46s4.13-3.46,4.13-3.46l9.56-1.42s4.18,7.27,4.74,11.61c.39,3,.08,8.66-.09,16.38-.11,5.21,2.92,8.44.71,10.72-3.36,3.45-11,5.86-15.32,4.71-2.56-.69-4.32-3.34-6.05-5.45-1.89-2.32-2.87-7.9-.43-10.19C252.36,326.91,255,322.21,251.86,315.46Z" transform="translate(-33.74 -30.7)"/><path class="cls-23" d="M259,299.21s3.82,1.13,6.08-.63c3.19-2.49,3.54,1,3.54,1a8.39,8.39,0,0,1-4,2.73,9.68,9.68,0,0,1-7.69-.61C256.87,300,259,299.21,259,299.21Z" transform="translate(-33.74 -30.7)"/><path class="cls-6" d="M227.11,305.18c1,0,.66-1.66,1.08-2.41.51-.92.92-1,1.08-.19.39,2,1.19,6.18,2.12,6.66A69.35,69.35,0,0,1,241.6,316S253,303.8,256,304.51c1.53.37,2.13,3.61.81,6.94-1.7,4.25-13.19,12.56-13.19,12.56-3.64.75-12.59-8.52-14.45-10.49-1.59-1.7-4.71-3.08-6.27-4.28-2.26-1.73-4-4.06-3.11-6.18.49-1.2,1.91-.41,3.5.53C224.55,304.36,226,305.23,227.11,305.18Z" transform="translate(-33.74 -30.7)"/><path class="cls-11" d="M250.7,319.18c-3.78-1.16-6.65-4.25-4.95-8.65,3.29-3.16,6.84-6.94,10.28-6.9,1.74,0,2.89,4.85,1.08,8.53C256,314.44,253.21,317.05,250.7,319.18Z" transform="translate(-33.74 -30.7)"/><path class="cls-2" d="M256.4,289.34c-.32-1-1-3.48-1.21-4.45a4.76,4.76,0,0,1,1.28-4.44c1.55-1.61,6.93-2.13,8.88-1s6.08,3.18,4.64,9.89c-1.17,5.42-2.3,6-3.94,7.3A9.37,9.37,0,0,1,262.1,298a4.66,4.66,0,0,1-1.66-3.07c-.08-.65,0-2.61,0-2.61s1.43-2.84.32-3.85-2.39.64-2.67,1.33c-1,2.42-.49,7-.49,7a4.12,4.12,0,0,1-2.86.57c-.79-.19-.1-3.24-.1-3.24S256.16,293.39,256.4,289.34Z" transform="translate(-33.74 -30.7)"/><path class="cls-30" d="M273.87,312.54l4.35-2.51c4.58-2.65,8.33.19,8.33,6.29v17.45l-21,12.12V328.45C265.55,322.34,269.29,315.18,273.87,312.54Z" transform="translate(-33.74 -30.7)"/><polygon class="cls-30" points="250.39 283.19 250.01 278.96 253.57 281.08 250.39 283.19"/><polygon class="cls-30" points="235.27 317.25 231.8 315.2 235.9 311.16 235.27 317.25"/><path class="cls-10" d="M277.34,314.6l4.35-2.51c4.58-2.65,8.33.19,8.33,6.29v17.45L269,348V330.51C269,324.4,272.76,317.24,277.34,314.6Z" transform="translate(-33.74 -30.7)"/><path class="cls-12" d="M279.39,341.48c-.16-5.75,0-10.44,0-12.36,0-2.49,2.73-2.6,2.73-.11,0,3.69.37,11.63.31,13.47-.12,4,2.35,16.51-13.55,16.95-1.59,0-8.09-.38-9.24-1.13a27.6,27.6,0,0,0,10.68-3.06C280.64,354.29,279.53,346.4,279.39,341.48Z" transform="translate(-33.74 -30.7)"/></svg>