<?xml version="1.0" encoding="utf-8"?>
<!-- Generator: Adobe Illustrator 22.0.0, SVG Export Plug-In . SVG Version: 6.00 Build 0)  -->
<svg version="1.1" id="Layer_1" xmlns="http://www.w3.org/2000/svg" xmlns:xlink="http://www.w3.org/1999/xlink" x="0px" y="0px"
	 viewBox="0 0 1000 1000" style="enable-background:new 0 0 1000 1000;" xml:space="preserve">
<style type="text/css">
	.st0{fill:#FFD400;}
</style>
<path d="M506.4,525.2l-3.6,7.9h-18.4l30.3-64.3h7.6l30,64.3h-18.3l-3.7-7.9H506.4z M511.7,511.3h13.2l-6.6-15.4L511.7,511.3z"/>
<polygon points="697,518.4 697,518.1 673.8,518.1 673.8,468.8 656.9,468.8 656.9,533.1 690.1,533.1 "/>
<polygon points="484,518.4 484,518.1 460.8,518.1 460.8,468.8 443.9,468.8 443.9,533.1 477.1,533.1 "/>
<polygon points="431.2,512.4 410.6,512.4 410.6,533.1 393.8,533.1 393.8,468.8 433.9,468.8 433.9,483.4 410.6,483.4 410.6,497.7 
	431.2,497.7 "/>
<polygon points="546.9,483.5 546.9,468.8 594.7,468.8 594.7,483.5 579,483.5 579,533.1 562.7,533.1 562.7,483.5 "/>
<path d="M636.7,468.8l-13.3,22.7c0.2-0.1,0.4-0.1,0.9-0.1c12.8-0.7,21.2,7.2,21.2,20.2c0,14.7-10.3,21.5-24.1,21.5
	c-13.6,0-24-6.8-24-21.5c0-4.6,1.9-9.9,4.1-13.8l17.4-29H636.7z M629.3,511.6c0-5.3-2.6-7.9-7.9-7.9c-5.3,0-8,2.6-8,7.9
	c0,5,2.6,7.7,8,7.7S629.3,516.6,629.3,511.6"/>
<path d="M719.3,525.2l-3.6,7.9h-18.4l30.3-64.3h7.6l30,64.3h-18.3l-3.7-7.9H719.3z M724.7,511.3h13.2l-6.6-15.4L724.7,511.3z"/>
<path d="M813.6,499.5c5.2,2.7,8,7.9,8,13.7c0,11-7.1,19.5-20.3,19.5h-30.8v-63.9h28.3c11.9,0,20.2,7.8,20.2,19.7
	C818.9,492.4,816.8,497,813.6,499.5 M787.2,483.3v10.7h10.3c3.2,0,4.9-2.5,4.9-5c0.1-2.8-1.6-5.7-4.9-5.7H787.2z M787.2,507.6v10.6
	h12.9c3.2,0,4.7-2.4,4.9-4.9c0.1-1.9-0.7-3.9-2.3-5c-0.8-0.4-1.6-0.6-2.7-0.6H787.2z"/>
<path d="M842.1,512.6c0,4.2,4.8,6.3,9.7,6.3c4.5,0,9.3-2.1,9.3-5.8c0-5.9-6.8-6.1-11.3-6.4c-11.2-0.7-22.4-5.2-22.4-17.9
	c0-13.3,11.3-20,23.8-20c11.8,0,23.8,6.7,23.5,20h-14.9c-0.1-4.2-4-5.9-8.3-5.9c-3.6,0-8.3,1-8.3,5.6c0,4.1,3.5,5.1,9.3,5.7
	c13,1.1,24.4,4.2,24.4,19c0,12.8-12.5,19.6-25,19.6c-12.9,0-25.3-6.5-25.1-20.2H842.1z"/>
<rect x="123.4" y="400.6" class="st0" width="200.8" height="200.8"/>
<path d="M286.4,461.9v-23.6H161.1v125.3h23.6v-55.3h22.8v15.9c0,21.7,17.7,39.4,39.4,39.4c21.7,0,39.4-17.7,39.4-39.4
	c0-21.7-17.7-39.4-39.4-39.4h-15.9v-22.8H286.4z M262.8,524.1c0,8.7-7.1,15.9-15.9,15.9c-8.7,0-15.9-7.1-15.9-15.9v-15.9h15.9
	C255.7,508.3,262.8,515.4,262.8,524.1 M207.5,484.7h-22.8v-22.8h22.8V484.7z"/>
</svg>
