<svg xmlns="http://www.w3.org/2000/svg" xmlns:xlink="http://www.w3.org/1999/xlink" viewBox="0 0 965.41 198.6"><defs><style>.cls-1{fill:none;stroke-miterlimit:10;stroke-width:22px;stroke:url(#linear-gradient);}.cls-2{fill:url(#linear-gradient-2);}.cls-3{fill:url(#linear-gradient-3);}</style><linearGradient id="linear-gradient" y1="99.3" x2="198.6" y2="99.3" gradientUnits="userSpaceOnUse"><stop offset="0" stop-color="#2e558d"/><stop offset="1" stop-color="#3c7fc2"/></linearGradient><linearGradient id="linear-gradient-2" x1="227.41" y1="103.62" x2="965.41" y2="103.62" gradientUnits="userSpaceOnUse"><stop offset="0" stop-color="#3c7fc2"/><stop offset="1" stop-color="#58a1d8"/></linearGradient><linearGradient id="linear-gradient-3" x1="63.23" y1="99.3" x2="135.37" y2="99.3" gradientUnits="userSpaceOnUse"><stop offset="0" stop-color="#32609d"/><stop offset="1" stop-color="#3c7fc2"/></linearGradient></defs><g id="Layer_2" data-name="Layer 2"><g id="Layer_1-2" data-name="Layer 1"><path class="cls-1" d="M21.67,11H187.6a0,0,0,0,1,0,0V177.43a10.17,10.17,0,0,1-10.17,10.17H11a0,0,0,0,1,0,0V21.67A10.67,10.67,0,0,1,21.67,11Z"/></g><g id="Layer_3" data-name="Layer 3"><path class="cls-2" d="M291.29,62.52v53.07a30.41,30.41,0,0,1-3.85,15.62,24.92,24.92,0,0,1-11,10.06,38.91,38.91,0,0,1-17,3.45q-14.82,0-23.34-7.69t-8.68-21V62.52h19.66v53.85q.33,13.32,12.36,13.31,6.07,0,9.19-3.34t3.12-10.86v-53Zm91.32,81.09H363.17L334.44,93.15v50.46H314.89V62.52h19.55L363.12,113V62.52h19.49Zm74.84-32.31H425.93v32.31H406.38V62.52h54.24V77.61H425.93V96.27h31.52Zm52.84,3.62H499.71v28.69H480.16V62.52h31.91q14.43,0,22.56,6.39T542.76,87q0,8.44-3.43,14a24.31,24.31,0,0,1-10.72,9l16.93,32.74v.84H524.6Zm-10.58-15h12.36c3.72,0,6.51-1,8.39-2.93s2.81-4.68,2.81-8.18-.95-6.25-2.84-8.24-4.68-3-8.36-3H499.71ZM612,128.46H585.24l-4.68,15.15H559.68l29.74-81.09H607.8l30,81.09h-21Zm-22.11-15.1h17.43l-8.74-28.12Zm127.8-50.84v53.07a30.5,30.5,0,0,1-3.84,15.62,25,25,0,0,1-11,10.06,38.86,38.86,0,0,1-17,3.45q-14.82,0-23.34-7.69t-8.69-21V62.52H673.5v53.85q.35,13.32,12.37,13.31,6.06,0,9.19-3.34t3.12-10.86v-53Zm23.61,81.09V62.52h26.12a38.41,38.41,0,0,1,19.32,4.87,34.19,34.19,0,0,1,13.39,13.76A41.44,41.44,0,0,1,805,101.06v3.73a41.72,41.72,0,0,1-4.71,20,34.44,34.44,0,0,1-13.25,13.82,37.65,37.65,0,0,1-19.08,5Zm19.54-66v51h6.8q8.4,0,12.92-6t4.51-17.79v-3.51q0-11.75-4.51-17.71t-13.14-6Zm115.89,31.58H846v19.38h36.31v15H826.47V62.52h56V77.61H846v17.1h30.74Zm24.94,34.42V62.52h26.12a38.38,38.38,0,0,1,19.32,4.87,34.21,34.21,0,0,1,13.4,13.76,41.55,41.55,0,0,1,4.87,19.91v3.73a41.83,41.83,0,0,1-4.7,20,34.46,34.46,0,0,1-13.26,13.82,37.64,37.64,0,0,1-19.07,5Zm19.55-66v51H928q8.41,0,12.92-6t4.51-17.79v-3.51q0-11.75-4.51-17.71t-13.14-6Z"/></g><g id="Layer_2-2" data-name="Layer 2"><path class="cls-3" d="M99.3,55.22l-36.07,16v24c0,22.27,15.37,43,36.07,48.09,20.7-5.07,36.07-25.82,36.07-48.09v-24Zm-8,64.12-16-16,5.67-5.67L91.29,108l26.39-26.39,5.67,5.67Z"/></g></g></svg>