<svg xmlns="http://www.w3.org/2000/svg" viewBox="0 0 516.24 586.17"><defs><style>.cls-1{isolation:isolate;}.cls-2{opacity:0.2;}.cls-3{fill:#8fedff;}.cls-4{fill:#c5f9ff;}.cls-5{fill:#41c0fd;}.cls-6{fill:#2afbfe;}.cls-7{fill:#66d4e2;}.cls-8{fill:#4bbcc4;}.cls-9{fill:#53d5ea;}.cls-10{fill:#6afce5;}.cls-11{opacity:0.1;}.cls-12{fill:#d4fcf4;}.cls-12,.cls-19,.cls-30,.cls-52{opacity:0.5;}.cls-13,.cls-14{mix-blend-mode:overlay;}.cls-14{fill:#0edbfc;}.cls-15{opacity:0.83;}.cls-16{fill:#36e1fc;}.cls-17{opacity:0.67;}.cls-18{fill:#5de6fc;}.cls-20{fill:#85ecfd;}.cls-21{opacity:0.33;}.cls-22{fill:#adf2fd;}.cls-23{opacity:0.17;}.cls-24{fill:#d4f7fd;}.cls-25,.cls-27{opacity:0;}.cls-26{fill:#fcfdfd;}.cls-27{fill:#fff;}.cls-28{fill:#dbfeff;}.cls-28,.cls-50{opacity:0.17;}.cls-29{fill:#b8feff;}.cls-29,.cls-51{opacity:0.33;}.cls-30{fill:#95fdff;}.cls-31{fill:#71fcfe;}.cls-31,.cls-53{opacity:0.67;}.cls-32{fill:#4efcfe;}.cls-32,.cls-54{opacity:0.83;}.cls-33,.cls-34,.cls-35,.cls-36,.cls-37,.cls-38,.cls-39{fill:#dcdcdc;}.cls-33{opacity:0.6;}.cls-34{opacity:0.67;}.cls-35{opacity:0.73;}.cls-36{opacity:0.8;}.cls-37{opacity:0.87;}.cls-38{opacity:0.93;}.cls-40{fill:#e6a376;}.cls-41{fill:#460689;}.cls-42{fill:#d38f62;}.cls-43{fill:#1e292e;}.cls-44{fill:#12191c;}.cls-45{fill:#efb185;}.cls-46{fill:#37007f;}.cls-47{fill:#43008d;}.cls-48{fill:#5d0ca6;}.cls-49{fill:#8c2ddf;}.cls-50{fill:#fcfefd;}.cls-51{fill:#f9fdfc;}.cls-52{fill:#f6fcfa;}.cls-53{fill:#f3fbf8;}.cls-54{fill:#f0faf7;}.cls-55{fill:#edf9f5;}</style></defs><title>ai-1</title><g class="cls-1"><g id="Layer_1" data-name="Layer 1"><g class="cls-2"><path d="M792.64,624.48c12.87,7.43,13,19.49.15,26.93L683.08,715.16c-12.8,7.45-33.65,7.45-46.52,0l-114.31-66c-12.89-7.44-13-19.52-.15-26.95l109.71-63.76c12.8-7.45,33.63-7.43,46.52,0Z" transform="translate(-347.24 -171)"/></g><path class="cls-3" d="M778.7,595.94c0,.27-.05.54-.09.82s-.12.48-.19.73a5.61,5.61,0,0,1-.23.8c-.08.22-.18.45-.28.67s-.26.58-.4.87-.24.4-.37.6-.42.65-.65,1-.3.38-.45.56a15.07,15.07,0,0,1-1.16,1.25c-.16.15-.3.31-.46.45s-.56.47-.85.7-.5.41-.78.61-.65.44-1,.66-.67.46-1,.67l-92,53.5c-.83.47-1.7.91-2.6,1.31l-.79.34c-.71.29-1.43.57-2.17.82l-.79.28c-.46.14-1,.27-1.43.4l-1.07.29c-.5.12-1,.22-1.51.33-.35.07-.7.15-1.07.21-1,.17-2.07.33-3.12.43l-1,.09c-.63.05-1.25.1-1.87.12l-1.17,0H658.6l-1.26,0c-.47,0-.94,0-1.4-.08l-1.28-.1-1.37-.15-1.26-.18-1.42-.26-1.18-.23c-.57-.12-1.13-.27-1.69-.42l-1-.25c-1-.29-2-.63-2.94-1-.15,0-.28-.12-.42-.18a29,29,0,0,1-3.72-1.78l-95.9-55.36c-5.44-3.15-8.16-7.28-8.15-11.4l-.09,33.74c0,4.12,2.71,8.24,8.15,11.39l95.89,55.37a30.54,30.54,0,0,0,3.73,1.78,1.92,1.92,0,0,0,.25.12,1,1,0,0,1,.16.06c1,.37,1.94.7,3,1l.24.08c.23.07.48.11.71.18.56.15,1.13.29,1.7.41l.46.12.71.11c.48.1,1,.18,1.46.26.19,0,.38.08.57.1l.63.07c.47.06.93.12,1.41.16l.64.07.62,0,1.41.07c.23,0,.46,0,.69,0h.56c.51,0,1,0,1.53,0,.25,0,.49,0,.74,0s.29,0,.44,0c.62,0,1.24-.08,1.86-.13l.75,0,.24,0c1.05-.1,2.1-.26,3.14-.44l.15,0c.31,0,.6-.13.9-.19.51-.1,1-.2,1.52-.33s.71-.18,1.07-.29,1-.26,1.43-.4l.3-.09c.17-.05.32-.13.49-.18.75-.26,1.46-.53,2.17-.83.26-.1.52-.22.78-.33.9-.4,1.77-.84,2.6-1.31L770.67,640l.33-.2c.26-.15.48-.32.71-.48s.67-.43,1-.65.53-.41.79-.62.58-.46.84-.7l.17-.13c.11-.1.18-.21.28-.3.41-.41.81-.84,1.17-1.26.07-.1.19-.19.26-.28v-.06h0v.06c.08-.1.13-.21.21-.31.22-.3.42-.6.61-.91.09-.14.21-.28.29-.43s.06-.15.1-.22a7.41,7.41,0,0,0,.4-.86,3.12,3.12,0,0,0,.23-.49c0-.06,0-.11.06-.17.09-.28.16-.56.24-.83s.12-.37.15-.56,0-.09,0-.14a9,9,0,0,0,.1-.91c0-.18.06-.35.06-.53a1.93,1.93,0,0,0,0-.24l.09-33.73A8.34,8.34,0,0,1,778.7,595.94Z" transform="translate(-347.24 -171)"/><path class="cls-4" d="M770.63,583.71c10.81,6.24,10.86,16.36.13,22.59l-92,53.5c-10.73,6.24-28.19,6.24-39,0l-95.9-55.36c-10.81-6.25-10.87-16.38-.14-22.61l92-53.49c10.74-6.24,28.22-6.24,39,0Z" transform="translate(-347.24 -171)"/><path class="cls-5" d="M738.88,590c7.78,4.49,7.83,11.78.09,16.27l-66.3,38.54c-7.75,4.5-20.35,4.5-28.13,0L575.45,605c-7.79-4.5-7.83-11.79-.09-16.29l66.31-38.54c7.74-4.5,20.33-4.49,28.12,0Z" transform="translate(-347.24 -171)"/><path class="cls-6" d="M721.84,603.65c6.13,3.47,6.18,9.08.08,12.54l-52.26,29.69c-6.11,3.46-16,3.46-22.16,0l-54.45-30.72c-6.14-3.46-6.17-9.09-.07-12.56l52.25-29.68c6.1-3.47,16-3.46,22.16,0Z" transform="translate(-347.24 -171)"/><path class="cls-3" d="M778.86,439.34a7.53,7.53,0,0,1-.1.83,6.47,6.47,0,0,1-.18.73,8.28,8.28,0,0,1-.24.81c-.08.22-.17.44-.27.67s-.25.57-.4.85-.26.42-.39.63a9.07,9.07,0,0,1-.63.94,6.15,6.15,0,0,1-.46.58c-.35.42-.74.83-1.15,1.24-.16.15-.3.31-.47.46s-.55.46-.84.69-.5.41-.77.61-.63.43-1,.65-.7.46-1.09.69l-92,53.48a28.75,28.75,0,0,1-2.6,1.32l-.78.33c-.71.3-1.44.57-2.18.83l-.79.27c-.46.14-.94.27-1.42.4s-.72.21-1.1.3-1,.21-1.48.32l-1.09.22c-1,.18-2.07.32-3.12.43l-1,.09c-.6.05-1.22.09-1.82.12l-1.24,0c-.5,0-1,0-1.5,0l-1.25,0c-.47,0-1,0-1.42-.07l-1.26-.11c-.46,0-.92-.09-1.37-.15l-1.26-.18c-.49-.07-1-.16-1.47-.25l-1.11-.23c-.59-.12-1.17-.27-1.74-.42l-.93-.25c-1-.3-2-.63-3-1l-.42-.18a29,29,0,0,1-3.72-1.78L544,447.85c-5.44-3.14-8.16-7.27-8.15-11.39q-.16,56.22-.32,112.45c0,4.12,2.71,8.24,8.15,11.39l95.89,55.36a29.31,29.31,0,0,0,3.74,1.79,2.53,2.53,0,0,1,.23.12l.16,0c1,.38,1.94.7,3,1l.24.08.72.18c.56.15,1.13.29,1.69.41l.47.12.69.12c.48.09,1,.18,1.48.25a5.48,5.48,0,0,0,.56.1l.64.07c.46.06.93.12,1.4.16.21,0,.43.06.65.07l.62,0c.47,0,.93.06,1.4.07l.69,0c.2,0,.38,0,.57,0h2.27c.15,0,.29,0,.43,0,.63,0,1.25-.06,1.87-.12.26,0,.51,0,.76,0l.24,0c1-.11,2.1-.26,3.13-.44l.15,0c.3-.05.58-.12.89-.19.51-.1,1-.2,1.53-.33l1.1-.29,1.4-.4.32-.1c.18,0,.33-.12.5-.18.73-.26,1.44-.52,2.14-.81L676,617a25.34,25.34,0,0,0,2.6-1.32l92-53.47.33-.21c.26-.15.48-.31.71-.46s.69-.44,1-.67.54-.41.8-.62.56-.45.82-.68l.18-.15c.11-.1.19-.21.29-.32a17.06,17.06,0,0,0,1.18-1.25c.07-.1.17-.18.24-.27a2,2,0,0,0,.17-.27c.25-.33.47-.66.68-1,.08-.13.19-.26.26-.38a1.89,1.89,0,0,1,.09-.21,7.77,7.77,0,0,0,.41-.88c.07-.16.17-.32.23-.48a1.09,1.09,0,0,0,0-.17c.1-.29.17-.57.25-.86s.11-.35.14-.53a.68.68,0,0,0,0-.14,6.44,6.44,0,0,0,.1-.87c0-.19.06-.38.07-.57V551q.17-56.24.31-112.45A7.72,7.72,0,0,1,778.86,439.34Z" transform="translate(-347.24 -171)"/><path class="cls-4" d="M770.79,427.12c10.79,6.24,10.87,16.36.12,22.6l-92,53.48c-10.75,6.25-28.23,6.25-39,0L544,447.85c-10.81-6.25-10.87-16.38-.12-22.62l92-53.48c10.74-6.25,28.21-6.24,39,0Z" transform="translate(-347.24 -171)"/><path class="cls-5" d="M738.88,430c7.78,4.5,7.83,11.79.09,16.29l-66.3,38.53c-7.75,4.5-20.35,4.5-28.13,0L575.45,445c-7.79-4.5-7.83-11.79-.09-16.29l66.31-38.54c7.74-4.49,20.33-4.49,28.12,0Z" transform="translate(-347.24 -171)"/><path class="cls-6" d="M721.84,443.65c6.13,3.46,6.18,9.08.08,12.54l-52.26,29.69c-6.11,3.46-16,3.46-22.16,0l-54.45-30.72c-6.14-3.47-6.17-9.09-.07-12.56l52.25-29.68c6.1-3.47,16-3.46,22.16,0Z" transform="translate(-347.24 -171)"/><path class="cls-7" d="M697,508.65c3.07-1.77,5.56-.35,5.57,3.17l.18,64.14a12.16,12.16,0,0,1-5.53,9.58c-3.06,1.78-5.56.36-5.57-3.17l-.18-64.14A12.16,12.16,0,0,1,697,508.65Z" transform="translate(-347.24 -171)"/><path class="cls-7" d="M727.85,494.05c3.07-1.77,5.56-.35,5.57,3.17l.18,64.15a12.19,12.19,0,0,1-5.53,9.57c-3.07,1.77-5.56.35-5.57-3.17l-.17-64.14A12.15,12.15,0,0,1,727.85,494.05Z" transform="translate(-347.24 -171)"/><path class="cls-7" d="M755.56,480.14c3.06-1.77,5.55-.35,5.57,3.17l.17,64.15a12.12,12.12,0,0,1-5.53,9.57c-3.06,1.77-5.55.35-5.56-3.17L750,489.72A12.16,12.16,0,0,1,755.56,480.14Z" transform="translate(-347.24 -171)"/><path class="cls-7" d="M697,508.65c3.07-1.77,5.56-.35,5.57,3.17l.18,64.14a12.16,12.16,0,0,1-5.53,9.58c-3.06,1.78-5.56.36-5.57-3.17l-.18-64.14A12.16,12.16,0,0,1,697,508.65Z" transform="translate(-347.24 -171)"/><path class="cls-7" d="M727.85,494.05c3.07-1.77,5.56-.35,5.57,3.17l.18,64.15a12.19,12.19,0,0,1-5.53,9.57c-3.07,1.77-5.56.35-5.57-3.17l-.17-64.14A12.15,12.15,0,0,1,727.85,494.05Z" transform="translate(-347.24 -171)"/><path class="cls-7" d="M755.56,480.14c3.06-1.77,5.55-.35,5.57,3.17l.17,64.15a12.12,12.12,0,0,1-5.53,9.57c-3.06,1.77-5.55.35-5.56-3.17L750,489.72A12.16,12.16,0,0,1,755.56,480.14Z" transform="translate(-347.24 -171)"/><path class="cls-7" d="M697,508.65c3.07-1.77,5.56-.35,5.57,3.17l.18,64.14a12.16,12.16,0,0,1-5.53,9.58c-3.06,1.78-5.56.36-5.57-3.17l-.18-64.14A12.16,12.16,0,0,1,697,508.65Z" transform="translate(-347.24 -171)"/><path class="cls-8" d="M691.47,518.23l.18,64.14c0,2.59,1.36,4,3.29,3.92a12.33,12.33,0,0,0,3.75-8.18L698.51,514c0-2.59-1.37-4-3.29-3.92A12.33,12.33,0,0,0,691.47,518.23Z" transform="translate(-347.24 -171)"/><path class="cls-8" d="M722.33,503.63l.17,64.14c0,2.59,1.36,4,3.29,3.91a12.33,12.33,0,0,0,3.75-8.18l-.18-64.14c0-2.58-1.36-4-3.29-3.91A12.28,12.28,0,0,0,722.33,503.63Z" transform="translate(-347.24 -171)"/><path class="cls-8" d="M750,489.72l.18,64.14c0,2.59,1.36,4,3.29,3.91a12.26,12.26,0,0,0,3.74-8.18l-.18-64.13c0-2.59-1.37-4-3.29-3.92A12.28,12.28,0,0,0,750,489.72Z" transform="translate(-347.24 -171)"/><path class="cls-7" d="M624,508.3c-3.06-1.76-5.55-.34-5.56,3.18l-.19,64.14a12.19,12.19,0,0,0,5.54,9.58c3.06,1.76,5.55.35,5.56-3.17l.18-64.15A12.18,12.18,0,0,0,624,508.3Z" transform="translate(-347.24 -171)"/><path class="cls-7" d="M593.18,493.7c-3.06-1.76-5.56-.35-5.57,3.18L587.44,561A12.19,12.19,0,0,0,593,570.6c3.07,1.77,5.57.35,5.58-3.18l.17-64.14A12.18,12.18,0,0,0,593.18,493.7Z" transform="translate(-347.24 -171)"/><path class="cls-7" d="M565.48,479.79c-3.06-1.77-5.56-.34-5.57,3.17l-.18,64.15a12.18,12.18,0,0,0,5.53,9.58c3.07,1.77,5.55.35,5.57-3.17l.18-64.14A12.21,12.21,0,0,0,565.48,479.79Z" transform="translate(-347.24 -171)"/><path class="cls-8" d="M629.38,582l.18-64.15a12.06,12.06,0,0,0-3-7.43c-2.29-.54-4,.9-4,3.78l-.18,64.15a12.1,12.1,0,0,0,3,7.44C627.69,586.36,629.37,584.91,629.38,582Z" transform="translate(-347.24 -171)"/><path class="cls-8" d="M598.54,567.42l.17-64.14a12.14,12.14,0,0,0-3-7.44c-2.3-.53-4,.91-4,3.8l-.17,64.14a12.13,12.13,0,0,0,3,7.44C596.83,571.75,598.53,570.31,598.54,567.42Z" transform="translate(-347.24 -171)"/><path class="cls-8" d="M570.83,553.52l.18-64.14a12.1,12.1,0,0,0-3-7.45c-2.29-.53-4,.91-4,3.8l-.17,64.14a12,12,0,0,0,3,7.43C569.14,557.85,570.81,556.4,570.83,553.52Z" transform="translate(-347.24 -171)"/><path class="cls-9" d="M544.42,368.56c-2.85-46.8,55.8-138.88,156.24-103.73,57.47,20.12,70.9,52.52,9.85,97.16,0,0,.65,24.95-47.27,21,0,0-30.85-1.32-51.69,14.44C589.49,414.12,545.71,389.68,544.42,368.56Z" transform="translate(-347.24 -171)"/><path class="cls-10" d="M729,289.06c-.17-.16-16-16.19-37.56-17.13-7-.3-14.89.28-23.19.91-17.83,1.34-39.46,2.06-57.17-5.38l4.71-2.13c16.84,7.07,34.78,4.89,52.16,3.58,8.41-.63,16.37-1.22,23.66-.91,23.17,1,39.53,17.61,40.21,18.32Z" transform="translate(-347.24 -171)"/><path class="cls-10" d="M663.58,270.82l-3.37-.55a8.39,8.39,0,0,0-.21-2.15c-.81-1.36-7.44-6.15-24.68-8.89l6.36-1.27c14.8,2.36,20.08,4.36,22,8.78A4.4,4.4,0,0,1,663.58,270.82Z" transform="translate(-347.24 -171)"/><path class="cls-10" d="M611.67,300.35l-3.9-2.82c6.12-9,22.89-21.78,32.67-26,2-.87.71-.26,2.78-1.22l5,2.08c-2.09,1-4.17,1.87-6.2,2.76C632.37,279.3,617.16,292.3,611.67,300.35Z" transform="translate(-347.24 -171)"/><path class="cls-10" d="M555.18,324.14l2.15-4.18c1.51-.29,6-1,15.84-4.58,4.23-1.54,6.78-4.67,9.49-8,3.22-3.94,6.87-8.42,13.78-10.29a17.85,17.85,0,0,1,19.91,7.27L613,306.45a13.9,13.9,0,0,0-15.52-5.54c-5.68,1.54-8.64,5.16-11.76,9-2.92,3.57-5.94,7.27-11.2,9.18A108.32,108.32,0,0,1,555.18,324.14Z" transform="translate(-347.24 -171)"/><path class="cls-10" d="M576.35,315.82c-10-19.33,18.46-34.88,19.67-35.53l1.86,3.47c-.26.14-26.28,14.36-18,30.24Z" transform="translate(-347.24 -171)"/><path class="cls-10" d="M561.49,392.56c-.81-.74-18.09-15.19-10.38-30.77,3.5-7.07,8.29-11.71,12.14-15.44,4.19-4.06,7.21-7,7.1-11.1-.17-6.55,5.93-12.83,12-15.65,5.92-2.73,11.52-2.32,15.35,1.13l-2.64,2.93c-3.69-3.33-9-1.44-11.07-.48-5.57,2.57-9.86,7.83-9.75,12,.16,5.83-3.76,9.63-8.3,14-3.81,3.71-8.15,7.91-11.35,14.37C548.25,376.45,568,396,568.18,396.16Z" transform="translate(-347.24 -171)"/><path class="cls-10" d="M547.17,345.2l1.65-5.55c9.78-8.08,22.8-2.76,23.52-2.47l-1.42,3.67C570.78,340.79,554.09,335.3,547.17,345.2Z" transform="translate(-347.24 -171)"/><path class="cls-10" d="M573.84,385.28c-16.65-15.47-16.17-31.46-16.12-31.59l4.12-.83h0l-.44,2.24c-.16.43,5,17.13,14.37,25.42Z" transform="translate(-347.24 -171)"/><path class="cls-11" d="M611.55,397.44C632.39,381.68,663.24,383,663.24,383c47.92,3.94,47.27-21,47.27-21,39-28.56,47.59-52.09,33.66-70.62a139.31,139.31,0,0,0-28.08-13C615.66,243.22,557,335.3,559.86,382.09c.24,4,2,8.2,5,12.17C579.58,403.13,599.05,406.89,611.55,397.44Z" transform="translate(-347.24 -171)"/><path class="cls-10" d="M574,389.2c-2.86-46.79,44-134.58,156.23-103.72,23.54,6.47,70.9,52.52,9.85,97.16,0,0,.65,24.94-47.27,21,0,0-30.85-1.31-51.69,14.45C619,434.77,575.25,410.33,574,389.2Z" transform="translate(-347.24 -171)"/><path class="cls-9" d="M743.53,380l-3.48,2.64c.06-.11,4.09-11.72.28-17.79-2-3.19-6.48-4.66-13.25-4.43l-2.87.11c-16,.61-26.49,1-31.71-5.17-3.43-4.07-4-10.38-1.89-20.45,3.88-18.31,3-30.87-2.72-37.36-3.81-4.36-10-6.22-18.54-5.59-17.26,1.32-23.61,12.76-26.13,47.08-.53,7.08-6.87,14.68-16.16,19.36-7.27,3.65-23,12.72-48-3.12l1.33-3.77c23.3,14.77,38.24,6.71,44.91,3.36,9.19-4.62,13.65-11.42,14-16.12,2.33-31.6,7.76-49,29.77-50.71,9.78-.74,17.13,1.58,21.81,6.91,6.63,7.58,7.81,20.91,3.61,40.77-1.83,8.65-1.5,14.09,1,17.1,4,4.72,14.28,4.33,28.55,3.77l2.87-.1c8.27-.29,13.93,1.8,16.73,6.28C748.68,370.75,743.8,379.48,743.53,380Z" transform="translate(-347.24 -171)"/><path class="cls-9" d="M680.13,382.77l-3.91-.38c2.61-27.3,38.23-25.53,38.58-25.49l-.23,3.93C713.27,360.76,682.39,359.25,680.13,382.77Z" transform="translate(-347.24 -171)"/><path class="cls-9" d="M695.94,327.47l-3.86-.77c.07-.33,7-33.11,38.38-31.63l-.19,3.94C702.16,297.6,696.19,326.26,695.94,327.47Z" transform="translate(-347.24 -171)"/><path class="cls-9" d="M732.91,319.76c-4.46-15.17-22.66-15.46-22.84-15.47l0-3.94c.21,0,21.31.36,26.58,18.29Z" transform="translate(-347.24 -171)"/><path class="cls-9" d="M615.38,391,614,387.28c38.14-14.88,26.19-48.94,25.66-50.38l3.7-1.35C643.46,335.94,657.07,374.68,615.38,391Z" transform="translate(-347.24 -171)"/><path class="cls-9" d="M636.68,401.89,634,399c11.08-10.19,2.58-27.21,2.49-27.38l3.51-1.79C640.42,370.61,649.94,389.69,636.68,401.89Z" transform="translate(-347.24 -171)"/><path class="cls-9" d="M645.18,320.34l-3.2-2.28c.12-.19,13.32-18.42,30.67-11.52l-1.45,3.66C656.69,304.44,645.29,320.18,645.18,320.34Z" transform="translate(-347.24 -171)"/><path class="cls-9" d="M621.62,423.61c-17.92-1.64-18.56-15.48-22.45-28.06-1.39-4.51-2.28-9-4.46-12-7-9.58-13.16-10.18-19.94-10.51l.66-3.91c.92,0,15.36-1.31,22.76,12.56a76.1,76.1,0,0,1,4.75,12.73c3.91,12.65,11.24,27.27,26.53,28.67Z" transform="translate(-347.24 -171)"/><path class="cls-9" d="M628,356.89l-3.92-.35c1.32-15.07-23.65-18.33-23.91-18.36l.49-3.91C601.81,334.41,629.62,338.07,628,356.89Z" transform="translate(-347.24 -171)"/><path class="cls-9" d="M619.39,343.21,616,341.15c7.18-11.66-4.25-26.73-4.37-26.88l3.12-2.4C615.33,312.57,628,329.26,619.39,343.21Z" transform="translate(-347.24 -171)"/><path class="cls-9" d="M735.26,359.67,731.71,358c3.63-7.65,5.75-9.12,12.74-14,1.39-1,3-2.08,4.86-3.41,9.73-7,3-20.35,2.94-20.48l3.49-1.8c2.93,5.69,5.83,18.34-4.14,25.48-1.88,1.35-3.49,2.47-4.9,3.45C739.87,352,738.45,353,735.26,359.67Z" transform="translate(-347.24 -171)"/><path class="cls-9" d="M760,347.25a20.87,20.87,0,0,1-10.63-3.45l2.25-3.24c.06,0,5.43,3.69,10.42,2.53,2.49-.56,6.42-5.4,8-8.19l-.37,6.18c-2.16,3.79-3.17,5-6.79,5.86A13,13,0,0,1,760,347.25Z" transform="translate(-347.24 -171)"/><path class="cls-9" d="M680.67,403.16c-.45,0-.72-.3-1.11-.71-1.35-1.43.08-2.83.69-3.43l.07.08c.86-.75,3.16-2.82,9.32-8.49,3.11-2.84,4.56-5.87,4.3-9-.56-7-9.08-12.74-9.16-12.79l2.16-3.29c.42.28,10.21,6.84,10.93,15.76.35,4.4-1.52,8.51-5.55,12.23-4.92,4.51-7.7,7.07-9.39,8.4l-.42.41-.06-.06A3.43,3.43,0,0,1,680.67,403.16Z" transform="translate(-347.24 -171)"/><path class="cls-9" d="M713,390.16c-2.12-3.35-4.67-5.37-7.59-6a12.54,12.54,0,0,0-8.57,1.62l-2.16-3.29a16.45,16.45,0,0,1,11.55-2.18c4,.87,7.4,3.48,10.1,7.75Z" transform="translate(-347.24 -171)"/><path class="cls-9" d="M690,343.53c-.09-.1-9.38-9.9-18.29-9.9h-.1a10.88,10.88,0,0,0-8.26,3.92l-2.92-2.65a14.81,14.81,0,0,1,11.16-5.2c10.52,0,20.86,10.68,21.29,11.14Z" transform="translate(-347.24 -171)"/><path class="cls-9" d="M724.12,334.9c-10.8-10.3-.78-28.18-.35-28.93l3.42,1.95c-.09.16-8.92,16-.35,24.13Z" transform="translate(-347.24 -171)"/><path class="cls-9" d="M609.18,413.27l-2.77-2.8A17.94,17.94,0,0,1,627,408l-1.77,3.52C615.89,406.87,609.45,413,609.18,413.27Z" transform="translate(-347.24 -171)"/><path class="cls-9" d="M656,390c-3.5-6.58-14.16-5.52-14.27-5.5l-.43-3.92c.54-.06,13.43-1.38,18.17,7.57Z" transform="translate(-347.24 -171)"/><path class="cls-12" d="M574,389.2c1.28,21.13,45.06,45.57,67.12,28.89,20.84-15.76,51.69-14.45,51.69-14.45,47.92,3.94,47.27-21,47.27-21,38.44-28.11,33.89-56.76,19.38-75.76,9.73,30.49-22.27,56.8-32.24,67.72-10.92,12-24.21,9.37-41,7.46s-14.77,7.22-54.82,19.83c-33.19,10.45-51.92-13.56-57.37-22.1A72.37,72.37,0,0,0,574,389.2Z" transform="translate(-347.24 -171)"/><g class="cls-13"><path class="cls-14" d="M696.79,422.09c23.18,11.76,23.3,30.85.27,42.62s-60.48,11.77-83.66,0-23.31-30.86-.28-42.62S673.61,410.32,696.79,422.09Z" transform="translate(-347.24 -171)"/><g class="cls-15"><path class="cls-16" d="M707.74,383.33c29.27,13.94,29.43,36.53.35,50.47s-76.38,13.93-105.65,0-29.43-36.53-.34-50.47S678.47,369.4,707.74,383.33Z" transform="translate(-347.24 -171)"/></g><g class="cls-17"><path class="cls-18" d="M718.7,344.58c35.36,16.1,35.54,42.2.41,58.3s-92.26,16.1-127.62,0-35.55-42.2-.42-58.3S683.34,328.48,718.7,344.58Z" transform="translate(-347.24 -171)"/></g><g class="cls-19"><path class="cls-20" d="M729.65,305.83c41.45,18.26,41.67,47.87.49,66.13S622,390.23,580.53,372s-41.67-47.87-.49-66.13S688.2,287.56,729.65,305.83Z" transform="translate(-347.24 -171)"/></g><g class="cls-21"><path class="cls-22" d="M740.61,267.07c47.53,20.43,47.79,53.55.55,74s-124,20.43-171.58,0-47.8-53.55-.56-74S693.07,246.65,740.61,267.07Z" transform="translate(-347.24 -171)"/></g><g class="cls-23"><path class="cls-24" d="M751.56,228.32c53.63,22.59,53.91,59.22.63,81.81s-139.94,22.59-193.57,0-53.91-59.22-.63-81.81S697.94,205.73,751.56,228.32Z" transform="translate(-347.24 -171)"/></g><g class="cls-25"><path class="cls-26" d="M762.52,189.57c59.71,24.75,60,64.89.69,89.65s-155.83,24.75-215.54,0-60-64.9-.7-89.65S702.8,164.81,762.52,189.57Z" transform="translate(-347.24 -171)"/></g></g><path class="cls-6" d="M468.89,674.64c-2.12,1.22-2.15,3.22,0,4.45a8.58,8.58,0,0,0,7.28.22c.14-.07.28-.14.41-.22a3.72,3.72,0,0,0,1.09-.9c.95-1.16.6-2.59-1.06-3.55A8.47,8.47,0,0,0,468.89,674.64Z" transform="translate(-347.24 -171)"/><path class="cls-6" d="M476.55,679.09c-.13.08-.27.15-.41.22L501.38,694l.14-1.4.92,0-24.8-14.41A3.72,3.72,0,0,1,476.55,679.09Z" transform="translate(-347.24 -171)"/><path class="cls-6" d="M459.7,656.27c-2.13,1.24-2.14,3.23,0,4.46a8.61,8.61,0,0,0,6.73.44,6.38,6.38,0,0,0,.95-.44,5.46,5.46,0,0,0,.77-.55c1.33-1.22,1.09-2.84-.74-3.91A8.54,8.54,0,0,0,459.7,656.27Z" transform="translate(-347.24 -171)"/><polygon class="cls-6" points="154.17 523 154.2 522.98 154.13 522.98 154.17 523"/><g class="cls-1"><polygon class="cls-6" points="160.72 512.33 162.15 513.15 161.29 513.65 220.4 479.52 218.97 478.69 160.72 512.33"/><path class="cls-6" d="M466.41,661.17l41.26,24,.86-.5.86-.5-1.43-.83-39.83-23.14a5.46,5.46,0,0,1-.77.55A6.38,6.38,0,0,1,466.41,661.17Z" transform="translate(-347.24 -171)"/><polygon class="cls-6" points="154.28 521.58 154.13 522.98 154.2 522.98 178.71 523.78 178.79 523.78 178.94 522.37 178.41 522.36 155.19 521.6 154.28 521.58"/><polygon class="cls-6" points="178.41 522.36 178.94 522.37 178.79 523.78 237.87 489.67 236.44 488.85 178.41 522.36"/><polygon class="cls-6" points="208.07 540.79 208.03 540.82 208.08 540.85 208.07 540.79"/><polygon class="cls-6" points="208.07 540.79 208.08 540.85 209.38 555.05 209.38 555.08 211.81 555 211.76 554.48 210.53 541.04 210.5 540.72 208.07 540.79"/><polygon class="cls-6" points="268.58 507.52 267.15 506.69 208.07 540.79 210.5 540.72 210.53 541.04 268.58 507.52"/><path class="cls-6" d="M507.67,720.12a8.49,8.49,0,0,1,.8.39,4.53,4.53,0,0,1,.64.45l90.16-52.06-1.43-.83Z" transform="translate(-347.24 -171)"/><polygon class="cls-6" points="226.37 550.48 227.79 551.31 286.05 517.67 284.63 516.85 226.37 550.48"/><path class="cls-6" d="M500.78,720.51c-2.14,1.23-2.15,3.22,0,4.45a8.45,8.45,0,0,0,7.68,0c1.89-1.09,2.11-2.78.68-4a4.53,4.53,0,0,0-.64-.45,8.49,8.49,0,0,0-.8-.39A8.59,8.59,0,0,0,500.78,720.51Z" transform="translate(-347.24 -171)"/><polygon class="cls-6" points="209.38 555.05 209.35 555.07 209.38 555.08 209.38 555.05"/><path class="cls-6" d="M559,725.47l0,.53-2.42.08,25.22,14.65a4.24,4.24,0,0,1,.76-.54,5.51,5.51,0,0,1,.95-.44Z" transform="translate(-347.24 -171)"/><path class="cls-6" d="M582.61,740.19a4.24,4.24,0,0,0-.76.54c-1.33,1.22-1.09,2.84.73,3.91a8.51,8.51,0,0,0,7.69,0c2.12-1.23,2.14-3.22,0-4.44a8.55,8.55,0,0,0-6.74-.44A5.51,5.51,0,0,0,582.61,740.19Z" transform="translate(-347.24 -171)"/><path class="cls-6" d="M571.9,722.47l41.25,24a4.78,4.78,0,0,1,.77-.56,6.86,6.86,0,0,1,1-.43L575,722.31l-1.43-.83Z" transform="translate(-347.24 -171)"/></g><path class="cls-6" d="M613.92,745.89a4.78,4.78,0,0,0-.77.56c-1.33,1.21-1.08,2.84.74,3.9a8.47,8.47,0,0,0,7.69,0c2.13-1.23,2.14-3.22,0-4.46a8.55,8.55,0,0,0-6.74-.43A6.86,6.86,0,0,0,613.92,745.89Z" transform="translate(-347.24 -171)"/><g class="cls-13"><path class="cls-27" d="M628.48,746.45a10.73,10.73,0,1,1-10.73-10.73A10.72,10.72,0,0,1,628.48,746.45Z" transform="translate(-347.24 -171)"/><path class="cls-28" d="M627.17,746.55a9.46,9.46,0,1,1-9.45-9.45A9.45,9.45,0,0,1,627.17,746.55Z" transform="translate(-347.24 -171)"/><path class="cls-29" d="M625.87,746.66a8.18,8.18,0,1,1-8.18-8.18A8.17,8.17,0,0,1,625.87,746.66Z" transform="translate(-347.24 -171)"/><path class="cls-30" d="M624.56,746.76a6.91,6.91,0,1,1-6.9-6.9A6.91,6.91,0,0,1,624.56,746.76Z" transform="translate(-347.24 -171)"/><path class="cls-31" d="M623.25,746.87a5.63,5.63,0,1,1-5.62-5.63A5.62,5.62,0,0,1,623.25,746.87Z" transform="translate(-347.24 -171)"/><path class="cls-32" d="M621.94,747a4.36,4.36,0,1,1-4.34-4.36A4.34,4.34,0,0,1,621.94,747Z" transform="translate(-347.24 -171)"/><path class="cls-6" d="M620.64,747.08a3.09,3.09,0,1,1-3.07-3.08A3.07,3.07,0,0,1,620.64,747.08Z" transform="translate(-347.24 -171)"/></g><g class="cls-13"><path class="cls-27" d="M597.17,740.73A10.73,10.73,0,1,1,586.44,730,10.72,10.72,0,0,1,597.17,740.73Z" transform="translate(-347.24 -171)"/><path class="cls-28" d="M595.86,740.84a9.46,9.46,0,1,1-9.45-9.45A9.46,9.46,0,0,1,595.86,740.84Z" transform="translate(-347.24 -171)"/><path class="cls-29" d="M594.55,741a8.18,8.18,0,1,1-8.17-8.18A8.17,8.17,0,0,1,594.55,741Z" transform="translate(-347.24 -171)"/><path class="cls-30" d="M593.25,741.06a6.91,6.91,0,1,1-6.9-6.91A6.91,6.91,0,0,1,593.25,741.06Z" transform="translate(-347.24 -171)"/><path class="cls-31" d="M591.94,741.16a5.64,5.64,0,1,1-5.62-5.63A5.63,5.63,0,0,1,591.94,741.16Z" transform="translate(-347.24 -171)"/><path class="cls-32" d="M590.64,741.27a4.36,4.36,0,1,1-4.35-4.36A4.35,4.35,0,0,1,590.64,741.27Z" transform="translate(-347.24 -171)"/><path class="cls-6" d="M589.33,741.38a3.09,3.09,0,1,1-3.07-3.09A3.08,3.08,0,0,1,589.33,741.38Z" transform="translate(-347.24 -171)"/></g><g class="cls-13"><path class="cls-27" d="M515.33,722.31a10.73,10.73,0,1,1-10.72-10.73A10.72,10.72,0,0,1,515.33,722.31Z" transform="translate(-347.24 -171)"/><path class="cls-28" d="M514,722.41a9.46,9.46,0,1,1-9.45-9.45A9.46,9.46,0,0,1,514,722.41Z" transform="translate(-347.24 -171)"/><path class="cls-29" d="M512.72,722.52a8.18,8.18,0,1,1-8.17-8.18A8.18,8.18,0,0,1,512.72,722.52Z" transform="translate(-347.24 -171)"/><path class="cls-30" d="M511.41,722.63a6.91,6.91,0,1,1-6.89-6.91A6.89,6.89,0,0,1,511.41,722.63Z" transform="translate(-347.24 -171)"/><path class="cls-31" d="M510.11,722.73a5.64,5.64,0,1,1-5.63-5.63A5.63,5.63,0,0,1,510.11,722.73Z" transform="translate(-347.24 -171)"/><path class="cls-32" d="M508.8,722.84a4.36,4.36,0,1,1-4.35-4.36A4.35,4.35,0,0,1,508.8,722.84Z" transform="translate(-347.24 -171)"/><path class="cls-6" d="M507.49,723a3.08,3.08,0,1,1-3.07-3.09A3.07,3.07,0,0,1,507.49,723Z" transform="translate(-347.24 -171)"/></g><g class="cls-13"><path class="cls-27" d="M483.45,676.86a10.73,10.73,0,1,1-10.73-10.73A10.73,10.73,0,0,1,483.45,676.86Z" transform="translate(-347.24 -171)"/><path class="cls-28" d="M482.14,677a9.46,9.46,0,1,1-9.45-9.45A9.46,9.46,0,0,1,482.14,677Z" transform="translate(-347.24 -171)"/><path class="cls-29" d="M480.84,677.08a8.19,8.19,0,1,1-8.18-8.18A8.18,8.18,0,0,1,480.84,677.08Z" transform="translate(-347.24 -171)"/><path class="cls-30" d="M479.53,677.18a6.91,6.91,0,1,1-6.9-6.9A6.91,6.91,0,0,1,479.53,677.18Z" transform="translate(-347.24 -171)"/><path class="cls-31" d="M478.22,677.29a5.63,5.63,0,1,1-5.62-5.63A5.63,5.63,0,0,1,478.22,677.29Z" transform="translate(-347.24 -171)"/><path class="cls-32" d="M476.92,677.4a4.36,4.36,0,1,1-4.35-4.36A4.35,4.35,0,0,1,476.92,677.4Z" transform="translate(-347.24 -171)"/><path class="cls-6" d="M475.61,677.5a3.08,3.08,0,1,1-3.07-3.08A3.08,3.08,0,0,1,475.61,677.5Z" transform="translate(-347.24 -171)"/></g><g class="cls-13"><path class="cls-27" d="M474.26,658.5a10.73,10.73,0,1,1-10.73-10.73A10.73,10.73,0,0,1,474.26,658.5Z" transform="translate(-347.24 -171)"/><path class="cls-28" d="M473,658.61a9.46,9.46,0,1,1-9.46-9.46A9.46,9.46,0,0,1,473,658.61Z" transform="translate(-347.24 -171)"/><path class="cls-29" d="M471.65,658.71a8.18,8.18,0,1,1-8.18-8.18A8.18,8.18,0,0,1,471.65,658.71Z" transform="translate(-347.24 -171)"/><path class="cls-30" d="M470.34,658.82a6.91,6.91,0,1,1-6.9-6.91A6.89,6.89,0,0,1,470.34,658.82Z" transform="translate(-347.24 -171)"/><path class="cls-31" d="M469,658.93a5.64,5.64,0,1,1-5.63-5.64A5.63,5.63,0,0,1,469,658.93Z" transform="translate(-347.24 -171)"/><path class="cls-32" d="M467.73,659a4.36,4.36,0,1,1-4.35-4.36A4.35,4.35,0,0,1,467.73,659Z" transform="translate(-347.24 -171)"/><path class="cls-6" d="M466.42,659.14a3.08,3.08,0,1,1-3.07-3.09A3.07,3.07,0,0,1,466.42,659.14Z" transform="translate(-347.24 -171)"/></g><path class="cls-6" d="M847.4,670.36c2.13,1.23,2.15,3.23,0,4.46a8.58,8.58,0,0,1-7.28.21c-.14-.06-.28-.14-.41-.21a3.88,3.88,0,0,1-1.09-.9c-.94-1.17-.59-2.59,1.06-3.56A8.47,8.47,0,0,1,847.4,670.36Z" transform="translate(-347.24 -171)"/><path class="cls-6" d="M839.74,674.82c.13.07.27.15.41.21L814.91,689.7l-.15-1.4-.91,0,24.8-14.41A3.88,3.88,0,0,0,839.74,674.82Z" transform="translate(-347.24 -171)"/><path class="cls-6" d="M856.59,652c2.13,1.23,2.14,3.23,0,4.45a8.52,8.52,0,0,1-6.73.44,5.51,5.51,0,0,1-1-.44,4.22,4.22,0,0,1-.77-.55c-1.33-1.22-1.08-2.84.74-3.9A8.47,8.47,0,0,1,856.59,652Z" transform="translate(-347.24 -171)"/><polygon class="cls-6" points="467.63 518.72 467.6 518.7 467.66 518.7 467.63 518.72"/><polygon class="cls-6" points="461.09 508.05 459.65 508.88 460.51 509.38 401.4 475.25 402.83 474.42 461.09 508.05"/><path class="cls-6" d="M849.88,656.89l-41.27,24-.85-.49-.86-.5,1.43-.83,39.83-23.15a4.22,4.22,0,0,0,.77.55A5.51,5.51,0,0,0,849.88,656.89Z" transform="translate(-347.24 -171)"/><polygon class="cls-6" points="467.52 517.3 467.66 518.7 467.6 518.7 443.09 519.5 443 519.51 442.86 518.1 443.4 518.09 466.61 517.33 467.52 517.3"/><polygon class="cls-6" points="443.4 518.09 442.86 518.1 443 519.51 383.93 485.4 385.36 484.57 443.4 518.09"/><polygon class="cls-6" points="413.73 536.52 413.76 536.55 413.72 536.57 413.73 536.52"/><polygon class="cls-6" points="413.73 536.52 413.72 536.57 412.42 550.77 412.42 550.8 409.99 550.73 410.04 550.2 411.27 536.76 411.3 536.44 413.73 536.52"/><polygon class="cls-6" points="353.22 503.25 354.65 502.42 413.73 536.52 411.3 536.44 411.27 536.76 353.22 503.25"/><path class="cls-6" d="M808.61,715.85a6.26,6.26,0,0,0-.78.38,5.71,5.71,0,0,0-.65.46L717,664.63l1.43-.83Z" transform="translate(-347.24 -171)"/><polygon class="cls-6" points="395.43 546.2 394.01 547.03 335.76 513.4 337.17 512.57 395.43 546.2"/><path class="cls-6" d="M815.52,716.23c2.13,1.23,2.14,3.23,0,4.46a8.48,8.48,0,0,1-7.68,0c-1.89-1.09-2.11-2.77-.68-4a5.71,5.71,0,0,1,.65-.46,6.26,6.26,0,0,1,.78-.38A8.67,8.67,0,0,1,815.52,716.23Z" transform="translate(-347.24 -171)"/><polygon class="cls-6" points="412.42 550.77 412.45 550.79 412.42 550.8 412.42 550.77"/><path class="cls-6" d="M757.29,721.2l0,.53,2.43.08-25.22,14.66a3.68,3.68,0,0,0-.77-.55,5.54,5.54,0,0,0-.95-.45Z" transform="translate(-347.24 -171)"/><path class="cls-6" d="M733.68,735.92a3.68,3.68,0,0,1,.77.55c1.32,1.21,1.08,2.84-.74,3.9a8.48,8.48,0,0,1-7.68,0c-2.14-1.23-2.14-3.22,0-4.44a8.55,8.55,0,0,1,6.74-.45A5.54,5.54,0,0,1,733.68,735.92Z" transform="translate(-347.24 -171)"/><path class="cls-6" d="M744.39,718.19l-41.26,24a4.07,4.07,0,0,0-.75-.56,6,6,0,0,0-1-.44L741.25,718l1.43-.83Z" transform="translate(-347.24 -171)"/><path class="cls-6" d="M702.38,741.62a4.07,4.07,0,0,1,.75.56c1.34,1.21,1.1,2.84-.73,3.89a8.47,8.47,0,0,1-7.69,0c-2.13-1.22-2.14-3.22,0-4.45a8.56,8.56,0,0,1,6.73-.44A6,6,0,0,1,702.38,741.62Z" transform="translate(-347.24 -171)"/><g class="cls-13"><path class="cls-27" d="M687.82,742.18a10.73,10.73,0,1,0,10.72-10.74A10.72,10.72,0,0,0,687.82,742.18Z" transform="translate(-347.24 -171)"/><path class="cls-28" d="M689.12,742.28a9.46,9.46,0,1,0,9.45-9.46A9.46,9.46,0,0,0,689.12,742.28Z" transform="translate(-347.24 -171)"/><path class="cls-29" d="M690.43,742.39a8.18,8.18,0,1,0,8.17-8.19A8.17,8.17,0,0,0,690.43,742.39Z" transform="translate(-347.24 -171)"/><path class="cls-30" d="M691.73,742.49a6.91,6.91,0,1,0,6.9-6.91A6.9,6.9,0,0,0,691.73,742.49Z" transform="translate(-347.24 -171)"/><path class="cls-31" d="M693,742.6a5.63,5.63,0,1,0,5.62-5.64A5.62,5.62,0,0,0,693,742.6Z" transform="translate(-347.24 -171)"/><path class="cls-32" d="M694.35,742.7a4.36,4.36,0,1,0,4.34-4.36A4.35,4.35,0,0,0,694.35,742.7Z" transform="translate(-347.24 -171)"/><path class="cls-6" d="M695.65,742.81a3.09,3.09,0,1,0,3.07-3.09A3.08,3.08,0,0,0,695.65,742.81Z" transform="translate(-347.24 -171)"/></g><g class="cls-13"><path class="cls-27" d="M719.13,736.47a10.73,10.73,0,1,0,10.72-10.74A10.73,10.73,0,0,0,719.13,736.47Z" transform="translate(-347.24 -171)"/><path class="cls-28" d="M720.43,736.57a9.46,9.46,0,1,0,9.45-9.46A9.45,9.45,0,0,0,720.43,736.57Z" transform="translate(-347.24 -171)"/><path class="cls-29" d="M721.74,736.68a8.18,8.18,0,1,0,8.17-8.19A8.17,8.17,0,0,0,721.74,736.68Z" transform="translate(-347.24 -171)"/><path class="cls-30" d="M723,736.78a6.91,6.91,0,1,0,6.9-6.91A6.91,6.91,0,0,0,723,736.78Z" transform="translate(-347.24 -171)"/><path class="cls-31" d="M724.35,736.89a5.63,5.63,0,1,0,5.62-5.63A5.63,5.63,0,0,0,724.35,736.89Z" transform="translate(-347.24 -171)"/><path class="cls-32" d="M725.66,737a4.36,4.36,0,1,0,4.34-4.36A4.35,4.35,0,0,0,725.66,737Z" transform="translate(-347.24 -171)"/><path class="cls-6" d="M727,737.1A3.09,3.09,0,1,0,730,734,3.08,3.08,0,0,0,727,737.1Z" transform="translate(-347.24 -171)"/></g><g class="cls-13"><path class="cls-27" d="M801,718a10.73,10.73,0,1,0,10.72-10.73A10.72,10.72,0,0,0,801,718Z" transform="translate(-347.24 -171)"/><path class="cls-28" d="M802.27,718.14a9.46,9.46,0,1,0,9.44-9.46A9.44,9.44,0,0,0,802.27,718.14Z" transform="translate(-347.24 -171)"/><path class="cls-29" d="M803.57,718.25a8.18,8.18,0,1,0,8.17-8.19A8.17,8.17,0,0,0,803.57,718.25Z" transform="translate(-347.24 -171)"/><path class="cls-30" d="M804.88,718.35a6.91,6.91,0,1,0,6.9-6.9A6.9,6.9,0,0,0,804.88,718.35Z" transform="translate(-347.24 -171)"/><path class="cls-31" d="M806.19,718.46a5.63,5.63,0,1,0,5.62-5.63A5.62,5.62,0,0,0,806.19,718.46Z" transform="translate(-347.24 -171)"/><path class="cls-32" d="M807.49,718.57a4.36,4.36,0,1,0,4.35-4.36A4.35,4.35,0,0,0,807.49,718.57Z" transform="translate(-347.24 -171)"/><path class="cls-6" d="M808.8,718.67a3.08,3.08,0,1,0,3.07-3.08A3.07,3.07,0,0,0,808.8,718.67Z" transform="translate(-347.24 -171)"/></g><g class="cls-13"><path class="cls-27" d="M832.84,672.59a10.73,10.73,0,1,0,10.73-10.73A10.73,10.73,0,0,0,832.84,672.59Z" transform="translate(-347.24 -171)"/><path class="cls-28" d="M834.15,672.7a9.46,9.46,0,1,0,9.45-9.46A9.45,9.45,0,0,0,834.15,672.7Z" transform="translate(-347.24 -171)"/><path class="cls-29" d="M835.45,672.8a8.19,8.19,0,1,0,8.18-8.18A8.18,8.18,0,0,0,835.45,672.8Z" transform="translate(-347.24 -171)"/><path class="cls-30" d="M836.76,672.91a6.91,6.91,0,1,0,6.9-6.91A6.9,6.9,0,0,0,836.76,672.91Z" transform="translate(-347.24 -171)"/><path class="cls-31" d="M838.07,673a5.63,5.63,0,1,0,5.62-5.63A5.62,5.62,0,0,0,838.07,673Z" transform="translate(-347.24 -171)"/><path class="cls-32" d="M839.37,673.12a4.36,4.36,0,1,0,4.35-4.35A4.35,4.35,0,0,0,839.37,673.12Z" transform="translate(-347.24 -171)"/><path class="cls-6" d="M840.68,673.23a3.09,3.09,0,1,0,3.07-3.08A3.08,3.08,0,0,0,840.68,673.23Z" transform="translate(-347.24 -171)"/></g><g class="cls-13"><path class="cls-27" d="M842,654.23a10.73,10.73,0,1,0,10.73-10.73A10.72,10.72,0,0,0,842,654.23Z" transform="translate(-347.24 -171)"/><path class="cls-28" d="M843.33,654.34a9.46,9.46,0,1,0,9.46-9.46A9.45,9.45,0,0,0,843.33,654.34Z" transform="translate(-347.24 -171)"/><path class="cls-29" d="M844.64,654.44a8.18,8.18,0,1,0,8.18-8.18A8.18,8.18,0,0,0,844.64,654.44Z" transform="translate(-347.24 -171)"/><path class="cls-30" d="M846,654.55a6.91,6.91,0,1,0,6.9-6.91A6.9,6.9,0,0,0,846,654.55Z" transform="translate(-347.24 -171)"/><path class="cls-31" d="M847.25,654.65a5.64,5.64,0,1,0,5.63-5.63A5.63,5.63,0,0,0,847.25,654.65Z" transform="translate(-347.24 -171)"/><path class="cls-32" d="M848.56,654.76a4.36,4.36,0,1,0,4.35-4.36A4.35,4.35,0,0,0,848.56,654.76Z" transform="translate(-347.24 -171)"/><path class="cls-6" d="M849.86,654.86a3.09,3.09,0,1,0,3.08-3.08A3.08,3.08,0,0,0,849.86,654.86Z" transform="translate(-347.24 -171)"/></g><g class="cls-13"><path class="cls-14" d="M709.92,569.11c27.46,15.85,27.61,41.56.32,57.41s-71.65,15.85-99.11,0-27.6-41.56-.32-57.41S682.47,553.25,709.92,569.11Z" transform="translate(-347.24 -171)"/><g class="cls-15"><path class="cls-16" d="M718,550.74c31.48,18.17,31.65,47.64.37,65.81s-82.15,18.18-113.63,0-31.65-47.64-.37-65.81S686.48,532.56,718,550.74Z" transform="translate(-347.24 -171)"/></g><g class="cls-17"><path class="cls-18" d="M726,532.37c35.5,20.49,35.69,53.73.41,74.22s-92.64,20.5-128.14,0-35.69-53.73-.42-74.22S690.5,511.87,726,532.37Z" transform="translate(-347.24 -171)"/></g><g class="cls-19"><path class="cls-20" d="M734,514c39.52,22.82,39.73,59.82.46,82.64s-103.14,22.82-142.66,0-39.73-59.82-.47-82.64S694.51,491.17,734,514Z" transform="translate(-347.24 -171)"/></g><g class="cls-21"><path class="cls-22" d="M742.07,495.62c43.55,25.14,43.78,65.9.52,91s-113.64,25.15-157.18,0-43.78-65.9-.52-91S698.53,470.48,742.07,495.62Z" transform="translate(-347.24 -171)"/></g><g class="cls-23"><path class="cls-24" d="M750.11,477.25c47.57,27.46,47.82,72,.56,99.45s-124.13,27.46-171.69,0-47.82-72-.56-99.45S702.55,449.79,750.11,477.25Z" transform="translate(-347.24 -171)"/></g><g class="cls-25"><path class="cls-26" d="M758.15,458.88c51.59,29.78,51.86,78.07.61,107.86s-134.62,29.78-186.21,0-51.87-78.08-.61-107.86S706.56,429.09,758.15,458.88Z" transform="translate(-347.24 -171)"/></g></g><path class="cls-33" d="M508.65,598.51a4.23,4.23,0,0,1,0,6.87c-2.33,1.89-4.1,3-6.47,1.08s-5.32-8-3-9.87S506.3,596.62,508.65,598.51Z" transform="translate(-347.24 -171)"/><g class="cls-15"><path class="cls-34" d="M508.65,588.67a4.23,4.23,0,0,1,0,6.87c-2.33,1.89-4.44,2.82-6.81.9s-4.82-7.48-2.49-9.37S506.3,586.78,508.65,588.67Z" transform="translate(-347.24 -171)"/></g><g class="cls-17"><path class="cls-35" d="M508.59,578.81a4.23,4.23,0,0,1,0,6.87c-2.34,1.89-4.78,2.63-7.15.72s-4.33-7-2-8.87S506.24,576.92,508.59,578.81Z" transform="translate(-347.24 -171)"/></g><g class="cls-19"><path class="cls-36" d="M508.58,569a4.22,4.22,0,0,1,0,6.86c-2.34,1.9-5.12,2.46-7.49.55s-3.84-6.48-1.51-8.37S506.23,567.08,508.58,569Z" transform="translate(-347.24 -171)"/></g><g class="cls-21"><path class="cls-37" d="M508.59,559.13a4.23,4.23,0,0,1,0,6.87c-2.33,1.89-5.46,2.27-7.82.36s-3.35-6-1-7.87S506.24,557.24,508.59,559.13Z" transform="translate(-347.24 -171)"/></g><g class="cls-23"><path class="cls-38" d="M508.65,549.32a4.22,4.22,0,0,1,0,6.86,6.56,6.56,0,0,1-8.16.18c-2.35-1.89-2.85-5.47-.52-7.36S506.3,547.43,508.65,549.32Z" transform="translate(-347.24 -171)"/></g><g class="cls-25"><path class="cls-39" d="M508.65,539.48a4.22,4.22,0,0,1,0,6.86,7,7,0,0,1-8.5,0,4.22,4.22,0,0,1,0-6.86A7.08,7.08,0,0,1,508.65,539.48Z" transform="translate(-347.24 -171)"/></g><path class="cls-6" d="M504.43,500.87c-3.55-2.05-6.44-.41-6.45,3.67a14.15,14.15,0,0,0,6.41,11.11c3.55,2.05,6.44.4,6.45-3.68A14.09,14.09,0,0,0,504.43,500.87Z" transform="translate(-347.24 -171)"/><path class="cls-6" d="M504.43,594.79c-3.55-2-6.44-.41-6.45,3.68a14.15,14.15,0,0,0,6.41,11.1c3.55,2,6.44.4,6.45-3.68A14.11,14.11,0,0,0,504.43,594.79Z" transform="translate(-347.24 -171)"/><path class="cls-4" d="M503.9,598.09V512.35h0a7.78,7.78,0,0,1-3.55-6.14c0-2.26,1.61-3.17,3.57-2a7.78,7.78,0,0,1,3.55,6.14c0,2.06-1.34,3-3.06,2.27v85.85a7.92,7.92,0,0,1,3.06,5.81c0,2.25-1.61,3.16-3.57,2a7.8,7.8,0,0,1-3.55-6.14C500.35,597.87,502,597,503.9,598.09Z" transform="translate(-347.24 -171)"/><path class="cls-33" d="M447.12,400.23a4.22,4.22,0,0,1,0,6.86c-2.34,1.9-4.1,3-6.48,1.08s-5.32-8-3-9.87S444.77,398.34,447.12,400.23Z" transform="translate(-347.24 -171)"/><g class="cls-15"><path class="cls-34" d="M447.12,390.39a4.22,4.22,0,0,1,0,6.86c-2.34,1.9-4.44,2.82-6.81.9s-4.83-7.47-2.5-9.37S444.77,388.5,447.12,390.39Z" transform="translate(-347.24 -171)"/></g><g class="cls-17"><path class="cls-35" d="M447.07,380.53a4.22,4.22,0,0,1,0,6.86c-2.33,1.9-4.78,2.64-7.15.72s-4.33-7-2-8.87S444.71,378.64,447.07,380.53Z" transform="translate(-347.24 -171)"/></g><g class="cls-19"><path class="cls-36" d="M447.06,370.68a4.23,4.23,0,0,1,0,6.87c-2.33,1.89-5.12,2.45-7.49.54s-3.84-6.48-1.5-8.37S444.7,368.79,447.06,370.68Z" transform="translate(-347.24 -171)"/></g><g class="cls-21"><path class="cls-37" d="M447.06,360.85a4.22,4.22,0,0,1,0,6.86c-2.34,1.89-5.46,2.27-7.83.36s-3.35-6-1-7.87S444.71,359,447.06,360.85Z" transform="translate(-347.24 -171)"/></g><g class="cls-23"><path class="cls-38" d="M447.12,351a4.22,4.22,0,0,1,0,6.86,6.56,6.56,0,0,1-8.17.18c-2.35-1.89-2.85-5.47-.52-7.36S444.77,349.14,447.12,351Z" transform="translate(-347.24 -171)"/></g><g class="cls-25"><path class="cls-39" d="M447.12,341.19a4.22,4.22,0,0,1,0,6.86,7.05,7.05,0,0,1-8.51,0,4.23,4.23,0,0,1,0-6.86A7.09,7.09,0,0,1,447.12,341.19Z" transform="translate(-347.24 -171)"/></g><path class="cls-6" d="M442.9,302.58c-3.55-2.05-6.44-.41-6.45,3.68a14.13,14.13,0,0,0,6.42,11.1c3.55,2.05,6.43.4,6.44-3.68A14.09,14.09,0,0,0,442.9,302.58Z" transform="translate(-347.24 -171)"/><path class="cls-6" d="M442.9,396.5c-3.55-2.05-6.44-.4-6.45,3.68a14.12,14.12,0,0,0,6.42,11.1c3.55,2.05,6.43.4,6.44-3.67A14.12,14.12,0,0,0,442.9,396.5Z" transform="translate(-347.24 -171)"/><path class="cls-4" d="M442.38,399.8V314.06h0a7.84,7.84,0,0,1-3.55-6.15c0-2.26,1.61-3.17,3.57-2a7.81,7.81,0,0,1,3.55,6.14c0,2.06-1.33,3-3.06,2.28v85.85a7.89,7.89,0,0,1,3.06,5.8c0,2.25-1.61,3.17-3.57,2a7.81,7.81,0,0,1-3.55-6.14C438.83,399.58,440.42,398.68,442.38,399.8Z" transform="translate(-347.24 -171)"/><g class="cls-19"><path class="cls-4" d="M503,439.49c8.7,5,15.71,17.17,15.68,27.18s-7.07,14-15.78,9-15.7-17.14-15.67-27.12S494.3,434.48,503,439.49Z" transform="translate(-347.24 -171)"/></g><g class="cls-19"><path class="cls-4" d="M503,445c6.68,3.86,12,13.16,12,20.84s-5.43,10.73-12.11,6.88-12-13.16-12-20.81S496.32,441.18,503,445Z" transform="translate(-347.24 -171)"/></g><g class="cls-19"><path class="cls-4" d="M503,449.47c4.54,2.62,8.19,8.95,8.17,14.16s-3.68,7.3-8.23,4.68-8.17-8.94-8.16-14.14S498.44,446.86,503,449.47Z" transform="translate(-347.24 -171)"/></g><g class="cls-19"><path class="cls-4" d="M474.64,399.62c7.23,4.17,13,14.24,13,22.54s-5.88,11.62-13.1,7.45-13-14.23-13-22.52S467.43,395.45,474.64,399.62Z" transform="translate(-347.24 -171)"/></g><g class="cls-19"><path class="cls-4" d="M474.63,404.21c5.54,3.2,10,10.92,10,17.29s-4.5,8.91-10,5.71-10-10.91-10-17.26S469.1,401,474.63,404.21Z" transform="translate(-347.24 -171)"/></g><g class="cls-19"><path class="cls-4" d="M474.62,407.9a14.92,14.92,0,0,1,6.79,11.75c0,4.32-3.07,6.05-6.83,3.88a14.93,14.93,0,0,1-6.78-11.74C467.81,407.47,470.87,405.73,474.62,407.9Z" transform="translate(-347.24 -171)"/></g><g class="cls-13"><path class="cls-27" d="M527.41,457.57a26.7,26.7,0,1,1-26.7-26.7A26.7,26.7,0,0,1,527.41,457.57Z" transform="translate(-347.24 -171)"/><path class="cls-28" d="M524.16,457.84a23.53,23.53,0,1,1-23.52-23.53A23.53,23.53,0,0,1,524.16,457.84Z" transform="translate(-347.24 -171)"/><path class="cls-29" d="M520.91,458.1a20.36,20.36,0,1,1-20.35-20.36A20.36,20.36,0,0,1,520.91,458.1Z" transform="translate(-347.24 -171)"/><path class="cls-30" d="M517.65,458.36a17.19,17.19,0,1,1-17.16-17.18A17.17,17.17,0,0,1,517.65,458.36Z" transform="translate(-347.24 -171)"/><path class="cls-31" d="M514.4,458.63a14,14,0,1,1-14-14A14,14,0,0,1,514.4,458.63Z" transform="translate(-347.24 -171)"/><path class="cls-32" d="M511.15,458.89a10.85,10.85,0,1,1-10.82-10.84A10.84,10.84,0,0,1,511.15,458.89Z" transform="translate(-347.24 -171)"/><path class="cls-6" d="M507.9,459.16a7.68,7.68,0,1,1-7.64-7.68A7.66,7.66,0,0,1,507.9,459.16Z" transform="translate(-347.24 -171)"/></g><g class="cls-13"><path class="cls-27" d="M500.71,415.41A26.7,26.7,0,1,1,474,388.71,26.69,26.69,0,0,1,500.71,415.41Z" transform="translate(-347.24 -171)"/><path class="cls-28" d="M497.46,415.68a23.53,23.53,0,1,1-23.52-23.53A23.53,23.53,0,0,1,497.46,415.68Z" transform="translate(-347.24 -171)"/><path class="cls-29" d="M494.21,415.94a20.36,20.36,0,1,1-20.35-20.36A20.36,20.36,0,0,1,494.21,415.94Z" transform="translate(-347.24 -171)"/><path class="cls-30" d="M491,416.2A17.19,17.19,0,1,1,473.79,399,17.18,17.18,0,0,1,491,416.2Z" transform="translate(-347.24 -171)"/><path class="cls-31" d="M487.71,416.47a14,14,0,1,1-14-14A14,14,0,0,1,487.71,416.47Z" transform="translate(-347.24 -171)"/><path class="cls-32" d="M484.45,416.73a10.85,10.85,0,1,1-10.81-10.84A10.83,10.83,0,0,1,484.45,416.73Z" transform="translate(-347.24 -171)"/><path class="cls-6" d="M481.2,417a7.68,7.68,0,1,1-7.64-7.68A7.66,7.66,0,0,1,481.2,417Z" transform="translate(-347.24 -171)"/></g><path class="cls-40" d="M462.53,431.08s2.54-11.74,6.36-13.45,4.14-3.56,5.53-2.86c4.64,2.3.69,12.7-8.41,18.91C466,433.68,461.82,433.88,462.53,431.08Z" transform="translate(-347.24 -171)"/><path class="cls-41" d="M451.64,456.16c1.28-1.34-1.19-2.44-1.19-2.44.6-3.13,1.34-7.5.12-7.87l-30.61.59c-5.61-1.07-11-.76-14,1.61h0c-3.84,3.08-2.77,9.76,4.4,11C410.34,459.06,448.05,460,451.64,456.16Z" transform="translate(-347.24 -171)"/><path class="cls-41" d="M448.45,456.17c-4.28-1.4-4.88-2-2.66-6.91l17.46-23.52s1.65,3.41,3,4.35c3.26,2.22,4.41,1.3,4.41,1.3S458.08,459.32,448.45,456.17Z" transform="translate(-347.24 -171)"/><path class="cls-40" d="M487.7,465.14s6.16-10.31,10.33-10.71,5.05-2.05,6.15-.95c3.66,3.66-3.4,12.26-14,15.23C490.17,468.71,486.13,467.57,487.7,465.14Z" transform="translate(-347.24 -171)"/><g class="cls-2"><path d="M453.57,613.26c15.92,9.18,16,24.08.19,33.27s-41.54,9.2-57.45,0-16-24.09-.19-33.27S437.65,604.06,453.57,613.26Z" transform="translate(-347.24 -171)"/></g><path class="cls-42" d="M413,511s-9.72,7.82-4.32,26.08,6.78,17.51,5.14,23.23c-1.23,4.29-5.67,13.15-5.23,20.81.35,6.06,1.34,9.56,2.67,19.34,1.71,12.4,1.34,9.78-.3,15-1.85,5.89,8.71,11,12.06,10.54s-4.07-3.17-3.54-13.46,6.18-40.14,9-46.64,7.72-40.4,6.92-50.75C435.43,515.11,424.9,519.23,413,511Z" transform="translate(-347.24 -171)"/><path class="cls-43" d="M423.05,629.76s.06,0,.08,0Z" transform="translate(-347.24 -171)"/><polygon class="cls-44" points="66.09 449.13 64.61 459.69 63.94 461.19 64.86 449.14 66.09 449.13"/><path class="cls-43" d="M411.71,613.21c1.42.07,2.66,1.92,5,6.56,1,1.91,3.86,6.79,6.6,5.07.33-.21-.58-1.43-.58-1.43s4.25-.9,4.69.38-2.78,7.06-7.12,6.46-5.19-5.37-6.13-7.18c-1.87-3.65-1.4,3.87-4.07-3.42A6.07,6.07,0,0,1,411.71,613.21Z" transform="translate(-347.24 -171)"/><path class="cls-44" d="M420.27,630.25a4.68,4.68,0,0,0,2.73-.47c-1,.55-3.6-1.3-5.35-4.61a12.89,12.89,0,0,0-5.55-5l-.77.79c.59,1.77.62-1.36,2.81,2.14C415.23,624.78,415.93,629.66,420.27,630.25Z" transform="translate(-347.24 -171)"/><polygon class="cls-43" points="62.91 446.92 64.03 462.32 66.49 461.13 66.86 445.31 62.91 446.92"/><path class="cls-44" d="M411.27,633.33l-1.66-1.22s-.94-13.47.47-16.47c1.24-2.61,1.63-2.43,1.63-2.43Z" transform="translate(-347.24 -171)"/><path class="cls-45" d="M422.68,517.16s-8.37,10.75-2.05,28.71S428.3,563,427,568.81c-1,4.36-5,13.43-4.15,21.06.65,6,1.82,9.46,3.66,19.17,2.32,12.29,1.82,9.69.45,15-1.55,6,9.26,10.58,12.58,9.92s-4.23-3-4.23-13.26,4.14-40.4,6.65-47,3.21-47.31,1.88-57.61C443.79,516,435,524.8,422.68,517.16Z" transform="translate(-347.24 -171)"/><path class="cls-43" d="M439.71,637.73s.05,0,.08,0A.18.18,0,0,0,439.71,637.73Z" transform="translate(-347.24 -171)"/><polygon class="cls-44" points="82.29 457.59 81.33 468.24 80.74 469.76 81.03 457.68 82.29 457.59"/><path class="cls-43" d="M427.55,621.78c1.42,0,2.76,1.8,5.31,6.29,1,1.87,4.19,6.6,6.83,4.74.32-.22-.65-1.41-.65-1.41s4.2-1.1,4.7.14-2.42,7.19-6.77,6.82-5.47-5.1-6.48-6.85c-2.07-3.56-1.21,3.93-4.25-3.21A6,6,0,0,1,427.55,621.78Z" transform="translate(-347.24 -171)"/><path class="cls-44" d="M437,638.36a4.75,4.75,0,0,0,2.69-.6c-.93.59-3.66-1.11-5.57-4.34a12.93,12.93,0,0,0-5.81-4.74l-.73.83c.69,1.74.55-1.39,2.94,2C431.65,633.16,432.6,638,437,638.36Z" transform="translate(-347.24 -171)"/><polygon class="cls-43" points="79 455.55 80.89 470.88 83.28 469.56 82.85 453.76 79 455.55"/><path class="cls-44" d="M428.13,641.88l-1.72-1.12s-1.63-13.39-.36-16.48c1.09-2.66,1.5-2.5,1.5-2.5Z" transform="translate(-347.24 -171)"/><path class="cls-46" d="M409.23,506s22.14,16.85,35.22,3a242.86,242.86,0,0,1,3,47.54c-.83,21.43-3,25.27-3,25.27s-27.25,5-37.73-9.23c0,0,5.32-11.23,2.16-20.7S397.53,524.86,409.23,506Z" transform="translate(-347.24 -171)"/><path class="cls-47" d="M444.46,581.85s2.16-3.84,3-25.27a242.86,242.86,0,0,0-3-47.54c-13.08,13.85-35.22-3-35.22-3-1.08.85-2,4.26-2.8,5.29,1.92,3.79,9.91,4.69,14.85,6.34,8.26,2.77,16.82,15,15.9,28.11-.66,9.46-3,27.52-4.22,36.9A67.65,67.65,0,0,0,444.46,581.85Z" transform="translate(-347.24 -171)"/><path class="cls-48" d="M435.09,454.75s13.44,6.16,12.43,13.37c-1.34,9.45-8.5,27-3.07,40.92,0,0-4.88,7.39-13.38,7-10-.49-21.84-10-21.84-10s4.64-10-3.42-28.31c-3.44-7.8-7.6-30.46,3.41-31.73C409.22,446,412.28,442.61,435.09,454.75Z" transform="translate(-347.24 -171)"/><path class="cls-45" d="M435.37,446.11l-1,10.41s-8.91,4.86-15.22-2.82l1-10.45S428,446.75,435.37,446.11Z" transform="translate(-347.24 -171)"/><path class="cls-49" d="M429.86,415.69s7.93-.07,10.91,5.81,5.56,14.61,1.83,19.52c-4,5.26-1.89,8.43,0,10.13s-20.62,9.4-30.28-5C412.31,446.13,405.94,410.38,429.86,415.69Z" transform="translate(-347.24 -171)"/><path class="cls-41" d="M470.22,484c1.65-.8,3.65-4.46,3.65-4.46,1.78-2.65-.12-4.47-1-5.2l-22.31-11.52c-4.39-2.83-9.19-4.35-12.73-3.18h0c-4.53,1.52-6.3,7.94-.63,11.45C437.17,471.1,465.6,486.29,470.22,484Z" transform="translate(-347.24 -171)"/><path class="cls-41" d="M468.22,483.43c-3.09-2.22-2.6-7.07.12-9.73l20.77-11.34a12.06,12.06,0,0,0,1.52,3.86c2.12,2.47,3.22,2.19,3.22,2.19S475.18,488.43,468.22,483.43Z" transform="translate(-347.24 -171)"/><path class="cls-27" d="M382.94,607.14c-21.43,12.43-21.35,32.3-.24,44.57s55.51,12.45,77,0c21.28-12.27,21.39-32.27.26-44.57S404.2,594.85,382.94,607.14Z" transform="translate(-347.24 -171)"/><g class="cls-15"><path class="cls-50" d="M380.64,572.74C357.92,585.91,358,607,380.38,620s58.85,13.19,81.59,0c22.55-13,22.67-34.21.27-47.25S403.18,559.71,380.64,572.74Z" transform="translate(-347.24 -171)"/></g><g class="cls-17"><path class="cls-51" d="M378.33,538.34c-24,13.9-23.91,36.18-.27,49.93s62.19,13.93,86.22,0c23.83-13.75,24-36.15.28-49.93S402.15,524.57,378.33,538.34Z" transform="translate(-347.24 -171)"/></g><g class="cls-19"><path class="cls-52" d="M376,504c-25.3,14.63-25.2,38.11-.29,52.61s65.53,14.65,90.85,0c25.1-14.5,25.24-38.11.3-52.61S401.13,489.43,376,504Z" transform="translate(-347.24 -171)"/></g><g class="cls-21"><path class="cls-53" d="M373.72,469.55c-26.58,15.37-26.48,40-.3,55.29s68.87,15.39,95.47,0c26.39-15.25,26.53-40.05.32-55.29S400.1,454.29,373.72,469.55Z" transform="translate(-347.24 -171)"/></g><g class="cls-23"><path class="cls-54" d="M371.42,435.15c-27.87,16.11-27.76,42-.32,58s72.2,16.13,100.1,0c27.67-16,27.81-42,.33-58S399.07,419.15,371.42,435.15Z" transform="translate(-347.24 -171)"/></g><g class="cls-25"><path class="cls-55" d="M369.11,400.75c-29.16,16.85-29,43.92-.33,60.65s75.54,16.87,104.73,0c28.94-16.73,29.1-43.93.34-60.65S398.05,384,369.11,400.75Z" transform="translate(-347.24 -171)"/></g></g></g></svg>