<svg xmlns="http://www.w3.org/2000/svg" xmlns:xlink="http://www.w3.org/1999/xlink" viewBox="0 0 569.89 420.58"><defs><style>.cls-1{isolation:isolate;}.cls-2{fill:#2afbfe;}.cls-3{opacity:0.2;}.cls-18,.cls-33,.cls-4{mix-blend-mode:overlay;}.cls-34,.cls-35,.cls-36,.cls-37,.cls-38,.cls-39,.cls-5{fill:#fff;}.cls-28,.cls-5{opacity:0;}.cls-6{fill:#dbfeff;}.cls-34,.cls-41,.cls-6{opacity:0.17;}.cls-7{fill:#b8feff;}.cls-35,.cls-42,.cls-7{opacity:0.33;}.cls-8{fill:#95fdff;}.cls-16,.cls-36,.cls-43,.cls-8{opacity:0.5;}.cls-9{fill:#71fcfe;}.cls-37,.cls-44,.cls-9{opacity:0.67;}.cls-10{fill:#4efcfe;}.cls-10,.cls-38,.cls-45{opacity:0.83;}.cls-11{fill:#41c0fd;}.cls-12{fill:#8fedff;}.cls-13{fill:#c5f9ff;}.cls-14{fill:url(#linear-gradient);}.cls-15{fill:#1d8fbc;}.cls-17{fill:#d8cdff;}.cls-18{fill:#0edbfc;}.cls-19{opacity:0.83;}.cls-20{fill:#36e1fc;}.cls-21{opacity:0.67;}.cls-22{fill:#5de6fc;}.cls-23{fill:#85ecfd;}.cls-24{opacity:0.33;}.cls-25{fill:#adf2fd;}.cls-26{opacity:0.17;}.cls-27{fill:#d4f7fd;}.cls-29{fill:#fcfdfd;}.cls-30{fill:url(#linear-gradient-2);}.cls-31{opacity:0.1;}.cls-32{fill:url(#linear-gradient-3);}.cls-33{opacity:0.6;}.cls-40{fill:#94ffff;}.cls-41{fill:#fcfefd;}.cls-42{fill:#f9fdfc;}.cls-43{fill:#f6fcfa;}.cls-44{fill:#f3fbf8;}.cls-45{fill:#f0faf7;}.cls-46{fill:#edf9f5;}.cls-47{fill:#111114;}.cls-48{fill:#efb185;}.cls-49{fill:#e6a376;}.cls-50{fill:#5d0ca6;}.cls-51{fill:#43008d;}.cls-52{fill:#dd9569;}.cls-53{fill:#8c2ddf;}.cls-54{fill:#9a45f4;}.cls-55{fill:#9dbcc9;}.cls-56{fill:#f1b287;}</style><linearGradient id="linear-gradient" x1="392.52" y1="425.64" x2="637.67" y2="425.64" gradientTransform="translate(-391.03 -251.1) rotate(-1.82)" gradientUnits="userSpaceOnUse"><stop offset="0" stop-color="#2f95e4"/><stop offset="1" stop-color="#7133de"/></linearGradient><linearGradient id="linear-gradient-2" x1="527.71" y1="389.9" x2="688.69" y2="389.9" gradientTransform="translate(-16.54 27.29) rotate(-1.82)" gradientUnits="userSpaceOnUse"><stop offset="0" stop-color="#9aceff"/><stop offset="1" stop-color="#c185fe"/></linearGradient><linearGradient id="linear-gradient-3" x1="512.44" y1="411.43" x2="665.64" y2="411.43" gradientTransform="translate(-16.54 27.29) rotate(-1.82)" gradientUnits="userSpaceOnUse"><stop offset="0" stop-color="#aab1ff"/><stop offset="1" stop-color="#c986ff"/></linearGradient></defs><title>ai-2</title><g class="cls-1"><g id="Layer_1" data-name="Layer 1"><polygon class="cls-2" points="449.12 236.02 372.77 197.3 341.62 218.72 339.03 214.97 372.41 192.02 448.79 230.74 486.86 204.82 489.43 208.57 449.12 236.02"/><g class="cls-3"><path d="M402.88,601.33l129.58,69.88c8.2,4.42,24.33,3.21,32.3-1.74C620,635.2,782.57,533.25,782.57,533.25c8-5,7.78-12.55-.42-17l-131-70.65Z" transform="translate(-374.49 -278.38)"/></g><path class="cls-2" d="M833.05,586.5c2.78,1.5,2.89,4.08.21,5.75a11.06,11.06,0,0,1-9.36.57,3.36,3.36,0,0,1-.54-.26,5.37,5.37,0,0,1-1.45-1.11c-1.26-1.46-.86-3.32,1.24-4.63A10.93,10.93,0,0,1,833.05,586.5Z" transform="translate(-374.49 -278.38)"/><path class="cls-2" d="M823.36,592.56a3.36,3.36,0,0,0,.54.26L792,612.75l-.24-1.79-1.17.07,31.35-19.58A5.37,5.37,0,0,0,823.36,592.56Z" transform="translate(-374.49 -278.38)"/><path class="cls-2" d="M844.13,562.47c2.8,1.5,2.89,4.08.22,5.74a11.09,11.09,0,0,1-8.66.84,7,7,0,0,1-1.25-.53,4.74,4.74,0,0,1-1-.68c-1.76-1.51-1.52-3.61.79-5.05A10.9,10.9,0,0,1,844.13,562.47Z" transform="translate(-374.49 -278.38)"/><polygon class="cls-2" points="417.43 334.39 417.39 334.38 417.48 334.37 417.43 334.39"/><polygon class="cls-2" points="408.56 320.92 406.75 322.05 407.88 322.65 330.31 281.09 332.12 279.97 408.56 320.92"/><path class="cls-2" d="M835.69,569.05,783.5,601.64l-1.13-.6-1.13-.61,1.82-1.13,50.38-31.46a4.74,4.74,0,0,0,1,.68A7,7,0,0,0,835.69,569.05Z" transform="translate(-374.49 -278.38)"/><polygon class="cls-2" points="417.24 332.58 417.48 334.37 417.39 334.38 385.85 336.41 385.73 336.42 385.5 334.62 386.18 334.57 416.06 332.65 417.24 332.58"/><polygon class="cls-2" points="386.18 334.57 385.5 334.62 385.73 336.42 308.23 294.9 310.03 293.77 386.18 334.57"/><polygon class="cls-2" points="348.71 359.54 348.76 359.57 348.7 359.61 348.71 359.54"/><polygon class="cls-2" points="348.71 359.54 348.7 359.61 347.62 377.96 347.61 378 344.48 378 344.52 377.32 345.55 359.96 345.58 359.54 348.71 359.54"/><polygon class="cls-2" points="269.38 319.15 271.2 318.02 348.71 359.54 345.58 359.54 345.55 359.96 269.38 319.15"/><path class="cls-2" d="M784.93,646.71a9.4,9.4,0,0,0-1,.52,6.63,6.63,0,0,0-.81.62l-118.3-63.39,1.8-1.13Z" transform="translate(-374.49 -278.38)"/><polygon class="cls-2" points="325.53 372.76 323.73 373.9 247.29 332.95 249.09 331.82 325.53 372.76"/><path class="cls-2" d="M793.84,646.92c2.8,1.49,2.9,4.06.21,5.74a11,11,0,0,1-9.9.31c-2.46-1.33-2.82-3.49-1-5.12a6.63,6.63,0,0,1,.81-.62,9.4,9.4,0,0,1,1-.52A11.12,11.12,0,0,1,793.84,646.92Z" transform="translate(-374.49 -278.38)"/><polygon class="cls-2" points="347.62 377.96 347.65 377.98 347.61 378 347.62 377.96"/><path class="cls-2" d="M719,655.7l0,.68h3.12L690.21,676.3a6.44,6.44,0,0,0-1-.67,7.69,7.69,0,0,0-1.25-.53Z" transform="translate(-374.49 -278.38)"/><path class="cls-2" d="M689.21,675.63a6.44,6.44,0,0,1,1,.67c1.77,1.52,1.52,3.62-.78,5.06a10.92,10.92,0,0,1-9.91.31c-2.8-1.5-2.89-4.06-.21-5.72a11,11,0,0,1,8.65-.85A7.69,7.69,0,0,1,689.21,675.63Z" transform="translate(-374.49 -278.38)"/><path class="cls-2" d="M702.28,652.36,650.11,685a5.23,5.23,0,0,0-1-.68,8.26,8.26,0,0,0-1.25-.54l50.38-31.45,1.8-1.13Z" transform="translate(-374.49 -278.38)"/><path class="cls-2" d="M649.1,684.27a5.23,5.23,0,0,1,1,.68c1.76,1.51,1.51,3.62-.8,5a10.9,10.9,0,0,1-9.9.31c-2.8-1.49-2.89-4.06-.22-5.73a11.13,11.13,0,0,1,8.66-.85A8.26,8.26,0,0,1,649.1,684.27Z" transform="translate(-374.49 -278.38)"/><g class="cls-4"><path class="cls-5" d="M630.37,685.57a13.83,13.83,0,1,0,13.38-14.26A13.81,13.81,0,0,0,630.37,685.57Z" transform="translate(-374.49 -278.38)"/><path class="cls-6" d="M632.05,685.66a12.19,12.19,0,1,0,11.79-12.57A12.19,12.19,0,0,0,632.05,685.66Z" transform="translate(-374.49 -278.38)"/><path class="cls-7" d="M633.74,685.74a10.55,10.55,0,1,0,10.19-10.88A10.53,10.53,0,0,0,633.74,685.74Z" transform="translate(-374.49 -278.38)"/><path class="cls-8" d="M635.42,685.82a8.9,8.9,0,1,0,8.61-9.18A8.89,8.89,0,0,0,635.42,685.82Z" transform="translate(-374.49 -278.38)"/><path class="cls-9" d="M637.11,685.9a7.26,7.26,0,1,0,7-7.48A7.24,7.24,0,0,0,637.11,685.9Z" transform="translate(-374.49 -278.38)"/><path class="cls-10" d="M638.8,686a5.62,5.62,0,1,0,5.42-5.8A5.6,5.6,0,0,0,638.8,686Z" transform="translate(-374.49 -278.38)"/><path class="cls-2" d="M640.48,686.07a4,4,0,1,0,3.83-4.1A4,4,0,0,0,640.48,686.07Z" transform="translate(-374.49 -278.38)"/></g><g class="cls-4"><path class="cls-5" d="M670.47,676.93a13.83,13.83,0,1,0,13.38-14.26A13.83,13.83,0,0,0,670.47,676.93Z" transform="translate(-374.49 -278.38)"/><path class="cls-6" d="M672.16,677A12.19,12.19,0,1,0,684,664.45,12.19,12.19,0,0,0,672.16,677Z" transform="translate(-374.49 -278.38)"/><path class="cls-7" d="M673.85,677.1A10.55,10.55,0,1,0,684,666.23,10.54,10.54,0,0,0,673.85,677.1Z" transform="translate(-374.49 -278.38)"/><path class="cls-8" d="M675.54,677.18a8.9,8.9,0,1,0,8.6-9.17A8.89,8.89,0,0,0,675.54,677.18Z" transform="translate(-374.49 -278.38)"/><path class="cls-9" d="M677.22,677.26a7.26,7.26,0,1,0,7-7.47A7.26,7.26,0,0,0,677.22,677.26Z" transform="translate(-374.49 -278.38)"/><path class="cls-10" d="M678.91,677.35a5.62,5.62,0,1,0,5.42-5.79A5.61,5.61,0,0,0,678.91,677.35Z" transform="translate(-374.49 -278.38)"/><path class="cls-2" d="M680.6,677.43a4,4,0,1,0,3.83-4.09A4,4,0,0,0,680.6,677.43Z" transform="translate(-374.49 -278.38)"/></g><g class="cls-4"><path class="cls-5" d="M775.16,649.83a13.83,13.83,0,1,0,13.38-14.26A13.82,13.82,0,0,0,775.16,649.83Z" transform="translate(-374.49 -278.38)"/><path class="cls-6" d="M776.84,649.92a12.19,12.19,0,1,0,11.8-12.57A12.18,12.18,0,0,0,776.84,649.92Z" transform="translate(-374.49 -278.38)"/><path class="cls-7" d="M778.53,650a10.55,10.55,0,1,0,10.2-10.88A10.54,10.54,0,0,0,778.53,650Z" transform="translate(-374.49 -278.38)"/><path class="cls-8" d="M780.22,650.08a8.9,8.9,0,1,0,8.61-9.18A8.91,8.91,0,0,0,780.22,650.08Z" transform="translate(-374.49 -278.38)"/><path class="cls-9" d="M781.91,650.17a7.26,7.26,0,1,0,7-7.49A7.25,7.25,0,0,0,781.91,650.17Z" transform="translate(-374.49 -278.38)"/><path class="cls-10" d="M783.6,650.25a5.62,5.62,0,1,0,5.42-5.8A5.61,5.61,0,0,0,783.6,650.25Z" transform="translate(-374.49 -278.38)"/><path class="cls-2" d="M785.28,650.33a4,4,0,1,0,3.84-4.1A4,4,0,0,0,785.28,650.33Z" transform="translate(-374.49 -278.38)"/></g><g class="cls-4"><path class="cls-5" d="M814.38,590a13.83,13.83,0,1,0,13.38-14.26A13.81,13.81,0,0,0,814.38,590Z" transform="translate(-374.49 -278.38)"/><path class="cls-6" d="M816.06,590.06a12.19,12.19,0,1,0,11.8-12.57A12.18,12.18,0,0,0,816.06,590.06Z" transform="translate(-374.49 -278.38)"/><path class="cls-7" d="M817.75,590.14A10.55,10.55,0,1,0,828,579.27,10.54,10.54,0,0,0,817.75,590.14Z" transform="translate(-374.49 -278.38)"/><path class="cls-8" d="M819.44,590.22a8.9,8.9,0,1,0,8.61-9.18A8.9,8.9,0,0,0,819.44,590.22Z" transform="translate(-374.49 -278.38)"/><path class="cls-9" d="M821.13,590.31a7.26,7.26,0,1,0,7-7.49A7.24,7.24,0,0,0,821.13,590.31Z" transform="translate(-374.49 -278.38)"/><path class="cls-10" d="M822.82,590.39a5.62,5.62,0,1,0,5.42-5.79A5.61,5.61,0,0,0,822.82,590.39Z" transform="translate(-374.49 -278.38)"/><path class="cls-2" d="M824.5,590.47a4,4,0,1,0,3.84-4.1A4,4,0,0,0,824.5,590.47Z" transform="translate(-374.49 -278.38)"/></g><g class="cls-4"><path class="cls-5" d="M825.46,565.94a13.83,13.83,0,1,0,13.39-14.26A13.83,13.83,0,0,0,825.46,565.94Z" transform="translate(-374.49 -278.38)"/><path class="cls-6" d="M827.15,566a12.19,12.19,0,1,0,11.79-12.56A12.18,12.18,0,0,0,827.15,566Z" transform="translate(-374.49 -278.38)"/><path class="cls-7" d="M828.84,566.1A10.55,10.55,0,1,0,839,555.23,10.53,10.53,0,0,0,828.84,566.1Z" transform="translate(-374.49 -278.38)"/><path class="cls-8" d="M830.52,566.18a8.9,8.9,0,1,0,8.62-9.17A8.91,8.91,0,0,0,830.52,566.18Z" transform="translate(-374.49 -278.38)"/><path class="cls-9" d="M832.21,566.27a7.26,7.26,0,1,0,7-7.48A7.25,7.25,0,0,0,832.21,566.27Z" transform="translate(-374.49 -278.38)"/><path class="cls-10" d="M833.9,566.35a5.62,5.62,0,1,0,5.43-5.79A5.61,5.61,0,0,0,833.9,566.35Z" transform="translate(-374.49 -278.38)"/><path class="cls-2" d="M835.58,566.43a4,4,0,1,0,3.84-4.09A4,4,0,0,0,835.58,566.43Z" transform="translate(-374.49 -278.38)"/></g><path class="cls-11" d="M417.28,588.2c2,6.58,117.78,63.57,117.78,63.57,7.51,4.05,22.27,2.91,29.57-1.66,50.53-31.35,198.14-123.89,198.14-123.89,7.27-4.52,9.16-15.69,1.69-19.72l-120.7-61.28S398.49,526.69,417.28,588.2Z" transform="translate(-374.49 -278.38)"/><path class="cls-12" d="M416.28,583l118.63,64c7.5,4,22.26,2.93,29.56-1.61C615,614,763.89,520.67,763.89,520.67c7.3-4.56,7.13-11.48-.4-15.52L643.61,440.47Z" transform="translate(-374.49 -278.38)"/><path class="cls-11" d="M380.4,421.8c.08-.86.19-1.74.36-2.64.08-.25.11-.5.17-.77a20.65,20.65,0,0,1,.8-2.68,1.37,1.37,0,0,1,.09-.44c.29-.74.63-1.5,1-2.21.21-.38.34-.68.57-1a14.65,14.65,0,0,1,1.1-1.7,3.5,3.5,0,0,1,.3-.49,14,14,0,0,1,1.69-2l.48-.42a11.6,11.6,0,0,1,2.07-1.59L589.81,281.3a11.12,11.12,0,0,1,2.36-1.09,5.78,5.78,0,0,1,.8-.25,6.61,6.61,0,0,1,1.09-.24,5.21,5.21,0,0,1,1-.09l.72,0a10.49,10.49,0,0,1,1.48.18l-5.88-1.24a5,5,0,0,0-1-.17l-.47,0a6.06,6.06,0,0,0-.74,0h-.47l-.5.07-1.05.23a1.93,1.93,0,0,0-.52.11.58.58,0,0,0-.3.16A9,9,0,0,0,584,280L383.14,404.65a11.55,11.55,0,0,0-2.06,1.62l-.41.35a19.59,19.59,0,0,0-1.73,2,2.71,2.71,0,0,0-.28.41c-.2.27-.46.56-.68.88s-.26.65-.46.93a8,8,0,0,0-.56,1c-.08.19-.17.34-.24.49a13,13,0,0,0-.74,1.91l-.13.2v0a10.81,10.81,0,0,0-.62,2.11c-.09.23-.08.5-.15.7s-.09.45-.12.62a3.63,3.63,0,0,0-.17.82,15.12,15.12,0,0,0-.21,1.9.88.88,0,0,1-.07.29V421c0,.91,0,1.83,0,2.75,0,.05.05.13.06.18a19,19,0,0,0,.54,3.43L417.28,588.2l5,2.69L381,428.58a21.65,21.65,0,0,1-.54-3.47c0-1-.07-2-.05-3A.61.61,0,0,0,380.4,421.8Z" transform="translate(-374.49 -278.38)"/><path class="cls-13" d="M589.81,281.3c6.53-4.07,13.64-.56,15.82,7.89l38,151.28L420.9,585.54,381,428.58c-2.16-8.44,1.46-18.58,8.06-22.69Z" transform="translate(-374.49 -278.38)"/><polygon class="cls-14" points="14.6 154.41 227 24.07 259.85 154.03 50.56 291.74 14.6 154.41"/><path class="cls-11" d="M722.56,499.4,520.08,625.05,450,587.18,652.41,461.56ZM568,589l94.3-58.49-9.44-5.08-94.27,58.46L568,589Zm58.64-77.73-8.35,5.19,9.44,5.08,8.36-5.17-9.45-5.1Zm29.73-7.5,8.35-5.15-9.45-5.14-8.33,5.22,9.43,5.07Zm-114.56,71.1,8.34-5.19-9.44-5.1-8.36,5.2,9.46,5.09Zm27.53-28.06L561,552l9.43,5.14,8.36-5.22-9.45-5.09Zm-56.14,45.83,8.33-5.18-9.45-5.11-8.34,5.2,9.46,5.09Zm94.23-58.48L598,529.06l-8.32,5.2,9.48,5.09,8.29-5.17Zm.13-11-8.38,5.21,9.43,5.07,8.36-5.2-9.41-5.08ZM494.05,604.51l8.36-5.19-9.49-5.09-8.33,5.2,9.46,5.08ZM665.91,497.9l8.3-5.22-9.45-5.11-8.32,5.24,9.47,5.09Zm-87.08,43-8.31,5.18,9.4,5.09,8.36-5.22-9.45-5.05Zm58.43-25.3,8.33-5.17-9.45-5.09-8.35,5.19,9.47,5.07Zm-87,43.07-8.33,5.18,9.45,5.08,8.33-5.19-9.45-5.07Zm-27.52,28,8.35-5.19-9.47-5-8.35,5.16,9.47,5.08Zm16.65,20.07,8.34-5.17-9.39-5.09-8.36,5.19,9.41,5.07Zm130.1-95.95,8.36-5.18-9.42-5.09L660,505.8l9.43,5.05Zm-87,43.08-8.37,5.2,9.41,5,8.34-5.15-9.38-5.09Zm31.06-49.69-8.36,5.18,9.41,5.07,8.33-5.21-9.38-5Zm29.69-7.55,8.33-5.18-9.39-5.07-8.35,5.18,9.41,5.07Zm-40.49,44.63,9.45,5.11,8.38-5.2-9.43-5.08-8.4,5.17Zm-8.46-14.25L584.87,522l-8.39,5.2,9.45,5.09,8.33-5.21Zm45.49-8.71-8.38,5.18,9.43,5.09,8.38-5.19-9.43-5.08Zm42.79-.4,8.36-5.19-9.44-5.09-8.36,5.16,9.44,5.12Zm-126.35,21.8L547.84,545,557.3,550l8.33-5.21-9.44-5.07Zm-30,60,8.33-5.17-9.39-5.11-8.36,5.22,9.42,5.06Zm28.62-17.79,8.4-5.16-9.46-5.07-8.36,5.19,9.42,5Zm-26.22-14.13,8.36-5.18-9.44-5.08-8.31,5.17,9.39,5.09ZM500,585.57l8.32-5.2L499,575.3l-8.38,5.21,9.44,5.06Zm94.39-69.51-8.36,5.2,9.42,5.08,8.37-5.17-9.43-5.11Zm-58.61,77.78,8.34-5.23-9.4-5.06-8.38,5.17,9.44,5.12Zm-26.23-14.16,8.37-5.2-9.45-5.1-8.35,5.22,9.43,5.08ZM592,548l-8.4,5.17,9.45,5.08,8.35-5.21-9.4-5Zm32.12-39.46,8.37-5.15L623,498.34l-8.34,5.14,9.41,5.08Zm-58.34,25.28-8.36,5.22,9.4,5.06,8.38-5.21-9.42-5.07Zm84.57-11.11,8.36-5.19-9.42-5.09-8.37,5.2,9.43,5.08Zm-29.68,7.49-8.38,5.21,9.42,5.05,8.37-5.18-9.41-5.08Zm42.75-.41,8.39-5.21-9.38-5.07L654,524.72l9.38,5.09Zm-100.07,36L555,571l9.43,5.07,8.34-5.18-9.42-5.06ZM537.1,551.6l-8.35,5.18,9.43,5.11,8.39-5.18-9.47-5.11Zm-16.87,67.08,8.35-5.25-9.38-5.06-8.39,5.19,9.42,5.12ZM692.07,512l8.38-5.16L691,501.77,682.67,507l9.4,5.07ZM679,504.94l8.35-5.17-9.42-5.11-8.36,5.21,9.43,5.07ZM507.13,611.57l8.37-5.18-9.44-5.08-8.33,5.18,9.4,5.08ZM652.74,490.79l8.36-5.16-9.42-5.11-8.34,5.18,9.4,5.09ZM548.87,600.88l8.41-5.21-9.45-5.06-8.38,5.2,9.42,5.07Zm-68-3.46,8.39-5.15-9.39-5.09-8.39,5.19,9.39,5Zm194.59-105.5,8.3-5.16-9.44-5.1L666,486.84l9.51,5.08ZM559.76,552.78l-8.3,5.17,9.43,5,8.31-5.13-9.44-5.09Zm-27.53,28,8.34-5.16-9.47-5.08-8.33,5.17,9.46,5.07ZM646.82,509.7l8.3-5.16-9.43-5.09-8.35,5.17,9.48,5.08ZM617,517.24l-8.31,5.13,9.45,5.14,8.3-5.19L617,517.24ZM503.62,598.55l8.32-5.15-9.43-5.09-8.32,5.18,9.43,5.06Zm94.23-58.43L588.37,535l-8.26,5.17,9.42,5.08,8.32-5.12ZM490.5,591.48l8.28-5.16-9.38-5.07L481,586.38l9.46,5.1Zm198-92.47,8.32-5.17-9.42-5.06L679.1,494l9.43,5.06ZM516.68,605.67,525,600.5l-9.41-5.09-8.35,5.17,9.42,5.09Zm113.51-81.39-8.37,5.22,9.43,5.09,8.36-5.17-9.42-5.14Zm3.48-21.65,8.35-5.18-9.46-5.05-8.28,5.16,9.39,5.07Zm-29.76,7.52-8.3,5.16,9.39,5.12,8.34-5.19-9.43-5.09ZM558.44,595l8.36-5.15-9.41-5.09-8.34,5.18,9.39,5.06ZM701.63,506.1l8.36-5.16-9.44-5.07L692.26,501l9.37,5.09ZM545.3,587.87l8.39-5.18-9.43-5.06-8.34,5.17,9.38,5.07Zm114.58-71.06,8.37-5.19-9.44-5.07-8.33,5.13,9.4,5.13ZM519.12,573.72l8.33-5.17L518,563.49l-8.31,5.16,9.44,5.07Zm10.66,39,8.35-5.2-9.38-5.09-8.34,5.18,9.37,5.11Zm16.84-67-8.27,5.19,9.41,5,8.32-5.17-9.46-5ZM673,523.82l8.3-5.11-9.41-5.08-8.33,5.16,9.44,5ZM584.71,533l-9.42-5.09L567,533.09l9.4,5.1,8.33-5.19Zm8.49,14.23,9.4,5.14,8.32-5.23-9.37-5.06-8.35,5.15Zm69.1-62.35,8.37-5.21-9.44-5.05-8.31,5.16,9.38,5.1Zm-89.41,75L564.55,565l9.42,5.1,8.32-5.17-9.4-5.1Zm7.26-47.76-8.33,5.21,6.53,3.5,8.34-5.2-6.54-3.51Zm-60.44,37.49-8.39,5.17,6.54,3.56,8.36-5.19-6.51-3.54Zm117.69-73-8.3,5.16,6.52,3.59,8.39-5.22-6.61-3.53Zm-35,21.72-8.37,5.21,6.61,3.49,8.28-5.16-6.52-3.54Zm12.71-7.88-8.37,5.21,6.58,3.53,8.36-5.2-6.57-3.54ZM484.67,571.31l-8.3,5.21,6.52,3.52,8.37-5.2-6.59-3.53ZM472,579.23l-8.38,5.15,6.54,3.58,8.33-5.21L472,579.23Zm33.18-13,8.33-5.15-6.55-3.58-8.32,5.19,6.54,3.54Zm143.2-88.86,8.31-5.17-6.56-3.51-8.31,5.16,6.56,3.52Zm-81,42.65-8.3,5.15,6.52,3.56,8.34-5.17L567.39,520Z" transform="translate(-374.49 -278.38)"/><polygon class="cls-12" points="211.54 242.87 220.97 247.95 229.33 242.79 219.9 237.71 211.54 242.87"/><polygon class="cls-12" points="278.42 201.39 287.81 206.5 296.18 201.29 286.73 196.23 278.42 201.39"/><polygon class="cls-12" points="240.21 225.09 249.61 230.18 257.98 225.02 248.54 219.95 240.21 225.09"/><polygon class="cls-12" points="266.42 239.27 275.85 244.34 284.2 239.16 274.78 234.07 266.42 239.27"/><polygon class="cls-12" points="267.31 195.44 273.86 198.96 282.17 193.78 275.62 190.28 267.31 195.44"/><polygon class="cls-12" points="254.6 203.31 261.13 206.9 269.51 201.68 262.9 198.15 254.6 203.31"/><polygon class="cls-12" points="268.85 207.32 278.24 212.41 286.61 207.24 277.18 202.14 268.85 207.32"/><polygon class="cls-12" points="291.46 208.46 300.97 213.54 309.28 208.37 299.84 203.28 291.46 208.46"/><polygon class="cls-12" points="259.31 213.24 268.72 218.31 277.05 213.13 267.66 208.06 259.31 213.24"/><polygon class="cls-12" points="232.29 217.2 238.87 220.72 247.23 215.52 240.66 211.99 232.29 217.2"/><polygon class="cls-12" points="281.95 214.42 291.42 219.51 299.71 214.3 290.27 209.19 281.95 214.42"/><polygon class="cls-12" points="304.61 215.56 314.03 220.63 322.36 215.45 312.94 210.4 304.61 215.56"/><polygon class="cls-12" points="249.78 219.18 259.17 224.24 267.52 219.07 258.06 214.01 249.78 219.18"/><polygon class="cls-12" points="272.41 220.33 281.84 225.41 290.2 220.26 280.75 215.12 272.41 220.33"/><polygon class="cls-12" points="219.57 225.07 226.19 228.57 234.47 223.41 227.94 219.87 219.57 225.07"/><polygon class="cls-12" points="295.06 221.48 304.49 226.56 312.84 221.39 303.41 216.28 295.06 221.48"/><polygon class="cls-12" points="317.76 222.63 327.14 227.71 335.5 222.56 326.06 217.49 317.76 222.63"/><polygon class="cls-12" points="262.85 226.23 272.33 231.32 280.62 226.16 271.2 221.07 262.85 226.23"/><polygon class="cls-12" points="285.51 227.41 294.95 232.46 303.31 227.29 293.89 222.19 285.51 227.41"/><polygon class="cls-12" points="230.66 231.03 240.07 236.1 248.41 230.9 239.03 225.85 230.66 231.03"/><polygon class="cls-12" points="253.29 232.18 262.76 237.24 271.09 232.08 261.64 226.98 253.29 232.18"/><polygon class="cls-12" points="275.98 233.3 285.38 238.42 293.75 233.24 284.31 228.17 275.98 233.3"/><polygon class="cls-12" points="197.33 238.91 203.86 242.4 212.2 237.21 205.66 233.69 197.33 238.91"/><polygon class="cls-12" points="221.12 236.92 230.51 242.04 238.85 236.86 229.42 231.76 221.12 236.92"/><polygon class="cls-12" points="243.77 238.1 253.21 243.18 261.57 238 252.12 232.9 243.77 238.1"/><polygon class="cls-12" points="289.1 240.4 298.54 245.44 306.84 240.32 297.42 235.25 289.1 240.4"/><polygon class="cls-12" points="184.59 246.76 191.11 250.32 199.46 245.15 192.9 241.6 184.59 246.76"/><polygon class="cls-12" points="234.23 243.99 243.69 249.13 251.99 243.93 242.55 238.86 234.23 243.99"/><polygon class="cls-12" points="256.88 245.16 266.3 250.25 274.68 245.06 265.25 239.98 256.88 245.16"/><polygon class="cls-12" points="201.98 248.8 211.43 253.9 219.77 248.68 210.37 243.61 201.98 248.8"/><polygon class="cls-12" points="279.53 246.33 288.92 251.43 297.31 246.21 287.92 241.15 279.53 246.33"/><polygon class="cls-12" points="247.32 251.12 256.75 256.2 265.11 251.03 255.69 245.9 247.32 251.12"/><polygon class="cls-12" points="192.49 254.71 201.89 259.81 210.21 254.61 200.79 249.53 192.49 254.71"/><polygon class="cls-12" points="215.14 255.87 224.61 260.97 232.91 255.79 223.46 250.67 215.14 255.87"/><polygon class="cls-12" points="237.79 257.04 247.2 262.1 255.58 256.92 246.17 251.84 237.79 257.04"/><polygon class="cls-12" points="182.92 260.68 192.32 265.73 200.69 260.53 191.28 255.45 182.92 260.68"/><polygon class="cls-12" points="205.62 261.78 215.04 266.86 223.36 261.74 213.88 256.6 205.62 261.78"/><polygon class="cls-12" points="228.23 262.94 237.67 268.04 246.06 262.85 236.63 257.76 228.23 262.94"/><polygon class="cls-12" points="173.35 266.59 182.81 271.65 191.14 266.45 181.69 261.38 173.35 266.59"/><polygon class="cls-12" points="196.03 267.73 205.42 272.81 213.79 267.6 204.34 262.54 196.03 267.73"/><polygon class="cls-12" points="218.7 268.85 228.1 273.98 236.43 268.75 227.05 263.7 218.7 268.85"/><polygon class="cls-12" points="163.85 272.5 173.27 277.54 181.59 272.37 172.13 267.31 163.85 272.5"/><polygon class="cls-12" points="136.82 276.35 143.37 279.92 151.73 274.72 145.21 271.19 136.82 276.35"/><polygon class="cls-12" points="186.47 273.62 195.91 278.75 204.26 273.54 194.81 268.45 186.47 273.62"/><polygon class="cls-12" points="209.1 274.81 218.55 279.88 226.9 274.67 217.5 269.63 209.1 274.81"/><polygon class="cls-12" points="154.26 278.39 163.68 283.51 172.07 278.33 162.6 273.22 154.26 278.39"/><polygon class="cls-12" points="176.97 279.56 186.4 284.62 194.7 279.48 185.27 274.4 176.97 279.56"/><polygon class="cls-12" points="124.12 284.27 130.67 287.81 138.99 282.67 132.44 279.08 124.12 284.27"/><polygon class="cls-12" points="199.59 280.74 209.01 285.79 217.35 280.64 207.97 275.54 199.59 280.74"/><polygon class="cls-12" points="144.76 284.33 154.15 289.42 162.5 284.25 153.06 279.16 144.76 284.33"/><polygon class="cls-12" points="167.39 285.5 176.83 290.58 185.16 285.39 175.71 280.31 167.39 285.5"/><polygon class="cls-12" points="190.05 286.63 199.47 291.73 207.8 286.55 198.4 281.46 190.05 286.63"/><polygon class="cls-12" points="135.19 290.27 144.63 295.33 152.95 290.16 143.5 285.11 135.19 290.27"/><polygon class="cls-12" points="157.83 291.41 167.28 296.51 175.63 291.31 166.19 286.21 157.83 291.41"/><polygon class="cls-12" points="180.5 292.57 189.92 297.64 198.27 292.45 188.84 287.39 180.5 292.57"/><polygon class="cls-12" points="101.88 298.13 108.39 301.65 116.76 296.45 110.18 292.93 101.88 298.13"/><polygon class="cls-12" points="125.63 296.22 135.06 301.3 143.43 296.1 133.99 291 125.63 296.22"/><polygon class="cls-12" points="148.28 297.32 157.74 302.39 166.07 297.22 156.61 292.14 148.28 297.32"/><polygon class="cls-12" points="116.08 302.13 125.52 307.19 133.83 301.99 124.45 296.92 116.08 302.13"/><polygon class="cls-12" points="89.11 306 95.64 309.57 103.98 304.37 97.49 300.85 89.11 306"/><polygon class="cls-12" points="138.73 303.26 148.2 308.34 156.55 303.16 147.07 298.11 138.73 303.26"/><polygon class="cls-12" points="161.42 304.41 170.81 309.49 179.19 304.31 169.76 299.25 161.42 304.41"/><polygon class="cls-12" points="106.55 307.99 116.01 313.1 124.28 307.93 114.9 302.87 106.55 307.99"/><polygon class="cls-12" points="184.06 305.53 193.48 310.63 287.78 252.15 278.33 247.07 184.06 305.53"/><polygon class="cls-12" points="129.22 309.19 138.68 314.28 147.01 309.1 137.55 303.99 129.22 309.19"/><polygon class="cls-12" points="151.85 310.33 161.29 315.45 169.64 310.22 160.23 305.17 151.85 310.33"/><polygon class="cls-12" points="97 313.98 106.39 319.04 114.77 313.89 105.38 308.8 97 313.98"/><polygon class="cls-12" points="174.55 311.52 183.94 316.57 192.3 311.43 182.9 306.34 174.55 311.52"/><polygon class="cls-12" points="119.69 315.11 129.13 320.16 137.44 315.01 128.01 309.92 119.69 315.11"/><polygon class="cls-12" points="142.33 316.29 151.75 321.34 160.07 316.18 150.69 311.07 142.33 316.29"/><polygon class="cls-12" points="164.96 317.42 174.38 322.5 182.78 317.29 173.34 312.22 164.96 317.42"/><polygon class="cls-12" points="110.1 321.04 119.56 326.13 127.92 320.94 118.43 315.84 110.1 321.04"/><polygon class="cls-12" points="132.77 322.19 142.19 327.29 150.53 322.11 141.12 317.02 132.77 322.19"/><polygon class="cls-12" points="155.43 323.35 164.84 328.42 173.19 323.25 163.8 318.16 155.43 323.35"/><polygon class="cls-12" points="123.23 328.11 132.63 333.19 141 328.01 131.56 322.92 123.23 328.11"/><polygon class="cls-12" points="145.92 329.23 155.28 334.34 163.63 329.15 154.26 324.06 145.92 329.23"/><polygon class="cls-12" points="136.31 335.17 145.73 340.29 154.09 335.05 144.71 329.99 136.31 335.17"/><polygon class="cls-12" points="224.65 249.97 234.08 255.04 242.44 249.84 233.04 244.76 224.65 249.97"/><polygon class="cls-12" points="170.94 298.51 180.37 303.56 188.76 298.39 179.31 293.33 170.94 298.51"/><polygon class="cls-12" points="298.6 234.46 308.04 239.58 316.41 234.38 306.96 229.3 298.6 234.46"/><polygon class="cls-12" points="308.17 228.57 317.57 233.64 325.95 228.47 316.53 223.39 308.17 228.57"/><path class="cls-15" d="M614.39,571.44c-2.88,1.8-2.85,4.61.18,6.23l19.73,10.58a12,12,0,0,0,10.76-.27l25.81-16.06c2.87-1.81,2.81-4.6-.2-6.23L651,555.05a12.24,12.24,0,0,0-10.75.34Z" transform="translate(-374.49 -278.38)"/><path class="cls-11" d="M614.42,572.38c-2.88,1.81-2.85,4.61.18,6.18l19.73,10.6a11.72,11.72,0,0,0,10.76-.28l25.81-16c2.87-1.8,2.8-4.6-.2-6.26L651,556a11.92,11.92,0,0,0-10.75.34Z" transform="translate(-374.49 -278.38)"/><g class="cls-16"><path class="cls-12" d="M623.28,447.66c5.55-3.45,10.27.45,14.79,11.46L547.4,515c17.94-11.69,15.42-38.39,19.24-54.73,1.81-7.76,6.42-14.12,11.15-17.06,5.31-3.3,10.78-2.24,12.56,6.11,3.36,15.77,3.62,36.79,12.35,31.38s11.58-24.59,17.79-30.79A16,16,0,0,1,623.28,447.66Z" transform="translate(-374.49 -278.38)"/><path class="cls-12" d="M525.79,440.54c14.33,11.16,7,82.5,20.73,75,0,0-67.34,41.48-63.06,38.82,6.34-3.94,12.92-14.59,14.06-37.31,1.55-31.26,9.87-70.36,20.79-77.14C520.69,438.47,523.2,438.53,525.79,440.54Z" transform="translate(-374.49 -278.38)"/></g><path class="cls-17" d="M580.74,476.19c5.75-3.58,10.64.47,15.33,11.88l-94,57.92c18.58-12.11,16-39.78,19.92-56.71,1.89-8,6.67-14.63,11.57-17.67,5.5-3.42,11.17-2.33,13,6.32,3.49,16.35,3.76,38.13,12.8,32.52s12-25.47,18.44-31.91A16.14,16.14,0,0,1,580.74,476.19Z" transform="translate(-374.49 -278.38)"/><path class="cls-17" d="M479.72,468.82c14.84,11.55,7.22,85.47,21.49,77.73,0,0-69.78,43-65.34,40.23,6.56-4.08,13.38-15.12,14.56-38.66,1.6-32.39,10.22-72.91,21.54-79.92C474.44,466.66,477.05,466.72,479.72,468.82Z" transform="translate(-374.49 -278.38)"/><path class="cls-17" d="M631.54,374.8c14.85,11.56,7.23,85.48,21.49,77.74,0,0-69.77,43-65.34,40.22,6.56-4.07,13.4-15.12,14.56-38.65,1.6-32.39,10.23-72.91,21.55-79.93C626.27,372.65,628.87,372.71,631.54,374.8Z" transform="translate(-374.49 -278.38)"/><g class="cls-4"><path class="cls-18" d="M642.74,528.75c24,11.22,24.7,30.62,1.66,43.36s-61.14,13.92-85.11,2.7-24.7-30.64-1.65-43.35S618.79,517.52,642.74,528.75Z" transform="translate(-374.49 -278.38)"/><g class="cls-19"><path class="cls-20" d="M650.56,493.22c28.56,12.6,29.4,34.46,1.89,48.85s-73,15.83-101.52,3.23-29.4-34.47-1.89-48.85S622,480.62,650.56,493.22Z" transform="translate(-374.49 -278.38)"/></g><g class="cls-21"><path class="cls-22" d="M658.39,457.69c33.15,14,34.09,38.3,2.11,54.35s-84.78,17.72-117.94,3.75-34.1-38.31-2.11-54.35S625.24,443.72,658.39,457.69Z" transform="translate(-374.49 -278.38)"/></g><g class="cls-16"><path class="cls-23" d="M666.21,422.16C704,437.5,705,464.29,668.55,482S572,501.63,534.2,486.28s-38.8-42.14-2.35-59.85S628.46,406.81,666.21,422.16Z" transform="translate(-374.49 -278.38)"/></g><g class="cls-24"><path class="cls-25" d="M674,386.63c42.33,16.72,43.49,46,2.56,65.35s-108.42,21.51-150.77,4.79-43.49-46-2.57-65.34S631.69,369.91,674,386.63Z" transform="translate(-374.49 -278.38)"/></g><g class="cls-26"><path class="cls-27" d="M681.86,351.1c46.93,18.09,48.19,49.81,2.79,70.85s-120.24,23.41-167.18,5.31-48.2-49.81-2.8-70.84S634.91,333,681.86,351.1Z" transform="translate(-374.49 -278.38)"/></g><g class="cls-28"><path class="cls-29" d="M689.68,315.57c51.53,19.47,52.89,53.65,3,76.35s-132.06,25.3-183.6,5.83-52.89-53.65-3-76.34S638.14,296.1,689.68,315.57Z" transform="translate(-374.49 -278.38)"/></g></g><path class="cls-30" d="M685.09,425.2c1.06-36.6-47-107-124.54-77.09-44.36,17.13-54,42.76-5.27,76.09,0,0,.1,19.49,37.42,15.22,0,0,24-1.78,40.71,10C651.05,461.89,684.61,441.72,685.09,425.2Z" transform="translate(-374.49 -278.38)"/><path class="cls-17" d="M539.06,367.73c.14-.13,12.08-13,28.9-14.31a160.28,160.28,0,0,1,18.12.14c13.95.6,30.85.63,44.5-5.62l-3.73-1.55c-13,5.94-27,4.69-40.63,4.09a163.93,163.93,0,0,0-18.48-.12c-18.08,1.36-30.43,14.73-31,15.29Z" transform="translate(-374.49 -278.38)"/><path class="cls-17" d="M589.65,351.86l2.62-.51c0,1.14-.1-1.31.11-1.68.6-1.08,5.65-5,19-7.55l-5-.83c-11.49,2.2-15.56,3.9-17,7.39A3.42,3.42,0,0,0,589.65,351.86Z" transform="translate(-374.49 -278.38)"/><path class="cls-17" d="M630.9,373.64l3-2.3c-5-6.88-18.4-16.45-26.13-19.51-1.6-.64-.57-.2-2.22-.89l-3.83,1.75c1.64.7,3.3,1.35,4.9,2C614.22,357.71,626.43,367.48,630.9,373.64Z" transform="translate(-374.49 -278.38)"/><path class="cls-17" d="M675.59,390.8l-1.78-3.21a71.21,71.21,0,0,1-12.49-3.18c-3.33-1.11-5.39-3.48-7.58-6-2.62-3-5.59-6.4-11-7.69a14,14,0,0,0-15.36,6.17l2.68,1.54a10.83,10.83,0,0,1,12-4.71c4.48,1.06,6.87,3.8,9.41,6.72,2.37,2.72,4.82,5.53,9,6.89A85.73,85.73,0,0,0,675.59,390.8Z" transform="translate(-374.49 -278.38)"/><path class="cls-17" d="M658.86,384.83c7.34-15.34-15.27-26.77-16.23-27.25l-1.38,2.76c.21.1,20.88,10.55,14.84,23.15Z" transform="translate(-374.49 -278.38)"/><path class="cls-17" d="M672.36,444.36c.62-.6,13.75-12.3,7.34-24.28-2.9-5.42-6.77-8.93-9.86-11.75-3.37-3.06-5.8-5.28-5.82-8.48,0-5.12-4.95-9.87-9.78-11.92s-9.06-1.53-12,1.27l2.14,2.22c2.8-2.71,7-1.36,8.62-.66,4.42,1.87,7.9,5.87,7.91,9.1,0,4.56,3.18,7.43,6.84,10.75,3.06,2.8,6.55,6,9.21,10.93,5.31,9.92-9.62,25.67-9.75,25.8Z" transform="translate(-374.49 -278.38)"/><path class="cls-17" d="M682.36,407l-1.43-4.3c-7.83-6.06-17.85-1.58-18.41-1.34l1.2,2.83C663.82,404.18,676.72,399.49,682.36,407Z" transform="translate(-374.49 -278.38)"/><path class="cls-17" d="M662.54,439c12.63-12.48,11.84-25,11.8-25.05l-3.24-.55h0l.41,1.74c.13.33-3.48,13.49-10.6,20.2Z" transform="translate(-374.49 -278.38)"/><path class="cls-31" d="M633.41,449.41c-16.66-11.77-40.71-10-40.71-10-37.32,4.27-37.42-15.22-37.42-15.22-31.2-21.32-38.44-39.48-28-54.29a109.4,109.4,0,0,1,21.61-10.85c77.53-29.93,125.61,40.5,124.54,77.1a18.33,18.33,0,0,1-3.58,9.61C658.51,453.07,643.4,456.49,633.41,449.41Z" transform="translate(-374.49 -278.38)"/><path class="cls-32" d="M662.55,442.05c1.06-36.59-37.68-104-124.55-77.09-18.21,5.64-54,42.76-5.27,76.09,0,0,.11,19.49,37.41,15.22,0,0,21.62,5.27,40.29,18.13C637.56,493.09,662.06,458.57,662.55,442.05Z" transform="translate(-374.49 -278.38)"/><path class="cls-17" d="M530,439.08l2.77,2c-.05-.08-3.48-9-.66-13.88,1.49-2.54,4.94-3.8,10.23-3.78h2.24c12.48.09,20.71.14,24.63-4.82,2.58-3.27,2.89-8.2,1-16-3.48-14.2-3.07-24,1.19-29.23,2.88-3.5,7.71-5.11,14.35-4.83,13.5.6,18.75,9.38,21.57,36.1.58,5.52,5.72,11.3,13.09,14.71,5.76,2.68,18.29,9.37,37.4-3.62l-1.13-2.91c-17.82,12.1-29.69,6.19-35,3.74-7.29-3.39-11-8.58-11.34-12.24-2.59-24.61-7.27-38.09-24.48-38.85-7.66-.33-13.35,1.66-16.86,5.94-5,6.08-5.57,16.52-1.8,31.92,1.64,6.7,1.51,10.95-.4,13.37-3,3.78-11,3.74-22.19,3.65h-2.24c-6.45,0-10.83,1.75-12.91,5.31C525.7,432,529.72,438.69,530,439.08Z" transform="translate(-374.49 -278.38)"/><path class="cls-17" d="M579.5,439.67l3-.39c-2.72-21.25-30.47-19-30.75-18.95l.28,3.07C553.09,423.31,577.16,421.36,579.5,439.67Z" transform="translate(-374.49 -278.38)"/><path class="cls-17" d="M565.79,396.9l3-.7c-.08-.26-6.32-25.68-30.76-23.73l.24,3.06C560.19,373.73,565.57,396,565.79,396.9Z" transform="translate(-374.49 -278.38)"/><path class="cls-17" d="M536.74,391.78c3.11-11.94,17.3-12.63,17.45-12.63l-.12-3.07c-.17,0-16.63.8-20.3,14.93Z" transform="translate(-374.49 -278.38)"/><path class="cls-17" d="M630.26,444.44l1-2.9C601.15,430.87,609.62,404,610,402.86l-2.92-1C607,402.2,597.31,432.78,630.26,444.44Z" transform="translate(-374.49 -278.38)"/><path class="cls-17" d="M613.91,453.52l2-2.34c-8.9-7.68-2.69-21.18-2.62-21.31l-2.78-1.32C610.2,429.19,603.26,444.32,613.91,453.52Z" transform="translate(-374.49 -278.38)"/><path class="cls-17" d="M605.24,390.06l2.44-1.86c-.1-.13-10.85-14.05-24.22-8.23l1.22,2.82C595.86,377.94,605.15,389.94,605.24,390.06Z" transform="translate(-374.49 -278.38)"/><path class="cls-17" d="M626.18,470.1c14-1.73,14.11-12.54,16.85-22.47,1-3.55,1.55-7.11,3.18-9.51,5.2-7.65,10-8.26,15.3-8.7l-.61-3c-.72,0-12-.64-17.45,10.37a58.49,58.49,0,0,0-3.39,10.05c-2.75,10-8.1,21.57-20,23.05Z" transform="translate(-374.49 -278.38)"/><path class="cls-17" d="M619.58,418.17l3.06-.37c-1.41-11.73,18-14.9,18.2-14.93l-.47-3C639.45,400,617.82,403.52,619.58,418.17Z" transform="translate(-374.49 -278.38)"/><path class="cls-17" d="M625.94,407.29l2.56-1.71c-5.88-8.92,2.66-21,2.74-21.08l-2.48-1.8C628.35,383.26,618.89,396.6,625.94,407.29Z" transform="translate(-374.49 -278.38)"/><path class="cls-17" d="M535.9,423l2.72-1.41c-3-5.89-4.71-7-10.29-10.61-1.11-.71-2.38-1.54-3.87-2.54-7.76-5.2-2.86-15.81-2.8-15.91l-2.78-1.32c-2.15,4.51-4.09,14.46,3.87,19.79,1.5,1,2.79,1.84,3.91,2.56C532.11,417.11,533.24,417.85,535.9,423Z" transform="translate(-374.49 -278.38)"/><path class="cls-17" d="M516.31,413.93a16.4,16.4,0,0,0,8.22-3l-1.84-2.48c-.05,0-4.14,3-8.07,2.24-2-.38-5.14-4.06-6.45-6.2l.43,4.82c1.79,2.91,2.61,3.85,5.45,4.4A10.88,10.88,0,0,0,516.31,413.93Z" transform="translate(-374.49 -278.38)"/><path class="cls-17" d="M579.59,455.6c.35,0,.55-.26.85-.59,1-1.15-.13-2.2-.63-2.64l0,.05c-.7-.56-2.54-2.12-7.49-6.39-2.49-2.15-3.7-4.48-3.58-6.92.26-5.51,6.77-10.17,6.84-10.21l-1.78-2.52c-.32.23-7.8,5.59-8.14,12.57-.16,3.45,1.4,6.6,4.64,9.41,4,3.4,6.19,5.32,7.54,6.32.08.09.26.24.33.32l0,0A2.77,2.77,0,0,0,579.59,455.6Z" transform="translate(-374.49 -278.38)"/><path class="cls-17" d="M554,446.25c1.57-2.66,3.51-4.3,5.77-4.87a9.76,9.76,0,0,1,6.73,1.06l1.61-2.63a12.81,12.81,0,0,0-9.08-1.41c-3.1.77-5.68,2.9-7.68,6.3Z" transform="translate(-374.49 -278.38)"/><path class="cls-17" d="M570.8,409.28c.06-.08,7.07-8,14-8.18h.08a8.47,8.47,0,0,1,6.54,2.85l2.22-2.13a11.63,11.63,0,0,0-8.84-3.8c-8.22.29-16,8.86-16.34,9.23Z" transform="translate(-374.49 -278.38)"/><path class="cls-17" d="M544,403.4c8.18-8.32-.09-22-.43-22.6l-2.63,1.6c.07.12,7.35,12.25.87,18.83Z" transform="translate(-374.49 -278.38)"/><path class="cls-17" d="M635.65,461.72l2.09-2.25a14,14,0,0,0-16.1-1.4l1.47,2.7A10.83,10.83,0,0,1,635.65,461.72Z" transform="translate(-374.49 -278.38)"/><path class="cls-17" d="M598.51,444.74c2.57-5.22,10.92-4.66,11-4.65l.24-3.06c-.43,0-10.52-.75-14,6.36Z" transform="translate(-374.49 -278.38)"/><g class="cls-33"><path class="cls-5" d="M631.9,448.6A10.39,10.39,0,1,0,642,437.89,10.39,10.39,0,0,0,631.9,448.6Z" transform="translate(-374.49 -278.38)"/><path class="cls-34" d="M633.17,448.66a9.15,9.15,0,1,0,8.85-9.44A9.16,9.16,0,0,0,633.17,448.66Z" transform="translate(-374.49 -278.38)"/><path class="cls-35" d="M634.44,448.72a7.91,7.91,0,1,0,7.66-8.16A7.92,7.92,0,0,0,634.44,448.72Z" transform="translate(-374.49 -278.38)"/><path class="cls-36" d="M635.71,448.78a6.68,6.68,0,1,0,6.46-6.89A6.69,6.69,0,0,0,635.71,448.78Z" transform="translate(-374.49 -278.38)"/><path class="cls-37" d="M637,448.85a5.45,5.45,0,1,0,5.26-5.63A5.44,5.44,0,0,0,637,448.85Z" transform="translate(-374.49 -278.38)"/><path class="cls-38" d="M638.24,448.91a4.22,4.22,0,1,0,4.07-4.35A4.21,4.21,0,0,0,638.24,448.91Z" transform="translate(-374.49 -278.38)"/><path class="cls-39" d="M639.51,449a3,3,0,1,0,2.88-3.08A3,3,0,0,0,639.51,449Z" transform="translate(-374.49 -278.38)"/></g><g class="cls-33"><path class="cls-5" d="M517.75,410.72a10.38,10.38,0,1,0,10-10.71A10.38,10.38,0,0,0,517.75,410.72Z" transform="translate(-374.49 -278.38)"/><path class="cls-34" d="M519,410.78a9.14,9.14,0,1,0,8.84-9.43A9.15,9.15,0,0,0,519,410.78Z" transform="translate(-374.49 -278.38)"/><path class="cls-35" d="M520.28,410.84a7.91,7.91,0,1,0,7.66-8.16A7.91,7.91,0,0,0,520.28,410.84Z" transform="translate(-374.49 -278.38)"/><path class="cls-36" d="M521.55,410.9A6.68,6.68,0,1,0,528,404,6.67,6.67,0,0,0,521.55,410.9Z" transform="translate(-374.49 -278.38)"/><path class="cls-37" d="M522.82,411a5.45,5.45,0,1,0,5.26-5.61A5.43,5.43,0,0,0,522.82,411Z" transform="translate(-374.49 -278.38)"/><path class="cls-38" d="M524.08,411a4.22,4.22,0,1,0,4.07-4.34A4.21,4.21,0,0,0,524.08,411Z" transform="translate(-374.49 -278.38)"/><path class="cls-39" d="M525.35,411.09a3,3,0,1,0,2.87-3.07A3,3,0,0,0,525.35,411.09Z" transform="translate(-374.49 -278.38)"/></g><g class="cls-33"><path class="cls-5" d="M558.61,402.93a10.39,10.39,0,1,0,10.06-10.71A10.4,10.4,0,0,0,558.61,402.93Z" transform="translate(-374.49 -278.38)"/><path class="cls-34" d="M559.88,403a9.15,9.15,0,1,0,8.86-9.43A9.17,9.17,0,0,0,559.88,403Z" transform="translate(-374.49 -278.38)"/><path class="cls-35" d="M561.15,403.05a7.92,7.92,0,1,0,7.66-8.16A7.91,7.91,0,0,0,561.15,403.05Z" transform="translate(-374.49 -278.38)"/><path class="cls-36" d="M562.42,403.12a6.68,6.68,0,1,0,6.46-6.9A6.68,6.68,0,0,0,562.42,403.12Z" transform="translate(-374.49 -278.38)"/><path class="cls-37" d="M563.69,403.18a5.45,5.45,0,1,0,5.26-5.62A5.44,5.44,0,0,0,563.69,403.18Z" transform="translate(-374.49 -278.38)"/><path class="cls-38" d="M565,403.24a4.22,4.22,0,1,0,4.08-4.35A4.22,4.22,0,0,0,565,403.24Z" transform="translate(-374.49 -278.38)"/><path class="cls-39" d="M566.22,403.3a3,3,0,0,0,6-.19,3,3,0,1,0-6,.19Z" transform="translate(-374.49 -278.38)"/></g><g class="cls-33"><path class="cls-5" d="M609.64,350.81a10.38,10.38,0,1,0,10-10.71A10.39,10.39,0,0,0,609.64,350.81Z" transform="translate(-374.49 -278.38)"/><path class="cls-34" d="M610.91,350.87a9.14,9.14,0,1,0,8.84-9.43A9.15,9.15,0,0,0,610.91,350.87Z" transform="translate(-374.49 -278.38)"/><path class="cls-35" d="M612.17,350.94a7.91,7.91,0,1,0,7.65-8.17A7.91,7.91,0,0,0,612.17,350.94Z" transform="translate(-374.49 -278.38)"/><path class="cls-36" d="M613.44,351a6.68,6.68,0,1,0,6.46-6.89A6.68,6.68,0,0,0,613.44,351Z" transform="translate(-374.49 -278.38)"/><path class="cls-37" d="M614.71,351.06a5.45,5.45,0,1,0,5.26-5.62A5.43,5.43,0,0,0,614.71,351.06Z" transform="translate(-374.49 -278.38)"/><path class="cls-38" d="M616,351.12a4.22,4.22,0,1,0,4.07-4.34A4.21,4.21,0,0,0,616,351.12Z" transform="translate(-374.49 -278.38)"/><path class="cls-39" d="M617.24,351.18a3,3,0,1,0,2.87-3.07A3,3,0,0,0,617.24,351.18Z" transform="translate(-374.49 -278.38)"/></g><g class="cls-33"><path class="cls-5" d="M650.24,378.79a10.38,10.38,0,1,0,10-10.7A10.4,10.4,0,0,0,650.24,378.79Z" transform="translate(-374.49 -278.38)"/><path class="cls-34" d="M651.51,378.85a9.15,9.15,0,1,0,8.85-9.43A9.14,9.14,0,0,0,651.51,378.85Z" transform="translate(-374.49 -278.38)"/><path class="cls-35" d="M652.78,378.91a7.91,7.91,0,1,0,7.65-8.16A7.91,7.91,0,0,0,652.78,378.91Z" transform="translate(-374.49 -278.38)"/><path class="cls-36" d="M654,379a6.68,6.68,0,1,0,6.47-6.89A6.68,6.68,0,0,0,654,379Z" transform="translate(-374.49 -278.38)"/><path class="cls-37" d="M655.31,379a5.45,5.45,0,1,0,5.27-5.62A5.45,5.45,0,0,0,655.31,379Z" transform="translate(-374.49 -278.38)"/><path class="cls-38" d="M656.58,379.1a4.22,4.22,0,1,0,4.07-4.35A4.21,4.21,0,0,0,656.58,379.1Z" transform="translate(-374.49 -278.38)"/><path class="cls-39" d="M657.84,379.17a3,3,0,0,0,6-.19,3,3,0,1,0-6,.19Z" transform="translate(-374.49 -278.38)"/></g><path class="cls-40" d="M814.44,431.63c-.64-.7-1.31-1.35-2-2-.19-.17-.37-.35-.56-.51s-.61-.55-.92-.82l-.66-.55-1-.77-.65-.49c-.37-.27-.74-.51-1.11-.76l-.56-.37c-.55-.34-1.13-.68-1.7-1s-1.26-.64-1.88-.91l-.48-.2c-.34-.14-.67-.25-1-.37-.49-.17-1-.32-1.44-.44-.3-.08-.6-.16-.91-.22l-.81-.16c-.38,0-.73-.1-1.09-.13l-.59,0c-.44,0-.88,0-1.29,0h-.31a11.56,11.56,0,0,0-1.47.24l-.36.09c-.38.1-.74.22-1.09.35l-.35.14a8.26,8.26,0,0,0-1.29.66l20.11-12.56.12-.06a7.23,7.23,0,0,1,1-.53l.19-.08.34-.13c.18-.06.34-.14.51-.2a5.66,5.66,0,0,1,.59-.15l.35-.1a1.16,1.16,0,0,0,.18,0,11.94,11.94,0,0,1,1.22-.19h.39c.3,0,.62-.05.94,0l.33,0,.62.05a5.27,5.27,0,0,1,.56,0c.16,0,.34.06.5.08l.83.16c.16,0,.3,0,.45.08s.31.1.46.14c.46.12.93.27,1.42.44.18.06.34.09.52.16l.52.21c.14.07.31.13.47.2.61.27,1.23.56,1.88.91s1.13.64,1.69,1c.19.11.37.25.57.37l1.11.75.65.49,1,.76.66.57c.32.26.62.53.92.8.12.1.23.19.33.29s.15.16.23.23c.65.61,1.29,1.24,1.9,1.89l8.92-5.56.15-.09a11.34,11.34,0,0,1,1.38-.73,2.52,2.52,0,0,1,.29-.12l.47-.18.7-.28.86-.22c.16,0,.31-.09.48-.12l.23-.07c.57-.11,1.14-.2,1.73-.26h.12c.18,0,.34,0,.51,0,.42,0,.84-.06,1.28-.05l.48,0c.31,0,.6,0,.9.06s.54,0,.82.06l.69.12c.41.06.82.14,1.24.23.23,0,.44.06.68.11.41.1.84.22,1.26.35a3,3,0,0,1,.32.09c.64.19,1.28.4,1.94.65l.6.25.62.26c.32.13.64.26,1,.41l6.93-4.32.18-.11.23-.12c.39-.23.79-.44,1.2-.64.09,0,.15-.09.23-.12l.2-.08a14.65,14.65,0,0,1,1.51-.58l0,0h0a14.43,14.43,0,0,1,1.66-.45l.19-.05.28,0c.49-.09,1-.17,1.49-.22a2,2,0,0,1,.26,0h.09c.63,0,1.28-.07,1.92-.07h.2l.26,0a21.6,21.6,0,0,1,2.23.15h0a27,27,0,0,1,2.79.51l.17,0,.1,0c.6.14,1.21.31,1.82.5l.32.11c.52.16,1,.34,1.55.53l.18.06.36.15c.56.21,1.11.45,1.67.7.2.09.4.17.6.27.73.34,1.45.69,2.19,1.09,1.07.57,2.13,1.21,3.2,1.88.34.22.67.46,1,.7.71.46,1.41.95,2.09,1.46.41.3.81.61,1.2.92.62.49,1.24,1,1.85,1.5l1.22,1.06c.3.28.61.53.91.8s.38.39.58.57c.87.83,1.73,1.69,2.57,2.58.23.24.48.46.7.71s.19.21.29.32c.46.5.88,1,1.32,1.51s.78.87,1.17,1.33c.1.14.21.29.33.43l.93,1.17c.35.45.72.89,1.06,1.36.2.24.37.51.55.76l.81,1.13c.22.32.47.63.69,1s.6.93.91,1.39l.63.95c.09.16.19.3.29.45.58.92,1.13,1.85,1.67,2.78l.07.14c.08.13.15.27.22.39.42.76.84,1.51,1.25,2.28.13.26.25.53.39.79l.5,1c.18.36.37.7.53,1.05.26.56.51,1.14.75,1.7.14.3.27.59.4.89.06.12.12.25.17.38.44,1,.85,2.08,1.24,3.12h0l0,.14c.08.22.14.45.22.68.31.85.61,1.7.88,2.56.05.14.07.29.12.44.18.59.33,1.17.5,1.76s.32,1.09.45,1.64c0,.15.06.3.1.45.27,1.16.49,2.31.7,3.45.05.28.12.57.17.84,0,.05,0,.1,0,.14.21,1.37.38,2.74.48,4.09.44.38.88.76,1.31,1.17a.8.8,0,0,1,.13.13c.72.66,1.4,1.35,2.06,2.07a1.07,1.07,0,0,1,.16.14c.15.16.28.33.43.5.35.39.71.79,1.05,1.19a4.12,4.12,0,0,0,.28.31l.43.56c.25.3.49.61.72.92l.3.37.44.62.59.82.25.35c.17.25.33.51.5.77l.48.72c0,.08.11.16.16.25.23.36.43.73.66,1.09l.33.54a.3.3,0,0,0,.06.11c.33.58.65,1.16,1,1.76,0,0,0,0,0,.05l.18.35c.23.46.47.92.69,1.39l.09.21c.12.25.22.5.34.75s.27.59.4.89c0,.11.08.23.13.34l.36.9c.08.23.19.47.28.71s.1.29.15.45c.12.33.23.68.34,1s.16.43.23.64.07.28.11.42c.14.44.26.88.37,1.32.06.22.13.42.18.64a2.27,2.27,0,0,0,.06.25c.2.89.39,1.77.53,2.65,0,0,0,0,0,.05.06.43.11.87.16,1.29q.06.36.09.72c.07.69.12,1.38.14,2.05.2,7.18-1.43,13.15-5.34,15.59l-20.12,12.56c3.93-2.44,5.56-8.41,5.35-15.59,0-.67-.07-1.35-.14-2,0-.27-.07-.54-.11-.81,0-.42-.09-.84-.16-1.26-.14-.88-.33-1.76-.54-2.65-.07-.29-.15-.59-.23-.89s-.24-.88-.37-1.32-.22-.71-.34-1.06-.23-.69-.35-1-.28-.76-.43-1.13-.22-.6-.35-.9-.35-.83-.54-1.25l-.33-.74c-.24-.51-.5-1-.75-1.53l-.22-.43c-.33-.64-.68-1.29-1-1.92-.11-.16-.21-.33-.31-.51-.27-.45-.55-.91-.83-1.35l-.47-.73c-.26-.37-.51-.76-.76-1.13l-.58-.81c-.25-.33-.49-.66-.75-1s-.48-.63-.73-.94-.46-.57-.7-.85-.69-.81-1.05-1.21c-.19-.2-.39-.42-.58-.65-.67-.7-1.36-1.39-2.07-2.06-.48-.44-.95-.87-1.44-1.29-.1-1.35-.27-2.73-.49-4.1-.05-.3-.12-.6-.18-.91-.2-1.16-.43-2.33-.71-3.51-.16-.69-.36-1.38-.54-2.07s-.32-1.19-.51-1.79c-.29-1-.61-1.93-.95-2.9-.1-.26-.19-.52-.27-.79-.45-1.2-.94-2.41-1.44-3.61-.15-.32-.29-.62-.42-.94-.4-.9-.82-1.79-1.26-2.68-.17-.36-.34-.71-.53-1.07-.5-1-1-2-1.58-3-.09-.16-.18-.34-.28-.5-.64-1.12-1.31-2.24-2-3.33l-.64-1c-.52-.79-1-1.56-1.58-2.33l-.83-1.15c-.52-.71-1.06-1.4-1.59-2.1-.32-.39-.63-.8-.95-1.19-.48-.6-1-1.17-1.48-1.74s-.88-1-1.33-1.51-.67-.7-1-1c-.85-.89-1.7-1.75-2.58-2.58-.49-.47-1-.92-1.47-1.36l-1.22-1.07c-.62-.51-1.23-1-1.86-1.5-.39-.31-.78-.63-1.18-.92-.7-.51-1.4-1-2.11-1.47l-1-.69c-1.06-.67-2.12-1.31-3.21-1.88-.73-.39-1.45-.75-2.17-1.09l-.62-.28c-.56-.24-1.1-.47-1.65-.68l-.56-.23c-.51-.19-1-.36-1.53-.52l-.34-.11c-.6-.19-1.22-.35-1.81-.49l-.28-.07a25.76,25.76,0,0,0-2.8-.5c-.76-.09-1.51-.13-2.25-.15h-.45c-.66,0-1.3,0-1.93.07l-.32,0-.37.06-12.08,7.54c-.91-.47-1.8-.88-2.69-1.25-.21-.09-.41-.18-.63-.26-.86-.34-1.7-.65-2.54-.9a2.8,2.8,0,0,0-.31-.09c-.66-.19-1.31-.34-1.94-.47-.42-.08-.84-.16-1.25-.22l-.33,0-17,10.61c-.34-.44-.69-.87-1-1.28s-.81-1-1.24-1.42C814.65,431.86,814.55,431.74,814.44,431.63Z" transform="translate(-374.49 -278.38)"/><path class="cls-2" d="M872.88,423.71c-12.74-6.83-23.61-4.91-29.16,3.58C830.8,420.56,820.2,424,817,434.67a38.12,38.12,0,0,0-11.72-10.28c-11.32-6.07-20.19-.64-19.82,12.13.35,12.06,8.84,26.35,19.31,33l101.47,54.63.82.43c12.54,6.24,17.51-2.48,17.17-14.71-.33-11-7.16-23.81-16.17-31.48C906.49,457.54,891.12,433.47,872.88,423.71Z" transform="translate(-374.49 -278.38)"/><path class="cls-5" d="M728.11,564.24c-18.48,10.72-18.41,27.85-.21,38.43s47.86,10.73,66.36,0c18.34-10.58,18.44-27.83.22-38.43S746.44,553.65,728.11,564.24Z" transform="translate(-374.49 -278.38)"/><g class="cls-19"><path class="cls-41" d="M726.12,534.58c-19.58,11.35-19.51,29.52-.22,40.74s50.74,11.37,70.35,0c19.44-11.22,19.54-29.5.23-40.74S745.56,523.35,726.12,534.58Z" transform="translate(-374.49 -278.38)"/></g><g class="cls-21"><path class="cls-42" d="M724.14,504.92c-20.7,12-20.62,31.19-.24,43.05s53.62,12,74.34,0c20.55-11.86,20.65-31.17.25-43.05S744.67,493.05,724.14,504.92Z" transform="translate(-374.49 -278.38)"/></g><g class="cls-16"><path class="cls-43" d="M722.15,475.27c-21.81,12.62-21.72,32.85-.25,45.36s56.5,12.63,78.33,0c21.65-12.51,21.76-32.85.26-45.36S743.79,462.75,722.15,475.27Z" transform="translate(-374.49 -278.38)"/></g><g class="cls-24"><path class="cls-44" d="M720.16,445.61c-22.92,13.25-22.83,34.53-.26,47.67s59.38,13.27,82.32,0c22.75-13.14,22.87-34.53.27-47.67S742.9,432.45,720.16,445.61Z" transform="translate(-374.49 -278.38)"/></g><g class="cls-26"><path class="cls-45" d="M718.17,416c-24,13.89-23.93,36.2-.27,50s62.26,13.91,86.31,0c23.85-13.78,24-36.2.28-50S742,402.15,718.17,416Z" transform="translate(-374.49 -278.38)"/></g><g class="cls-28"><path class="cls-46" d="M716.19,386.29c-25.14,14.53-25,37.87-.29,52.3s65.13,14.54,90.3,0c24.95-14.43,25.08-37.88.29-52.3S741.13,371.85,716.19,386.29Z" transform="translate(-374.49 -278.38)"/></g><path class="cls-47" d="M765.6,597.78s3.35,5.36-1.29,6.64-3.25-1.62-13.34.93-8.92-3.13-8.69-4.3,4.62-2.78,6.84-3.36,11-2.61,11-2.61l5.39,1Z" transform="translate(-374.49 -278.38)"/><path class="cls-48" d="M751.07,403s-.79-7-1.54-8.36-3.78-7.06-8.94-7.95c-2.79-.48-1.22,2.46,1.35,5.75,1.2,1.5,2.38,2.35,2,5.54a21.35,21.35,0,0,0,.87,7.49C745.35,407.1,751.07,403,751.07,403Z" transform="translate(-374.49 -278.38)"/><path class="cls-49" d="M744.66,405.16c-.53-1.64-.81-5.09-2.17-7-1.6-2.27.65-4.25-.55-5.75-2-2.56-3.37-5-2.59-5.65,1.39,2.06,4.74,1.41,6.49,7.62a41.1,41.1,0,0,1,.72,10.66C745.24,405.5,744.86,405.8,744.66,405.16Z" transform="translate(-374.49 -278.38)"/><path class="cls-48" d="M746.8,404.88s-4.88-6.31-6.08-8.43-1.15-4.12-.57-3.95,4.46,6.27,6.18,4.33C747.24,395.82,746.31,403.82,746.8,404.88Z" transform="translate(-374.49 -278.38)"/><path class="cls-50" d="M795.09,434.56s-.6,8.83-11.75,5.76-31.25-11.25-33.82-16.62-5.19-19.84-5.19-19.84,5.43,1.81,7.47-2.62l8.82,17.92S795.65,428.4,795.09,434.56Z" transform="translate(-374.49 -278.38)"/><path class="cls-50" d="M795.09,434.56c.56-6.16-34.47-15.4-34.47-15.4l-8.82-17.92a4.8,4.8,0,0,1-3.22,2.76c.92,4.59,2.75,12.81,4.55,16.57C755.7,426,775.8,434.13,787,437.2c3.24.88,5.57.76,7.27.15A7.61,7.61,0,0,0,795.09,434.56Z" transform="translate(-374.49 -278.38)"/><path class="cls-47" d="M777.07,577.62s-4.2.64-3.18,3,5.83,6.1,6.46,7.62,4.58,7,5.85,6.47,4.56.26,4.19-6S782.64,577.37,777.07,577.62Z" transform="translate(-374.49 -278.38)"/><path class="cls-50" d="M789.93,495.71s.07,36,.07,40.1,4.54,36,1.81,50c0,0-7.86,7.89-14.81,0,0,0-2.22-40-4.24-49.06s-1.33-36.68-1.33-36.68Z" transform="translate(-374.49 -278.38)"/><path class="cls-50" d="M776.15,500.83s-1.8,23.27-3.64,46.35c0,0-1.16,45.8-2.25,52.39,0,0-14.78,3.67-16.24-3.29,0,0,.38-40.31,0-48.73s-1.24-31.93,2.1-45.48S776.15,500.83,776.15,500.83Z" transform="translate(-374.49 -278.38)"/><path class="cls-51" d="M770.26,599.57c1.09-6.59,2.25-52.39,2.25-52.39,1.24-15.54,2.45-31.14,3.11-39.7l-9.12,2.24s-6.58,17.26-5.58,43.16c.79,20,1.11,39.75,1.22,47.65A36.59,36.59,0,0,0,770.26,599.57Z" transform="translate(-374.49 -278.38)"/><path class="cls-51" d="M791.81,585.81c2.73-14-1.81-45.95-1.81-50,0-3.87-.06-36.73-.07-39.84l-7.92,6.1s-2.53,25.77,0,40.44c2.28,13.36.81,39.35,1.92,46.8C788.33,589.31,791.81,585.81,791.81,585.81Z" transform="translate(-374.49 -278.38)"/><path class="cls-51" d="M792.51,431.46s7.07,3.54,3.06,15.55-6.82,19.8-6.59,24.29,1.88,19.57,2.83,22.64c0,0,1.17,9.9-21.46,15.79,0,0-18.63,1.89-15.57-10.37s4.26-32.06,3.77-36.79-3.29-14.13,8.5-20.5S785,431,792.51,431.46Z" transform="translate(-374.49 -278.38)"/><path class="cls-50" d="M787.29,432c-5.54,1.36-11.25,5.23-20.24,10.1-11.79,6.37-9,15.79-8.5,20.5s-.7,24.53-3.77,36.79c-2.45,9.84,9.05,10.57,13.69,10.47C789.27,495.4,787.43,457.94,787.29,432Z" transform="translate(-374.49 -278.38)"/><path class="cls-48" d="M784.1,426s-.81,6.77,1.51,11c2.11,3.84-13.83,7.34-14.21,3.78a15.29,15.29,0,0,0-.83-13.11C768.55,424.07,784.1,426,784.1,426Z" transform="translate(-374.49 -278.38)"/><path class="cls-52" d="M785.53,437.23c-1.73-3.14-1.73-7.69-1.6-9.81l-11.66,5.77,0,0c.42.1,8.29,2.09,10,7.75C784.66,440,786.3,438.63,785.53,437.23Z" transform="translate(-374.49 -278.38)"/><path class="cls-48" d="M767.31,408s-2.48,6.14-2,11.43c.51,5.69-.32,6.84,0,9.37.16,1.08.24,2.72,1.29,3.74,1.76,1.69,5.37,2.32,10.3.52,5.93-2.17,12.17-10.33,9.64-17.66S776.25,402.05,767.31,408Z" transform="translate(-374.49 -278.38)"/><path class="cls-49" d="M786.33,423.36c-2.38-6.6-8.3-14.52-8.24-14.94,0-.26-1.91-1.5-4.16-2.8a13.24,13.24,0,0,0-6.62,2.41,34.25,34.25,0,0,0-1.24,4c1.41,1.57,4.31,3.38,4.73,4.72a17.16,17.16,0,0,1-.49,10.07c-.94,2.11,2.87,5.21,2.06,7.09a.58.58,0,0,0,0,.26,16.07,16.07,0,0,0,14-10.77Z" transform="translate(-374.49 -278.38)"/><path class="cls-53" d="M767.5,403.42c-2,.89-2.81,7.35,2.38,9.9,3.12,1.52,2.84,6.54,2.69,7.48s-1.07,5.17-.68,5.71c.73,1.05,3.17-2.21,4.33-2,2.93.57,1.79,3.32-.88,6.21-2.86,3.06,4.64,4.32,8.12,1.79,1.83-1.34,2.53-2.15,4.94-7,3.53-7,4.5-17.42-4.6-19.95C775.1,403.17,772.27,401.34,767.5,403.42Z" transform="translate(-374.49 -278.38)"/><path class="cls-54" d="M783.46,432.52c1.83-1.34,2.53-2.15,4.94-7,3.53-7,4.74-15.43-3.57-19.93s-14.44-4-17.33-2.2c-.44.28-.4,7.21,9.78,9.14,4.37.84,4.82,2.58,4.63,7.32-.18,4.57,1,10.54-6.67,13.12C778.09,435.05,782.1,433.5,783.46,432.52Z" transform="translate(-374.49 -278.38)"/><path class="cls-55" d="M772.3,438.68l-5.44,3.48s16.41,5.53,21.13-2.4c.68-1.12-.13-4.88-3-5.59C785,434.17,784.49,440.62,772.3,438.68Z" transform="translate(-374.49 -278.38)"/><path class="cls-56" d="M715,438.51s-4-4.59-3.87-6.16-2-2.25-2-.38a9,9,0,0,0,1,3.73s-5.38-4.73-4.37-6.67-4.45,3.46-3.16,6.74,2.08,7.1,10.87,8.29C713.48,444.06,715.75,441.44,715,438.51Z" transform="translate(-374.49 -278.38)"/><path class="cls-50" d="M767.73,446.47s3.4,7.82-7.51,10.18-29.57,5.43-34.18,2-16.14-14.5-16.14-14.5,5.32-1.63,5.09-6.31l17.61,10.91S765.43,441,767.73,446.47Z" transform="translate(-374.49 -278.38)"/><path class="cls-50" d="M767.73,446.47c-2.3-5.51-35.13,2.27-35.13,2.27L715,437.83a5.23,5.23,0,0,1-.55,2.65c5.44,4.16,15.58,11.77,18.33,12.65,3.36,1.08,29.31-3,35.45-4A7.52,7.52,0,0,0,767.73,446.47Z" transform="translate(-374.49 -278.38)"/></g></g></svg>