<svg xmlns="http://www.w3.org/2000/svg" xmlns:xlink="http://www.w3.org/1999/xlink" viewBox="0 0 739.11 476.88"><defs><style>.cls-1{fill:none;}.cls-2{isolation:isolate;}.cls-3{opacity:0.67;}.cls-4{fill:#0f054c;}.cls-5{opacity:0.9;}.cls-6{fill:#080344;}.cls-7{mix-blend-mode:lighten;}.cls-29,.cls-30,.cls-8{fill:#42e8e0;}.cls-9{fill:url(#Áåçûìÿííûé_ãðàäèåíò_24);}.cls-10{fill:url(#Áåçûìÿííûé_ãðàäèåíò_2);}.cls-11{fill:#fff;}.cls-12{fill:#2842a2;}.cls-13{fill:#adb1f2;}.cls-14{fill:#9198db;}.cls-15{fill:#24126a;}.cls-16{fill:url(#Áåçûìÿííûé_ãðàäèåíò_2-2);}.cls-17{fill:url(#Áåçûìÿííûé_ãðàäèåíò_2-3);}.cls-18{fill:url(#Áåçûìÿííûé_ãðàäèåíò_24-2);}.cls-19,.cls-28{fill:#453c9e;}.cls-20{fill:url(#Áåçûìÿííûé_ãðàäèåíò_24-3);}.cls-21{fill:url(#Áåçûìÿííûé_ãðàäèåíò_2-4);}.cls-22{fill:url(#Áåçûìÿííûé_ãðàäèåíò_2-5);}.cls-23{fill:url(#Áåçûìÿííûé_ãðàäèåíò_2-6);}.cls-24{fill:url(#Áåçûìÿííûé_ãðàäèåíò_24-4);}.cls-25{fill:#bcbeff;}.cls-26{fill:url(#Áåçûìÿííûé_ãðàäèåíò_2-7);}.cls-27,.cls-28{opacity:0.51;}.cls-29{opacity:0.1;}.cls-30{opacity:0.4;}.cls-31{fill:url(#Áåçûìÿííûé_ãðàäèåíò_2-8);}.cls-32{fill:#ff2c9c;}.cls-32,.cls-33,.cls-43{opacity:0.8;}.cls-33{fill:url(#Áåçûìÿííûé_ãðàäèåíò_19);}.cls-34{fill:url(#Áåçûìÿííûé_ãðàäèåíò_2-9);}.cls-35{fill:url(#Áåçûìÿííûé_ãðàäèåíò_24-5);}.cls-36{fill:url(#Áåçûìÿííûé_ãðàäèåíò_24-6);}.cls-37{fill:url(#Áåçûìÿííûé_ãðàäèåíò_2-10);}.cls-38{fill:url(#Áåçûìÿííûé_ãðàäèåíò_2-11);}.cls-39{opacity:0.11;}.cls-40{clip-path:url(#clip-path);}.cls-41{fill:url(#Áåçûìÿííûé_ãðàäèåíò_2-12);}.cls-42{fill:url(#Áåçûìÿííûé_ãðàäèåíò_2-13);}.cls-44{fill:url(#Áåçûìÿííûé_ãðàäèåíò_26);}.cls-45{fill:url(#Áåçûìÿííûé_ãðàäèåíò_2-14);}.cls-46{fill:url(#Áåçûìÿííûé_ãðàäèåíò_24-7);}.cls-47{fill:url(#Áåçûìÿííûé_ãðàäèåíò_24-8);}.cls-48{fill:url(#Áåçûìÿííûé_ãðàäèåíò_2-15);}.cls-49{fill:url(#Áåçûìÿííûé_ãðàäèåíò_2-16);}.cls-50{clip-path:url(#clip-path-2);}.cls-51{fill:url(#Áåçûìÿííûé_ãðàäèåíò_2-17);}.cls-52{fill:url(#Áåçûìÿííûé_ãðàäèåíò_2-18);}</style><linearGradient id="Áåçûìÿííûé_ãðàäèåíò_24" x1="3043.39" y1="446.81" x2="3314.85" y2="446.81" gradientTransform="translate(-2743.73)" gradientUnits="userSpaceOnUse"><stop offset="0" stop-color="#5761d7"/><stop offset="0.18" stop-color="#5c66d9"/><stop offset="0.39" stop-color="#6a73df"/><stop offset="0.61" stop-color="#8289e8"/><stop offset="0.85" stop-color="#a3a7f5"/><stop offset="1" stop-color="#bcbeff"/></linearGradient><linearGradient id="Áåçûìÿííûé_ãðàäèåíò_2" x1="3134.6" y1="437.76" x2="3406.21" y2="437.76" gradientTransform="translate(-2743.73)" gradientUnits="userSpaceOnUse"><stop offset="0" stop-color="#c0bff6"/><stop offset="0.29" stop-color="#c5c4f7"/><stop offset="0.64" stop-color="#d3d2f9"/><stop offset="1" stop-color="#e9e9fd"/></linearGradient><linearGradient id="Áåçûìÿííûé_ãðàäèåíò_2-2" x1="3116.98" y1="416.86" x2="3186.5" y2="416.86" xlink:href="#Áåçûìÿííûé_ãðàäèåíò_2"/><linearGradient id="Áåçûìÿííûé_ãðàäèåíò_2-3" x1="3122.42" y1="404.33" x2="3314.63" y2="404.33" xlink:href="#Áåçûìÿííûé_ãðàäèåíò_2"/><linearGradient id="Áåçûìÿííûé_ãðàäèåíò_24-2" x1="3122.42" y1="453.62" x2="3155.42" y2="453.62" xlink:href="#Áåçûìÿííûé_ãðàäèåíò_24"/><linearGradient id="Áåçûìÿííûé_ãðàäèåíò_24-3" x1="455.85" y1="446.81" x2="727.32" y2="446.81" gradientTransform="matrix(-1, 0, 0, 1, 1431.4, 0)" xlink:href="#Áåçûìÿííûé_ãðàäèåíò_24"/><linearGradient id="Áåçûìÿííûé_ãðàäèåíò_2-4" x1="547.07" y1="437.76" x2="818.68" y2="437.76" gradientTransform="matrix(-1, 0, 0, 1, 1431.4, 0)" xlink:href="#Áåçûìÿííûé_ãðàäèåíò_2"/><linearGradient id="Áåçûìÿííûé_ãðàäèåíò_2-5" x1="529.44" y1="416.86" x2="598.97" y2="416.86" gradientTransform="matrix(-1, 0, 0, 1, 1431.4, 0)" xlink:href="#Áåçûìÿííûé_ãðàäèåíò_2"/><linearGradient id="Áåçûìÿííûé_ãðàäèåíò_2-6" x1="534.88" y1="404.33" x2="727.09" y2="404.33" gradientTransform="matrix(-1, 0, 0, 1, 1431.4, 0)" xlink:href="#Áåçûìÿííûé_ãðàäèåíò_2"/><linearGradient id="Áåçûìÿííûé_ãðàäèåíò_24-4" x1="534.88" y1="453.62" x2="567.89" y2="453.62" gradientTransform="matrix(-1, 0, 0, 1, 1431.4, 0)" xlink:href="#Áåçûìÿííûé_ãðàäèåíò_24"/><linearGradient id="Áåçûìÿííûé_ãðàäèåíò_2-7" x1="447.18" y1="297.57" x2="447.18" y2="191.7" gradientTransform="matrix(1, 0, 0, 1, 0, 0)" xlink:href="#Áåçûìÿííûé_ãðàäèåíò_2"/><linearGradient id="Áåçûìÿííûé_ãðàäèåíò_2-8" x1="447.18" y1="209.79" x2="447.18" y2="103.92" gradientTransform="matrix(1, 0, 0, 1, 0, 0)" xlink:href="#Áåçûìÿííûé_ãðàäèåíò_2"/><radialGradient id="Áåçûìÿííûé_ãðàäèåíò_19" cx="419.03" cy="95.2" r="4.02" gradientUnits="userSpaceOnUse"><stop offset="0" stop-color="#ff2c9c"/><stop offset="0.03" stop-color="#f62f9f"/><stop offset="0.2" stop-color="#c63eb0"/><stop offset="0.37" stop-color="#9e4bbe"/><stop offset="0.54" stop-color="#7f54c9"/><stop offset="0.7" stop-color="#695bd1"/><stop offset="0.86" stop-color="#5c60d5"/><stop offset="1" stop-color="#5761d7"/></radialGradient><linearGradient id="Áåçûìÿííûé_ãðàäèåíò_2-9" x1="2951.74" y1="553.53" x2="3147.35" y2="553.53" gradientTransform="translate(-2278.69)" xlink:href="#Áåçûìÿííûé_ãðàäèåíò_2"/><linearGradient id="Áåçûìÿííûé_ãðàäèåíò_24-5" x1="2951.74" y1="603.7" x2="2985.33" y2="603.7" gradientTransform="translate(-2278.69)" xlink:href="#Áåçûìÿííûé_ãðàäèåíò_24"/><linearGradient id="Áåçûìÿííûé_ãðàäèåíò_24-6" x1="2977.95" y1="660.09" x2="3254.21" y2="660.09" gradientTransform="translate(-2278.69)" xlink:href="#Áåçûìÿííûé_ãðàäèåíò_24"/><linearGradient id="Áåçûìÿííûé_ãðàäèåíò_2-10" x1="3070.77" y1="650.88" x2="3347.18" y2="650.88" gradientTransform="translate(-2278.69)" xlink:href="#Áåçûìÿííûé_ãðàäèåíò_2"/><linearGradient id="Áåçûìÿííûé_ãðàäèåíò_2-11" x1="3117.58" y1="666.57" x2="3188.34" y2="666.57" gradientTransform="translate(-2278.69)" xlink:href="#Áåçûìÿííûé_ãðàäèåíò_2"/><clipPath id="clip-path" transform="translate(-267.89 -290.41)"><polygon id="SVGID" class="cls-1" points="845.05 447.58 681.83 541.81 702.08 661.14 865.18 566.97 845.05 447.58"/></clipPath><linearGradient id="Áåçûìÿííûé_ãðàäèåíò_2-12" x1="2965.17" y1="589.61" x2="3241.58" y2="589.61" gradientTransform="translate(-2278.69)" xlink:href="#Áåçûìÿííûé_ãðàäèåíò_2"/><linearGradient id="Áåçûìÿííûé_ãðàäèåíò_2-13" x1="2946.97" y1="569.32" x2="3017.73" y2="569.32" gradientTransform="translate(-2278.69)" xlink:href="#Áåçûìÿííûé_ãðàäèåíò_2"/><linearGradient id="Áåçûìÿííûé_ãðàäèåíò_26" x1="308.61" y1="677.31" x2="569.01" y2="677.31" gradientUnits="userSpaceOnUse"><stop offset="0" stop-color="#5761d7"/><stop offset="0.14" stop-color="#5c60d5"/><stop offset="0.3" stop-color="#695bd1"/><stop offset="0.46" stop-color="#7f54c9"/><stop offset="0.63" stop-color="#9e4bbe"/><stop offset="0.8" stop-color="#c63eb0"/><stop offset="0.97" stop-color="#f62f9f"/><stop offset="1" stop-color="#ff2c9c"/></linearGradient><linearGradient id="Áåçûìÿííûé_ãðàäèåíò_2-14" x1="364.2" y1="553.53" x2="559.81" y2="553.53" gradientTransform="matrix(-1, 0, 0, 1, 966.37, 0)" xlink:href="#Áåçûìÿííûé_ãðàäèåíò_2"/><linearGradient id="Áåçûìÿííûé_ãðàäèåíò_24-7" x1="364.2" y1="603.7" x2="397.79" y2="603.7" gradientTransform="matrix(-1, 0, 0, 1, 966.37, 0)" xlink:href="#Áåçûìÿííûé_ãðàäèåíò_24"/><linearGradient id="Áåçûìÿííûé_ãðàäèåíò_24-8" x1="390.41" y1="660.09" x2="666.67" y2="660.09" gradientTransform="matrix(-1, 0, 0, 1, 966.37, 0)" xlink:href="#Áåçûìÿííûé_ãðàäèåíò_24"/><linearGradient id="Áåçûìÿííûé_ãðàäèåíò_2-15" x1="483.24" y1="650.88" x2="759.65" y2="650.88" gradientTransform="matrix(-1, 0, 0, 1, 966.37, 0)" xlink:href="#Áåçûìÿííûé_ãðàäèåíò_2"/><linearGradient id="Áåçûìÿííûé_ãðàäèåíò_2-16" x1="530.05" y1="666.57" x2="600.8" y2="666.57" gradientTransform="matrix(-1, 0, 0, 1, 966.37, 0)" xlink:href="#Áåçûìÿííûé_ãðàäèåíò_2"/><clipPath id="clip-path-2" transform="translate(-267.89 -290.41)"><polygon id="SVGID-2" data-name="SVGID" class="cls-1" points="430.16 447.58 593.38 541.81 573.14 661.14 410.03 566.97 430.16 447.58"/></clipPath><linearGradient id="Áåçûìÿííûé_ãðàäèåíò_2-17" x1="377.63" y1="589.61" x2="654.04" y2="589.61" gradientTransform="matrix(-1, 0, 0, 1, 966.37, 0)" xlink:href="#Áåçûìÿííûé_ãðàäèåíò_2"/><linearGradient id="Áåçûìÿííûé_ãðàäèåíò_2-18" x1="359.44" y1="569.32" x2="430.19" y2="569.32" gradientTransform="matrix(-1, 0, 0, 1, 966.37, 0)" xlink:href="#Áåçûìÿííûé_ãðàäèåíò_2"/></defs><title>ai-3</title><g class="cls-2"><g id="Layer_1" data-name="Layer 1"><g class="cls-3"><polygon class="cls-4" points="369.56 476.88 0 263.52 369.55 50.16 739.11 263.52 369.56 476.88"/></g><g class="cls-3"><polygon class="cls-4" points="369.56 443.79 57.31 263.52 369.55 83.25 681.79 263.52 369.56 443.79"/></g><g class="cls-5"><polygon class="cls-6" points="369.56 405.35 123.91 263.52 369.55 121.69 615.2 263.52 369.56 405.35"/></g><g class="cls-7"><path class="cls-8" d="M403,538.8a15.06,15.06,0,0,1-7.51-2l-86.51-49.94a4.35,4.35,0,0,1,0-7.53L465.46,389a.85.85,0,0,1,.87,0l.72.41L559.91,443a4.35,4.35,0,0,1,0,7.53L410.47,536.79A15.06,15.06,0,0,1,403,538.8Zm62.93-148.09L309.81,480.82a2.61,2.61,0,0,0,0,4.52l86.51,49.95a13.54,13.54,0,0,0,13.28,0L559,449a2.61,2.61,0,0,0,0-4.52Z" transform="translate(-267.89 -290.41)"/></g><path class="cls-9" d="M571.13,418.72l-9.08,4.74L471,370.9a6.61,6.61,0,0,0-5.94.24L308,461.81c-1.5-.84-8.35-4.14-8.35-4.14l3.32,8.66h0a1.93,1.93,0,0,0,.93,1l95.89,55.37a6.58,6.58,0,0,0,5.94-.25l160.7-92.78a2.89,2.89,0,0,0,1.35-1.43h0Z" transform="translate(-267.89 -290.41)"/><path class="cls-10" d="M569.72,420.21,405,515.3a6.77,6.77,0,0,1-6.09.25l-98.28-56.74c-1.56-.9-1.37-2.47.43-3.51l164.7-95.09a6.77,6.77,0,0,1,6.09-.25l98.28,56.74C571.72,417.6,571.52,419.17,569.72,420.21Z" transform="translate(-267.89 -290.41)"/><path class="cls-11" d="M569.72,419.27,405,514.35a6.74,6.74,0,0,1-6.09.25l-98.28-56.74a2,2,0,0,1-1-1.06,1.66,1.66,0,0,0,1,2l98.28,56.74a6.77,6.77,0,0,0,6.09-.25l164.69-95.08c1.21-.71,1.68-1.64,1.39-2.46A2.9,2.9,0,0,1,569.72,419.27Z" transform="translate(-267.89 -290.41)"/><path class="cls-12" d="M355.35,494.73v-1.8c0-.17.11-.25.23-.18l6.37,3.68a.55.55,0,0,1,.24.44v1.81c0,.17-.11.25-.24.17l-6.37-3.67A.6.6,0,0,1,355.35,494.73Z" transform="translate(-267.89 -290.41)"/><path class="cls-12" d="M364.88,500.23v-1.8c0-.18.1-.25.23-.18l6.37,3.68a.54.54,0,0,1,.23.44v1.81c0,.17-.1.25-.23.17l-6.37-3.67A.57.57,0,0,1,364.88,500.23Z" transform="translate(-267.89 -290.41)"/><path class="cls-13" d="M356.07,471.71l136.86-79a3,3,0,0,1,2.95,0l48.73,28.19a1.05,1.05,0,0,1,0,1.82l-136.8,79a2.92,2.92,0,0,1-2.94,0l-48.8-28.16A1.05,1.05,0,0,1,356.07,471.71Z" transform="translate(-267.89 -290.41)"/><path class="cls-14" d="M356.07,473.53l.49.28,136.37-78.73a2.94,2.94,0,0,1,2.95,0L544.12,423l.49-.29a1.05,1.05,0,0,0,0-1.82L495.88,392.7a3,3,0,0,0-2.95,0l-136.86,79A1.05,1.05,0,0,0,356.07,473.53Z" transform="translate(-267.89 -290.41)"/><polygon class="cls-15" points="231.66 109.43 105.59 182.21 99.34 179.72 226.37 106.38 231.66 109.43"/><polygon class="cls-15" points="244.62 116.91 133.11 181.29 127.83 178.24 239.33 113.86 244.62 116.91"/><polygon class="cls-15" points="253.06 121.78 121.77 197.58 116.49 194.53 247.77 118.73 253.06 121.78"/><polygon class="cls-15" points="261.5 126.66 130.21 202.46 124.93 199.4 256.21 123.6 261.5 126.66"/><polygon class="cls-15" points="269.94 131.53 138.65 207.33 133.37 204.28 264.65 128.48 269.94 131.53"/><polygon class="cls-15" points="105.59 182.21 100.31 185.26 95.02 182.21 100.31 179.16 105.59 182.21"/><polygon class="cls-15" points="139.52 177.59 113.27 192.75 107.98 189.69 134.43 174.43 139.52 177.59"/><path class="cls-16" d="M404.79,436.3,441.69,415c1.45-.83,1.45-2.18,0-3l-25.23-14.57a5.78,5.78,0,0,0-5.22,0l-36.91,21.31c-1.44.83-1.44,2.18,0,3l25.24,14.57A5.78,5.78,0,0,0,404.79,436.3Z" transform="translate(-267.89 -290.41)"/><path class="cls-14" d="M374.33,420l36.91-21.31a5.78,5.78,0,0,1,5.22,0l25.23,14.57a2.29,2.29,0,0,1,.91.89c.38-.72.09-1.55-.91-2.12l-25.23-14.57a5.78,5.78,0,0,0-5.22,0l-36.91,21.31c-1,.57-1.29,1.39-.9,2.12A2.32,2.32,0,0,1,374.33,420Z" transform="translate(-267.89 -290.41)"/><path class="cls-17" d="M570.86,416.28,550,292.76l1.68-.7-2.52-1.44h0a1.82,1.82,0,0,0-1.94.14L380.88,386.83a4.71,4.71,0,0,0-2.16,4.23l21,124.49a1.57,1.57,0,0,0,.87,1.27h0l2.46,1.42.42-2.29-.14,0L568.7,420.51A4.7,4.7,0,0,0,570.86,416.28Z" transform="translate(-267.89 -290.41)"/><path class="cls-18" d="M381.81,390.21,379.07,389a3.87,3.87,0,0,0-.35,2.06l21,124.49a1.57,1.57,0,0,0,.87,1.27h0l2.46,1.42.42-2.29-.14,0,8.37-4.83Z" transform="translate(-267.89 -290.41)"/><path class="cls-19" d="M571.31,422,404.93,518.07c-1.29.74-2.39.31-2.61-1l-21-124.5a4.71,4.71,0,0,1,2.16-4.22l166.39-96.07c1.28-.74,2.38-.31,2.61,1l21,124.5A4.67,4.67,0,0,1,571.31,422Z" transform="translate(-267.89 -290.41)"/><g class="cls-7"><path class="cls-8" d="M872.25,538.8a15.06,15.06,0,0,1-7.51-2L715.3,450.51a4.35,4.35,0,0,1,0-7.53l93.59-54a.83.83,0,0,1,.86,0l156.52,90.36a4.35,4.35,0,0,1,0,7.53l-86.5,49.94A15.09,15.09,0,0,1,872.25,538.8ZM809.32,390.71l-.29.17-92.86,53.61a2.61,2.61,0,0,0,0,4.52l149.44,86.28h0a13.56,13.56,0,0,0,13.29,0l86.5-49.95a2.61,2.61,0,0,0,0-4.52Z" transform="translate(-267.89 -290.41)"/></g><path class="cls-20" d="M704.09,418.72l9.08,4.74,91.05-52.56a6.61,6.61,0,0,1,5.94.24l157,90.67c1.5-.84,8.35-4.14,8.35-4.14l-3.32,8.66h0a1.91,1.91,0,0,1-.92,1l-95.9,55.37a6.58,6.58,0,0,1-5.94-.25l-160.7-92.78a2.89,2.89,0,0,1-1.35-1.43h0Z" transform="translate(-267.89 -290.41)"/><path class="cls-21" d="M705.49,420.21,870.18,515.3a6.79,6.79,0,0,0,6.1.25l98.27-56.74c1.57-.9,1.37-2.47-.43-3.51l-164.7-95.09a6.77,6.77,0,0,0-6.09-.25L705.05,416.7C703.49,417.6,703.69,419.17,705.49,420.21Z" transform="translate(-267.89 -290.41)"/><path class="cls-11" d="M705.49,419.27l164.69,95.08a6.76,6.76,0,0,0,6.1.25l98.27-56.74a2,2,0,0,0,1-1.06,1.65,1.65,0,0,1-1,2l-98.27,56.74a6.79,6.79,0,0,1-6.1-.25L705.49,420.22c-1.21-.71-1.68-1.64-1.39-2.46A2.9,2.9,0,0,0,705.49,419.27Z" transform="translate(-267.89 -290.41)"/><path class="cls-12" d="M919.86,494.73v-1.8c0-.17-.1-.25-.23-.18l-6.37,3.68a.54.54,0,0,0-.23.44v1.81c0,.17.1.25.23.17l6.37-3.67A.57.57,0,0,0,919.86,494.73Z" transform="translate(-267.89 -290.41)"/><path class="cls-12" d="M910.33,500.23v-1.8c0-.18-.1-.25-.23-.18l-6.37,3.68a.54.54,0,0,0-.23.44v1.81c0,.17.1.25.23.17l6.37-3.67A.57.57,0,0,0,910.33,500.23Z" transform="translate(-267.89 -290.41)"/><path class="cls-13" d="M919.15,471.71l-136.87-79a2.94,2.94,0,0,0-2.94,0L730.6,420.89a1.05,1.05,0,0,0,0,1.82l136.8,79a2.92,2.92,0,0,0,2.94,0l48.81-28.16A1.05,1.05,0,0,0,919.15,471.71Z" transform="translate(-267.89 -290.41)"/><path class="cls-14" d="M919.15,473.53l-.49.28L782.28,395.08a2.92,2.92,0,0,0-2.94,0L731.09,423l-.49-.29a1.05,1.05,0,0,1,0-1.82l48.74-28.19a2.94,2.94,0,0,1,2.94,0l136.87,79A1.05,1.05,0,0,1,919.15,473.53Z" transform="translate(-267.89 -290.41)"/><polygon class="cls-15" points="507.76 109.43 633.83 182.21 640.08 179.72 513.05 106.38 507.76 109.43"/><polygon class="cls-15" points="494.81 116.91 606.31 181.29 611.6 178.24 500.09 113.86 494.81 116.91"/><polygon class="cls-15" points="486.37 121.78 617.65 197.58 622.94 194.53 491.65 118.73 486.37 121.78"/><polygon class="cls-15" points="477.93 126.66 609.21 202.46 614.5 199.4 483.21 123.6 477.93 126.66"/><polygon class="cls-15" points="469.48 131.53 600.77 207.33 606.06 204.28 474.77 128.48 469.48 131.53"/><polygon class="cls-15" points="633.83 182.21 639.12 185.26 644.4 182.21 639.12 179.16 633.83 182.21"/><polygon class="cls-15" points="599.9 177.59 626.16 192.75 631.44 189.69 605 174.43 599.9 177.59"/><path class="cls-22" d="M870.42,436.3,833.52,415c-1.44-.83-1.44-2.18,0-3l25.23-14.57a5.8,5.8,0,0,1,5.23,0l36.9,21.31c1.44.83,1.44,2.18,0,3L875.64,436.3A5.78,5.78,0,0,1,870.42,436.3Z" transform="translate(-267.89 -290.41)"/><path class="cls-14" d="M900.88,420,864,398.64a5.8,5.8,0,0,0-5.23,0l-25.23,14.57a2.29,2.29,0,0,0-.91.89c-.38-.72-.09-1.55.91-2.12l25.23-14.57a5.8,5.8,0,0,1,5.23,0l36.9,21.31c1,.57,1.29,1.39.91,2.12A2.36,2.36,0,0,0,900.88,420Z" transform="translate(-267.89 -290.41)"/><path class="cls-23" d="M704.35,416.28l20.82-123.52-1.68-.7,2.52-1.44h0a1.82,1.82,0,0,1,1.94.14l166.39,96.06a4.69,4.69,0,0,1,2.16,4.23l-21,124.49a1.56,1.56,0,0,1-.88,1.27h0l-2.46,1.42-.42-2.29.14,0L706.51,420.51A4.7,4.7,0,0,1,704.35,416.28Z" transform="translate(-267.89 -290.41)"/><path class="cls-24" d="M893.4,390.21l2.74-1.21a3.77,3.77,0,0,1,.35,2.06l-21,124.49a1.56,1.56,0,0,1-.88,1.27h0l-2.46,1.42-.42-2.29.14,0-8.37-4.83Z" transform="translate(-267.89 -290.41)"/><path class="cls-19" d="M703.9,422l166.39,96.07c1.28.74,2.38.31,2.61-1l21-124.5a4.69,4.69,0,0,0-2.16-4.22L725.33,292.26c-1.28-.74-2.38-.31-2.61,1l-21,124.5A4.67,4.67,0,0,0,703.9,422Z" transform="translate(-267.89 -290.41)"/><polygon class="cls-25" points="369.71 278.18 214.79 188.73 369.71 99.28 524.64 188.73 369.71 278.18"/><polygon class="cls-19" points="369.71 253.75 257.09 188.73 369.71 123.71 482.33 188.73 369.71 253.75"/><polygon class="cls-11" points="369.71 128.11 478.52 190.93 482.33 188.73 369.71 123.71 257.09 188.73 260.9 190.93 369.71 128.11"/><polygon class="cls-26" points="524.64 188.73 524.64 239.43 369.71 328.88 369.71 278.18 524.64 188.73"/><polygon class="cls-15" points="214.79 188.73 214.79 239.43 369.71 328.88 369.71 278.18 214.79 188.73"/><g class="cls-27"><polygon class="cls-19" points="225.28 211.51 225.28 227.48 359.22 304.8 359.22 288.84 225.28 211.51"/></g><polygon class="cls-11" points="369.71 275.27 217.31 187.28 214.79 188.73 369.71 278.18 524.64 188.73 522.12 187.28 369.71 275.27"/><polygon class="cls-19" points="501.4 224.26 501.4 233.34 392.95 295.95 392.95 286.87 501.4 224.26"/><polygon class="cls-28" points="214.79 188.73 214.79 239.43 369.71 328.88 369.71 278.18 214.79 188.73"/><polygon class="cls-8" points="324.49 275.48 296.43 259.28 296.43 262.63 324.49 278.83 324.49 275.48"/><polygon class="cls-8" points="292.39 256.98 284.79 252.59 284.79 255.94 292.39 260.33 292.39 256.98"/><polygon class="cls-8" points="256.78 236.43 241.23 227.45 241.22 230.79 256.78 239.78 256.78 236.43"/><polygon class="cls-8" points="270.97 244.62 259.73 238.13 259.72 241.48 270.97 247.97 270.97 244.62"/><polygon class="cls-8" points="281.52 250.71 273.92 246.32 273.92 249.67 281.52 254.06 281.52 250.71"/><polygon class="cls-8" points="369.87 146.03 364.95 143.19 369.87 140.35 374.79 143.19 369.87 146.03"/><polygon class="cls-29" points="379.71 151.72 374.79 148.88 379.71 146.03 384.63 148.88 379.71 151.72"/><polygon class="cls-30" points="389.55 157.4 384.63 154.56 389.55 151.72 394.47 154.56 389.55 157.4"/><polygon class="cls-8" points="399.39 163.08 394.47 160.24 399.39 157.4 404.31 160.24 399.39 163.08"/><polygon class="cls-30" points="409.23 168.76 404.31 165.92 409.23 163.08 414.15 165.92 409.23 168.76"/><polygon class="cls-8" points="419.07 174.44 414.15 171.6 419.07 168.76 423.99 171.6 419.07 174.44"/><polygon class="cls-8" points="428.91 180.12 423.99 177.28 428.91 174.44 433.83 177.28 428.91 180.12"/><polygon class="cls-8" points="438.75 185.8 433.83 182.96 438.75 180.12 443.67 182.96 438.75 185.8"/><polygon class="cls-29" points="448.58 191.48 443.67 188.64 448.58 185.8 453.5 188.64 448.58 191.48"/><polygon class="cls-8" points="359.99 151.74 355.07 148.9 359.99 146.06 364.91 148.9 359.99 151.74"/><polygon class="cls-8" points="369.83 157.42 364.91 154.58 369.83 151.74 374.75 154.58 369.83 157.42"/><polygon class="cls-8" points="379.67 163.1 374.75 160.26 379.67 157.42 384.59 160.26 379.67 163.1"/><polygon class="cls-8" points="389.51 168.78 384.59 165.94 389.51 163.1 394.43 165.94 389.51 168.78"/><polygon class="cls-8" points="399.35 174.46 394.43 171.62 399.35 168.78 404.27 171.62 399.35 174.46"/><polygon class="cls-8" points="409.19 180.14 404.27 177.3 409.19 174.46 414.11 177.3 409.19 180.14"/><polygon class="cls-8" points="419.03 185.82 414.11 182.98 419.03 180.14 423.95 182.98 419.03 185.82"/><polygon class="cls-8" points="428.87 191.5 423.95 188.66 428.87 185.82 433.79 188.66 428.87 191.5"/><polygon class="cls-8" points="438.7 197.18 433.79 194.34 438.7 191.5 443.63 194.34 438.7 197.18"/><polygon class="cls-8" points="350.11 157.44 345.19 154.6 350.11 151.76 355.03 154.6 350.11 157.44"/><polygon class="cls-8" points="359.95 163.12 355.03 160.28 359.95 157.44 364.87 160.28 359.95 163.12"/><polygon class="cls-8" points="369.79 168.8 364.87 165.96 369.79 163.12 374.71 165.96 369.79 168.8"/><polygon class="cls-29" points="379.63 174.48 374.71 171.64 379.63 168.8 384.55 171.64 379.63 174.48"/><polygon class="cls-30" points="389.47 180.16 384.55 177.32 389.47 174.48 394.39 177.32 389.47 180.16"/><polygon class="cls-30" points="399.31 185.84 394.39 183 399.31 180.16 404.23 183 399.31 185.84"/><polygon class="cls-8" points="409.15 191.53 404.23 188.69 409.15 185.84 414.07 188.69 409.15 191.53"/><polygon class="cls-8" points="418.99 197.21 414.07 194.37 418.99 191.53 423.91 194.37 418.99 197.21"/><polygon class="cls-8" points="428.83 202.89 423.91 200.05 428.83 197.21 433.75 200.05 428.83 202.89"/><polygon class="cls-30" points="340.24 163.15 335.32 160.31 340.24 157.47 345.15 160.31 340.24 163.15"/><polygon class="cls-30" points="350.07 168.83 345.15 165.99 350.07 163.15 354.99 165.99 350.07 168.83"/><polygon class="cls-29" points="359.91 174.51 354.99 171.67 359.91 168.83 364.83 171.67 359.91 174.51"/><polygon class="cls-8" points="369.75 180.19 364.83 177.35 369.75 174.51 374.67 177.35 369.75 180.19"/><polygon class="cls-8" points="379.59 185.87 374.67 183.03 379.59 180.19 384.51 183.03 379.59 185.87"/><polygon class="cls-8" points="389.43 191.55 384.51 188.71 389.43 185.87 394.35 188.71 389.43 191.55"/><polygon class="cls-30" points="399.27 197.23 394.35 194.39 399.27 191.55 404.19 194.39 399.27 197.23"/><polygon class="cls-8" points="409.11 202.91 404.19 200.07 409.11 197.23 414.03 200.07 409.11 202.91"/><polygon class="cls-8" points="418.95 208.59 414.03 205.75 418.95 202.91 423.87 205.75 418.95 208.59"/><polygon class="cls-8" points="330.36 168.85 325.44 166.01 330.36 163.17 335.28 166.01 330.36 168.85"/><polygon class="cls-8" points="340.19 174.53 335.28 171.69 340.19 168.85 345.12 171.69 340.19 174.53"/><polygon class="cls-8" points="350.04 180.21 345.12 177.37 350.03 174.53 354.95 177.37 350.04 180.21"/><polygon class="cls-8" points="359.87 185.89 354.95 183.05 359.87 180.21 364.79 183.05 359.87 185.89"/><polygon class="cls-8" points="369.71 191.57 364.79 188.73 369.71 185.89 374.63 188.73 369.71 191.57"/><polygon class="cls-8" points="379.55 197.25 374.63 194.41 379.55 191.57 384.47 194.41 379.55 197.25"/><polygon class="cls-8" points="389.39 202.93 384.47 200.09 389.39 197.25 394.31 200.09 389.39 202.93"/><polygon class="cls-8" points="399.23 208.61 394.31 205.77 399.23 202.93 404.15 205.77 399.23 208.61"/><polygon class="cls-8" points="409.07 214.29 404.15 211.45 409.07 208.61 413.99 211.45 409.07 214.29"/><polygon class="cls-8" points="320.48 174.55 315.56 171.71 320.48 168.87 325.4 171.71 320.48 174.55"/><polygon class="cls-8" points="330.32 180.23 325.4 177.39 330.32 174.55 335.24 177.39 330.32 180.23"/><polygon class="cls-30" points="340.16 185.91 335.24 183.07 340.15 180.23 345.07 183.07 340.16 185.91"/><polygon class="cls-8" points="350 191.59 345.07 188.75 350 185.91 354.91 188.75 350 191.59"/><polygon class="cls-29" points="359.83 197.28 354.91 194.44 359.83 191.59 364.75 194.44 359.83 197.28"/><polygon class="cls-8" points="369.67 202.96 364.75 200.12 369.67 197.28 374.59 200.12 369.67 202.96"/><polygon class="cls-8" points="379.51 208.64 374.59 205.8 379.51 202.96 384.43 205.8 379.51 208.64"/><polygon class="cls-8" points="389.35 214.32 384.43 211.48 389.35 208.64 394.27 211.48 389.35 214.32"/><polygon class="cls-8" points="399.19 220 394.27 217.16 399.19 214.32 404.11 217.16 399.19 220"/><polygon class="cls-8" points="310.6 180.26 305.68 177.42 310.6 174.58 315.52 177.42 310.6 180.26"/><polygon class="cls-8" points="320.44 185.94 315.52 183.1 320.44 180.26 325.36 183.1 320.44 185.94"/><polygon class="cls-30" points="330.28 191.62 325.36 188.78 330.28 185.94 335.2 188.78 330.28 191.62"/><polygon class="cls-8" points="340.12 197.3 335.2 194.46 340.12 191.62 345.04 194.46 340.12 197.3"/><polygon class="cls-8" points="349.95 202.98 345.04 200.14 349.95 197.3 354.87 200.14 349.95 202.98"/><polygon class="cls-29" points="359.79 208.66 354.87 205.82 359.79 202.98 364.71 205.82 359.79 208.66"/><polygon class="cls-30" points="369.63 214.34 364.71 211.5 369.63 208.66 374.55 211.5 369.63 214.34"/><polygon class="cls-8" points="379.47 220.02 374.55 217.18 379.47 214.34 384.39 217.18 379.47 220.02"/><polygon class="cls-29" points="389.31 225.7 384.39 222.86 389.31 220.02 394.23 222.86 389.31 225.7"/><polygon class="cls-8" points="300.72 185.96 295.8 183.12 300.72 180.28 305.64 183.12 300.72 185.96"/><polygon class="cls-30" points="310.56 191.64 305.64 188.8 310.56 185.96 315.48 188.8 310.56 191.64"/><polygon class="cls-8" points="320.4 197.32 315.48 194.48 320.4 191.64 325.32 194.48 320.4 197.32"/><polygon class="cls-8" points="330.24 203 325.32 200.16 330.24 197.32 335.16 200.16 330.24 203"/><polygon class="cls-8" points="340.08 208.68 335.16 205.84 340.08 203 345 205.84 340.08 208.68"/><polygon class="cls-8" points="349.92 214.36 345 211.52 349.92 208.68 354.83 211.52 349.92 214.36"/><polygon class="cls-8" points="359.75 220.04 354.83 217.2 359.75 214.36 364.67 217.2 359.75 220.04"/><polygon class="cls-30" points="369.59 225.72 364.67 222.88 369.59 220.04 374.51 222.88 369.59 225.72"/><polygon class="cls-8" points="379.43 231.4 374.51 228.56 379.43 225.72 384.35 228.56 379.43 231.4"/><polygon class="cls-8" points="290.84 191.66 285.92 188.82 290.84 185.98 295.76 188.82 290.84 191.66"/><polygon class="cls-29" points="300.68 197.34 295.76 194.5 300.68 191.66 305.6 194.5 300.68 197.34"/><polygon class="cls-8" points="310.52 203.03 305.6 200.18 310.52 197.34 315.44 200.18 310.52 203.03"/><polygon class="cls-8" points="320.36 208.71 315.44 205.87 320.36 203.03 325.28 205.87 320.36 208.71"/><polygon class="cls-8" points="330.2 214.39 325.28 211.54 330.2 208.71 335.12 211.54 330.2 214.39"/><polygon class="cls-8" points="340.04 220.07 335.12 217.23 340.04 214.39 344.96 217.23 340.04 220.07"/><polygon class="cls-30" points="349.88 225.75 344.96 222.91 349.88 220.07 354.8 222.91 349.88 225.75"/><polygon class="cls-8" points="359.71 231.43 354.8 228.59 359.71 225.75 364.63 228.59 359.71 231.43"/><polygon class="cls-8" points="369.55 237.11 364.63 234.27 369.55 231.43 374.47 234.27 369.55 237.11"/><polygon class="cls-25" points="369.71 190.39 214.79 100.94 369.71 11.5 524.64 100.95 369.71 190.39"/><polygon class="cls-19" points="369.71 165.97 257.09 100.94 369.71 35.92 482.33 100.95 369.71 165.97"/><polygon class="cls-11" points="369.71 40.33 478.52 103.15 482.33 100.95 369.71 35.92 257.09 100.94 260.9 103.15 369.71 40.33"/><polygon class="cls-31" points="524.64 100.95 524.64 151.65 369.71 241.09 369.71 190.39 524.64 100.95"/><polygon class="cls-15" points="214.79 100.94 214.79 151.65 369.71 241.09 369.71 190.39 214.79 100.94"/><g class="cls-27"><polygon class="cls-19" points="225.28 123.72 225.28 139.69 359.22 217.02 359.22 201.05 225.28 123.72"/></g><polygon class="cls-11" points="369.71 187.48 217.31 99.49 214.79 100.94 369.71 190.39 524.64 100.95 522.12 99.49 369.71 187.48"/><polygon class="cls-19" points="501.4 136.47 501.4 145.55 392.95 208.16 392.95 199.09 501.4 136.47"/><polygon class="cls-28" points="214.79 100.94 214.79 151.65 369.71 241.09 369.71 190.39 214.79 100.94"/><polygon class="cls-8" points="324.49 187.7 296.43 171.5 296.43 174.84 324.49 191.04 324.49 187.7"/><polygon class="cls-8" points="292.39 169.2 284.79 164.81 284.79 168.16 292.39 172.54 292.39 169.2"/><polygon class="cls-8" points="256.78 148.64 241.23 139.66 241.22 143.01 256.78 151.99 256.78 148.64"/><polygon class="cls-8" points="270.97 156.84 259.73 150.34 259.72 153.69 270.97 160.18 270.97 156.84"/><polygon class="cls-8" points="281.52 162.93 273.92 158.54 273.92 161.88 281.52 166.27 281.52 162.93"/><polygon class="cls-8" points="369.87 58.25 364.95 55.41 369.87 52.57 374.79 55.41 369.87 58.25"/><polygon class="cls-29" points="379.71 63.93 374.79 61.09 379.71 58.25 384.63 61.09 379.71 63.93"/><polygon class="cls-30" points="389.55 69.61 384.63 66.77 389.55 63.93 394.47 66.77 389.55 69.61"/><polygon class="cls-8" points="399.39 75.29 394.47 72.45 399.39 69.61 404.31 72.45 399.39 75.29"/><polygon class="cls-30" points="409.23 80.97 404.31 78.13 409.23 75.29 414.15 78.13 409.23 80.97"/><polygon class="cls-8" points="419.07 86.65 414.15 83.81 419.07 80.97 423.99 83.81 419.07 86.65"/><polygon class="cls-8" points="428.91 92.33 423.99 89.49 428.91 86.65 433.83 89.49 428.91 92.33"/><polygon class="cls-8" points="438.75 98.01 433.83 95.17 438.75 92.33 443.67 95.17 438.75 98.01"/><polygon class="cls-29" points="448.58 103.69 443.67 100.85 448.58 98.01 453.5 100.85 448.58 103.69"/><polygon class="cls-8" points="359.99 63.95 355.07 61.11 359.99 58.27 364.91 61.11 359.99 63.95"/><polygon class="cls-8" points="369.83 69.63 364.91 66.79 369.83 63.95 374.75 66.79 369.83 69.63"/><polygon class="cls-8" points="379.67 75.31 374.75 72.47 379.67 69.63 384.59 72.47 379.67 75.31"/><polygon class="cls-32" points="389.51 80.99 384.59 78.15 389.51 75.31 394.43 78.15 389.51 80.99"/><polygon class="cls-8" points="399.35 86.67 394.43 83.83 399.35 80.99 404.27 83.83 399.35 86.67"/><polygon class="cls-8" points="409.19 92.36 404.27 89.52 409.19 86.67 414.11 89.52 409.19 92.36"/><polygon class="cls-33" points="419.03 98.04 414.11 95.2 419.03 92.36 423.95 95.2 419.03 98.04"/><polygon class="cls-8" points="428.87 103.72 423.95 100.88 428.87 98.04 433.79 100.88 428.87 103.72"/><polygon class="cls-32" points="438.7 109.4 433.79 106.56 438.7 103.72 443.63 106.56 438.7 109.4"/><polygon class="cls-8" points="350.11 69.66 345.19 66.82 350.11 63.98 355.03 66.82 350.11 69.66"/><polygon class="cls-32" points="359.95 75.34 355.03 72.5 359.95 69.66 364.87 72.5 359.95 75.34"/><polygon class="cls-8" points="369.79 81.02 364.87 78.18 369.79 75.34 374.71 78.18 369.79 81.02"/><polygon class="cls-29" points="379.63 86.7 374.71 83.86 379.63 81.02 384.55 83.86 379.63 86.7"/><polygon class="cls-30" points="389.47 92.38 384.55 89.54 389.47 86.7 394.39 89.54 389.47 92.38"/><polygon class="cls-30" points="399.31 98.06 394.39 95.22 399.31 92.38 404.23 95.22 399.31 98.06"/><polygon class="cls-8" points="409.15 103.74 404.23 100.9 409.15 98.06 414.07 100.9 409.15 103.74"/><polygon class="cls-8" points="418.99 109.42 414.07 106.58 418.99 103.74 423.91 106.58 418.99 109.42"/><polygon class="cls-8" points="428.83 115.1 423.91 112.26 428.83 109.42 433.75 112.26 428.83 115.1"/><polygon class="cls-30" points="340.24 75.36 335.32 72.52 340.24 69.68 345.15 72.52 340.24 75.36"/><polygon class="cls-30" points="350.07 81.04 345.15 78.2 350.07 75.36 354.99 78.2 350.07 81.04"/><polygon class="cls-29" points="359.91 86.72 354.99 83.88 359.91 81.04 364.83 83.88 359.91 86.72"/><polygon class="cls-8" points="369.75 92.4 364.83 89.56 369.75 86.72 374.67 89.56 369.75 92.4"/><polygon class="cls-8" points="379.59 98.08 374.67 95.24 379.59 92.4 384.51 95.24 379.59 98.08"/><polygon class="cls-32" points="389.43 103.76 384.51 100.92 389.43 98.08 394.35 100.92 389.43 103.76"/><polygon class="cls-30" points="399.27 109.44 394.35 106.6 399.27 103.76 404.19 106.6 399.27 109.44"/><polygon class="cls-8" points="409.11 115.12 404.19 112.28 409.11 109.44 414.03 112.28 409.11 115.12"/><polygon class="cls-8" points="418.95 120.8 414.03 117.96 418.95 115.12 423.87 117.96 418.95 120.8"/><polygon class="cls-32" points="330.36 81.06 325.44 78.22 330.36 75.38 335.28 78.22 330.36 81.06"/><polygon class="cls-8" points="340.19 86.74 335.28 83.9 340.19 81.06 345.12 83.9 340.19 86.74"/><polygon class="cls-8" points="350.04 92.42 345.12 89.58 350.03 86.74 354.95 89.58 350.04 92.42"/><polygon class="cls-8" points="359.87 98.11 354.95 95.27 359.87 92.42 364.79 95.27 359.87 98.11"/><polygon class="cls-32" points="369.71 103.79 364.79 100.94 369.71 98.11 374.63 100.94 369.71 103.79"/><polygon class="cls-32" points="379.55 109.47 374.63 106.63 379.55 103.79 384.47 106.63 379.55 109.47"/><polygon class="cls-8" points="389.39 115.15 384.47 112.31 389.39 109.47 394.31 112.31 389.39 115.15"/><polygon class="cls-8" points="399.23 120.83 394.31 117.99 399.23 115.15 404.15 117.99 399.23 120.83"/><polygon class="cls-8" points="409.07 126.51 404.15 123.67 409.07 120.83 413.99 123.67 409.07 126.51"/><polygon class="cls-8" points="320.48 86.77 315.56 83.93 320.48 81.09 325.4 83.93 320.48 86.77"/><polygon class="cls-8" points="330.32 92.45 325.4 89.61 330.32 86.77 335.24 89.61 330.32 92.45"/><polygon class="cls-30" points="340.16 98.13 335.24 95.29 340.15 92.45 345.07 95.29 340.16 98.13"/><polygon class="cls-32" points="350 103.81 345.07 100.97 350 98.13 354.91 100.97 350 103.81"/><polygon class="cls-29" points="359.83 109.49 354.91 106.65 359.83 103.81 364.75 106.65 359.83 109.49"/><polygon class="cls-8" points="369.67 115.17 364.75 112.33 369.67 109.49 374.59 112.33 369.67 115.17"/><polygon class="cls-8" points="379.51 120.85 374.59 118.01 379.51 115.17 384.43 118.01 379.51 120.85"/><polygon class="cls-32" points="389.35 126.53 384.43 123.69 389.35 120.85 394.27 123.69 389.35 126.53"/><polygon class="cls-8" points="399.19 132.21 394.27 129.37 399.19 126.53 404.11 129.37 399.19 132.21"/><polygon class="cls-8" points="310.6 92.47 305.68 89.63 310.6 86.79 315.52 89.63 310.6 92.47"/><polygon class="cls-8" points="320.44 98.15 315.52 95.31 320.44 92.47 325.36 95.31 320.44 98.15"/><polygon class="cls-30" points="330.28 103.83 325.36 100.99 330.28 98.15 335.2 100.99 330.28 103.83"/><polygon class="cls-8" points="340.12 109.51 335.2 106.67 340.12 103.83 345.04 106.67 340.12 109.51"/><polygon class="cls-8" points="349.95 115.19 345.04 112.35 349.95 109.51 354.87 112.35 349.95 115.19"/><polygon class="cls-29" points="359.79 120.87 354.87 118.03 359.79 115.19 364.71 118.03 359.79 120.87"/><polygon class="cls-30" points="369.63 126.55 364.71 123.71 369.63 120.87 374.55 123.71 369.63 126.55"/><polygon class="cls-8" points="379.47 132.23 374.55 129.39 379.47 126.55 384.39 129.39 379.47 132.23"/><polygon class="cls-29" points="389.31 137.91 384.39 135.07 389.31 132.23 394.23 135.07 389.31 137.91"/><polygon class="cls-8" points="300.72 98.17 295.8 95.33 300.72 92.49 305.64 95.33 300.72 98.17"/><polygon class="cls-30" points="310.56 103.86 305.64 101.01 310.56 98.17 315.48 101.01 310.56 103.86"/><polygon class="cls-8" points="320.4 109.53 315.48 106.69 320.4 103.86 325.32 106.69 320.4 109.53"/><polygon class="cls-8" points="330.24 115.22 325.32 112.38 330.24 109.53 335.16 112.38 330.24 115.22"/><polygon class="cls-8" points="340.08 120.9 335.16 118.06 340.08 115.22 345 118.06 340.08 120.9"/><polygon class="cls-8" points="349.92 126.58 345 123.74 349.92 120.9 354.83 123.74 349.92 126.58"/><polygon class="cls-8" points="359.75 132.26 354.83 129.42 359.75 126.58 364.67 129.42 359.75 132.26"/><polygon class="cls-30" points="369.59 137.94 364.67 135.1 369.59 132.26 374.51 135.1 369.59 137.94"/><polygon class="cls-8" points="379.43 143.62 374.51 140.78 379.43 137.94 384.35 140.78 379.43 143.62"/><polygon class="cls-8" points="290.84 103.88 285.92 101.04 290.84 98.2 295.76 101.04 290.84 103.88"/><polygon class="cls-29" points="300.68 109.56 295.76 106.72 300.68 103.88 305.6 106.72 300.68 109.56"/><polygon class="cls-32" points="310.52 115.24 305.6 112.4 310.52 109.56 315.44 112.4 310.52 115.24"/><polygon class="cls-8" points="320.36 120.92 315.44 118.08 320.36 115.24 325.28 118.08 320.36 120.92"/><polygon class="cls-8" points="330.2 126.6 325.28 123.76 330.2 120.92 335.12 123.76 330.2 126.6"/><polygon class="cls-8" points="340.04 132.28 335.12 129.44 340.04 126.6 344.96 129.44 340.04 132.28"/><polygon class="cls-30" points="349.88 137.96 344.96 135.12 349.88 132.28 354.8 135.12 349.88 137.96"/><polygon class="cls-32" points="359.71 143.64 354.8 140.8 359.71 137.96 364.63 140.8 359.71 143.64"/><polygon class="cls-8" points="369.55 149.32 364.63 146.48 369.55 143.64 374.47 146.48 369.55 149.32"/><g class="cls-7"><path class="cls-8" d="M804.38,753.69a15.28,15.28,0,0,1-7.64-2l-88-50.82a4.42,4.42,0,0,1,0-7.64l159.28-92a.85.85,0,0,1,.87,0l95.24,55a4.42,4.42,0,0,1,0,7.64L812,751.65A15.28,15.28,0,0,1,804.38,753.69Zm64-150.7L709.58,694.7a2.66,2.66,0,0,0,0,4.62l88,50.83a13.83,13.83,0,0,0,13.54,0l152.08-87.8a2.68,2.68,0,0,0,0-4.63Z" transform="translate(-267.89 -290.41)"/></g><path class="cls-34" d="M868.62,565.7,847.43,440l1.71-.72-2.56-1.46h0a1.83,1.83,0,0,0-2,.14L675.28,535.73a4.79,4.79,0,0,0-2.2,4.3l21.36,126.7a1.59,1.59,0,0,0,.89,1.29h0l2.5,1.45.43-2.34-.14,0L866.42,570A4.77,4.77,0,0,0,868.62,565.7Z" transform="translate(-267.89 -290.41)"/><path class="cls-35" d="M676.23,539.17l-2.79-1.24a4,4,0,0,0-.36,2.1l21.36,126.7a1.59,1.59,0,0,0,.89,1.29h0l2.5,1.45.43-2.34-.14,0,8.52-4.92Z" transform="translate(-267.89 -290.41)"/><path class="cls-15" d="M869.08,571.53,699.75,669.29c-1.31.75-2.42.32-2.65-1l-21.36-126.7a4.79,4.79,0,0,1,2.2-4.3l169.33-97.76c1.3-.75,2.42-.32,2.65,1l21.36,126.7A4.81,4.81,0,0,1,869.08,571.53Z" transform="translate(-267.89 -290.41)"/><g class="cls-27"><polygon class="cls-19" points="577.16 157.17 413.94 251.4 434.18 370.73 597.29 276.56 577.16 157.17"/></g><path class="cls-36" d="M975.52,631.51l-9.24,4.83-92.66-53.5a6.72,6.72,0,0,0-6,.25L707.76,675.36c-1.53-.86-8.5-4.21-8.5-4.21l3.38,8.81h0a2,2,0,0,0,1,1l97.59,56.34a6.69,6.69,0,0,0,6-.25l163.53-94.42a2.91,2.91,0,0,0,1.38-1.45h0Z" transform="translate(-267.89 -290.41)"/><path class="cls-37" d="M974.09,633,806.48,729.8a6.86,6.86,0,0,1-6.19.25l-100-57.74c-1.59-.92-1.39-2.52.44-3.58L868.32,572a6.88,6.88,0,0,1,6.2-.25l100,57.74C976.12,630.37,975.93,632,974.09,633Z" transform="translate(-267.89 -290.41)"/><path class="cls-11" d="M974.09,632.06,806.48,728.83a6.89,6.89,0,0,1-6.19.26l-100-57.75a2,2,0,0,1-1-1.08,1.69,1.69,0,0,0,1,2l100,57.74a6.86,6.86,0,0,0,6.19-.25L974.09,633c1.24-.71,1.71-1.67,1.42-2.5A2.92,2.92,0,0,1,974.09,632.06Z" transform="translate(-267.89 -290.41)"/><path class="cls-12" d="M755.93,708.86V707c0-.18.11-.26.24-.18l6.48,3.74a.58.58,0,0,1,.24.45v1.84c0,.17-.11.25-.24.18l-6.48-3.74A.59.59,0,0,1,755.93,708.86Z" transform="translate(-267.89 -290.41)"/><path class="cls-12" d="M765.62,714.46v-1.84c0-.17.11-.25.24-.18l6.48,3.75a.53.53,0,0,1,.24.45v1.84c0,.17-.1.25-.24.18l-6.48-3.75A.55.55,0,0,1,765.62,714.46Z" transform="translate(-267.89 -290.41)"/><path class="cls-13" d="M726.34,666.9l139.29-80.41a3,3,0,0,1,3,0l49.59,28.69a1.06,1.06,0,0,1,0,1.85L779,697.41a3,3,0,0,1-3,0l-49.66-28.66A1.07,1.07,0,0,1,726.34,666.9Z" transform="translate(-267.89 -290.41)"/><path class="cls-14" d="M726.35,668.75l.49.29,138.79-80.13a3,3,0,0,1,3,0l49.1,28.4.49-.29a1.06,1.06,0,0,0,0-1.85l-49.59-28.69a3,3,0,0,0-3,0L726.34,666.9A1.07,1.07,0,0,0,726.35,668.75Z" transform="translate(-267.89 -290.41)"/><polygon class="cls-15" points="604.48 303.35 483.49 373.2 478.11 370.09 599.1 300.24 604.48 303.35"/><polygon class="cls-15" points="617.66 310.96 504.19 376.48 498.81 373.37 612.28 307.85 617.66 310.96"/><polygon class="cls-15" points="626.25 315.92 492.64 393.06 487.26 389.95 620.88 312.81 626.25 315.92"/><polygon class="cls-15" points="634.84 320.88 501.23 398.02 495.86 394.91 629.46 317.77 634.84 320.88"/><polygon class="cls-15" points="643.43 325.84 509.82 402.98 504.44 399.87 638.05 322.73 643.43 325.84"/><polygon class="cls-15" points="476.18 377.42 470.8 380.52 465.42 377.42 470.8 374.31 476.18 377.42"/><polygon class="cls-15" points="495.15 381.69 483.99 388.14 478.61 385.03 489.78 378.58 495.15 381.69"/><path class="cls-38" d="M871,686.36l37.55-21.68c1.47-.85,1.47-2.22,0-3.07l-25.68-14.83a5.85,5.85,0,0,0-5.31,0L840,668.46c-1.47.85-1.47,2.23,0,3.07l25.68,14.83A5.87,5.87,0,0,0,871,686.36Z" transform="translate(-267.89 -290.41)"/><path class="cls-14" d="M840,669.72,877.55,648a5.85,5.85,0,0,1,5.31,0l25.68,14.82a2.39,2.39,0,0,1,.93.91c.38-.74.09-1.58-.93-2.16l-25.68-14.83a5.85,5.85,0,0,0-5.31,0L840,668.46c-1,.59-1.31,1.43-.92,2.17A2.29,2.29,0,0,1,840,669.72Z" transform="translate(-267.89 -290.41)"/><g class="cls-39"><g class="cls-40"><path class="cls-41" d="M868.49,571.76,700.88,668.53a6.91,6.91,0,0,1-6.2.26L594.66,611c-1.58-.91-1.39-2.52.45-3.58L762.72,510.7a6.86,6.86,0,0,1,6.19-.26l100,57.74C870.52,569.1,870.32,570.7,868.49,571.76Z" transform="translate(-267.89 -290.41)"/><path class="cls-42" d="M700.38,589.11l37.56-21.68c1.46-.85,1.46-2.22,0-3.07l-25.69-14.83a5.91,5.91,0,0,0-5.31,0l-37.56,21.69c-1.46.84-1.46,2.22,0,3.07l25.69,14.82A5.85,5.85,0,0,0,700.38,589.11Z" transform="translate(-267.89 -290.41)"/><path class="cls-14" d="M669.38,572.47l37.56-21.68a5.85,5.85,0,0,1,5.31,0l25.69,14.83a2.28,2.28,0,0,1,.92.9c.39-.74.09-1.57-.92-2.16l-25.69-14.83a5.91,5.91,0,0,0-5.31,0l-37.56,21.69c-1,.58-1.31,1.42-.92,2.16A2.36,2.36,0,0,1,669.38,572.47Z" transform="translate(-267.89 -290.41)"/><path class="cls-13" d="M652.88,623l139.28-80.42a3,3,0,0,1,3,0l49.59,28.7a1.06,1.06,0,0,1,0,1.85L705.54,653.51a3,3,0,0,1-3,0l-49.66-28.66A1.06,1.06,0,0,1,652.88,623Z" transform="translate(-267.89 -290.41)"/><path class="cls-14" d="M652.88,624.85l.49.29L792.16,545a3,3,0,0,1,3,0l49.1,28.41.49-.29a1.06,1.06,0,0,0,0-1.85l-49.59-28.7a3,3,0,0,0-3,0L652.88,623A1.06,1.06,0,0,0,652.88,624.85Z" transform="translate(-267.89 -290.41)"/><polygon class="cls-15" points="563.88 278.91 442.54 348.97 447.35 351.74 568.69 281.69 563.88 278.91"/><polygon class="cls-15" points="551.1 271.53 435.77 338.12 440.57 340.89 555.9 274.31 551.1 271.53"/><polygon class="cls-15" points="427.15 343.09 416.38 349.31 421.19 352.08 431.96 345.87 427.15 343.09"/><polygon class="cls-15" points="436.67 352.36 429.17 356.69 433.98 359.46 441.48 355.13 436.67 352.36"/><polygon class="cls-15" points="543.09 266.91 408.37 344.68 413.18 347.46 547.89 269.68 543.09 266.91"/><polygon class="cls-15" points="535.08 262.28 400.36 340.06 405.17 342.83 539.88 265.06 535.08 262.28"/><polygon class="cls-15" points="527.06 257.66 392.35 335.43 397.16 338.21 531.87 260.43 527.06 257.66"/></g></g><polygon class="cls-8" points="475.4 325.23 488.61 317.6 488.99 319.89 475.79 327.52 475.4 325.23"/><polygon class="cls-8" points="490.73 316.38 497.92 312.22 498.31 314.52 491.12 318.68 490.73 316.38"/><polygon class="cls-8" points="509.12 305.76 514.33 302.75 514.71 305.05 509.51 308.06 509.12 305.76"/><polygon class="cls-8" points="505.32 307.96 507.1 306.93 507.49 309.22 505.71 310.25 505.32 307.96"/><polygon class="cls-8" points="500.07 310.99 503.31 309.12 503.69 311.42 500.46 313.28 500.07 310.99"/><polygon class="cls-8" points="485.85 307.69 491.06 304.69 491.44 306.98 486.24 309.99 485.85 307.69"/><polygon class="cls-8" points="473.63 314.76 483.83 308.86 484.22 311.15 474.02 317.05 473.63 314.76"/><polygon class="cls-8" points="488.25 277.59 498.45 271.7 498.84 273.99 488.64 279.89 488.25 277.59"/><polygon class="cls-8" points="483.01 280.63 486.24 278.76 486.63 281.05 483.39 282.92 483.01 280.63"/><polygon class="cls-8" points="489.96 288.08 500.16 282.19 500.55 284.48 490.34 290.38 489.96 288.08"/><polygon class="cls-8" points="484.71 291.12 487.94 289.25 488.33 291.54 485.1 293.41 484.71 291.12"/><polygon class="cls-8" points="480.73 232.32 461.51 243.43 461.12 241.13 480.34 230.03 480.73 232.32"/><polygon class="cls-8" points="487.5 228.41 482.74 231.16 482.36 228.86 487.11 226.12 487.5 228.41"/><polygon class="cls-8" points="521.26 226.18 502.05 237.29 501.66 234.99 520.88 223.89 521.26 226.18"/><polygon class="cls-8" points="528.04 222.27 523.28 225.01 522.89 222.72 527.65 219.97 528.04 222.27"/><polygon class="cls-8" points="467.6 245.66 462.39 248.67 462.01 246.37 467.21 243.36 467.6 245.66"/><polygon class="cls-8" points="499.27 238.86 494.07 241.87 493.68 239.58 498.89 236.57 499.27 238.86"/><polygon class="cls-8" points="479.82 238.6 469.62 244.49 469.23 242.2 479.43 236.3 479.82 238.6"/><polygon class="cls-8" points="485.07 235.56 481.84 237.43 481.45 235.14 484.68 233.27 485.07 235.56"/><polygon class="cls-8" points="497.38 228.46 487.18 234.35 486.79 232.06 496.99 226.17 497.38 228.46"/><polygon class="cls-8" points="502.63 225.43 499.4 227.29 499.01 225 502.24 223.13 502.63 225.43"/><polygon class="cls-8" points="498.39 233.62 493.18 236.63 492.8 234.34 498 231.33 498.39 233.62"/><polygon class="cls-8" points="510.61 226.56 500.41 232.46 500.02 230.16 510.22 224.27 510.61 226.56"/><polygon class="cls-8" points="515.86 223.53 512.62 225.4 512.24 223.1 515.47 221.24 515.86 223.53"/><polygon class="cls-8" points="473.93 247.75 463.28 253.9 462.89 251.61 473.54 245.45 473.93 247.75"/><polygon class="cls-8" points="483.65 242.13 475.95 246.58 475.56 244.29 483.26 239.84 483.65 242.13"/><polygon class="cls-8" points="490.88 237.95 485.67 240.96 485.28 238.67 490.49 235.66 490.88 237.95"/><polygon class="cls-8" points="541.36 214.59 530.71 220.74 530.33 218.45 540.98 212.29 541.36 214.59"/><polygon class="cls-8" points="551.08 208.97 543.38 213.42 542.99 211.13 550.7 206.68 551.08 208.97"/><polygon class="cls-8" points="558.31 204.79 553.1 207.8 552.71 205.51 557.92 202.5 558.31 204.79"/><polygon class="cls-8" points="537.2 283.8 547.86 277.64 548.24 279.93 537.59 286.09 537.2 283.8"/><polygon class="cls-8" points="527.48 289.42 535.19 284.96 535.57 287.26 527.87 291.71 527.48 289.42"/><polygon class="cls-8" points="520.26 293.59 525.47 290.58 525.85 292.88 520.65 295.88 520.26 293.59"/><polygon class="cls-8" points="533.67 291.61 544.32 285.45 544.71 287.75 534.05 293.9 533.67 291.61"/><polygon class="cls-8" points="523.95 297.23 531.65 292.78 532.04 295.07 524.34 299.52 523.95 297.23"/><polygon class="cls-8" points="516.72 301.4 521.93 298.4 522.32 300.69 517.11 303.7 516.72 301.4"/><polygon class="cls-8" points="490.66 281.92 494.26 279.85 494.64 282.14 491.05 284.22 490.66 281.92"/><polygon class="cls-8" points="483.89 285.84 488.64 283.09 489.03 285.38 484.27 288.13 483.89 285.84"/><polygon class="cls-8" points="474.88 252.95 464.23 259.11 463.85 256.82 474.5 250.66 474.88 252.95"/><polygon class="cls-8" points="484.61 247.34 476.9 251.79 476.51 249.5 484.22 245.04 484.61 247.34"/><polygon class="cls-8" points="491.83 243.16 486.62 246.17 486.24 243.88 491.44 240.87 491.83 243.16"/><polygon class="cls-8" points="468.71 262.27 465.12 264.35 464.73 262.06 468.33 259.98 468.71 262.27"/><polygon class="cls-8" points="475.49 258.36 470.73 261.1 470.35 258.81 475.1 256.06 475.49 258.36"/><polygon class="cls-8" points="485.17 252.76 477.5 257.19 477.12 254.9 484.78 250.47 485.17 252.76"/><polygon class="cls-8" points="495.55 296.37 499.15 294.29 499.54 296.58 495.94 298.66 495.55 296.37"/><polygon class="cls-8" points="488.78 300.28 493.54 297.53 493.92 299.83 489.17 302.57 488.78 300.28"/><polygon class="cls-8" points="479.1 305.88 486.76 301.45 487.15 303.74 479.49 308.17 479.1 305.88"/><polygon class="cls-8" points="501.03 287.86 508.69 283.44 509.08 285.73 501.42 290.16 501.03 287.86"/><polygon class="cls-8" points="488.5 294.69 498.83 288.73 499.22 291.02 488.89 296.99 488.5 294.69"/><polygon class="cls-8" points="483.26 297.73 486.49 295.86 486.87 298.15 483.64 300.02 483.26 297.73"/><polygon class="cls-8" points="478.22 300.64 481.45 298.77 481.84 301.06 478.61 302.93 478.22 300.64"/><polygon class="cls-8" points="478.91 271.04 489.11 265.14 489.5 267.44 479.3 273.33 478.91 271.04"/><polygon class="cls-8" points="473.66 274.07 476.89 272.21 477.28 274.5 474.05 276.37 473.66 274.07"/><polygon class="cls-8" points="479.61 264.88 483.21 262.8 483.6 265.1 480 267.17 479.61 264.88"/><polygon class="cls-8" points="492.31 269.08 495.91 267 496.3 269.29 492.7 271.37 492.31 269.08"/><polygon class="cls-8" points="497.44 266.12 506.08 261.13 506.46 263.42 497.83 268.41 497.44 266.12"/><polygon class="cls-8" points="507.61 260.25 512.74 257.28 513.13 259.58 508 262.54 507.61 260.25"/><polygon class="cls-8" points="472.84 268.8 477.6 266.05 477.98 268.34 473.23 271.09 472.84 268.8"/><polygon class="cls-8" points="472.39 263.41 475.99 261.33 476.38 263.63 472.78 265.71 472.39 263.41"/><polygon class="cls-8" points="465.62 267.33 470.38 264.58 470.76 266.87 466.01 269.62 465.62 267.33"/><polygon class="cls-8" points="487.09 272.09 490.32 270.22 490.71 272.52 487.48 274.38 487.09 272.09"/><polygon class="cls-8" points="482.06 275 485.29 273.13 485.68 275.43 482.44 277.3 482.06 275"/><polygon class="cls-8" points="506.87 301.33 517.89 294.96 518.28 297.25 507.26 303.62 506.87 301.33"/><polygon class="cls-8" points="494.53 308.46 504.86 302.49 505.24 304.79 494.92 310.75 494.53 308.46"/><polygon class="cls-8" points="489.28 311.49 492.51 309.63 492.9 311.92 489.67 313.79 489.28 311.49"/><polygon class="cls-8" points="484.25 314.4 487.48 312.54 487.86 314.83 484.63 316.7 484.25 314.4"/><polygon class="cls-8" points="481.49 316 474.52 320.02 474.91 322.32 481.88 318.29 481.49 316"/><g class="cls-43"><path class="cls-44" d="M470.83,754a15.64,15.64,0,0,1-7.79-2.08h0L311,664.11a4.72,4.72,0,0,1,0-8.16l95.82-55.33.59.35,159.29,92a4.72,4.72,0,0,1,0,8.16l-88,50.83A15.61,15.61,0,0,1,470.83,754Zm-6.61-4.12a13.49,13.49,0,0,0,13.23,0l88-50.82a2.37,2.37,0,0,0,0-4.1l-158.7-91.62-.15.09L312.14,658a2.37,2.37,0,0,0,0,4.1Z" transform="translate(-267.89 -290.41)"/></g><path class="cls-45" d="M406.59,565.7,427.78,440l-1.71-.72,2.56-1.46h0a1.83,1.83,0,0,1,2,.14l169.33,97.76a4.79,4.79,0,0,1,2.2,4.3l-21.36,126.7a1.59,1.59,0,0,1-.89,1.29h0l-2.5,1.45-.43-2.34.14,0L408.79,570A4.79,4.79,0,0,1,406.59,565.7Z" transform="translate(-267.89 -290.41)"/><path class="cls-46" d="M599,539.17l2.78-1.24a3.86,3.86,0,0,1,.36,2.1l-21.36,126.7a1.59,1.59,0,0,1-.89,1.29h0l-2.5,1.45-.43-2.34.14,0-8.52-4.92Z" transform="translate(-267.89 -290.41)"/><path class="cls-15" d="M406.13,571.53l169.33,97.76c1.31.75,2.43.32,2.66-1l21.35-126.7a4.77,4.77,0,0,0-2.2-4.3L428,439.49c-1.31-.75-2.43-.32-2.66,1l-21.36,126.7A4.81,4.81,0,0,0,406.13,571.53Z" transform="translate(-267.89 -290.41)"/><g class="cls-27"><polygon class="cls-19" points="162.26 157.17 325.48 251.4 305.24 370.73 142.13 276.56 162.26 157.17"/></g><path class="cls-47" d="M299.69,631.51l9.24,4.83,92.66-53.5a6.72,6.72,0,0,1,6.05.25l159.81,92.27c1.53-.86,8.51-4.21,8.51-4.21L572.57,680h0a2,2,0,0,1-.94,1L474,737.34a6.67,6.67,0,0,1-6-.25L304.44,642.67a2.84,2.84,0,0,1-1.37-1.45h0Z" transform="translate(-267.89 -290.41)"/><path class="cls-48" d="M301.12,633,468.73,729.8a6.88,6.88,0,0,0,6.2.25l100-57.74c1.59-.92,1.39-2.52-.44-3.58L406.89,572a6.88,6.88,0,0,0-6.2-.25l-100,57.74C299.09,630.37,299.29,632,301.12,633Z" transform="translate(-267.89 -290.41)"/><path class="cls-11" d="M301.12,632.06l167.61,96.77a6.91,6.91,0,0,0,6.2.26l100-57.75a2,2,0,0,0,1-1.08,1.68,1.68,0,0,1-1,2l-100,57.74a6.88,6.88,0,0,1-6.2-.25L301.12,633c-1.23-.71-1.71-1.67-1.42-2.5A3,3,0,0,0,301.12,632.06Z" transform="translate(-267.89 -290.41)"/><path class="cls-12" d="M519.28,708.86V707c0-.18-.1-.26-.24-.18l-6.48,3.74a.57.57,0,0,0-.23.45v1.84c0,.17.1.25.23.18l6.48-3.74A.56.56,0,0,0,519.28,708.86Z" transform="translate(-267.89 -290.41)"/><path class="cls-12" d="M509.59,714.46v-1.84c0-.17-.11-.25-.24-.18l-6.48,3.75a.55.55,0,0,0-.24.45v1.84c0,.17.11.25.24.18l6.48-3.75A.55.55,0,0,0,509.59,714.46Z" transform="translate(-267.89 -290.41)"/><path class="cls-13" d="M548.87,666.9,409.59,586.49a3,3,0,0,0-3,0L357,615.18a1.07,1.07,0,0,0,0,1.85L496.2,697.41a3,3,0,0,0,3,0l49.67-28.66A1.07,1.07,0,0,0,548.87,666.9Z" transform="translate(-267.89 -290.41)"/><path class="cls-14" d="M548.87,668.75l-.5.29L409.59,588.91a3,3,0,0,0-3,0l-49.1,28.4L357,617a1.07,1.07,0,0,1,0-1.85l49.6-28.69a3,3,0,0,1,3,0L548.87,666.9A1.07,1.07,0,0,1,548.87,668.75Z" transform="translate(-267.89 -290.41)"/><polygon class="cls-15" points="146.6 310.07 264.49 378.14 269.59 374.87 152 306.98 146.6 310.07"/><polygon class="cls-15" points="138.94 320.88 245.98 382.68 249.65 378.58 144.32 317.77 138.94 320.88"/><polygon class="cls-15" points="113.17 315.92 246.78 393.06 252.16 389.95 118.55 312.81 113.17 315.92"/><polygon class="cls-15" points="104.58 320.88 238.19 398.02 243.57 394.91 109.96 317.77 104.58 320.88"/><polygon class="cls-15" points="95.99 325.84 229.6 402.98 234.98 399.87 101.37 322.73 95.99 325.84"/><polygon class="cls-15" points="263.24 377.42 268.62 380.52 274 377.42 268.62 374.31 263.24 377.42"/><polygon class="cls-15" points="244.27 381.69 255.44 388.14 260.81 385.03 249.65 378.58 244.27 381.69"/><path class="cls-49" d="M404.22,686.36l-37.55-21.68c-1.47-.85-1.47-2.22,0-3.07l25.68-14.83a5.85,5.85,0,0,1,5.31,0l37.56,21.68c1.47.85,1.47,2.23,0,3.07l-25.68,14.83A5.87,5.87,0,0,1,404.22,686.36Z" transform="translate(-267.89 -290.41)"/><path class="cls-14" d="M435.22,669.72,397.66,648a5.85,5.85,0,0,0-5.31,0l-25.68,14.82a2.36,2.36,0,0,0-.92.91c-.39-.74-.1-1.58.92-2.16l25.68-14.83a5.85,5.85,0,0,1,5.31,0l37.56,21.68c1,.59,1.31,1.43.92,2.17A2.29,2.29,0,0,0,435.22,669.72Z" transform="translate(-267.89 -290.41)"/><g class="cls-39"><g class="cls-50"><path class="cls-51" d="M406.73,571.76l167.6,96.77a6.91,6.91,0,0,0,6.2.26l100-57.75c1.59-.91,1.39-2.52-.45-3.58L512.5,510.7a6.88,6.88,0,0,0-6.2-.26l-100,57.74C404.69,569.1,404.89,570.7,406.73,571.76Z" transform="translate(-267.89 -290.41)"/><path class="cls-52" d="M574.83,589.11l-37.55-21.68c-1.47-.85-1.47-2.22,0-3.07L563,549.53a5.91,5.91,0,0,1,5.31,0l37.56,21.69c1.47.84,1.47,2.22,0,3.07l-25.68,14.82A5.87,5.87,0,0,1,574.83,589.11Z" transform="translate(-267.89 -290.41)"/><path class="cls-14" d="M605.83,572.47l-37.56-21.68a5.85,5.85,0,0,0-5.31,0l-25.68,14.83a2.31,2.31,0,0,0-.93.9c-.39-.74-.09-1.57.93-2.16L563,549.53a5.91,5.91,0,0,1,5.31,0l37.56,21.69c1,.58,1.31,1.42.92,2.16A2.29,2.29,0,0,0,605.83,572.47Z" transform="translate(-267.89 -290.41)"/><path class="cls-13" d="M622.34,623,483.06,542.58a3,3,0,0,0-3,0l-49.6,28.7a1.07,1.07,0,0,0,0,1.85l139.21,80.38a3,3,0,0,0,3,0l49.67-28.66A1.07,1.07,0,0,0,622.34,623Z" transform="translate(-267.89 -290.41)"/><path class="cls-14" d="M622.34,624.85l-.5.29L483.06,545a3,3,0,0,0-3,0L431,573.42l-.5-.29a1.07,1.07,0,0,1,0-1.85l49.6-28.7a3,3,0,0,1,3,0L622.34,623A1.07,1.07,0,0,1,622.34,624.85Z" transform="translate(-267.89 -290.41)"/><polygon class="cls-15" points="175.54 278.91 296.88 348.97 292.07 351.74 170.74 281.69 175.54 278.91"/><polygon class="cls-15" points="188.33 271.53 303.66 338.12 298.85 340.89 183.52 274.31 188.33 271.53"/><polygon class="cls-15" points="312.27 343.09 323.04 349.31 318.24 352.08 307.46 345.87 312.27 343.09"/><polygon class="cls-15" points="302.76 352.36 310.26 356.69 305.45 359.46 297.95 355.13 302.76 352.36"/><polygon class="cls-15" points="196.34 266.91 331.05 344.68 326.25 347.46 191.53 269.68 196.34 266.91"/><polygon class="cls-15" points="204.35 262.28 339.06 340.06 334.26 342.83 199.54 265.06 204.35 262.28"/><polygon class="cls-15" points="212.36 257.66 347.07 335.43 342.27 338.21 207.56 260.43 212.36 257.66"/></g></g><polygon class="cls-8" points="198.81 201.4 212.01 209.03 212.4 206.74 199.2 199.1 198.81 201.4"/><polygon class="cls-8" points="214.14 210.25 221.33 214.41 221.72 212.11 214.53 207.95 214.14 210.25"/><polygon class="cls-8" points="232.53 220.87 237.73 223.88 238.12 221.58 232.91 218.57 232.53 220.87"/><polygon class="cls-8" points="228.73 218.67 230.51 219.7 230.9 217.41 229.12 216.38 228.73 218.67"/><polygon class="cls-8" points="223.48 215.64 226.71 217.51 227.1 215.21 223.87 213.35 223.48 215.64"/><polygon class="cls-8" points="209.26 218.93 214.46 221.94 214.85 219.65 209.64 216.64 209.26 218.93"/><polygon class="cls-8" points="197.04 211.87 207.24 217.77 207.63 215.47 197.43 209.58 197.04 211.87"/><polygon class="cls-8" points="211.66 249.03 221.86 254.93 222.25 252.64 212.05 246.74 211.66 249.03"/><polygon class="cls-8" points="206.41 246 209.65 247.87 210.03 245.58 206.8 243.71 206.41 246"/><polygon class="cls-8" points="213.37 238.54 223.57 244.44 223.95 242.15 213.75 236.25 213.37 238.54"/><polygon class="cls-8" points="208.12 235.51 211.35 237.38 211.74 235.09 208.5 233.22 208.12 235.51"/><polygon class="cls-8" points="204.13 294.31 184.92 283.2 184.53 285.49 203.75 296.6 204.13 294.31"/><polygon class="cls-8" points="210.91 298.22 206.15 295.47 205.76 297.76 210.52 300.51 210.91 298.22"/><polygon class="cls-8" points="244.67 300.45 225.46 289.34 225.07 291.63 244.28 302.74 244.67 300.45"/><polygon class="cls-8" points="251.44 304.36 246.69 301.61 246.3 303.91 251.06 306.65 251.44 304.36"/><polygon class="cls-8" points="191.01 280.97 185.8 277.96 185.42 280.26 190.62 283.26 191.01 280.97"/><polygon class="cls-8" points="222.68 287.77 217.48 284.76 217.09 287.05 222.29 290.06 222.68 287.77"/><polygon class="cls-8" points="203.23 288.03 193.03 282.14 192.64 284.43 202.84 290.33 203.23 288.03"/><polygon class="cls-8" points="208.47 291.07 205.24 289.2 204.86 291.49 208.09 293.36 208.47 291.07"/><polygon class="cls-8" points="220.79 298.17 210.59 292.27 210.2 294.57 220.4 300.46 220.79 298.17"/><polygon class="cls-8" points="226.03 301.2 222.8 299.34 222.42 301.63 225.65 303.5 226.03 301.2"/><polygon class="cls-8" points="221.8 293.01 216.59 290 216.21 292.29 221.41 295.3 221.8 293.01"/><polygon class="cls-8" points="234.01 300.07 223.81 294.17 223.43 296.46 233.63 302.36 234.01 300.07"/><polygon class="cls-8" points="239.26 303.1 236.03 301.23 235.65 303.53 238.88 305.39 239.26 303.1"/><polygon class="cls-8" points="197.34 278.88 186.69 272.73 186.3 275.02 196.95 281.17 197.34 278.88"/><polygon class="cls-8" points="207.06 284.5 199.36 280.05 198.97 282.34 206.67 286.79 207.06 284.5"/><polygon class="cls-8" points="214.28 288.67 209.08 285.67 208.69 287.96 213.9 290.97 214.28 288.67"/><polygon class="cls-8" points="264.77 312.04 254.12 305.89 253.73 308.18 264.38 314.33 264.77 312.04"/><polygon class="cls-8" points="274.49 317.66 266.79 313.21 266.4 315.5 274.11 319.95 274.49 317.66"/><polygon class="cls-8" points="281.72 321.83 276.51 318.83 276.12 321.12 281.33 324.13 281.72 321.83"/><polygon class="cls-8" points="260.61 242.83 271.26 248.99 271.65 246.69 261 240.54 260.61 242.83"/><polygon class="cls-8" points="250.89 237.21 258.6 241.66 258.98 239.37 251.28 234.92 250.89 237.21"/><polygon class="cls-8" points="243.67 233.04 248.87 236.05 249.26 233.75 244.06 230.75 243.67 233.04"/><polygon class="cls-8" points="257.08 235.02 267.73 241.17 268.12 238.88 257.46 232.72 257.08 235.02"/><polygon class="cls-8" points="247.36 229.4 255.06 233.85 255.45 231.56 247.74 227.11 247.36 229.4"/><polygon class="cls-8" points="240.13 225.22 245.34 228.23 245.73 225.94 240.52 222.93 240.13 225.22"/><polygon class="cls-8" points="214.07 244.7 217.66 246.78 218.05 244.49 214.46 242.41 214.07 244.7"/><polygon class="cls-8" points="207.29 240.79 212.05 243.54 212.44 241.25 207.68 238.5 207.29 240.79"/><polygon class="cls-8" points="198.29 273.67 187.64 267.52 187.25 269.81 197.91 275.97 198.29 273.67"/><polygon class="cls-8" points="208.01 279.29 200.31 274.84 199.92 277.13 207.63 281.58 208.01 279.29"/><polygon class="cls-8" points="215.24 283.47 210.03 280.46 209.64 282.75 214.85 285.76 215.24 283.47"/><polygon class="cls-8" points="192.12 264.36 188.53 262.28 188.14 264.57 191.74 266.65 192.12 264.36"/><polygon class="cls-8" points="198.9 268.27 194.14 265.53 193.75 267.82 198.51 270.57 198.9 268.27"/><polygon class="cls-8" points="208.57 273.87 200.91 269.44 200.53 271.73 208.19 276.16 208.57 273.87"/><polygon class="cls-8" points="218.96 230.26 222.56 232.34 222.95 230.05 219.35 227.97 218.96 230.26"/><polygon class="cls-8" points="212.19 226.35 216.94 229.09 217.33 226.8 212.58 224.06 212.19 226.35"/><polygon class="cls-8" points="202.51 220.75 210.17 225.18 210.56 222.89 202.9 218.46 202.51 220.75"/><polygon class="cls-8" points="224.44 238.76 232.1 243.19 232.49 240.9 224.83 236.47 224.44 238.76"/><polygon class="cls-8" points="211.91 231.94 222.24 237.9 222.63 235.61 212.3 229.64 211.91 231.94"/><polygon class="cls-8" points="206.66 228.9 209.9 230.77 210.28 228.48 207.05 226.61 206.66 228.9"/><polygon class="cls-8" points="201.63 225.99 204.86 227.86 205.25 225.56 202.01 223.7 201.63 225.99"/><polygon class="cls-8" points="202.32 255.59 212.52 261.48 212.91 259.19 202.71 253.3 202.32 255.59"/><polygon class="cls-8" points="197.07 252.56 200.3 254.42 200.69 252.13 197.46 250.26 197.07 252.56"/><polygon class="cls-8" points="203.02 261.75 206.62 263.83 207.01 261.53 203.41 259.45 203.02 261.75"/><polygon class="cls-8" points="215.72 257.55 219.32 259.63 219.71 257.34 216.11 255.26 215.72 257.55"/><polygon class="cls-8" points="220.85 260.51 229.48 265.5 229.87 263.2 221.24 258.22 220.85 260.51"/><polygon class="cls-8" points="231.02 266.38 236.15 269.35 236.54 267.05 231.4 264.09 231.02 266.38"/><polygon class="cls-8" points="196.25 257.83 201 260.58 201.39 258.29 196.64 255.54 196.25 257.83"/><polygon class="cls-8" points="195.8 263.22 199.4 265.3 199.79 263 196.19 260.92 195.8 263.22"/><polygon class="cls-8" points="189.03 259.3 193.78 262.05 194.17 259.76 189.42 257.01 189.03 259.3"/><polygon class="cls-8" points="210.5 254.54 213.73 256.4 214.12 254.11 210.89 252.25 210.5 254.54"/><polygon class="cls-8" points="205.47 251.63 208.7 253.49 209.08 251.2 205.85 249.33 205.47 251.63"/><polygon class="cls-8" points="230.28 225.3 241.3 231.67 241.69 229.38 230.67 223.01 230.28 225.3"/><polygon class="cls-8" points="217.94 218.17 228.26 224.14 228.65 221.84 218.32 215.88 217.94 218.17"/><polygon class="cls-8" points="212.69 215.13 215.92 217 216.31 214.71 213.08 212.84 212.69 215.13"/><polygon class="cls-8" points="207.65 212.22 210.88 214.09 211.27 211.8 208.04 209.93 207.65 212.22"/><polygon class="cls-8" points="204.9 210.63 197.93 206.6 198.32 204.31 205.29 208.34 204.9 210.63"/><polygon class="cls-15" points="134.95 303.35 140.33 306.45 145.71 303.35 140.33 300.24 134.95 303.35"/><polygon class="cls-15" points="121.76 310.96 132.93 317.41 138.31 314.3 127.14 307.85 121.76 310.96"/></g></g></svg>