<svg id="Layer_1" data-name="Layer 1" xmlns="http://www.w3.org/2000/svg" xmlns:xlink="http://www.w3.org/1999/xlink" viewBox="0 0 156.17 139.66"><defs><style>.cls-1{fill:none;}.cls-2{fill:url(#Безымянный_градиент_35);}.cls-3{fill:url(#Безымянный_градиент_33);}.cls-4{fill:url(#Новый_образец_градиента_1);}.cls-5{fill:url(#Безымянный_градиент_33-2);}.cls-6{fill:#025e6a;}.cls-7{fill:#0390a3;}.cls-8{fill:#03a1b6;}.cls-9{isolation:isolate;}.cls-10{clip-path:url(#clip-path);}.cls-11{fill:#02616e;}.cls-12{fill:#026572;}.cls-13{fill:#026976;}.cls-14{fill:#026c7a;}.cls-15{fill:#02707f;}.cls-16{fill:#027483;}.cls-17{fill:#037887;}.cls-18{fill:#037b8b;}.cls-19{fill:#037f8f;}.cls-20{fill:#038394;}.cls-21{fill:#038798;}.cls-22{fill:#038a9c;}.cls-23{fill:#038ea0;}.cls-24{fill:#0392a5;}.cls-25{fill:#0396a9;}.cls-26{fill:#0399ad;}.cls-27{fill:#039db1;}.cls-28{fill:#03a1b5;}.cls-29{fill:#04a5ba;}.cls-30{fill:#04a8be;}.cls-31{fill:#04acc2;}.cls-32{fill:#04b0c6;}.cls-33{fill:#04b4cb;}.cls-34{fill:#04b7cf;}.cls-35{fill:#04bbd3;}.cls-36{fill:#22c3d8;}.cls-37{fill:#2fc7da;}.cls-38{fill:#38c9dc;}.cls-39{fill:#40cbde;}.cls-40{fill:#47cddf;}.cls-41{clip-path:url(#clip-path-2);}.cls-42{fill:#04acc3;}.cls-43{fill:#04bad1;}.cls-44{clip-path:url(#clip-path-3);}.cls-45{clip-path:url(#clip-path-4);}.cls-46{clip-path:url(#clip-path-5);}.cls-47{clip-path:url(#clip-path-6);}.cls-48{fill:url(#Безымянный_градиент_33-3);}.cls-49{fill:#037c8b;}.cls-50{fill:#04b7ce;}.cls-51{clip-path:url(#clip-path-7);}.cls-52{clip-path:url(#clip-path-8);}.cls-53{clip-path:url(#clip-path-9);}.cls-54{clip-path:url(#clip-path-10);}.cls-55{fill:url(#Новый_образец_градиента_1-2);}.cls-56{fill:url(#Новый_образец_градиента_1-3);}.cls-57{fill:url(#Новый_образец_градиента_1-4);}.cls-58{fill:url(#Безымянный_градиент_33-4);}.cls-59{fill:url(#Безымянный_градиент_44);}.cls-60{fill:url(#Новый_образец_градиента_1-5);}.cls-61{fill:url(#Новый_образец_градиента_1-6);}.cls-62{fill:url(#Безымянный_градиент_33-5);}.cls-63{fill:url(#Новый_образец_градиента_1-7);}.cls-64{fill:url(#Безымянный_градиент_33-6);}.cls-65{fill:url(#Безымянный_градиент_33-7);}.cls-66{fill:url(#Новый_образец_градиента_1-8);}.cls-67{fill:url(#Безымянный_градиент_33-8);}.cls-68{fill:url(#Безымянный_градиент_35-2);}</style><linearGradient id="Безымянный_градиент_35" x1="602.47" y1="507.16" x2="758" y2="507.16" gradientUnits="userSpaceOnUse"><stop offset="0" stop-color="#006c7a"/><stop offset="0.58" stop-color="#028d9f" stop-opacity="0"/><stop offset="1" stop-color="#04bbd3"/></linearGradient><linearGradient id="Безымянный_градиент_33" x1="652.83" y1="495.07" x2="654.51" y2="480.43" gradientTransform="translate(-598.5 -430.58) rotate(0.89)" gradientUnits="userSpaceOnUse"><stop offset="0" stop-color="#cbedf2"/><stop offset="1" stop-color="#04bbd3"/></linearGradient><linearGradient id="Новый_образец_градиента_1" x1="664.46" y1="484.48" x2="665.29" y2="493.55" gradientTransform="translate(-598.5 -430.58) rotate(0.89)" gradientUnits="userSpaceOnUse"><stop offset="0" stop-color="#006c7a"/><stop offset="1" stop-color="#04bbd3"/></linearGradient><linearGradient id="Безымянный_градиент_33-2" x1="653.62" y1="482.83" x2="665.67" y2="507.12" xlink:href="#Безымянный_градиент_33"/><clipPath id="clip-path" transform="translate(-601.83 -406.81)"><path class="cls-1" d="M675.26,455.1l4-2.3c-1.7,1-2.75,3.08-2.76,6.06,0,6,4.21,13.32,9.43,16.34l-4,2.31c-5.22-3-9.45-10.34-9.43-16.34C672.51,458.19,673.56,456.09,675.26,455.1Z"/></clipPath><clipPath id="clip-path-2" transform="translate(-601.83 -406.81)"><path class="cls-1" d="M692.64,475.86l-4,2.3c-1.72,1-4.1.86-6.73-.65l4-2.31C688.53,476.72,690.91,476.86,692.64,475.86Z"/></clipPath><clipPath id="clip-path-3" transform="translate(-601.83 -406.81)"><path class="cls-1" d="M697.71,479.6l4-2.31a11,11,0,0,1-2.26,4.91l-4,2.31A11,11,0,0,0,697.71,479.6Z"/></clipPath><clipPath id="clip-path-4" transform="translate(-601.83 -406.81)"><path class="cls-1" d="M673.25,446l4-2.31a11.26,11.26,0,0,1,5.4.54l-4,2.31A11.21,11.21,0,0,0,673.25,446Z"/></clipPath><clipPath id="clip-path-5" transform="translate(-601.83 -406.81)"><path class="cls-1" d="M695.51,464.37l4-2.31a33.18,33.18,0,0,1,2.22,7.5l-4,2.3A33.11,33.11,0,0,0,695.51,464.37Z"/></clipPath><clipPath id="clip-path-6" transform="translate(-601.83 -406.81)"><path class="cls-1" d="M685.38,450.47l4-2.31a33.62,33.62,0,0,1,5.39,5.69l-4,2.31A33.25,33.25,0,0,0,685.38,450.47Z"/></clipPath><linearGradient id="Безымянный_градиент_33-3" x1="661.27" y1="466.64" x2="702.66" y2="466.64" gradientTransform="matrix(1, 0, 0, 1, 0, 0)" xlink:href="#Безымянный_градиент_33"/><clipPath id="clip-path-7" transform="translate(-601.83 -406.81)"><path class="cls-1" d="M727.09,455.92l-4,2.31a5.18,5.18,0,0,1-3.14.6l4-2.31A5,5,0,0,0,727.09,455.92Z"/></clipPath><clipPath id="clip-path-8" transform="translate(-601.83 -406.81)"><path class="cls-1" d="M709.72,435.16l4-2.31c-2.6,1.51-3.54,5.59-2.07,10.61s5,9.66,8.74,11.8a9,9,0,0,0,3.59,1.26l-4,2.31a9.33,9.33,0,0,1-3.59-1.26c-3.72-2.15-7.25-6.73-8.74-11.8S707.12,436.67,709.72,435.16Z"/></clipPath><clipPath id="clip-path-9" transform="translate(-601.83 -406.81)"><path class="cls-1" d="M731.79,464l-4,2.31a8.13,8.13,0,0,0,1.81-1.45l4-2.31A7.85,7.85,0,0,1,731.79,464Z"/></clipPath><clipPath id="clip-path-10" transform="translate(-601.83 -406.81)"><path class="cls-1" d="M705,427.05l4-2.31a7.94,7.94,0,0,1,2.34-.89l-4,2.31A7.42,7.42,0,0,0,705,427.05Z"/></clipPath><linearGradient id="Новый_образец_градиента_1-2" x1="746.37" y1="468.24" x2="704.13" y2="421.21" gradientTransform="matrix(1, 0, 0, 1, 0, 0)" xlink:href="#Новый_образец_градиента_1"/><linearGradient id="Новый_образец_градиента_1-3" x1="751.27" y1="463.85" x2="709.03" y2="416.81" gradientTransform="matrix(1, 0, 0, 1, 0, 0)" xlink:href="#Новый_образец_градиента_1"/><linearGradient id="Новый_образец_градиента_1-4" x1="751.57" y1="463.57" x2="709.33" y2="416.54" gradientTransform="matrix(1, 0, 0, 1, 0, 0)" xlink:href="#Новый_образец_градиента_1"/><linearGradient id="Безымянный_градиент_33-4" x1="695.99" y1="446.69" x2="736.84" y2="446.69" gradientTransform="matrix(1, 0, 0, 1, 0, 0)" xlink:href="#Безымянный_градиент_33"/><linearGradient id="Безымянный_градиент_44" x1="669.68" y1="509.22" x2="725.17" y2="512.59" gradientUnits="userSpaceOnUse"><stop offset="0" stop-color="#006c7a"/><stop offset="0.54" stop-color="#0297aa"/><stop offset="1" stop-color="#04bbd3"/></linearGradient><linearGradient id="Новый_образец_градиента_1-5" x1="650.58" y1="495.53" x2="636.43" y2="535.07" gradientTransform="matrix(1, 0, 0, 1, 0, 0)" xlink:href="#Новый_образец_градиента_1"/><linearGradient id="Новый_образец_градиента_1-6" x1="650.86" y1="470.73" x2="645.99" y2="502.98" gradientTransform="matrix(1, 0, 0, 1, 0, 0)" xlink:href="#Новый_образец_градиента_1"/><linearGradient id="Безымянный_градиент_33-5" x1="631.02" y1="435.23" x2="632.64" y2="421.06" gradientTransform="matrix(1, -0.01, 0.01, 1, -609.4, -333.23)" xlink:href="#Безымянный_градиент_33"/><linearGradient id="Новый_образец_градиента_1-7" x1="634.53" y1="416.41" x2="636.14" y2="433.95" gradientTransform="matrix(1, -0.01, 0.01, 1, -609.4, -333.23)" xlink:href="#Новый_образец_градиента_1"/><linearGradient id="Безымянный_градиент_33-6" x1="631.95" y1="423.67" x2="635.95" y2="431.74" gradientTransform="matrix(1, -0.01, 0.01, 1, -609.4, -333.23)" xlink:href="#Безымянный_градиент_33"/><linearGradient id="Безымянный_градиент_33-7" x1="657.67" y1="447.56" x2="659.47" y2="431.91" gradientTransform="matrix(1, -0.01, 0.01, 1, -609.4, -333.23)" xlink:href="#Безымянный_градиент_33"/><linearGradient id="Новый_образец_градиента_1-8" x1="661.59" y1="427.05" x2="663.34" y2="446.13" gradientTransform="matrix(1, -0.01, 0.01, 1, -609.4, -333.23)" xlink:href="#Новый_образец_градиента_1"/><linearGradient id="Безымянный_градиент_33-8" x1="658.63" y1="434.83" x2="663.15" y2="443.95" gradientTransform="matrix(1, -0.01, 0.01, 1, -609.4, -333.23)" xlink:href="#Безымянный_градиент_33"/><linearGradient id="Безымянный_градиент_35-2" x1="601.83" y1="446.13" x2="757.37" y2="446.13" xlink:href="#Безымянный_градиент_35"/></defs><title>business-process</title><path class="cls-2" d="M680.23,546.48c-42.88,0-77.76-17.64-77.76-39.32s34.88-39.32,77.76-39.32S758,485.48,758,507.16,723.11,546.48,680.23,546.48Zm0-76.91c-41.92,0-76,16.86-76,37.59s34.11,37.59,76,37.59,76-16.87,76-37.59S722.16,469.57,680.23,469.57Z" transform="translate(-601.83 -406.81)"/><polygon class="cls-3" points="37.55 64.03 57.44 72.51 57.48 70.08 37.59 61.6 37.55 64.03"/><polygon class="cls-4" points="60.15 71.42 57.44 72.51 57.48 70.08 60.19 69 60.15 71.42"/><polygon class="cls-5" points="37.59 61.6 57.48 70.08 60.19 69 40.3 60.49 37.59 61.6"/><polygon class="cls-6" points="63.08 64.07 67.05 61.77 70.55 59.77 66.58 62.08 63.08 64.07"/><polygon class="cls-7" points="83.44 79.87 87.41 77.57 87.4 83.22 83.43 85.53 83.44 79.87"/><polygon class="cls-8" points="59.46 44.01 63.43 41.7 68.35 44.55 64.38 46.85 59.46 44.01"/><g class="cls-9"><g class="cls-10"><g class="cls-9"><path class="cls-11" d="M675.26,455.1l4-2.3a4.73,4.73,0,0,0-1.64,1.6l-4,2.3a4.91,4.91,0,0,1,1.64-1.6" transform="translate(-601.83 -406.81)"/><path class="cls-12" d="M673.62,456.7l4-2.3a6.6,6.6,0,0,0-.36.64l-4,2.31a6.77,6.77,0,0,1,.36-.65" transform="translate(-601.83 -406.81)"/><path class="cls-13" d="M673.26,457.35l4-2.31c-.08.18-.15.36-.22.54l-4,2.31c.07-.19.14-.37.22-.54" transform="translate(-601.83 -406.81)"/><path class="cls-14" d="M673,457.89l4-2.31c-.06.16-.12.33-.17.5l-4,2.31c0-.17.11-.34.17-.5" transform="translate(-601.83 -406.81)"/><path class="cls-15" d="M672.87,458.39l4-2.31c0,.16-.09.32-.12.48l-4,2.31c0-.16.08-.33.12-.48" transform="translate(-601.83 -406.81)"/><path class="cls-16" d="M672.75,458.87l4-2.31c0,.15-.07.31-.1.47l-4,2.3c0-.15.06-.31.1-.46" transform="translate(-601.83 -406.81)"/><path class="cls-17" d="M672.65,459.33l4-2.3-.06.45-4,2.31c0-.16,0-.31.06-.46" transform="translate(-601.83 -406.81)"/><path class="cls-18" d="M672.59,459.79l4-2.31c0,.15,0,.3,0,.45l-4,2.31c0-.15,0-.31.05-.45" transform="translate(-601.83 -406.81)"/><path class="cls-19" d="M672.54,460.24l4-2.31,0,.45-4,2.31,0-.45" transform="translate(-601.83 -406.81)"/><path class="cls-20" d="M672.51,460.69l4-2.31c0,.15,0,.3,0,.46l-4,2.31c0-.16,0-.31,0-.46" transform="translate(-601.83 -406.81)"/><path class="cls-21" d="M672.5,461.15l4-2.31v0c0,.15,0,.29,0,.43l-4,2.31c0-.14,0-.29,0-.43v0" transform="translate(-601.83 -406.81)"/><path class="cls-22" d="M672.51,461.6l4-2.31c0,.15,0,.31,0,.46l-4,2.31c0-.16,0-.31,0-.46" transform="translate(-601.83 -406.81)"/><path class="cls-23" d="M672.53,462.06l4-2.31,0,.46-4,2.31,0-.46" transform="translate(-601.83 -406.81)"/><path class="cls-24" d="M672.56,462.52l4-2.31.06.46-4,2.31-.06-.46" transform="translate(-601.83 -406.81)"/><path class="cls-25" d="M672.62,463l4-2.31.06.48-4,2.3-.06-.47" transform="translate(-601.83 -406.81)"/><path class="cls-26" d="M672.68,463.45l4-2.3.09.47-4,2.31-.09-.48" transform="translate(-601.83 -406.81)"/><path class="cls-27" d="M672.77,463.93l4-2.31c0,.17.06.33.1.5l-4,2.3c0-.16-.07-.32-.1-.49" transform="translate(-601.83 -406.81)"/><path class="cls-28" d="M672.87,464.42l4-2.3c0,.16.07.33.11.49l-4,2.31c0-.17-.08-.33-.11-.5" transform="translate(-601.83 -406.81)"/><path class="cls-29" d="M673,464.92l4-2.31c0,.17.09.34.13.5l-4,2.31c0-.17-.09-.33-.13-.5" transform="translate(-601.83 -406.81)"/><path class="cls-30" d="M673.11,465.42l4-2.31.15.5-4,2.31-.15-.5" transform="translate(-601.83 -406.81)"/><path class="cls-31" d="M673.26,465.92l4-2.31c0,.17.1.33.16.49l-4,2.31c-.06-.16-.11-.32-.16-.49" transform="translate(-601.83 -406.81)"/><path class="cls-32" d="M673.42,466.41l4-2.31.16.49-4,2.3-.16-.48" transform="translate(-601.83 -406.81)"/><path class="cls-33" d="M673.58,466.89l4-2.3.18.46-4,2.31-.18-.47" transform="translate(-601.83 -406.81)"/><path class="cls-34" d="M673.76,467.36l4-2.31.18.46-4,2.31-.18-.46" transform="translate(-601.83 -406.81)"/><path class="cls-35" d="M673.94,467.82l4-2.31.2.45-4,2.31-.2-.45" transform="translate(-601.83 -406.81)"/><path class="cls-36" d="M674.14,468.27l4-2.31a4.69,4.69,0,0,0,.21.46l-4,2.3c-.07-.15-.14-.3-.2-.45" transform="translate(-601.83 -406.81)"/><path class="cls-37" d="M674.34,468.72l4-2.3c.07.16.15.33.24.5l-4,2.3c-.09-.16-.17-.33-.25-.5" transform="translate(-601.83 -406.81)"/><path class="cls-38" d="M674.59,469.22l4-2.3c.09.19.19.38.29.56l-4,2.31c-.1-.19-.2-.38-.29-.57" transform="translate(-601.83 -406.81)"/><path class="cls-39" d="M674.88,469.79l4-2.31c.15.28.31.56.47.84l-4,2.3c-.17-.27-.32-.55-.47-.83" transform="translate(-601.83 -406.81)"/><path class="cls-40" d="M675.35,470.62l4-2.3c.22.38.45.75.7,1.11l-4,2.31c-.25-.36-.48-.74-.7-1.12" transform="translate(-601.83 -406.81)"/><path class="cls-39" d="M676.05,471.74l4-2.31c.19.29.39.58.6.86l-4,2.31c-.21-.28-.41-.57-.6-.86" transform="translate(-601.83 -406.81)"/><path class="cls-38" d="M676.65,472.6l4-2.31.42.55-4,2.31c-.15-.18-.29-.37-.42-.55" transform="translate(-601.83 -406.81)"/><path class="cls-37" d="M677.07,473.15l4-2.31.36.45-4,2.31-.36-.45" transform="translate(-601.83 -406.81)"/><path class="cls-36" d="M677.43,473.6l4-2.31c.12.15.25.29.37.43l-4,2.31c-.13-.14-.25-.29-.37-.43" transform="translate(-601.83 -406.81)"/><path class="cls-35" d="M677.8,474l4-2.31.37.41-4,2.3c-.13-.13-.25-.27-.37-.4" transform="translate(-601.83 -406.81)"/><path class="cls-34" d="M678.17,474.43l4-2.3.38.4-4,2.31c-.13-.13-.26-.27-.38-.41" transform="translate(-601.83 -406.81)"/><path class="cls-33" d="M678.55,474.84l4-2.31.4.4-4,2.31c-.13-.13-.26-.27-.4-.4" transform="translate(-601.83 -406.81)"/><path class="cls-32" d="M679,475.24l4-2.31.42.38-4,2.31-.42-.38" transform="translate(-601.83 -406.81)"/><path class="cls-31" d="M679.37,475.62l4-2.31.42.37-4,2.31-.42-.37" transform="translate(-601.83 -406.81)"/><path class="cls-30" d="M679.79,476l4-2.31.42.34-4,2.31-.42-.34" transform="translate(-601.83 -406.81)"/><path class="cls-29" d="M680.21,476.33l4-2.31.42.32-4,2.31-.41-.32" transform="translate(-601.83 -406.81)"/><path class="cls-28" d="M680.62,476.65l4-2.31.41.29-4,2.31-.42-.29" transform="translate(-601.83 -406.81)"/><path class="cls-27" d="M681,476.94l4-2.31.4.27-4,2.31-.4-.27" transform="translate(-601.83 -406.81)"/><path class="cls-26" d="M681.44,477.21l4-2.31.4.24-4,2.31-.4-.24" transform="translate(-601.83 -406.81)"/><path class="cls-25" d="M681.84,477.45l4-2.31.09.06-4,2.31-.09-.06" transform="translate(-601.83 -406.81)"/></g></g></g><g class="cls-9"><g class="cls-41"><g class="cls-9"><path class="cls-25" d="M681.93,477.51l4-2.31.3.17-4,2.3-.3-.16" transform="translate(-601.83 -406.81)"/><path class="cls-24" d="M682.23,477.67l4-2.3.39.2-4,2.3-.39-.2" transform="translate(-601.83 -406.81)"/><path class="cls-23" d="M682.62,477.87l4-2.3.38.18-4,2.31-.38-.19" transform="translate(-601.83 -406.81)"/><path class="cls-22" d="M683,478.06l4-2.31.38.16-4,2.31-.38-.16" transform="translate(-601.83 -406.81)"/><path class="cls-21" d="M683.38,478.22l4-2.31.38.14-4,2.31-.38-.14" transform="translate(-601.83 -406.81)"/><path class="cls-20" d="M683.76,478.36l4-2.31.38.13-4,2.3-.38-.12" transform="translate(-601.83 -406.81)"/><path class="cls-19" d="M684.14,478.48l4-2.3.39.1-4,2.31-.39-.11" transform="translate(-601.83 -406.81)"/><path class="cls-18" d="M684.53,478.59l4-2.31.39.09-4,2.31-.39-.09" transform="translate(-601.83 -406.81)"/><path class="cls-17" d="M684.92,478.68l4-2.31.42.07-4,2.31-.41-.07" transform="translate(-601.83 -406.81)"/><path class="cls-16" d="M685.33,478.75l4-2.31.42,0-4,2.31-.43,0" transform="translate(-601.83 -406.81)"/><path class="cls-15" d="M685.76,478.79l4-2.31.44,0-4,2.3h-.44" transform="translate(-601.83 -406.81)"/><path class="cls-14" d="M686.2,478.8l4-2.3a3.91,3.91,0,0,0,.49,0l-4,2.31a3.93,3.93,0,0,1-.49,0" transform="translate(-601.83 -406.81)"/><path class="cls-13" d="M686.69,478.78l4-2.31a3.31,3.31,0,0,0,.55-.08l-4,2.31a4.85,4.85,0,0,1-.55.08" transform="translate(-601.83 -406.81)"/><path class="cls-12" d="M687.24,478.7l4-2.31a3.57,3.57,0,0,0,.66-.18l-4,2.31a5,5,0,0,1-.66.18" transform="translate(-601.83 -406.81)"/><path class="cls-11" d="M687.9,478.52l4-2.31a4.44,4.44,0,0,0,.77-.35l-4,2.3a4.07,4.07,0,0,1-.76.36" transform="translate(-601.83 -406.81)"/></g></g></g><polygon class="cls-42" points="93.62 77.69 97.59 75.39 101.07 81.4 97.09 83.71 93.62 77.69"/><polygon class="cls-43" points="67.94 33.22 71.91 30.91 75.38 36.92 71.41 39.23 67.94 33.22"/><polygon class="cls-6" points="63.16 35.93 67.13 33.63 71.91 30.91 67.94 33.22 63.16 35.93"/><g class="cls-9"><g class="cls-44"><g class="cls-9"><path class="cls-16" d="M697.71,479.6l4-2.31-.06.26-4,2.3.06-.25" transform="translate(-601.83 -406.81)"/><path class="cls-15" d="M697.65,479.85l4-2.3c-.06.27-.13.54-.2.8l-4,2.31q.12-.39.21-.81" transform="translate(-601.83 -406.81)"/><path class="cls-14" d="M697.44,480.66l4-2.31c-.09.3-.18.58-.28.85l-4,2.31a7.69,7.69,0,0,0,.28-.85" transform="translate(-601.83 -406.81)"/><path class="cls-13" d="M697.16,481.51l4-2.31q-.18.48-.39.93l-4,2.3a8.44,8.44,0,0,0,.38-.92" transform="translate(-601.83 -406.81)"/><path class="cls-12" d="M696.78,482.43l4-2.3a9.22,9.22,0,0,1-.6,1.07l-4,2.31a9.36,9.36,0,0,0,.6-1.08" transform="translate(-601.83 -406.81)"/><path class="cls-11" d="M696.18,483.51l4-2.31a7.33,7.33,0,0,1-.73,1l-4,2.31a8.28,8.28,0,0,0,.73-1" transform="translate(-601.83 -406.81)"/></g></g></g><g class="cls-9"><g class="cls-45"><g class="cls-9"><path class="cls-13" d="M673.25,446l4-2.31c.22,0,.46-.07.69-.09l-4,2.31q-.36,0-.69.09" transform="translate(-601.83 -406.81)"/><path class="cls-14" d="M673.94,446l4-2.31c.27,0,.54,0,.82,0l-4,2.3c-.28,0-.55,0-.82,0" transform="translate(-601.83 -406.81)"/><path class="cls-15" d="M674.76,445.91l4-2.3a6.43,6.43,0,0,1,.76,0l-4,2.31c-.25,0-.51,0-.76,0" transform="translate(-601.83 -406.81)"/><path class="cls-16" d="M675.52,445.94l4-2.31.72.07-4,2.31-.72-.07" transform="translate(-601.83 -406.81)"/><path class="cls-17" d="M676.24,446l4-2.31.69.12-4,2.31q-.34-.08-.69-.12" transform="translate(-601.83 -406.81)"/><path class="cls-18" d="M676.93,446.13l4-2.31.67.15-4,2.3-.66-.14" transform="translate(-601.83 -406.81)"/><path class="cls-19" d="M677.59,446.27l4-2.3.65.18-4,2.31-.66-.19" transform="translate(-601.83 -406.81)"/><path class="cls-20" d="M678.25,446.46l4-2.31.4.12-4,2.31-.39-.12" transform="translate(-601.83 -406.81)"/></g></g></g><g class="cls-9"><g class="cls-46"><g class="cls-9"><path class="cls-35" d="M695.51,464.37l4-2.31.11.26-4,2.3c0-.08-.07-.16-.11-.25" transform="translate(-601.83 -406.81)"/><path class="cls-34" d="M695.62,464.62l4-2.3c.11.25.21.51.31.77l-4,2.31-.31-.78" transform="translate(-601.83 -406.81)"/><path class="cls-33" d="M695.93,465.4l4-2.31.3.8-4,2.3-.3-.79" transform="translate(-601.83 -406.81)"/><path class="cls-32" d="M696.23,466.19l4-2.3c.1.27.19.54.28.81l-4,2.31c-.09-.27-.18-.54-.28-.82" transform="translate(-601.83 -406.81)"/><path class="cls-31" d="M696.51,467l4-2.31q.15.42.27.84l-4,2.31q-.12-.42-.27-.84" transform="translate(-601.83 -406.81)"/><path class="cls-30" d="M696.78,467.85l4-2.31c.09.28.17.57.25.85l-4,2.31c-.08-.29-.16-.57-.25-.85" transform="translate(-601.83 -406.81)"/><path class="cls-29" d="M697,468.7l4-2.31c.08.28.15.57.22.85l-4,2.31c-.07-.28-.14-.57-.22-.85" transform="translate(-601.83 -406.81)"/><path class="cls-28" d="M697.25,469.55l4-2.31c.07.28.14.56.2.85l-4,2.3c-.06-.28-.13-.56-.2-.84" transform="translate(-601.83 -406.81)"/><path class="cls-27" d="M697.45,470.39l4-2.3c.06.27.12.55.17.83l-4,2.3c0-.27-.11-.55-.17-.83" transform="translate(-601.83 -406.81)"/><path class="cls-26" d="M697.62,471.22l4-2.3c0,.21.08.42.11.64l-4,2.3c0-.21-.07-.42-.11-.64" transform="translate(-601.83 -406.81)"/></g></g></g><g class="cls-9"><g class="cls-47"><g class="cls-9"><path class="cls-30" d="M685.38,450.47l4-2.31.29.24-4,2.31-.29-.24" transform="translate(-601.83 -406.81)"/><path class="cls-31" d="M685.67,450.71l4-2.31c.24.21.48.41.71.63l-4,2.3-.71-.62" transform="translate(-601.83 -406.81)"/><path class="cls-32" d="M686.38,451.33l4-2.3.71.65-4,2.31-.71-.66" transform="translate(-601.83 -406.81)"/><path class="cls-33" d="M687.09,452l4-2.31c.23.22.46.45.68.68l-4,2.3-.68-.67" transform="translate(-601.83 -406.81)"/><path class="cls-34" d="M687.77,452.66l4-2.3c.22.22.44.45.65.68l-4,2.31-.65-.69" transform="translate(-601.83 -406.81)"/><path class="cls-35" d="M688.42,453.35l4-2.31.63.69-4,2.31c-.21-.23-.42-.47-.63-.69" transform="translate(-601.83 -406.81)"/><path class="cls-36" d="M689.05,454l4-2.31.61.72-4,2.3-.61-.71" transform="translate(-601.83 -406.81)"/><path class="cls-37" d="M689.66,454.75l4-2.3.62.76-4,2.31-.62-.77" transform="translate(-601.83 -406.81)"/><path class="cls-38" d="M690.28,455.52l4-2.31c.16.21.33.42.49.64l-4,2.31c-.16-.22-.33-.43-.49-.64" transform="translate(-601.83 -406.81)"/></g></g></g><polygon class="cls-7" points="100.82 67.89 104.79 65.59 104.77 73.32 100.8 75.63 100.82 67.89"/><polygon class="cls-8" points="95.9 65.05 99.87 62.74 104.79 65.59 100.82 67.89 95.9 65.05"/><polygon class="cls-8" points="76.83 34.11 80.8 31.8 87.53 35.69 83.56 38 76.83 34.11"/><polygon class="cls-7" points="83.56 38 87.53 35.69 87.52 41.35 83.55 43.66 83.56 38"/><polygon class="cls-6" points="88.93 49.34 92.91 47.03 96.4 45.04 92.43 47.35 88.93 49.34"/><path class="cls-48" d="M702.63,482.45l-4.92-2.85a11,11,0,0,1-2.26,4.91l3.48,6-4.78,2.72-3.47-6a11.24,11.24,0,0,1-5.4-.54l0,5.65-6.73-3.89V482.8a33.57,33.57,0,0,1-5.38-5.69l-3.5,2-4.74-8.22,3.49-2a33.32,33.32,0,0,1-2.22-7.49l-4.92-2.84,0-7.73,4.92,2.84a11.12,11.12,0,0,1,2.26-4.91l-3.47-6,4.77-2.72,3.48,6a11.21,11.21,0,0,1,5.39.54l0-5.66,6.74,3.89,0,5.66a33.25,33.25,0,0,1,5.39,5.69l3.49-2,4.75,8.21-3.5,2a33.11,33.11,0,0,1,2.22,7.49l4.93,2.85Zm-20.7-4.94c5.23,3,9.48.59,9.49-5.41s-4.2-13.32-9.43-16.34-9.47-.59-9.49,5.41,4.21,13.32,9.43,16.34" transform="translate(-601.83 -406.81)"/><polygon class="cls-43" points="92.43 47.35 96.4 45.04 101.14 53.26 97.17 55.57 92.43 47.35"/><polygon class="cls-14" points="111.56 56.36 115.53 54.06 113.62 58.18 109.65 60.49 111.56 56.36"/><polygon class="cls-49" points="94.16 33.54 98.13 31.24 102.69 31.72 98.72 34.03 94.16 33.54"/><polygon class="cls-42" points="123.64 60.42 127.61 58.11 129.47 64.42 125.49 66.73 123.64 60.42"/><polygon class="cls-50" points="96.84 16.88 100.81 14.57 105.34 19.38 101.37 21.69 96.84 16.88"/><g class="cls-9"><g class="cls-51"><g class="cls-9"><path class="cls-16" d="M720,458.83l4-2.31.24,0-4,2.31-.24,0" transform="translate(-601.83 -406.81)"/><path class="cls-15" d="M720.22,458.85l4-2.31h.44l-4,2.31h-.44" transform="translate(-601.83 -406.81)"/><path class="cls-14" d="M720.66,458.86l4-2.31a4.1,4.1,0,0,0,.5,0l-4,2.31-.5,0" transform="translate(-601.83 -406.81)"/><path class="cls-13" d="M721.16,458.84l4-2.31a4.85,4.85,0,0,0,.55-.08l-4,2.31-.55.08" transform="translate(-601.83 -406.81)"/><path class="cls-12" d="M721.71,458.76l4-2.31a3.69,3.69,0,0,0,.65-.18l-4,2.31c-.21.07-.43.13-.65.18" transform="translate(-601.83 -406.81)"/><path class="cls-11" d="M722.36,458.58l4-2.31a4,4,0,0,0,.76-.35l-4,2.31a4.78,4.78,0,0,1-.76.35" transform="translate(-601.83 -406.81)"/></g></g></g><g class="cls-9"><g class="cls-52"><g class="cls-9"><path class="cls-11" d="M709.72,435.16l4-2.31a4.85,4.85,0,0,0-1.63,1.59l-4,2.31a4.85,4.85,0,0,1,1.63-1.59" transform="translate(-601.83 -406.81)"/><path class="cls-12" d="M708.09,436.75l4-2.31a7,7,0,0,0-.36.66l-4,2.31a5.25,5.25,0,0,1,.36-.66" transform="translate(-601.83 -406.81)"/><path class="cls-13" d="M707.73,437.41l4-2.31c-.09.18-.16.36-.24.55l-4,2.31a4.56,4.56,0,0,1,.24-.55" transform="translate(-601.83 -406.81)"/><path class="cls-14" d="M707.49,438l4-2.31c-.06.16-.11.33-.16.51l-4,2.3c0-.17.1-.34.16-.5" transform="translate(-601.83 -406.81)"/><path class="cls-15" d="M707.33,438.46l4-2.3c0,.15-.09.32-.13.48l-4,2.31c0-.17.08-.33.13-.49" transform="translate(-601.83 -406.81)"/><path class="cls-16" d="M707.2,439l4-2.31a3.89,3.89,0,0,0-.09.47l-4,2.31c0-.16.06-.32.1-.47" transform="translate(-601.83 -406.81)"/><path class="cls-17" d="M707.1,439.42l4-2.31c0,.15-.05.3-.07.45l-4,2.31.06-.45" transform="translate(-601.83 -406.81)"/><path class="cls-18" d="M707,439.87l4-2.31c0,.15,0,.3,0,.46l-4,2.3c0-.15,0-.3,0-.45" transform="translate(-601.83 -406.81)"/><path class="cls-19" d="M707,440.32l4-2.3,0,.44-4,2.3,0-.44" transform="translate(-601.83 -406.81)"/><path class="cls-20" d="M707,440.76l4-2.3c0,.14,0,.29,0,.44l-4,2.31c0-.15,0-.3,0-.45" transform="translate(-601.83 -406.81)"/><path class="cls-21" d="M707,441.21l4-2.31c0,.15,0,.3,0,.45l-4,2.3c0-.15,0-.29,0-.44" transform="translate(-601.83 -406.81)"/><path class="cls-22" d="M707,441.65l4-2.3c0,.14,0,.3,0,.45l-4,2.3c0-.15,0-.3,0-.45" transform="translate(-601.83 -406.81)"/><path class="cls-23" d="M707,442.1l4-2.3c0,.15,0,.3,0,.45l-4,2.31c0-.15,0-.31,0-.46" transform="translate(-601.83 -406.81)"/><path class="cls-24" d="M707,442.56l4-2.31c0,.15,0,.31,0,.46l-4,2.31c0-.15,0-.31-.05-.46" transform="translate(-601.83 -406.81)"/><path class="cls-25" d="M707.07,443l4-2.31.06.48-4,2.3-.06-.47" transform="translate(-601.83 -406.81)"/><path class="cls-26" d="M707.13,443.49l4-2.3.09.48-4,2.31-.09-.49" transform="translate(-601.83 -406.81)"/><path class="cls-27" d="M707.22,444l4-2.31c0,.16.06.33.1.49l-4,2.31c0-.16-.07-.33-.1-.49" transform="translate(-601.83 -406.81)"/><path class="cls-28" d="M707.32,444.47l4-2.31c0,.17.07.34.12.51l-4,2.31a4.7,4.7,0,0,1-.12-.51" transform="translate(-601.83 -406.81)"/><path class="cls-29" d="M707.44,445l4-2.31c0,.17.08.34.13.51l-4,2.31c-.05-.17-.09-.34-.13-.51" transform="translate(-601.83 -406.81)"/><path class="cls-30" d="M707.57,445.49l4-2.31c0,.09.05.19.08.28s0,.15.07.23l-4,2.31c0-.08-.05-.15-.07-.23s0-.19-.08-.28" transform="translate(-601.83 -406.81)"/><path class="cls-31" d="M707.72,446l4-2.31c0,.17.1.33.16.5l-4,2.3c-.06-.16-.11-.33-.16-.49" transform="translate(-601.83 -406.81)"/><path class="cls-32" d="M707.88,446.49l4-2.3c0,.16.11.32.17.48l-4,2.31c-.06-.16-.12-.32-.17-.49" transform="translate(-601.83 -406.81)"/><path class="cls-33" d="M708.05,447l4-2.31c.05.15.11.31.17.47l-4,2.31c-.06-.16-.12-.32-.17-.47" transform="translate(-601.83 -406.81)"/><path class="cls-34" d="M708.22,447.45l4-2.31c.06.15.12.3.19.45l-4,2.31c-.07-.15-.13-.3-.19-.45" transform="translate(-601.83 -406.81)"/><path class="cls-35" d="M708.41,447.9l4-2.31c.06.15.12.3.19.45l-4,2.31c-.07-.15-.13-.3-.19-.45" transform="translate(-601.83 -406.81)"/><path class="cls-36" d="M708.6,448.35l4-2.31.2.45-4,2.31c-.07-.15-.14-.3-.2-.45" transform="translate(-601.83 -406.81)"/><path class="cls-37" d="M708.8,448.8l4-2.31.24.49-4,2.3-.24-.48" transform="translate(-601.83 -406.81)"/><path class="cls-38" d="M709,449.28l4-2.3.29.55-4,2.31c-.1-.18-.2-.37-.29-.56" transform="translate(-601.83 -406.81)"/><path class="cls-39" d="M709.33,449.84l4-2.31c.14.28.29.54.45.81l-4,2.3c-.15-.26-.3-.53-.44-.8" transform="translate(-601.83 -406.81)"/><path class="cls-40" d="M709.77,450.64l4-2.3c.24.41.49.82.76,1.21l-4,2.31c-.27-.4-.52-.8-.77-1.22" transform="translate(-601.83 -406.81)"/><path class="cls-39" d="M710.54,451.86l4-2.31q.27.4.57.81l-4,2.31q-.3-.41-.57-.81" transform="translate(-601.83 -406.81)"/><path class="cls-38" d="M711.11,452.67l4-2.31c.13.18.26.35.4.52l-4,2.31c-.14-.17-.27-.35-.4-.52" transform="translate(-601.83 -406.81)"/><path class="cls-37" d="M711.51,453.19l4-2.31c.12.16.24.31.37.46l-4,2.31c-.13-.15-.25-.31-.37-.46" transform="translate(-601.83 -406.81)"/><path class="cls-36" d="M711.88,453.65l4-2.31.36.43-4,2.31-.36-.43" transform="translate(-601.83 -406.81)"/><path class="cls-35" d="M712.24,454.08l4-2.31c.13.14.25.28.38.41l-4,2.31-.38-.41" transform="translate(-601.83 -406.81)"/><path class="cls-34" d="M712.62,454.49l4-2.31.39.41-4,2.31-.39-.41" transform="translate(-601.83 -406.81)"/><path class="cls-33" d="M713,454.9l4-2.31c.13.14.27.27.41.4l-4,2.31c-.13-.13-.27-.26-.4-.4" transform="translate(-601.83 -406.81)"/><path class="cls-32" d="M713.41,455.3l4-2.31a3.88,3.88,0,0,0,.42.39l-4,2.31-.42-.39" transform="translate(-601.83 -406.81)"/><path class="cls-31" d="M713.83,455.69l4-2.31.42.38-4,2.3-.43-.37" transform="translate(-601.83 -406.81)"/><path class="cls-30" d="M714.26,456.06l4-2.3.43.34-4,2.31c-.15-.11-.29-.23-.43-.35" transform="translate(-601.83 -406.81)"/><path class="cls-29" d="M714.69,456.41l4-2.31.41.32-4,2.31-.41-.32" transform="translate(-601.83 -406.81)"/><path class="cls-28" d="M715.1,456.73l4-2.31.41.29-4,2.31-.41-.29" transform="translate(-601.83 -406.81)"/><path class="cls-27" d="M715.51,457l4-2.31.4.26-4,2.31-.4-.26" transform="translate(-601.83 -406.81)"/><path class="cls-26" d="M715.91,457.28l4-2.31.39.24-4,2.31-.39-.24" transform="translate(-601.83 -406.81)"/><path class="cls-25" d="M716.3,457.52l4-2.31.09.05.29.17-4,2.31-.29-.17-.09-.05" transform="translate(-601.83 -406.81)"/><path class="cls-24" d="M716.68,457.74l4-2.31.38.2-4,2.3-.38-.19" transform="translate(-601.83 -406.81)"/><path class="cls-23" d="M717.06,457.93l4-2.3.38.17-4,2.31-.38-.18" transform="translate(-601.83 -406.81)"/><path class="cls-22" d="M717.44,458.11l4-2.31.38.16-4,2.31-.37-.16" transform="translate(-601.83 -406.81)"/><path class="cls-21" d="M717.81,458.27l4-2.31.37.14-4,2.31-.38-.14" transform="translate(-601.83 -406.81)"/><path class="cls-20" d="M718.19,458.41l4-2.31.38.13-4,2.31-.38-.13" transform="translate(-601.83 -406.81)"/><path class="cls-19" d="M718.57,458.54l4-2.31.39.11-4,2.3-.39-.1" transform="translate(-601.83 -406.81)"/><path class="cls-18" d="M719,458.64l4-2.3.4.09-4,2.3-.4-.09" transform="translate(-601.83 -406.81)"/><path class="cls-17" d="M719.36,458.73l4-2.3.41.06-4,2.31-.41-.07" transform="translate(-601.83 -406.81)"/><path class="cls-16" d="M719.77,458.8l4-2.31.21,0-4,2.31-.21,0" transform="translate(-601.83 -406.81)"/></g></g></g><g class="cls-9"><g class="cls-53"><g class="cls-9"><path class="cls-11" d="M729.63,464.89l4-2.31a7.85,7.85,0,0,1-1.81,1.45l-4,2.31a8.13,8.13,0,0,0,1.81-1.45" transform="translate(-601.83 -406.81)"/></g></g></g><g class="cls-9"><g class="cls-54"><g class="cls-9"><path class="cls-11" d="M705,427.05l4-2.31a7.55,7.55,0,0,1,1.32-.61l-4,2.31a6.88,6.88,0,0,0-1.32.61" transform="translate(-601.83 -406.81)"/><path class="cls-12" d="M706.34,426.44l4-2.31a8.51,8.51,0,0,1,1-.28l-4,2.31a7,7,0,0,0-1,.28" transform="translate(-601.83 -406.81)"/></g></g></g><polygon class="cls-50" points="130.41 52.44 134.38 50.13 138.92 54.93 134.95 57.24 130.41 52.44"/><polygon class="cls-14" points="134.95 57.24 138.92 54.93 136.3 60.58 132.33 62.88 134.95 57.24"/><polygon class="cls-49" points="103.67 13.03 107.64 10.72 113.88 11.38 109.91 13.69 103.67 13.03"/><polygon class="cls-42" points="109.91 13.69 113.88 11.38 115.74 17.7 111.77 20.01 109.91 13.69"/><path class="cls-55" d="M736.5,453.76v0c0-.25,0-.5,0-.76l0-.76a.41.41,0,0,1,0-.11s0-.07,0-.11,0-.37,0-.56l-.09-.78-.06-.39-4,2.3c.09.59.15,1.17.19,1.74a.41.41,0,0,0,0,.11c0,.57,0,1.12,0,1.67v.05c0,.53,0,1-.08,1.54,0,0,0,.1,0,.14-.05.5-.11,1-.2,1.45l4-2.31,0-.15c0-.26.09-.52.12-.79s0-.33,0-.5,0-.1,0-.14a.45.45,0,0,1,0-.12c0-.25,0-.51,0-.76s0-.44,0-.67Z" transform="translate(-601.83 -406.81)"/><path class="cls-56" d="M719.44,430.21l4-2.3-.09-.07-.71-.55-.67-.47h0l-.67-.44-.66-.41-.15-.09-.5-.28-.64-.33-.22-.1-.14-.07-.28-.13-.63-.27-.45-.17-4,2.31c.45.17.9.36,1.36.57l.14.07c.45.21.9.45,1.36.71s1,.61,1.49.95h0Q718.71,429.64,719.44,430.21Z" transform="translate(-601.83 -406.81)"/><path class="cls-57" d="M727.83,440.16c.06.09.1.18.16.27.27.49.54,1,.8,1.48l.1.21c.3.59.59,1.19.86,1.8l4-2.31,0,0c-.11-.26-.23-.51-.35-.77s-.25-.54-.39-.81l-.09-.19c0-.07-.07-.14-.11-.2l-.27-.53c-.17-.32-.35-.64-.53-1-.05-.09-.1-.18-.16-.27l0-.09-.18-.27c-.35-.59-.71-1.17-1.09-1.74l-.17-.27c-.23-.34-.47-.68-.71-1l-4,2.31c.3.42.59.85.88,1.28s.74,1.15,1.09,1.74C727.69,439.92,727.76,440,727.83,440.16Z" transform="translate(-601.83 -406.81)"/><polygon class="cls-49" points="127.91 37.1 131.88 34.8 136.44 35.28 132.47 37.59 127.91 37.1"/><polygon class="cls-42" points="132.47 37.59 136.44 35.28 138.98 43.91 135.01 46.22 132.47 37.59"/><polygon class="cls-14" points="125.72 25.84 129.69 23.54 127.78 27.66 123.81 29.97 125.72 25.84"/><path class="cls-58" d="M732.28,452.55a20.77,20.77,0,0,1,0,6.7l4.54,4.8-2.61,5.65-4.54-4.81a7.74,7.74,0,0,1-4.16,2.34l1.86,6.31-6.24-.65-1.85-6.32a18,18,0,0,1-2.86-1.35,24.26,24.26,0,0,1-3-2l-1.92,4.12-6.2-6.57,1.91-4.12a38.86,38.86,0,0,1-4.1-7.14l-4.56-.48L696,440.36l4.56.48a21.07,21.07,0,0,1,0-6.7l-4.54-4.81,2.62-5.64,4.54,4.81a7.68,7.68,0,0,1,4.15-2.34l-1.86-6.32,6.24.67,1.86,6.31a18.46,18.46,0,0,1,2.86,1.35,25.89,25.89,0,0,1,3,2l1.91-4.12,6.21,6.57-1.92,4.12a38.33,38.33,0,0,1,4.11,7.14l4.56.48,2.53,8.63ZM720,458.83c4.84.51,7.17-4.51,5.2-11.21-1.49-5.07-5-9.65-8.73-11.8a9.19,9.19,0,0,0-3.6-1.25c-4.84-.52-7.17,4.5-5.2,11.2,1.49,5.07,5,9.65,8.74,11.8a9.33,9.33,0,0,0,3.59,1.26" transform="translate(-601.83 -406.81)"/><polygon class="cls-50" points="119.52 19.27 123.49 16.97 129.69 23.54 125.72 25.84 119.52 19.27"/><path class="cls-59" d="M668.66,530.41l10-6.9s.94-32.88-4.91-35.15S665.61,504.58,668.66,530.41Z" transform="translate(-601.83 -406.81)"/><path class="cls-60" d="M623.38,508.12l45.28,22.29s-3.74-31.46,3-41.13l-39-14.57S621.6,468.41,623.38,508.12Z" transform="translate(-601.83 -406.81)"/><path class="cls-61" d="M668,507.67l-44.61-18.21a25.32,25.32,0,0,1,1.09-10.59,9.14,9.14,0,0,1,11.9-5.1l37.38,14.59S668.89,491.27,668,507.67Z" transform="translate(-601.83 -406.81)"/><polygon class="cls-62" points="25.18 87.49 31.75 90.11 31.65 84.03 25.09 81.41 25.18 87.49"/><polygon class="cls-63" points="32.87 89.67 31.75 90.11 31.65 84.03 32.77 83.59 32.87 89.67"/><polygon class="cls-64" points="25.09 81.41 31.65 84.03 32.77 83.59 26.21 80.9 25.09 81.41"/><polygon class="cls-65" points="51.66 98.78 59.07 101.76 58.98 95.11 51.57 92.14 51.66 98.78"/><polygon class="cls-66" points="60.19 101.31 59.07 101.76 58.98 95.11 60.1 94.67 60.19 101.31"/><polygon class="cls-67" points="51.57 92.14 58.98 95.11 60.1 94.67 52.68 91.63 51.57 92.14"/><path class="cls-68" d="M679.6,485.45c-42.88,0-77.77-17.64-77.77-39.32s34.89-39.32,77.77-39.32,77.77,17.64,77.77,39.32S722.48,485.45,679.6,485.45Zm0-76.91c-41.93,0-76,16.86-76,37.59s34.11,37.59,76,37.59,76-16.87,76-37.59S721.53,408.54,679.6,408.54Z" transform="translate(-601.83 -406.81)"/></svg>