<svg id="Layer_1" data-name="Layer 1" xmlns="http://www.w3.org/2000/svg" viewBox="0 0 502.94 471.13"><defs><style>.cls-1{fill:#2b79e6;}.cls-2{fill:#ff645f;}.cls-3{fill:#29266b;}.cls-4{fill:#8cb3de;}.cls-5{fill:#ff9f9f;}.cls-6{fill:#fff;}</style></defs><title>gears</title><rect class="cls-1" x="692.84" y="560.46" width="40.39" height="40.39" transform="translate(1053.95 911.31) rotate(180)"/><rect class="cls-1" x="827.27" y="482.84" width="40.39" height="40.39" transform="translate(1334.73 -229.37) rotate(120)"/><rect class="cls-1" x="827.27" y="327.61" width="40.39" height="40.39" transform="translate(352.84 -810.02) rotate(60)"/><rect class="cls-1" x="320.72" width="40.39" height="40.39"/><rect class="cls-1" x="558.4" y="327.61" width="40.39" height="40.39" transform="translate(-384.03 424.99) rotate(-60)"/><rect class="cls-1" x="558.4" y="482.84" width="40.39" height="40.39" transform="matrix(-0.5, -0.87, 0.87, -0.5, 60.13, 1005.64)"/><circle class="cls-1" cx="713.03" cy="425.43" r="147.88" transform="translate(-400.32 -198.71) rotate(-4.04)"/><rect class="cls-2" x="463.56" y="600.98" width="22.88" height="22.88" transform="translate(631.02 929.66) rotate(174.84)"/><rect class="cls-2" x="535.45" y="550.35" width="22.88" height="22.88" transform="translate(914.34 51.54) rotate(114.84)"/><rect class="cls-2" x="527.54" y="462.78" width="22.88" height="22.88" transform="translate(244.21 -489.51) rotate(54.84)"/><rect class="cls-2" x="447.75" y="425.84" width="22.88" height="22.88" transform="translate(-409.55 -206.97) rotate(-5.16)"/><rect class="cls-2" x="375.86" y="476.47" width="22.88" height="22.88" transform="translate(-590.3 384.37) rotate(-65.16)"/><rect class="cls-2" x="383.77" y="564.04" width="22.88" height="22.88" transform="translate(-219.83 979.98) rotate(-125.16)"/><path class="cls-2" d="M386.9,532.09a80.53,80.53,0,1,1,87.43,73A80.53,80.53,0,0,1,386.9,532.09Z" transform="translate(-372.12 -250)"/><rect class="cls-3" x="483.2" y="403.37" width="15.72" height="15.72" transform="translate(655.01 511.78) rotate(173.24)"/><rect class="cls-3" x="531.59" y="367.21" width="15.72" height="15.72" transform="translate(724.79 -222.68) rotate(113.23)"/><rect class="cls-3" x="524.48" y="307.22" width="15.72" height="15.72" transform="matrix(0.6, 0.8, -0.8, 0.6, 94.01, -549.96)"/><rect class="cls-3" x="468.96" y="283.39" width="15.72" height="15.72" transform="translate(-403.11 -191.8) rotate(-6.77)"/><rect class="cls-3" x="420.57" y="319.55" width="15.72" height="15.72" transform="translate(-413.55 341.93) rotate(-66.77)"/><rect class="cls-3" x="427.68" y="379.54" width="15.72" height="15.72" transform="translate(13.76 718.19) rotate(-126.76)"/><path class="cls-3" d="M423.63,358.4a60.73,60.73,0,1,1,67.46,53.15A60.75,60.75,0,0,1,423.63,358.4Z" transform="translate(-372.12 -250)"/><path class="cls-2" d="M460,524.85a7.07,7.07,0,1,1,7.07,7.07A7.06,7.06,0,0,1,460,524.85Z" transform="translate(-372.12 -250)"/><rect class="cls-4" x="94.17" y="392.26" width="35.2" height="78.87"/><rect class="cls-1" x="137.58" y="357.5" width="35.2" height="113.63"/><rect class="cls-2" x="181" y="331.66" width="35.2" height="139.48"/><rect class="cls-3" x="224.42" y="307.35" width="35.2" height="163.78"/><rect class="cls-4" x="267.84" y="331.5" width="35.2" height="139.64"/><rect class="cls-1" x="311.26" y="366.17" width="35.2" height="104.96"/><rect class="cls-5" x="354.68" y="361.9" width="35.2" height="109.24"/><rect class="cls-3" x="398.1" y="315.61" width="35.2" height="155.52"/><circle class="cls-6" cx="713.03" cy="425.43" r="54.7" transform="translate(-480.15 51.94) rotate(-22.27)"/><path class="cls-6" d="M440.15,527.28a27.05,27.05,0,1,1,29.38,24.52A27,27,0,0,1,440.15,527.28Z" transform="translate(-372.12 -250)"/><path class="cls-6" d="M469.23,353a14.81,14.81,0,1,1,16.46,13A14.82,14.82,0,0,1,469.23,353Z" transform="translate(-372.12 -250)"/></svg>