<svg id="Layer_1" data-name="Layer 1" xmlns="http://www.w3.org/2000/svg" xmlns:xlink="http://www.w3.org/1999/xlink" viewBox="0 0 610.63 378.45"><defs><style>.cls-1{fill:none;}.cls-2{fill:#cdeefc;}.cls-3{fill:#e6f9ff;}.cls-4{fill:#2b79e6;}.cls-5{fill:#fff;}.cls-6{clip-path:url(#clip-path);}.cls-7{fill:#ff645f;}.cls-8{clip-path:url(#clip-path-2);}.cls-9{fill:#3030c1;}.cls-10{fill:#29266b;}.cls-11{fill:#4396ca;}.cls-12{fill:#025482;}.cls-13{fill:#03436b;}.cls-14{clip-path:url(#clip-path-3);}.cls-15{fill:#6486ce;}.cls-16{fill:#ff9f9f;}.cls-17{fill:#fca89e;}.cls-18{fill:#8cb3de;}</style><clipPath id="clip-path" transform="translate(-305.37 -294)"><rect class="cls-1" x="581.58" y="403.15" width="308.79" height="173.35"/></clipPath><clipPath id="clip-path-2" transform="translate(-305.37 -294)"><polygon class="cls-1" points="529.96 589.88 353 589.88 353 322.89 492.7 322.89 529.96 361.43 529.96 589.88"/></clipPath><clipPath id="clip-path-3" transform="translate(-305.37 -294)"><rect class="cls-1" x="423.58" y="502.34" width="198.57" height="124.67" rx="5.6"/></clipPath></defs><title>laptop-analytics</title><rect class="cls-2" x="390.28" y="316.97" width="80.65" height="56.18"/><rect class="cls-3" x="360.06" y="365.49" width="141.08" height="12.77"/><rect class="cls-3" x="250.58" y="89.71" width="360.04" height="238.75"/><rect class="cls-4" x="258.24" y="96.72" width="344.72" height="203.75"/><rect class="cls-5" x="276.21" y="109.15" width="308.79" height="173.35"/><g class="cls-6"><polygon class="cls-7" points="203.69 298.13 128.37 123.75 5.94 235.42 0 228.91 131.56 108.92 206.94 283.43 345.9 159.61 424.59 213 537.32 146.73 541.78 154.33 424.25 223.42 346.63 170.75 203.69 298.13"/></g><polygon class="cls-3" points="224.59 295.88 47.63 295.88 47.63 28.89 187.33 28.89 224.59 67.43 224.59 295.88"/><polygon class="cls-2" points="187.33 28.89 224.59 67.43 187.59 67.43 187.33 28.89"/><g class="cls-8"><polygon class="cls-7" points="203.69 298.13 128.37 123.75 5.94 235.42 0 228.91 131.56 108.92 206.94 283.43 345.9 159.61 424.55 212.98 553.31 134.9 557.88 142.43 424.28 223.44 346.63 170.75 203.69 298.13"/></g><polygon class="cls-9" points="89.92 359.44 115.74 335.53 322.29 335.53 345.07 359.44 89.92 359.44"/><path class="cls-10" d="M624.43,632.26H421.3a6.17,6.17,0,0,1-6.07-6.28V498.81a6.16,6.16,0,0,1,6.07-6.27H624.43a6.17,6.17,0,0,1,6.07,6.27V626A6.18,6.18,0,0,1,624.43,632.26Z" transform="translate(-305.37 -294)"/><rect class="cls-11" x="118.21" y="208.34" width="198.57" height="124.67" rx="5.6"/><path class="cls-12" d="M525.14,496.64a2.28,2.28,0,1,1-2.28-2.28A2.28,2.28,0,0,1,525.14,496.64Z" transform="translate(-305.37 -294)"/><path class="cls-10" d="M637.37,672.45h-229a13.07,13.07,0,0,1-13.07-13.07v-5.94H650.44v5.94A13.07,13.07,0,0,1,637.37,672.45Z" transform="translate(-305.37 -294)"/><path class="cls-13" d="M478.82,632.19a2.28,2.28,0,0,1-2.28,2.28H450.72a2.28,2.28,0,0,1-2.28-2.28h0a2.28,2.28,0,0,1,2.28-2.28h25.82a2.28,2.28,0,0,1,2.28,2.28Z" transform="translate(-305.37 -294)"/><path class="cls-13" d="M601.08,632.19a2.28,2.28,0,0,1-2.28,2.28H573a2.28,2.28,0,0,1-2.28-2.28h0a2.28,2.28,0,0,1,2.28-2.28H598.8a2.28,2.28,0,0,1,2.28,2.28Z" transform="translate(-305.37 -294)"/><polygon class="cls-11" points="187.5 356.02 195.98 348.16 240 348.16 247.49 356.02 187.5 356.02"/><rect class="cls-5" x="210.86" y="342.98" width="14.23" height="1.47"/><rect class="cls-5" x="107" y="353.19" width="15.95" height="1.47"/><rect class="cls-5" x="120.49" y="342.98" width="14.23" height="1.47"/><rect class="cls-5" x="114.41" y="347.64" width="14.23" height="1.47"/><rect class="cls-5" x="148.21" y="342.98" width="14.23" height="1.47"/><rect class="cls-5" x="140.99" y="347.64" width="14.23" height="1.47"/><rect class="cls-5" x="158.26" y="353.19" width="15.95" height="1.47"/><rect class="cls-5" x="175.17" y="342.98" width="14.23" height="1.47"/><rect class="cls-5" x="167.95" y="347.64" width="14.23" height="1.47"/><rect class="cls-5" x="132.82" y="354.33" width="15.95" height="1.47"/><rect class="cls-5" x="314.7" y="353.19" width="15.95" height="1.47"/><rect class="cls-5" x="302.93" y="342.98" width="14.23" height="1.47"/><rect class="cls-5" x="309" y="347.64" width="14.23" height="1.47"/><rect class="cls-5" x="275.21" y="342.98" width="14.23" height="1.47"/><rect class="cls-5" x="282.42" y="347.64" width="14.23" height="1.47"/><rect class="cls-5" x="263.44" y="353.19" width="15.95" height="1.47"/><rect class="cls-5" x="248.25" y="342.98" width="14.23" height="1.47"/><rect class="cls-5" x="255.46" y="347.64" width="14.23" height="1.47"/><rect class="cls-5" x="288.88" y="354.33" width="15.95" height="1.47"/><g class="cls-14"><polygon class="cls-7" points="203.69 298.13 128.37 123.75 5.94 235.42 0 228.91 131.56 108.92 206.94 283.43 345.9 159.61 424.55 212.98 553.31 134.9 557.88 142.43 424.28 223.44 346.63 170.75 203.69 298.13"/></g><polygon class="cls-7" points="533.91 189.03 525.64 185.99 538.28 151.68 499.43 148.64 500.12 139.86 550.58 143.8 533.91 189.03"/><path class="cls-5" d="M479.29,505.23c-3.49-6.28-20.93-14-37-3.48-20.68,13.48,0,46,0,46a193.59,193.59,0,0,0,17.44-28.61C467.43,503.14,479.29,505.23,479.29,505.23Z" transform="translate(-305.37 -294)"/><path class="cls-15" d="M768.7,368.66a53.73,53.73,0,1,1-75-12.24A53.73,53.73,0,0,1,768.7,368.66Z" transform="translate(-305.37 -294)"/><path class="cls-3" d="M710.54,348.3a53.81,53.81,0,0,0-27.32,18.05L725.08,400Z" transform="translate(-305.37 -294)"/><path class="cls-16" d="M683.22,366.35a53.85,53.85,0,0,0-9.56,49.28L725.08,400Z" transform="translate(-305.37 -294)"/><path class="cls-7" d="M673.7,415.75a53.71,53.71,0,0,0,51,38l.36-53.72Z" transform="translate(-305.37 -294)"/><path class="cls-17" d="M750.91,447.14a52.34,52.34,0,0,0,5.54-3.49A53.46,53.46,0,0,0,776,417.29L725.08,400Z" transform="translate(-305.37 -294)"/><path class="cls-10" d="M776,417.24a53.9,53.9,0,0,0,2.75-14.38L725.08,400Z" transform="translate(-305.37 -294)"/><path class="cls-7" d="M725.08,400l-.45,53.72A53.43,53.43,0,0,0,751,447.08Z" transform="translate(-305.37 -294)"/><rect class="cls-18" x="73.13" y="54.63" width="19.58" height="17.05"/><rect class="cls-4" x="92.55" y="41.37" width="19.58" height="30.32"/><rect class="cls-17" x="111.98" y="27.37" width="19.58" height="44.32"/><rect class="cls-10" x="131.4" y="13.74" width="19.58" height="57.95"/><rect class="cls-7" x="150.82" width="19.58" height="71.68"/><path class="cls-3" d="M601.85,557a14.93,14.93,0,0,1,12.57-5.83l2.16-28.9a43.92,43.92,0,0,0-38.68,18.4Z" transform="translate(-305.37 -294)"/><path class="cls-5" d="M625.16,575.75a14.95,14.95,0,0,1-24.26-17.32L577,542.11a43.92,43.92,0,0,0,72.18,50Z" transform="translate(-305.37 -294)"/><path class="cls-7" d="M616.1,551.38a15,15,0,0,1,10.07,23l23.94,16.31a43.94,43.94,0,0,0-31.84-68.26Z" transform="translate(-305.37 -294)"/></svg>