<svg id="Layer_1" data-name="Layer 1" xmlns="http://www.w3.org/2000/svg" xmlns:xlink="http://www.w3.org/1999/xlink" viewBox="0 0 197.33 176.48"><defs><style>.cls-1{fill:#006c7a;}.cls-2{fill:url(#Новый_образец_градиента_1);}.cls-3{fill:url(#Безымянный_градиент_35);}.cls-4{fill:url(#Новый_образец_градиента_1-2);}.cls-5{fill:url(#Новый_образец_градиента_1-3);}.cls-6{fill:url(#Безымянный_градиент_33);}.cls-7{fill:url(#Новый_образец_градиента_1-4);}.cls-8{fill:url(#Безымянный_градиент_33-2);}.cls-9{fill:url(#Безымянный_градиент_35-2);}.cls-10{fill:url(#Безымянный_градиент_33-3);}.cls-11{fill:url(#Новый_образец_градиента_1-5);}.cls-12{fill:url(#Безымянный_градиент_33-4);}.cls-13{fill:url(#Безымянный_градиент_33-5);}.cls-14{fill:url(#Новый_образец_градиента_1-6);}.cls-15{fill:url(#Безымянный_градиент_33-6);}.cls-16{fill:url(#Безымянный_градиент_33-7);}.cls-17{fill:url(#Новый_образец_градиента_1-7);}.cls-18{fill:url(#Безымянный_градиент_33-8);}</style><linearGradient id="Новый_образец_градиента_1" x1="158.18" y1="94.72" x2="143.04" y2="63.49" gradientUnits="userSpaceOnUse"><stop offset="0" stop-color="#006c7a"/><stop offset="1" stop-color="#04bbd3"/></linearGradient><linearGradient id="Безымянный_градиент_35" x1="602.63" y1="496.8" x2="799.16" y2="496.8" gradientUnits="userSpaceOnUse"><stop offset="0" stop-color="#006c7a"/><stop offset="0.58" stop-color="#028d9f" stop-opacity="0"/><stop offset="1" stop-color="#04bbd3"/></linearGradient><linearGradient id="Новый_образец_градиента_1-2" x1="108.59" y1="132.59" x2="93.45" y2="101.36" xlink:href="#Новый_образец_градиента_1"/><linearGradient id="Новый_образец_градиента_1-3" x1="56.81" y1="106.83" x2="41.67" y2="75.6" xlink:href="#Новый_образец_градиента_1"/><linearGradient id="Безымянный_градиент_33" x1="743.75" y1="513.2" x2="747.6" y2="479.59" gradientTransform="translate(-598.5 -393.76) rotate(0.89)" gradientUnits="userSpaceOnUse"><stop offset="0" stop-color="#cbedf2"/><stop offset="1" stop-color="#04bbd3"/></linearGradient><linearGradient id="Новый_образец_градиента_1-4" x1="758.05" y1="457.48" x2="762.95" y2="510.7" gradientTransform="translate(-598.5 -393.76) rotate(0.89)" xlink:href="#Новый_образец_градиента_1"/><linearGradient id="Безымянный_градиент_33-2" x1="752.44" y1="482.86" x2="762.77" y2="503.69" xlink:href="#Безымянный_градиент_33"/><linearGradient id="Безымянный_градиент_35-2" x1="601.83" y1="419.68" x2="798.37" y2="419.68" xlink:href="#Безымянный_градиент_35"/><linearGradient id="Безымянный_градиент_33-3" x1="693.21" y1="438.68" x2="697.06" y2="405.07" xlink:href="#Безымянный_градиент_33"/><linearGradient id="Новый_образец_градиента_1-5" x1="707.51" y1="382.96" x2="712.41" y2="436.18" gradientTransform="translate(-598.5 -393.76) rotate(0.89)" xlink:href="#Новый_образец_градиента_1"/><linearGradient id="Безымянный_градиент_33-4" x1="701.9" y1="408.34" x2="712.22" y2="429.17" xlink:href="#Безымянный_градиент_33"/><linearGradient id="Безымянный_градиент_33-5" x1="693.8" y1="476.55" x2="697.65" y2="442.94" xlink:href="#Безымянный_градиент_33"/><linearGradient id="Новый_образец_градиента_1-6" x1="708.1" y1="420.83" x2="713" y2="474.05" gradientTransform="translate(-598.5 -393.76) rotate(0.89)" xlink:href="#Новый_образец_градиента_1"/><linearGradient id="Безымянный_градиент_33-6" x1="702.49" y1="446.21" x2="712.82" y2="467.04" xlink:href="#Безымянный_градиент_33"/><linearGradient id="Безымянный_градиент_33-7" x1="694.94" y1="549.23" x2="698.79" y2="515.62" xlink:href="#Безымянный_градиент_33"/><linearGradient id="Новый_образец_градиента_1-7" x1="709.23" y1="493.52" x2="714.13" y2="546.73" gradientTransform="translate(-598.5 -393.76) rotate(0.89)" xlink:href="#Новый_образец_градиента_1"/><linearGradient id="Безымянный_градиент_33-8" x1="703.62" y1="518.89" x2="713.95" y2="539.73" xlink:href="#Безымянный_градиент_33"/></defs><title>machine-learning</title><rect class="cls-1" x="693.23" y="460.31" width="62.4" height="2.19" transform="matrix(0.79, -0.61, 0.61, 0.79, -733.17, 164.62)"/><circle class="cls-2" cx="147.39" cy="72.46" r="12.11"/><path class="cls-3" d="M700.9,546.48c-54.19,0-98.27-22.29-98.27-49.68s44.08-49.68,98.27-49.68,98.26,22.28,98.26,49.68S755.08,546.48,700.9,546.48Zm0-97.18c-53,0-96.08,21.31-96.08,47.5s43.1,47.49,96.08,47.49S797,523,797,496.8,753.87,449.3,700.9,449.3Z" transform="translate(-601.83 -370)"/><rect class="cls-1" x="646.59" y="428.32" width="47.99" height="2.19" transform="translate(-708.59 232.1) rotate(-45.16)"/><rect class="cls-1" x="653.79" y="445.94" width="34.35" height="2.19" transform="translate(-696.42 -175.87) rotate(-15.39)"/><rect class="cls-1" x="672.15" y="448.36" width="2.19" height="45.1" transform="translate(-671.11 452.57) rotate(-60.31)"/><rect class="cls-1" x="668.87" y="456.68" width="2.19" height="62.52" transform="translate(-756.45 201.65) rotate(-41.86)"/><circle class="cls-4" cx="97.8" cy="110.34" r="12.11"/><circle class="cls-5" cx="46.02" cy="84.58" r="12.11"/><rect class="cls-1" x="727.38" y="402.94" width="2.19" height="82.55" transform="translate(-726.41 56.65) rotate(-30.19)"/><rect class="cls-1" x="727.38" y="433.9" width="2.19" height="55.36" transform="matrix(0.66, -0.75, 0.75, 0.66, -701.41, 332.56)"/><rect class="cls-1" x="694.2" y="496.43" width="60.68" height="2.19" transform="translate(-756.05 144) rotate(-35.55)"/><polygon class="cls-6" points="131.45 117.29 147.17 124.16 147.4 109.89 131.67 103.02 131.45 117.29"/><polygon class="cls-7" points="163.1 117.78 147.17 124.16 147.4 109.89 163.32 103.52 163.1 117.78"/><polygon class="cls-8" points="131.67 103.02 147.4 109.89 163.32 103.52 147.6 96.51 131.67 103.02"/><path class="cls-9" d="M700.1,469.36c-54.18,0-98.27-22.29-98.27-49.68S645.92,370,700.1,370s98.27,22.29,98.27,49.68S754.28,469.36,700.1,469.36Zm0-97.17c-53,0-96.08,21.3-96.08,47.49s43.1,47.49,96.08,47.49,96.08-21.3,96.08-47.49S753.08,372.19,700.1,372.19Z" transform="translate(-601.83 -370)"/><polygon class="cls-10" points="82.08 41.99 97.8 48.86 98.02 34.59 82.3 27.72 82.08 41.99"/><polygon class="cls-11" points="113.73 42.48 97.8 48.86 98.02 34.59 113.95 28.22 113.73 42.48"/><polygon class="cls-12" points="82.3 27.72 98.02 34.59 113.95 28.22 98.23 21.21 82.3 27.72"/><polygon class="cls-13" points="82.08 79.86 97.8 86.73 98.02 72.47 82.3 65.59 82.08 79.86"/><polygon class="cls-14" points="113.73 80.36 97.8 86.73 98.02 72.47 113.95 66.09 113.73 80.36"/><polygon class="cls-15" points="82.3 65.59 98.02 72.47 113.95 66.09 98.23 59.09 82.3 65.59"/><polygon class="cls-16" points="82.08 152.56 97.8 159.43 98.02 145.16 82.3 138.29 82.08 152.56"/><polygon class="cls-17" points="113.73 153.05 97.8 159.43 98.02 145.16 113.95 138.79 113.73 153.05"/><polygon class="cls-18" points="82.3 138.29 98.02 145.16 113.95 138.79 98.23 131.78 82.3 138.29"/></svg>