<svg height="512pt" viewBox="0 0 512 512" width="512pt" xmlns="http://www.w3.org/2000/svg"><path d="m512 256c0 141.386719-114.613281 256-256 256s-256-114.613281-256-256 114.613281-256 256-256 256 114.613281 256 256zm0 0" fill="#ffa300"/><path d="m129.191406 319.191406 185.945313 185.945313c98.363281-23.261719 174.792969-103.265625 192.816406-203.546875l-180.289063-180.289063zm0 0" fill="#fa5d0f"/><path d="m343.738281 184.214844c-19.617187-63.96875-87.378906-99.921875-151.347656-80.300782-63.96875 19.617188-99.921875 87.378907-80.304687 151.347657 19.621093 63.96875 87.382812 99.921875 151.351562 80.304687 63.96875-19.621094 99.921875-87.382812 80.300781-151.351562zm0 0" fill="#fff"/><path d="m343.761719 184.21875c-19.621094-63.972656-87.386719-99.925781-151.359375-80.304688-19.804688 6.074219-36.921875 16.765626-50.539063 30.527344l172.484375 170.253906c30.113282-30.6875 42.90625-76.480468 29.414063-120.476562zm0 0" fill="#e9edf5"/><path d="m442.855469 362.933594-89.023438-81.753906c15.054688-30.835938 18.925781-67.214844 8.09375-102.53125-22.660156-73.886719-101.207031-115.558594-175.09375-92.898438s-115.5625 101.207031-92.902343 175.09375c22.664062 73.882812 101.207031 115.558594 175.09375 92.898438 8.898437-2.730469 17.328124-6.269532 25.234374-10.511719l90.425782 83.042969zm-184.972657-45.519532c-53.855468 16.515626-111.105468-13.859374-127.621093-67.714843-16.519531-53.851563 13.859375-111.101563 67.710937-127.621094 53.855469-16.515625 111.105469 13.859375 127.625 67.714844 16.515625 53.851562-13.863281 111.101562-67.714844 127.621093zm0 0" fill="#2864f0"/><path d="m442.855469 362.933594-89.023438-81.753906c15.058594-30.835938 18.925781-67.214844 8.09375-102.53125-22.660156-73.886719-101.207031-115.558594-175.09375-92.898438-22.902343 7.023438-42.703125 19.417969-58.460937 35.378906l27.042968 26.6875c11.476563-11.605468 25.890626-20.625 42.558594-25.738281 53.855469-16.515625 111.105469 13.859375 127.621094 67.714844 11.351562 37.015625.554688 75.632812-24.796875 101.527343l21.882813 21.601563 87.125 86zm0 0" fill="#27488f"/><g fill="#fa5d0f"><path d="m168.125 160.589844v27h27.582031l-27.351562-27zm0 0"/><path d="m168.125 206.246094v27h73.835938l-27.355469-27zm0 0"/><path d="m168.125 251.898438v27h119.605469v-.472657l-26.871094-26.527343zm0 0"/></g><path d="m287.730469 160.589844h-119.375l27.351562 27h92.023438zm0 0" fill="#f24500"/><path d="m287.730469 206.246094h-73.125l27.355469 27h45.769531zm0 0" fill="#f24500"/><path d="m260.859375 251.898438 26.871094 26.527343v-26.527343zm0 0" fill="#f24500"/></svg>