<svg xmlns="http://www.w3.org/2000/svg" width="42.101" height="38.161" viewBox="0 0 42.101 38.161">
  <g id="Value_Icon_03" data-name="Value Icon 03" transform="translate(1455.883 -3123.017)">
    <path id="Path_468" data-name="Path 468" d="M628.058,190.278l15.318,26.81a4.675,4.675,0,0,1-4.058,6.994H608.682a4.674,4.674,0,0,1-4.058-6.994l15.318-26.81a4.672,4.672,0,0,1,8.116,0Z" transform="translate(-2058.832 2936.096)" fill="none" stroke="#ed9ae4" stroke-linecap="round" stroke-linejoin="round" stroke-width="2"/>
    <path id="Path_469" data-name="Path 469" d="M622.889,207.6a2.265,2.265,0,0,1-3.628-.588l-.816-1.636a7.588,7.588,0,0,0-2.222,5.366v.19a7.778,7.778,0,1,0,15.556,0,6.962,6.962,0,0,0-2.6-5.424l-1.206-.972a6.973,6.973,0,0,1-2.422-3.878l-.444-1.948a8.808,8.808,0,0,0-2.408,7.956Z" transform="translate(-2058.832 2936.096)" fill="none" stroke="#ed9ae4" stroke-linecap="round" stroke-linejoin="round" stroke-width="2"/>
  </g>
</svg>
